<svg xmlns="http://www.w3.org/2000/svg" width="1000.038" height="206.112" preserveAspectRatio="xMidYMid" version="1.0" viewBox="0 0 750.029 154.584"><path fill="currentColor" d="M465.142.361c12.471 1.696 22.941 8.247 31.13 16.069 2.437 1.936 4.512 4.057 6.163 6.24.905.993 5.992 7.232 9.316 12.699 3.412 5.609 5.532 9.57 12.312 22.998 8.245 16.33 11.315 21.708 15.982 27.997 10.49 14.134 22.978 23.19 36.042 26.134 9.91 2.233 19.589.873 29.815-4.191 5.635-2.79 10.027-5.764 15.26-10.333 5.934-5.18 10.113-9.858 20.73-23.2 4.412-5.544 9.073-11.314 10.358-12.822 4.092-4.8 15.188-15.645 16.008-15.645.062 0 .454-.32.871-.71 2.607-2.448 11.493-7.64 16.465-9.622 14.814-4.879 28.859-5.544 44.341-.287 7.123 2.996 10.676 5.667 15.15 9.823 1.698 1.852 3.997 5.1 4.217 6.328 0 .817-.08.98-.476.98-.326 0-.657-.359-1.054-1.145-.818-1.62-2.464-3.783-4.254-5.59-5.913-5.968-15.07-9.955-26.736-11.641-3.607-.521-12.51-.385-16.645.255-5.67.877-11.822 2.646-15.755 4.53-.66.316-.984.502-.72.413.264-.088 1.83-.626 3.48-1.194 12.01-3.399 24.68-3.787 35.135-1.274 3.679.925 7.509 2.344 10.825 4.012 3.33 1.705 10.587 7.514 12.6 9.876 1.121 1.172 2.128 2.9 2.862 4.17.522.932.978 1.757.978 2.783 0 .88-.08 1.077-.435 1.077-.268 0-.6-.349-.862-.905-.843-1.79-3.168-5.041-4.938-6.906-6.22-6.552-15.164-10.91-26.645-12.985-6.988-.618-12.75-1.192-19.54.017-4.375.789-10.917 2.55-10.612 2.858.058.058.815-.114 1.682-.383 2.58-.8 7.52-1.433 9.564-1.836 3.826-.555 7.2-.357 11.122-.111 2.02.31 9.703 1.198 14.504 2.796 1.782.593 4.86 1.876 6.84 2.852 3.583 1.766 7.974 4.502 8.209 5.116.067.177.265.321.44.321 4.737 4.342 7.268 7.904 10.164 12.628.53.674.633 2.534.123 2.731-.422.163-.737-.202-.975-1.128-.085-.332-.224-.657-.31-.724-.084-.066-.463-.663-.84-1.326-5.089-8.933-15.403-16.087-27.85-19.315-11.831-3.068-23.99-2.431-35.115 1.84-1.096.42-1.956.802-1.91.848.045.045.834-.192 1.753-.527 10.426-3.26 20.715-3.786 30.591-1.74 8.127 1.71 15.302 5.136 21.476 9.737 4.69 3.919 8.211 6.55 11.06 11.374.255.505.53.973.612 1.039.615 1.673 1.91 3.464 2.132 5.076 0 1.572-.688 1.257-1.68-.77-2.145-4.38-5.783-9.104-9.55-12.4-15.525-13.58-40.136-17.044-58.67-8.258-2.4 1.138-2.724 1.518-.398.466 6.421-2.386 14.032-4.12 20.318-4.132 11.752.004 23.32 4.03 32.73 10.366 4.338 2.812 7.464 6.368 10.17 9.008 2.625 3.34 4.805 6.286 6.586 9.415.855 1.915.991 3.53.298 3.53-.418 0-1.484-1.546-1.484-2.154 0-.153-.114-.41-.253-.57s-.744-1.175-1.344-2.256c-6.491-11.685-19.953-20.868-35.123-23.961-3.946-.804-6.702-1.062-11.28-1.055-5.515.01-9.943.622-14.724 2.037-1.928.57-6.71 2.399-6.59 2.52.044.043 1.158-.301 2.477-.765 5.383-1.892 10.605-2.74 16.877-2.74 11.63 0 23.036 3.413 32.685 9.779 2.61 1.722 6.112 4.501 6.54 5.192.16.256.404.466.542.466 4.29 5.614 9.869 11.57 11.343 16.19.734 1.644 1.03 3.588.41 3.588-.882-1.065-1.696-2.962-2.363-4.23-1.11-3.42-3.202-5.51-4.955-7.79-8.044-10.483-21.224-17.998-35.882-20.46-3.673-.617-12.89-.618-16.2-.002-28.54 7.285-40.491 28.708-51.234 48.522-9.6 17.727-12.703 22.759-18.87 30.596-2.842 3.611-9.426 10.376-12.456 12.797-4.317 3.451-9.92 6.84-13.8 8.345-.792.308-1.548.639-1.68.736-.489.36-3.69 1.17-6.633 1.678-2.684.464-3.667.512-8.52.418-6.103-.12-8.101-.44-12.669-2.036-11.83-4.445-21.472-13.435-28.52-23.27-6.012-8.717-10.067-17.747-17.58-39.153-5.676-16.169-7.921-21.836-11.277-28.461-8.3-16.382-19.723-27.946-32.393-32.79-5.564-2.128-8.52-2.655-14.888-2.658-4.302 0-5.439.08-7.767.55-12.53 2.537-24.092 9.324-38.66 22.695-1.657 1.521-7.495 7.282-12.973 12.802-9.79 9.864-13.475 13.31-18.96 17.726-21.869 17.605-41.811 22.096-59.433 13.383-7.142-3.531-11.91-7.445-24.207-19.87-11.97-12.095-15.264-15.013-20.91-18.522-18.106-11.256-38.406-7.522-62.932 11.575-4.108 3.199-7.873 6.484-15.398 13.431-3.63 3.352-7.577 6.957-8.772 8.012-14.197 12.538-25.595 19.563-36.705 22.623-8.914 2.24-17.197 2.44-25.803.004-6.514-1.884-13.106-5.141-19.68-9.725-8.299-5.723-16.647-15.061-23.497-21.026-.182 0-2.719-2.361-5.638-5.246-5.9-5.83-9.535-9.06-14.185-12.603-12.193-9.29-23.527-13.461-35.16-12.942-7.811.349-14.099 2.271-19.68 6.017-2.334 1.567-6.068 5.373-7.44 7.584-.594.957-1.218 1.744-1.387 1.747-.495.01-.622-.683-.345-1.887.154-.673.168-1.154.035-1.202-.553-.2-.086-3.038.572-3.477.206-.137.17-.259-.135-.439-.583-.345-.543-1.777.08-2.789.275-.447.599-.812.72-.812s.22-.11.22-.244c0-.146-.187-.125-.469.052-.258.162-.552.21-.654.108-.315-.317-.208-2.098.139-2.313.178-.11.3-.512.272-.892-.13-1.72-.066-2.343.266-2.594 3.495-3.842 6.418-6.977 11.309-9.304 4.155-1.937 9.197-2.885 12.837-3.238 4.136-.504 7.158-.025 10.2.147 1.92.285 6.43.999 9.624 2.03 1.472.475 3.891 1.441 5.376 2.147 3.011 1.432 3.659 1.568.96.202-6.984-3.536-14.673-5.397-22.297-5.397-10.98 0-20.244 3.755-26.003 10.537-.88 1.037-1.78 1.885-2 1.885-.528 0-.712-1.792-.222-2.161 2.416-2.928 4.193-4.574 7.054-6.788.869-.785 5.246-2.897 7.685-3.708 7.55-1.997 15.416-2.44 22.458-1.234 7.98 1.436 15.506 4.857 23.585 10.72 2.506 1.82 6.6 5.216 6.6 5.476 0 .125.14.227.311.227.434 0 7.13 6.476 7.13 6.895 0 .188.136.341.302.341.38 0 5.424 5.125 12.462 12.663 10.89 11.66 17.491 17.592 25.188 22.628 15.976 10.453 31.606 12.274 48.632 5.665 5.805-2.253 13.359-6.517 19.473-10.991 6.796-4.974 11.39-8.981 25.481-22.228 18.334-17.235 31.83-26.3 44.741-30.048 9.563-2.24 18.556-1.823 28.26 1.478 4.628 1.824 8.654 3.953 18 9.518 13.294 7.915 20.71 10.868 30.26 12.052 3.426.425 11.244.175 14.92-.476 9.012-1.597 16.992-4.42 26.85-9.498 5.81-2.993 9.967-5.479 16.308-9.749 2.616-1.762 4.848-3.203 4.96-3.203.111 0 .238-.1.282-.22 9.529-7.149 17.959-13.485 27.265-19.8 3.537-2.39 6.489-4.041 9.895-6.06.066-.082.984-.584 2.04-1.115 11.803-5.934 23.197-8.26 33.96-6.933zm-21.355 3.885c-7.655 2.39-15.615 6.482-25.085 12.894-4.348 2.944-7.581 5.322-18.639 13.708-17.167 13.02-29.721 20.31-42.788 24.845-9.056 3.144-15.92 4.283-24.443 4.058-6.023-.16-9.732-.812-15.533-2.733-4.431-1.466-11.166-4.667-16.557-7.87-11.452-6.801-13.902-8.174-17.732-9.934-3.102-1.426-7.429-2.891-10.38-3.516-3.228-.684-8.04-1.031-10.648-.768l-2.16.217 2.82.033c5.296.312 10.693 1.325 15.512 3.267 5.553 2.285 7.937 3.674 19.108 11.127 9.189 6.131 12.065 7.868 16.79 10.134 8.014 3.845 14.968 5.362 23.4 5.106 17.13-.521 35.98-9.414 58.989-27.83 6.671-5.019 13.369-10.268 20.376-15.76 5.945-4.17 12.125-8.028 20.365-11.587C457.753.006 484.234.522 508.671 36.483c3.714 5.653 8.738 15.378 14.917 28.879 8.87 19.378 14.713 29.04 22.674 37.497 9.43 10.018 18.958 15.8 29.654 17.993 3.123.64 9.211.872 12.59.48 7.066-.823 14.946-3.9 21.948-8.575 7.43-4.96 15.47-12.825 22.833-22.332.922-.338 8.693-12.74 7.055-10.058-5.583 7.555-13.755 15.613-21.03 22.274-1.335 1.232-6.094 4.515-9 6.209-6.24 3.635-17.03 6.233-19.837 6.52-5.669.33-11.583.491-16.528-.687-14.044-3.58-27.9-14.648-38.649-30.87-4.267-6.44-7.144-11.722-15.636-28.702-2.919-5.837-6.29-12.349-7.491-14.472-10.764-19.02-24.208-31.633-38.869-36.469-10.337-3.562-19.088-3.137-29.515.076m8.035 2.853c-9.592 1.71-18.703 5.678-29.28 12.753-4.204 2.812-12.087 8.816-19.08 14.531-15.744 12.868-24.52 18.855-35.88 24.474-9.708 4.802-18.126 7.397-26.52 8.177-10.161.943-18.824-.737-28.44-5.516-4.757-2.364-8.447-4.623-17.64-10.796-7.503-5.039-10.31-6.746-14.077-8.559-7.912-3.809-15.72-5.211-23.352-4.195-1.644.219-3.029.438-3.078.488 4.47-.111 10.035-.174 14.227.605 5.683 1.149 11.517 3.705 17.816 7.805 1.35.88 6.156 4.406 10.68 7.837 12.174 9.233 16.501 11.994 22.698 14.481 5.92 2.376 11.11 3.402 17.254 3.41 9.185.01 18.122-2.333 28.512-7.477 11.274-5.58 21.324-12.797 36.917-26.506 9.615-8.503 20.038-16.523 30.403-21.843 10.283-5.261 20.595-7.655 29.696-6.894 16.513.275 34.112 13.88 45.171 31.186 3.928 6.183 7.85 14.138 14.005 28.402 8.036 18.626 11.926 26.222 17.252 33.69 12.789 17.93 30.337 27.792 46.516 26.142 9.428-.962 18.62-5.001 27.36-12.022 5.02-4.032 11.757-11.19 16.766-17.812 3.82-5.051 5.638-7.785 5.077-7.637-10.573 12.174-18.955 21.604-30.443 26.703-6.105 2.764-13.14 4.646-19.543 5.031-8.107.094-13.97-1.148-21.177-4.643-9.051-4.418-17.855-12.088-25.268-22.014-5.213-6.98-10.122-16-17.688-32.503-3.919-8.547-8.41-17.584-10.79-21.707-8.58-14.868-19.186-25.714-30.665-31.36-4.957-2.439-9.767-3.89-15.147-4.572-2.481-.314-9.737-.113-12.282.341m-1.44 5.293c-8.645 1.846-16.138 5.19-25.44 11.35-6.436 4.262-10.965 7.843-23.04 18.221-12.873 11.062-19.148 15.795-28.08 21.18-3.453 2.082-10.7 5.754-13.68 6.933-13.967 5.524-26.62 6.317-38.234 2.396-3.89-1.313-10.196-4.543-14.446-7.398-3.673-2.468-5.203-3.593-13.92-10.229-9.458-7.2-14.43-10.145-20.674-12.242-4.808-1.616-6.927-1.948-12.326-1.931-2.64.008-5.268.113-5.84.232-.75.157.365.22 3.96.224 5.571.007 8.417.42 12.612 1.833 7.922 2.668 14.13 6.73 26.444 17.307 12.44 10.685 19.2 15.081 27.264 17.733 9.478 3.116 19.342 2.852 30.083-.803 9.894-3.367 19.985-9.273 31.092-18.198 4.167-3.348 6.697-5.56 13.698-11.969 25.585-23.394 36.494-28.663 53.527-32.114 3.563-.504 10.766-.377 14.26.25 3.729.67 8.777 2.373 12.31 4.152 11.74 7.018 17.69 13.098 26.33 24.763 4.936 7.662 8.47 15.172 15.612 33.182 7.71 19.444 12.537 28.905 18.96 37.162.994 1.279 1.808 2.384 1.808 2.457s1.863 2 4.14 4.285c9.066 9.096 17.57 13.873 28.02 15.74 3.292.589 9.114.534 12.763-.12 15.72-2.814 30.607-14.786 44.186-35.535 3.364-5.14 3.159-4.777 2.705-4.777-5.393 6.925-10.571 13.755-17.201 19.536-5.062 4.109-11.073 8.114-15.963 10.31-3.345 1.634-6.467 2.693-9.851 3.659-2.361.674-4.463 1.105-9.439 1.097-6.322-.01-8.166-.284-13.31-1.98-10.01-2.787-21.441-13.18-27.606-19.772-4.898-5.893-8.339-11.37-12.923-20.568-2.897-5.814-4.19-8.677-9.52-21.07-5.043-11.729-7.42-16.601-11.314-23.19-8.887-15.037-20.178-25.514-32.487-30.147-5.723-2.154-9.635-2.789-16.44-2.667-4.386.079-5.592.185-8.04.708m5.76 4.015c-12.249 1.15-24.238 6.731-38.278 17.817-4.97 3.923-7.972 6.549-17.408 15.219-12.796 11.757-22.42 18.995-32.79 24.657-17.578 9.598-34.602 10.911-49.275 3.8-6.357-3.082-11.547-6.832-22.604-16.336-8.92-7.667-14.194-11.488-19.376-14.036-7.34-3.61-15.073-4.995-22.42-4.017-3.008.4-6.606 1.111-6.444 1.273.049.05 1.049-.08 2.222-.289s3.591-.443 5.373-.521c7.145-.313 13.674 1.13 20.252 4.472 6.887 3.501 11.617 7.214 23.626 18.548 7.546 7.12 11.286 10.25 16.002 13.388 16.406 10.917 34.138 10.164 54.84-2.326 8.763-5.287 16.265-11.447 29.39-24.13 7.192-6.95 11.577-10.987 15.73-14.48 9.755-8.695 22.301-15.084 33.24-18.528 5.47-1.434 12.546-2.205 18.02-1.385 7.73 2.108 9.83 2.652 14.457 4.979 12.409 8.61 18.053 13.149 27.338 28.308 3.95 6.923 6.775 13.499 13.506 31.445 4.655 12.411 6.325 16.493 9.093 22.225 3.164 6.55 5.953 11.24 9.423 15.847.772 1.025 1.403 1.904 1.403 1.954s.646.786 1.435 1.635c.79.849 1.447 1.652 1.462 1.784.04.369 6.092 5.96 8.263 7.634 9.013 6.951 19 10.466 28.44 10.009 6.067-.294 10.85-1.549 16.68-4.375 10.638-5.158 20.578-14.772 30.072-29.088 2.312-3.486 7.008-11.157 7.008-11.448 0-.507-.684.305-2.187 2.594a136 136 0 0 1-3.633 5.213c-2.231 3.317-3.7 5.014-5.952 7.583-4.382 5.032-9.484 9.844-14.028 13.23-14.861 11.072-31.255 13.091-46.65 5.746-9.023-4.575-15.673-10.559-22.454-17.973-7.292-9.204-11.852-18.006-20.29-39.166-7.575-18.993-10.691-25.486-16.212-33.773-3.29-4.939-6.062-8.384-9.714-12.068-7.77-7.842-15.717-12.472-24.988-14.557-4.463-1.005-8.284-1.267-12.572-.864m-3.96 5.513c-5.083.893-9.648 2.455-15.24 5.214-9.658 4.766-19.514 12.302-32.827 25.101-9.026 8.677-12.309 11.726-16.253 15.096-23.212 19.83-43.66 26.73-61.92 20.89-8.442-2.7-15.967-7.804-27.376-18.571-9.264-8.742-11.287-10.542-15.104-13.432-6.564-4.97-12.404-7.83-18.775-9.194-2.489-.534-7.386-.913-7.383-.572 6.859-.271 17.104 4.06 23.638 8.662 4.422 3.179 6.962 5.51 16.8 15.422 14.208 14.314 18.086 17.516 25.44 21.008 12.492 5.93 25.445 5.182 40.2-2.323 11.035-5.612 20.647-13.398 35.76-28.966 19.359-19.972 44.513-45.177 77.419-33.14 3.686 1.82 9.997 4.67 18.581 13.4 0 .072.627.794 1.393 1.602.765.81 2.367 2.761 3.559 4.338 3.772 4.992 5.87 8.343 8.889 14.204 1.093 2.122 1.99 3.785 1.993 3.694.003-.09-.737-1.734-1.646-3.653-8.584-18.121-20.647-30.88-34.468-36.46-2.645-1.067-6.786-2.182-9.36-2.52a336 336 0 0 1-2.64-.355c-1.657-.238-8.062.095-10.68.555M21.502 43.887c-6.918 1.5-12.601 4.513-16.68 8.843-1.076 1.142-1.185 1.3-.352.511.665-.63 1.272-1.145 1.35-1.145s.534-.36 1.013-.802c1.33-1.224 4.794-3.192 7.496-4.258 5.048-1.727 10.947-2.89 15.693-2.9 3.234.037 6.412.33 9.6.955 8.828 1.762 17.658 6.332 27.304 14.13 3.97 3.21 5.562 4.656 11.996 10.893 2.937 2.846 5.34 5.035 5.34 4.864 0-.409-1.93-2.38-2.33-2.38-.17 0-.31-.163-.31-.362 0-.2-.125-.362-.279-.362s-1.963-1.657-4.02-3.683c-14.58-14.357-25.265-21.26-36.998-23.905-4.252-.959-5.702-1.087-11.263-1-4.161.065-5.624.182-7.56.601m498.123 43.266c6.282 18.139 10.036 27.442 13.762 34.107 2.815 5.033 6.821 10.678 10.081 14.205a64.5 64.5 0 0 0 7.893 7.58c2.614 2.133 6.385 4.54 9.514 6.076 1.665.816 3.087 1.57 3.161 1.674.228.323 4.303 1.65 6.706 2.14 10.436.397 14.748.752 23.04-2.89 3.627-1.515 8.592-4.56 12.48-7.654 2.878-2.29 9.31-8.842 12.044-12.269 5.085-6.373 8.816-12.124 14.202-21.888 1.016-1.843 1.032-2.239.02-.482-.364.63-1.738 2.773-3.053 4.763-9.328 14.113-19.113 23.76-29.933 29.51-12.105 6.435-25.757 6.792-38.077.997-8.594-3.842-15.97-10.156-22.054-17.723-7.207-9.105-12.254-19.084-19.796-39.137-.96-2.555-1.78-4.613-1.82-4.573s.784 2.544 1.83 5.564"/></svg>