<svg xmlns="http://www.w3.org/2000/svg" width="5331.587" height="11996.093"><g fill="currentColor"><path d="M1914.92 11996.093c-862.028-1256.455-968.693-1737.24-720.424-1922.68 152.81-114.133 439.584-115.827 767.224-117.733 356.16-2.08 760.72-4.454 1092.6-151.934 232.053-103.12 393.333-220.386 493.293-346.133 108.72-136.747 144.894-283.6 120.76-433.253-24.186-149.894-108.826-302.707-241.666-451.174-225.854-252.373-590.894-491.96-1035.04-682.946-266.534-114.627-335.094-212.494-298.587-301.774 40.533-99.12 211.64-186.413 384.067-274.373 179.986-91.827 361.44-184.4 395.146-290.44 36.414-114.48-99.786-246.093-597.346-412.467-898.16-300.346-1249.503-551.226-1205.36-797.68 44.065-246.04 483.2-486.426 1166.213-766.586 418.013-171.467 707.733-361.627 852.333-552.027 82.574-108.746 117.707-217.533 102.254-322.866-15.48-105.4-81.64-207.574-201.614-303.027-233.906-186.08-671.826-346.413-1337.08-455.56-387.121-63.52-526.26-146.653-511.494-241.307 24.729-158.493 486.148-347.12 933.588-530.04 417.72-170.76 823.24-336.533 847.053-465.573 11.72-63.56-71.24-118.8-294.72-162.147-264.933-51.413-513.987-92-731.813-127.506-471.814-76.907-797.49-129.987-821.162-218.4-25.024-93.507 288.122-223.774 1123.975-459.054 1054.32-296.8 1416.72-413.066 1391.093-508.8-14.746-55.08-158.573-105.24-373.213-180.08-114.373-39.866-248.787-86.746-394.48-145.213-124.747-50.04-244.947-93.92-355.253-134.147-242.574-88.52-437.44-159.64-528.2-241.173h8.32c91.586 78.867 283.56 148.933 521.72 235.84 110.373 40.267 230.666 84.16 355.426 134.227 145.654 58.44 279.96 105.266 394.24 145.106C3433.053 590.6 3578 641.147 3593.52 699.133c26.907 100.507-336.68 217.827-1394.947 515.72-832.013 234.2-1144.125 362.44-1120.11 452.12 22.725 84.894 346.964 137.76 816.71 214.32 217.934 35.52 467.12 76.134 731.974 127.52 227.333 44.107 311.466 101.72 299.093 168.76-24.36 132.08-431.267 298.427-850.413 469.76-446.027 182.334-905.954 370.36-930.191 525.68-14.23 91.227 123.735 171.987 506.924 234.854 666.213 109.306 1104.987 270.04 1339.56 456.653 121.187 96.413 188.027 199.8 203.72 306.667 15.693 106.92-19.827 217.16-103.373 327.173-145.187 191.2-435.694 381.96-854.614 553.8-681.293 279.466-1119.22 518.746-1162.853 762.373-43.565 243.213 306.733 492.013 1201.667 791.267 501.506 167.706 638.293 301.92 600.893 419.6-34.453 108.32-216.947 201.413-397.947 293.76-171.506 87.493-341.693 174.32-381.44 271.493-35.213 86.12 32.88 181.36 295.64 294.36 444.84 191.293 810.56 431.373 1036.947 684.36 133.56 149.24 218.68 303.053 243.04 454.067 24.4 151.266-12.12 299.626-121.907 437.733-100.506 126.44-262.48 244.24-495.386 347.747-332.92 147.933-738.08 150.306-1094.774 152.4-326.68 1.906-612.613 3.586-764.001 116.666-245.825 183.614-137.865 662.84 723.895 1918.107z"/><path d="M2009.293 11996.093c-933.313-1302.36-1069.672-1784.413-828.121-1970.64 138.34-106.667 400.161-115.707 706.988-126.307 340.187-11.746 735.867-25.413 1078.76-176.146 270.813-119.04 459-250.76 574.373-389.574 111.974-134.733 155.307-276.146 139.027-419.173-16.28-143.2-92.293-288.147-219-429.693-203.04-226.88-536.133-444.92-962.173-633.187-313.88-138.693-386.28-250.147-344.56-349.48 36.56-86.973 161.12-163.773 287.186-241.507 130.507-80.44 262.64-161.906 298.694-255.586 45.213-117.48-60.96-255.56-512.24-438.24-777.387-314.68-1073.004-576.494-1029.588-826.614 43.353-249.813 425.388-486.866 1003.48-752.786 367.72-169.12 637.348-363.133 777.294-559.427 80.894-113.493 118.36-227.72 106.267-338.24-12.093-110.533-73.787-217.546-191.213-316.706-198.294-167.427-555.174-312.227-1100.067-413.44-344.84-64.054-466.319-146.667-449.827-240.054 27.36-154.893 439-337.386 837.027-513.826 371.973-164.907 732.013-324.534 752.653-448.907 11.28-67.933-80.56-125.987-330.52-169.613-216.6-37.814-422.933-70.227-610.546-99.707-551.227-86.6-941.3-147.88-966.843-249.133-25.312-100.36 307.59-237.454 1196.616-473.267 1074.293-284.96 1448.373-413.933 1422.8-515.333-16.893-67.027-209.347-123.907-489.893-206.827-118.227-34.947-252.04-74.507-394.747-121.373l-19.333-6.347C2385.8 198.053 2099.893 104.147 1953.333 0h9.56c147.294 101.587 429.814 194.387 780.587 309.573l19.32 6.36c142.92 46.934 276.533 86.427 394.573 121.32 282.347 83.467 476.04 140.72 493.72 210.84 26.654 105.68-348.533 236.2-1426.746 522.2-885.187 234.814-1217.038 369.787-1192.671 466.387 24.621 97.64 413.204 158.693 962.337 244.973 187.414 29.44 393.534 61.827 610.627 99.72 253.867 44.307 346.907 104.72 335.053 176.107-21.146 127.427-382.546 287.64-755.92 453.16-396.693 175.853-806.96 357.747-833.786 509.64-15.88 89.987 104.48 170.173 445.373 233.507 545.893 101.413 903.627 246.64 1102.6 414.64 118.613 100.146 180.947 208.453 193.213 320.44 12.254 112.013-25.6 227.56-107.333 342.2-140.48 197.08-410.88 391.72-779.48 561.266-576.453 265.147-957.335 501.107-1000.284 748.587-42.904 247.16 251.764 506.906 1026.15 820.36 455.24 184.28 561.787 325.013 515.387 445.573-36.76 95.48-169.693 177.44-301.013 258.387-125.28 77.24-249.08 153.573-284.933 238.906-40.427 96.214 31.613 205.027 341.653 342.027 426.733 188.573 760.48 407.093 964.067 634.547 127.48 142.453 203.986 288.466 220.413 432.893 16.467 144.587-27.28 287.48-140.32 423.48-115.92 139.467-304.773 271.693-576.4 391.107-343.813 151.133-740.067 164.84-1080.733 176.6-305.907 10.56-566.915 19.573-703.872 125.16-239.031 184.293-101.418 664.812 831.645 1966.133z"/><path d="M2107.213 11996.093C1098.185 10645.88 929.805 10163.72 1165.35 9976.146c125.548-99.973 365.398-115.653 653.678-134.493 323.786-21.173 708.84-46.347 1060.493-199.387 314.533-136.893 533.653-283.32 666.213-434.773 114.374-130.653 164.254-265.04 155.387-400.24-8.867-135.307-76.533-271.613-197.267-406-183.453-204.187-489.226-403.813-897.24-588.76-375.813-170.347-449.52-296.387-401.973-406.707 30.787-71.4 112.493-135.653 195.747-201.106 83.2-65.427 167.946-132.054 203.933-207.6 58.227-122.174-11.36-268.947-422.88-475.187-656.56-329-896.416-601.747-853.732-855.533 42.639-253.534 367.545-487.267 840.692-738.92 315.613-167.867 567.947-368.213 705.827-572.853 80.946-120.12 122.413-241.694 114.013-358.96-8.4-117.174-66.627-230.227-185.08-333.427-164.12-142.973-443.667-267-866.08-356.947-303.227-64.56-407-146.653-388.347-238.76 30.467-150.52 392.04-325.986 741.054-495.346 328.053-159.2 644.96-312.987 662.8-433.227 10.866-73.147-90.707-134.6-371.254-178.4-157.626-24.6-309.053-47.107-451.96-68.333-648.773-96.36-1122.457-166.734-1150.216-283.254-25.569-107.36 327.178-251.586 1269.683-487.68 1095.933-274.52 1481.8-414.48 1456.227-521.866-19.414-81.494-277.027-146.254-641.36-237.867-111.894-28.12-233.827-58.773-362.014-93.253-330.6-88.92-585.813-173.814-738.24-267.267h10.147c152.333 91 404.293 174.333 729.48 261.8 128.147 34.467 250.053 65.107 361.907 93.24 366.24 92.067 625.226 157.187 645.426 242.027 26.534 111.346-360.413 253.16-1460.293 528.68-938.63 235.12-1290.293 377.173-1265.604 480.853 26.87 112.813 499.004 182.933 1145.63 279 143.294 21.28 295.147 43.827 452 68.32 284.507 44.413 387.28 108.227 375.907 184.84-18.293 123.213-336.52 277.64-665.906 437.493-347.8 168.774-708.094 343.614-738 491.387-17.974 88.707 84.746 168.347 384.053 232.067 423.387 90.146 703.733 214.626 868.533 358.186 119.667 104.254 178.507 218.64 187.014 337.334 8.493 118.6-33.32 241.386-114.987 362.56-138.413 205.426-391.44 406.4-707.84 574.68-471.653 250.866-795.507 483.493-837.775 734.84-42.232 251.106 196.815 521.826 850.722 849.506 415.413 208.173 485.026 357.653 425.413 482.747-36.547 76.733-121.84 143.786-205.547 209.613-82.666 65.013-163.826 128.813-194.026 198.893-46.267 107.294 27.24 230.694 399.133 399.267 408.707 185.24 715.093 385.32 899.053 590.093 121.614 135.347 189.787 272.814 198.734 409.454 8.96 136.746-41.374 272.52-156.8 404.386-133.08 152.067-352.827 298.974-668.16 436.2-352.52 153.414-738.067 178.64-1062.28 199.814-287.347 18.8-526.434 34.426-650.65 133.346-232.93 185.467-63.36 666.147 945.423 2015.467z"/><path d="M2208.853 11996.093C1119.467 10596.08 916.33 10115.106 1146.788 9925.413c114.475-94.24 335.519-115.987 607.879-142.787 307.173-30.213 679.786-66.88 1037.426-221.093 362.934-156.48 617.334-317.053 768.92-479.947 116.067-124.706 171.787-250.733 169.734-377.266-2.027-126.547-61.867-253.827-176.88-381-166.734-184.36-449.28-368.414-839.787-549.68-462.227-214.56-529.427-354.867-474.933-478.32 22.84-51.747 67.12-100.267 112.573-150.08 37.387-40.947 75.587-82.8 103.053-127.88 79.974-131.227 68.827-290.854-320.146-540.16-535.72-343.347-719.814-626.987-677.854-884.414 41.92-257.253 309.694-487.64 677.827-725.013 260.373-167.88 499.733-378.04 639.667-594.346 83.413-128.907 131.466-259.96 127.533-385.427-3.92-125.293-59.773-245.213-184.16-352.067-130.68-112.28-336.92-210.16-637.893-284.786-262.534-65.094-348.494-146.707-327.04-237.627 34.213-145.16 345.706-312.44 646.306-473.853 286.147-153.654 562.374-302 577.76-418.667 10.48-79.48-101.746-145.067-417.853-188.907-81.973-11.373-161.027-22.2-238.227-32.786-771.653-105.747-1358.59-186.187-1389.056-321.36-25.805-114.48 346.852-266.134 1343.043-502.267C3393.6 810.467 3791.373 660.867 3765.787 547.347c-22.387-99.294-369.84-173.187-842.107-273.64-90.12-19.147-184.747-39.28-281.44-60.48C2348.52 148.773 2122.707 78.72 1972.333 0h11.56c149.614 76.28 371.827 144.56 659.494 207.68 98.093 21.52 191.986 41.493 281.386 60.507 474.267 100.853 823.214 175.066 846.387 277.906 26.44 117.267-372.387 268.96-1495.253 535.107C1283.599 1316.4 912.025 1465.8 937 1576.667c29.622 131.373 614.919 211.6 1384.399 317.04 78.133 10.706 158.187 21.68 238.253 32.786 320.08 44.387 433.52 112.32 422.574 195.267-15.76 119.547-293.24 268.56-580.667 422.92-299.507 160.827-609.867 327.493-643.507 470.16-20.64 87.547 64.334 166.693 322.987 230.813 301.867 74.854 508.853 173.12 640.147 285.934 125.693 108 182.146 229.333 186.133 356.24 3.96 126.733-44.44 258.88-128.453 388.733-140.4 217-380.36 427.72-641.32 596-366.907 236.573-633.747 465.893-675.334 721.146-41.573 255.08 141.867 536.787 675.32 878.694 392.88 251.8 403.48 414.12 321.92 547.946-27.72 45.494-66.12 87.56-103.72 128.76-45.12 49.44-89.08 97.6-111.56 148.534-53.186 120.493 14.04 258.173 472.174 470.853 391.173 181.573 674.32 366.053 841.546 550.973 115.974 128.227 176.294 256.76 178.36 384.76 2.067 128.054-54.146 255.427-171.24 381.254-152.106 163.453-407.133 324.466-770.773 481.253-358.44 154.56-731.52 191.267-1039.053 221.52-271.454 26.707-491.751 48.387-604.944 141.56-227.736 187.453-23.504 667 1065.65 2066.28z"/><path d="M2314.36 11996.093c-1174.583-1451.627-1415.712-1930.08-1189.09-2123.053 105.166-89.547 310.703-116.987 570.263-151.627 290.52-38.787 648.907-86.627 1009.174-240.613 686.986-293.64 1042.8-575.36 1063.52-860.8 20.693-285.307-293.56-575.16-946.694-885.227-706.133-335.213-625.28-481.32-528.48-656.24 82.067-148.267 175.76-317.547-205.333-646.133-414.787-357.654-543.107-652.16-501.88-913.187 41.2-260.946 251.787-487.933 514.893-711.026 262.387-222.467 582.694-540.44 692.227-845.347 109.173-303.907 8.267-595.12-570.56-765.787-223.187-65.813-291.04-147.213-265.8-237.24 38.813-138.413 300.52-295.893 553.467-448.106 246.506-148.334 484.666-291.654 497.866-405.347 10.134-87.28-113.733-158.013-471.413-201.693-803.213-98.067-1459.745-180.934-1617.192-306.814-159.807-127.746 182.51-297.413 1381.192-566.746C3443.467 774.293 3853.253 616.08 3827.68 496.36c-26.04-121.827-503.787-206.24-1118.693-314.867l-126.2-22.333C2331.64 114.573 2133.947 61.413 1989.893 0h14.454c142.48 59.04 335.666 110.333 579.36 153.587l126.2 22.333C3326.893 284.907 3806.24 369.6 3833.08 495.173c26.347 123.334-384.507 283.774-1531.387 541.467-1190.253 267.44-1532.88 433.747-1378.985 556.773 156.241 124.92 812.065 207.654 1614.465 305.64 361.694 44.16 486.774 117.254 476.254 207.974-13.534 116.466-252.867 260.48-500.574 409.546-252 151.64-512.733 308.547-550.933 444.8-24.307 86.68 42.667 165.56 261.987 230.227 583.146 171.96 684.56 466.067 574.24 773.173-109.974 306.107-430.974 624.854-693.894 847.787-262.2 222.32-472.053 448.36-512.973 707.546-40.92 259.08 86.933 551.827 499.987 907.974 384.6 331.6 289.693 503.08 206.573 653.253-95.187 172-174.693 315.667 526.013 648.32 655.454 311.147 970.774 602.827 949.88 890.747-20.893 287.813-377.84 571.093-1066.92 865.626C2345.92 9640.28 1987.12 9688.173 1696.253 9727c-258.693 34.533-463.522 61.88-567.474 150.386-223.736 190.52 18.357 667.654 1192.728 2118.707z"/><path d="M2423.067 11996.093c-15.507-18.773-30.254-37.04-46.267-56.147C1152.168 10479.266 879.036 10014.2 1100.568 9818.88c97.679-86.12 291.272-119.107 541.779-161.774 274.013-46.68 616.306-104.986 974.946-257.04 713.027-302.306 1123.854-567.413 1189.814-837.24 65.826-269.32-212.68-544.28-878.094-866.92-780.786-378.546-752.346-508.826-710.586-700.253 29.426-134.853 65.546-300.427-177.64-608.213-293.854-371.894-366.374-677.2-325.88-941.814 40.466-264.52 193.826-488.053 351.813-696.773 47.84-63.2 110.147-136.2 178.093-215.813 187.894-220.147 419.014-490.947 505.827-743.893 88.493-257.84 26.6-497.467-385.64-646.24-185.787-67.054-234.813-149-203.947-238.934 44.48-129.626 256.827-274.866 462.854-415.8 209.466-143.266 412.373-282.066 423.64-393.466 9.813-96.96-126.76-174.227-533.427-217.467-823.707-87.613-1493.33-176.24-1646.105-309.733-154.88-135.347 209.736-314.574 1458.345-580.96 1241.6-264.894 1640.013-435.654 1554.253-564.067-86.6-129.653-659.12-218.507-1357.32-317.387-197.613-28-360.746-63.306-490.72-105.093h18.627c126.773 39.333 284.013 72.747 472.867 99.493 699.52 99.067 1273.213 188.2 1361.093 319.8 88.72 132.827-310.12 306.614-1557.68 572.787-1240.552 264.667-1605.424 440.453-1455.897 571.12 151.644 132.507 820.35 220.92 1643.097 308.413 410.733 43.68 548.493 123.294 538.347 223.68-11.534 114.04-215.494 253.547-426.054 397.574-205.266 140.4-416.853 285.133-460.733 412.96-29.747 86.693 18.587 166.066 200.573 231.746 416.2 150.2 478.547 392.547 389.014 653.44-87.16 253.987-318.667 525.24-506.867 745.76-67.88 79.52-130.133 152.454-177.88 215.534-157.547 208.133-310.467 430.986-350.747 694.186-40.253 263.12 32.027 566.947 324.72 937.387 244.88 309.92 208.427 476.946 178.747 612.986-41.2 188.814-69.227 317.307 707.56 693.934 668.213 323.986 947.667 601.026 881.093 873.386-66.44 271.84-478.36 538.094-1193.066 841.107-359.2 152.293-701.854 210.653-976.16 257.387-249.627 42.52-442.554 75.386-539.08 160.493-218.314 192.493 55.006 655.773 1276.84 2113.093 17.066 20.36 32.813 39.853 49.28 59.827z"/><path d="M2535.693 11996.093a9304 9304 0 0 0-107.053-125.415C1160.525 10411.16 854.635 9961.786 1072.472 9762.773c92.084-84.147 277.608-122.813 523.541-174.08 257.694-53.707 581.894-121.267 933.867-269.36 739.067-310.947 1204.96-559.44 1316.187-813.667 110.84-253.333-131.934-513.453-809.587-848.626-912.307-451.227-914.8-541.987-921.52-786.054-3.267-119.146-7.547-275.106-121.12-528.706-289.693-646.867-141.013-1096.933-22.853-1454.547 22.853-69.133 44.546-134.813 61.68-197.706 32.32-118.614 159.88-280.694 300.2-458.987 143.32-182.093 299.973-381.16 381.573-567.413 100.467-229.36 86.907-439.534-206.907-574.894-151.706-69.893-179.813-154.586-139.426-246.786 51.32-117.147 214.32-245.867 373.466-371.534 175.494-138.586 346.294-273.48 355.854-383.4 9.48-109.08-140.867-194.733-605.707-237.213-844.187-77.133-1526.903-171.52-1675.017-312.667-149.98-142.92 236.936-331.693 1535.497-595.16C3643.613 679.96 4045.867 498.88 3939.04 363.347c-107.987-137-726.88-229.6-1475.227-312.334-123.706-13.68-233.586-30.786-330.24-51.013h28.187c89.773 17.787 190.507 33 302.64 45.4 749.6 82.867 1369.733 175.88 1478.933 314.4 110.334 139.987-292.08 324.373-1590.08 587.72-1290.817 261.893-1677.94 447.16-1532.79 585.48 147.014 140.093 828.63 234.147 1671.737 311.173 468.947 42.854 620.48 130.867 610.707 243.334-9.76 112.386-181.52 248.026-357.96 387.373-158.614 125.253-321.054 253.533-371.8 369.387-39.027 89.066-11.374 171.133 136.626 239.306 297.694 137.147 311.467 350.054 209.694 582.347-81.907 186.947-238.8 386.307-382.307 568.653-139.947 177.84-267.173 339.48-299.187 456.974-17.186 63.093-38.906 128.813-61.76 197.986-117.853 356.694-266.16 805.573 22.64 1450.4 114.04 254.64 118.334 411.253 121.627 530.907 6.627 241.546 9.107 331.386 918.387 781.12 681.026 336.84 924.573 599.226 812.24 856-111.96 255.88-578.787 505.106-1319.12 816.6-352.454 148.28-676.947 215.92-934.894 269.68-245.066 51.066-429.953 89.613-520.957 172.746-214.443 195.934 91.376 643.707 1356.624 2099.934 38.24 44 74.867 87 110.173 129.173z"/><path d="M2650.413 11996.093c-53.306-62.894-109.293-127.386-169.946-194.693-1314-1457.92-1656.088-1891.76-1439.655-2096.88 88.48-83.88 270.26-128.734 517.121-189.64 241.4-59.56 545.2-134.534 884.547-276.294 765.08-319.586 1286.067-551.44 1442.613-790.053 155.787-237.4-51.306-482.68-741.146-830.347l-156.16-78.613c-548.32-275.867-792.334-398.613-905.067-523.027-90.8-100.173-96.427-200.866-106.56-382.266-5-89.52-11.107-198.787-29.12-337.374-56.48-434.426-5.667-782.253 35.96-1067.093 34.973-239.36 63.427-434.186 16.093-598.013-42.506-147.16 150.254-378.627 356.534-626.32 121.213-145.573 247.12-296.76 332.44-439.333 126.72-211.76 163.8-404.614-38.094-531.654-124.44-78.306-123.28-173.4-62.013-275.8 57.32-95.773 167.48-197.773 276.093-298.333 145.24-134.467 287.694-266.36 295.707-375.773 9.12-124.347-156.147-221.014-690.453-262.214-684.347-52.746-1262.843-126.44-1545.2-228.48-104.987-37.946-169.367-80.04-183.484-126.72-14.27-47.146 22.21-98.24 119.174-153.586 204.22-116.574 679.323-254.107 1518.243-416.187 1341.253-259.133 1747.333-450.573 1619.413-593.227C3870.04 162.08 3222.88 66.453 2440.573 0h65.574c754.08 66.32 1370.426 161.013 1495.36 300.333C4133.44 447.467 3727.453 642.44 2379.053 902.96c-838.306 161.96-1312.854 299.267-1516.582 415.56-94.275 53.813-129.995 102.68-116.58 147 13.55 44.8 76.738 85.693 180.049 123.04 281.835 101.853 859.847 175.453 1543.767 228.187 538.48 41.506 704.92 140.546 695.56 268.266-8.187 111.68-151.44 244.32-297.52 379.56-108.32 100.28-218.187 202.014-275.067 297.067-59.573 99.533-60.72 191.96 60.173 268.027 205.56 129.346 168.294 324.893 39.934 539.426-85.534 142.947-211.6 294.32-332.974 440.054-205.28 246.493-397.093 476.826-355.426 621.053 47.68 165.053 19.133 360.4-15.934 600.427-41.56 284.52-92.333 631.946-35.946 1065.546 18.04 138.867 24.16 248.213 29.16 337.8 10.053 180.08 15.64 280.027 105.08 378.733 112.066 123.654 355.786 246.267 903.466 521.787l156.16 78.613c693.88 349.734 901.52 597.467 743.307 838.587-157.44 239.933-679.133 472.16-1445.133 792.147-339.627 141.866-643.707 216.92-885.347 276.533-246.027 60.707-427.204 105.413-514.657 188.293-212.816 201.707 128.889 634.214 1439.977 2088.906 61.88 68.654 118.96 134.427 173.227 198.521z"/><path d="M2768.56 11996.093c-71.707-83.933-149.733-171.521-236.24-263.947C1170.37 10276.92 787.964 9858.026 1005.428 9644c86.979-85.614 269.955-137.6 524.639-209.947 224.72-63.84 505.373-143.573 825-276.187 104.053-43.173 205.973-85.04 303.693-125.173 720.973-296.147 1212.32-497.987 1321.2-721.133 96.76-198.32-110-414.894-728.533-732.24-319.827-164.094-571.094-279.28-766.8-369.014-668.094-306.306-690.68-316.653-584.147-958.786 34.227-206.387 74.933-393.787 111.893-563.934 111.094-511.493 188.28-866.853-46.186-1114.413-153.24-161.8 122.093-454.266 405.386-755.2 301.8-320.56 612.68-650.8 420.694-837.933-144.787-141.107 28.386-331.053 199.586-518.827 119.854-131.453 238.76-261.853 245.427-372.293 8.653-143.533-172.92-254.773-790.387-293.973-696.253-44.2-1283.353-119.08-1569.476-225.014-106.738-39.52-171.92-83.586-185.745-132.253-13.948-49.107 23.92-102.213 123.519-159.253 212.674-121.8 709.436-263.6 1588.689-425.587 867.267-159.76 1353.467-298.867 1560.667-417.707 95.746-54.92 131.333-105.066 117.066-150.533-14.44-45.96-79.253-87.867-184.053-125.707C3715.2 93.027 3412.707 40.133 3044.173 0h50.934c346.16 39.467 629.946 90.587 804.28 153.547 106.44 38.44 172.453 81.533 187.453 129.333 15.173 48.293-21.147 100.707-119.613 157.187-207.694 119.12-694.467 258.44-1562.387 418.333-878.6 161.84-1374.788 303.44-1586.975 424.96-96.956 55.533-134.062 106.413-120.909 152.747 13.29 46.773 77.296 89.626 182.317 128.506 285.599 105.734 872.167 180.534 1567.94 224.694 621.72 39.466 804.427 153.093 795.56 299.946-6.786 112.467-126.346 243.614-246.906 375.827-169.334 185.733-340.627 373.6-199.787 510.867 196 191.066-116.84 523.373-420.52 845.946-281.427 298.934-554.96 589.48-405.427 747.334 236.547 249.746 159.094 606.333 47.614 1119.586-36.934 170.013-77.6 357.28-111.84 563.627-105.814 637.84-83.36 648.133 580.96 952.706 195.733 89.734 447.026 204.96 767.013 369.12 622.04 319.16 829.467 538.014 731 739.827-109.813 225.08-601.947 427.227-1324.08 723.84-96.627 39.693-197.413 81.093-303.667 125.173-319.826 132.707-600.706 212.507-825.6 276.387-253.894 72.133-436.313 123.96-522.288 208.573-213.576 210.2 168.079 628.107 1527.035 2080.16 87.853 93.852 166.973 182.733 239.64 267.867z"/><path d="M2889.827 11996.093c-89.187-104.068-190.56-214.893-305.667-333.227-97.627-100.333-190.547-195.68-278.853-286.294C1361.213 10407.853 942.663 9978.386 913.028 9737.4c-23.787-193.507 200.096-264.88 602.265-393.12 206.694-65.894 460.68-146.88 752.374-267.147 241.493-99.56 466.653-186.987 670.493-266.147 606.907-235.666 1024.733-397.906 1118.387-586.653 87.293-175.92-108.44-376.413-697.654-683.88-441.693-230.467-789.8-363.88-1049.013-463.227-125.187-47.986-229.667-88.026-313.933-127.2-309.814-144.026-348.507-276.32-141.84-743.773 189.24-428.08 339.506-776.253 377.04-1054.946 37.426-277.867-37.4-486.8-297.92-637.44-123.014-71.12-124.867-175.36-57.307-298.214 91.173-165.826 309.48-365.693 525.56-563.506 308.613-282.547 612.68-560.92 532.973-726.987-59.986-124.933 63.96-284.933 189.294-446.707 101.4-130.84 203.693-262.893 209.173-377.093 8.04-167.2-192.08-297.68-908.427-333.84-708.24-35.747-1304.04-111.76-1593.946-221.48-108.471-41.067-174.458-87.08-187.994-137.747-13.646-51.08 25.592-106.213 127.779-164.946 221.11-127.134 739.575-273.334 1659.388-435.08 889.533-156.427 1387.92-297.64 1599.173-420.16 98.16-56.907 133.747-109.36 117.427-157.027-16.493-48.2-85.493-92.24-196.16-131.693C3844.733 61.8 3701.707 28.56 3530.347 0h33.493c157.28 27.36 289.213 58.787 388.133 94.053 112.28 40.027 182.44 85.187 199.547 135.174 17.307 50.533-18.987 105.28-119.907 163.8C3819.84 515.84 3320.853 657.293 2430.64 813.84c-919.133 161.627-1437.008 307.6-1657.62 434.427-99.6 57.28-138.076 110.2-125.159 158.533 13.007 48.747 77.83 93.507 184.584 133.92 289.4 109.547 884.595 185.44 1592.288 221.147 720.667 36.386 921.88 169.28 913.707 339.76-5.573 116.026-108.44 248.8-210.373 380.36-124.24 160.36-247.107 318.946-188.68 440.68 81.573 169.893-224.04 449.706-534.24 733.693-215.747 197.507-433.707 397.067-524.44 562.067-65.894 119.84-64.294 221.44 55.213 290.533 262.92 152.013 338.44 362.8 300.693 643.12-37.653 279.493-188.066 628.013-377.493 1056.493-204.76 463.173-166.72 594.12 139.093 736.293 84.2 39.147 188.56 79.134 313.587 127.067 259.4 99.413 607.747 232.92 1049.587 463.48 592.733 309.307 789.106 512.067 700.08 691.493-94.627 190.68-513.254 353.24-1121.36 589.374-203.894 79.173-429.08 166.613-670.387 266.106-291.947 120.36-546.013 201.374-752.773 267.294-399.36 127.333-621.675 198.213-598.455 387.013 29.387 239.067 447.535 668.107 1390.721 1635.893 88.307 90.614 181.214 185.96 278.84 286.294 116.56 119.812 219.027 231.933 309.174 337.213z"/><path d="M3013.373 11996.093c-105.306-123.36-230.186-257.135-377.373-402.493-203.853-201.308-389.067-382.695-555.8-545.96-793.256-776.814-1168.02-1143.8-1207.19-1366.16-35.342-200.694 199.549-282.747 644.777-438.267 185.6-64.827 407.893-142.48 662.466-246.8 352.547-144.48 677.747-260.32 958.227-360.227 540.987-192.706 915.467-326.093 998.627-491.026 79.333-157.334-107.774-345.04-670.747-643.56-509.88-270.36-941.573-406.814-1260.88-507.747-232.8-73.573-405.96-128.307-506.573-202.413-157.467-115.987-137.694-278.174 108.906-630.24 309.734-442.2 515.6-801.107 552.414-1083.467 36.706-281.426-95.04-486.96-460.174-623.453-157.053-58.72-194.946-147.427-156.893-254.44 69.867-196.573 398.667-454.547 712.533-700.827 314.494-246.746 613.974-481.733 621.24-629.32 4.92-100.093 88.854-221.093 175.934-346.626 94.2-135.787 192.12-276.947 196.613-401.24 7.053-195.054-216.493-350.12-1047.413-381.734-720.24-27.413-1324.786-104.44-1618.551-217.92-110.193-42.573-176.999-90.52-190.247-143.173-13.346-53.027 27.242-110.187 131.994-170.653C954.775 1075.8 1495 925.12 2455.56 763.707 3367.533 610.44 3878.187 467.173 4093.6 341.053c100.573-58.893 136.173-113.613 117.84-163.466-18.573-50.454-91.693-96.627-208.227-137.72-39.426-13.907-83.853-27.2-132.72-39.867h22.067c40.92 11.04 78.533 22.547 112.453 34.507 118.094 41.653 192.387 88.92 211.574 141.08 19.426 52.746-16.867 109.826-120.28 170.373C3880.4 472.387 3369.12 615.907 2456.44 769.28 1496.6 930.573 956.977 1081.027 727.945 1213.267 625.74 1272.293 585.93 1327.28 598.6 1377.6c12.757 50.707 78.387 97.373 186.867 139.293 293.217 113.267 897.12 190.16 1616.8 217.547 835.24 31.787 1059.88 189.307 1052.706 387.6-4.546 125.987-102.946 267.827-197.613 404.307-86.6 124.84-170.08 245.186-174.933 343.626-7.4 150.2-307.867 385.96-623.387 633.547-313.24 245.773-641.373 503.227-710.707 698.24-36.866 103.733.294 189.88 153.6 247.2 368.067 137.6 500.84 345.133 463.76 629.507-36.973 283.453-243.186 643.12-553.413 1086.026-244.187 348.627-264.427 508.747-110.16 622.373 99.88 73.56 272.68 128.187 504.973 201.6 319.534 101 751.507 237.52 1261.787 508.12 566.493 300.374 754.213 490.36 673.133 651.147-84.173 166.933-459.506 300.64-1001.72 493.787-280.373 99.866-605.453 215.653-957.986 360.133-254.734 104.387-477.094 182.067-662.747 246.907-442.287 154.493-675.635 236.013-641.136 431.92 38.848 220.533 413.188 587.106 1205.576 1363.066 166.373 162.92 351.187 343.907 555.813 545.974 148.734 146.88 274.88 282.026 381.094 406.573z"/><path d="M3138.933 11996.093c-119.173-141.533-267.853-298.12-451.093-471.76-291.453-276.187-545.88-512.747-765.6-717.067C1225.66 10159.6 877.083 9835.48 828.997 9625.32c-48.526-212.12 205.684-307.147 714.536-497.347 158.8-59.36 342.48-128.027 549.307-212.293 447.387-182.307 860.827-314.414 1202.947-423.72 501.52-160.227 849.586-271.44 925.226-419.187 72.694-141.96-107.493-319.453-647.186-610.027-555.72-299.213-1070.107-434.32-1450.827-534.32-291.28-76.506-504.48-132.506-598.733-225.933-112.467-111.493-56.32-274.8 237.2-586.16 430.24-456.427 691.72-826.146 727.826-1112.186 35.987-285.054-152.733-487.227-622.573-609.574-201.92-52.586-266.32-137.52-240.333-242.4 54.026-218.186 504.226-521.973 915.32-799.4 313.986-211.866 605.12-408.333 678.333-538.426 32.827-58.32 79.84-123.214 129.4-191.614 111.12-153.386 235.067-324.48 238.84-476.293 5.6-224.84-252.867-408.773-1208.627-433.787-732.293-19.16-1345.65-97.12-1643.298-214.306-111.931-44.067-179.548-93.907-192.535-148.534-13.063-54.973 28.86-114.146 136.139-176.386 237.914-138.04 799.961-293.307 1801.428-454.294 934.56-150.213 1457.573-295.506 1677.2-425.186 103.04-60.84 138.68-117.814 118.32-169.88-17.52-44.747-75.92-86.347-168.12-124.067h14.546c86.44 36.987 141.414 77.853 158.68 121.973 21.507 54.96-14.8 114.347-120.68 176.867-220.16 129.987-743.826 275.533-1679.106 425.867C1481.48 885.573 920.069 1040.6 682.67 1178.333c-104.8 60.8-145.928 117.827-133.494 170.16 12.515 52.654 78.963 101.2 189.146 144.587 297.072 116.973 909.757 194.787 1641.45 213.933 960.094 25.12 1219.68 211.574 1214.014 439.547-3.814 153.627-128.32 325.48-239.92 479.533-49.494 68.307-96.44 133.12-129.054 191.054-73.866 131.28-365.533 328.08-680.08 540.346-410.24 276.827-859.493 579.987-913 796.067-25.12 101.493 38.267 183.933 236.347 235.52 473.12 123.2 663.067 327.44 626.667 615.787-36.294 287.386-298.267 658.12-729.307 1115.373-290.72 308.413-347.093 469.413-237.347 578.186 93.227 92.414 305.8 148.254 596.267 224.534 381 100.08 895.787 235.28 1452.027 534.773 543.2 292.467 723.96 472.24 649.506 617.667-76.706 149.826-425.653 261.32-928.466 421.973-342.094 109.293-755.507 241.387-1202.56 423.547-207.2 84.426-390.747 153.04-549.454 212.36-505.776 189.066-758.465 283.506-711.037 490.76 47.701 208.48 395.847 532.186 1091.557 1179.052 220.214 204.761 475.227 441.866 765.64 717.08 184.907 175.228 334.867 333.201 454.947 475.921z"/><path d="M3266.04 11996.093c-129.693-158.333-302.44-337.681-526.36-541.027-360.307-327.228-669.467-599.146-928.707-827.16-636.777-560.093-972.53-855.413-1029.685-1058.76-64.168-228.346 219.653-339.333 820.019-574.093 121.68-47.573 256.413-100.253 404.12-160.12 530.453-214.987 1026.4-354.547 1422.333-465.973 477.92-134.494 809.893-227.92 880-362.88 67.173-129.294-107.307-298.6-626.453-582.2-590.56-322.627-1189-454.747-1632.334-552.614-339.413-74.933-588.093-129.84-673.706-235.186-89.015-109.534-2.547-271.934 339.866-564.534 550.734-470.64 867.814-851.226 903.214-1140.973 35.293-288.773-210.427-487.586-785.027-595.76-252.333-47.506-341.707-131.133-322.76-237.026 42.587-237.907 639.987-586.974 1156.653-888.854 302.414-176.706 577.134-337.226 696.107-449.346 205.467-193.6 435.96-455.414 374.413-671.68-61.626-216.574-415.893-388.44-1380.493-402.68-744.4-11.014-1366.653-89.814-1668.187-210.64-113.649-45.547-182.078-97.28-194.809-153.867-12.796-56.92 30.447-118.12 140.243-182.16 246.29-143.613 830.193-303.547 1872.74-464C3464.48 527.227 3999.96 379.973 4223.84 246.8c105.52-62.773 141.213-121.987 118.84-176.227-10.093-24.453-31.84-48.026-64.187-70.573h9.494c29.76 21.84 49.973 44.667 59.773 68.387 23.573 57.16-12.76 118.813-121.16 183.306-224.44 133.494-760.587 281.027-1718.573 428.467C1466.2 840.507 882.952 1000.173 637.2 1143.48c-107.353 62.6-149.783 121.68-137.58 175.973 12.284 54.614 79.55 105.04 191.444 149.867 300.964 120.6 922.483 199.267 1666.243 210.253 967.706 14.307 1323.453 187.92 1385.706 406.76 62.374 219.16-169.333 482.72-375.96 677.414-119.413 112.546-394.413 273.226-697.12 450.093-515.626 301.28-1111.84 649.64-1153.946 884.96-18.347 102.44 69.866 183.693 318.333 230.467 578.107 108.826 825.213 309.733 789.507 601.986-35.6 291.294-353.347 673.067-905.187 1144.64-339.32 289.96-425.768 449.973-339.147 556.573 84.387 103.827 332.28 158.574 670.627 233.254 443.627 97.946 1042.493 230.16 1633.787 553.173 522.626 285.507 697.666 457.107 628.706 589.84-71.226 137.107-404.133 230.8-883.413 365.667-395.707 111.373-891.4 250.866-1421.747 465.8-147.48 59.773-282.36 112.52-404.186 160.16-597.155 233.493-879.462 343.88-816.684 567.24 56.684 201.706 392.004 496.626 1027.977 1056.013 259.107 227.892 568.12 499.693 928.773 827.213 225.72 204.987 399.8 385.746 530.374 545.267z"/><path d="M3393.173 11996.093c-135.333-173.507-331.293-375.373-601.64-610.293-415.36-360.934-767.773-653.455-1057.773-894.187-603.15-500.667-936.7-777.533-1003.552-978.4-83.237-250.107 243.287-380.773 973.725-673.107 67.867-27.146 139.24-55.72 214.107-85.906 605.333-244.08 1180.627-384.387 1625.8-492.947 464.52-113.28 787.133-191.96 853.093-317.187 62.587-118.813-107.106-281.493-608.16-559.04-619.426-343.133-1303.586-471.44-1810.36-566.48-382.893-71.813-664.744-124.666-742.15-237.346-74.456-108.4 39.337-270.387 432.457-554.36C2340 5541.933 2712.707 5150.453 2747.413 4857c34.587-292.507-268.146-487.987-947.546-581.96-306.214-42.347-420.427-125.2-406.267-232.8 33.933-258 816.907-656.973 1448.773-978.947 274.72-139.96 520.827-265.386 664.107-358.093 173.667-112.387 313.24-245.68 377.973-378.827 40.374-83.04 51.574-166 23.667-243.733-27.973-77.867-95.24-150.68-211.773-213.28-232.4-124.84-660.014-208.867-1361.52-211.573-756.547-2.92-1387.715-82.534-1693.198-206.947-115.353-47-184.616-100.6-197.089-159.147-12.54-58.853 31.987-122.093 144.275-187.906 254.638-149.28 860.425-313.934 1944.238-473.8C3513.12 485.453 4061.107 336.24 4289.333 199.6c108.014-64.667 143.76-126.107 119.387-182.507-2.48-5.746-5.587-11.453-9.28-17.093h6.56c3.013 4.893 5.627 9.84 7.773 14.813 25.64 59.36-10.72 123.267-121.653 189.68-228.773 136.974-777.453 286.44-1758.293 431.094C1450.787 795.333 845.652 959.733 591.559 1108.68c-109.875 64.427-153.615 125.547-141.62 181.813 12.053 56.56 80.124 108.827 193.726 155.107 304.883 124.187 935.295 203.627 1691.162 206.547 702.493 2.706 1130.96 86.973 1364.066 212.2 117.854 63.32 185.974 137.186 214.4 216.346 28.48 79.307 17.147 163.787-23.893 248.2-65.187 134.107-205.493 268.16-379.987 381.08-143.52 92.894-389.76 218.36-664.6 358.4C2214.12 3389.733 1432.6 3787.96 1399.053 4043c-13.693 104.133 99.227 184.64 401.547 226.453 683.067 94.467 987.307 292.067 952.293 588.2-34.906 295.187-408.4 687.947-1081.013 1173.813-389.839 281.614-503.433 441.174-431.104 546.48 76.11 110.787 357.024 163.48 738.637 235.054 507.147 95.106 1191.814 223.506 1811.987 567.04 504.52 279.48 674.787 444.453 610.387 566.72-67.147 127.466-390.734 206.373-856.68 320-445.014 108.533-1020.134 248.786-1625.067 492.706-74.853 30.187-146.227 58.76-214.107 85.92-727.032 290.96-1052.041 421.027-970.502 666 66.344 199.334 399.44 475.84 1001.809 975.84 290.173 240.879 642.787 533.574 1057.853 894.254 272.294 236.613 469.614 439.893 605.84 614.613z"/><path d="M3518.107 11996.093c-133.92-186.76-350.774-410.655-674.734-679.573-456.973-379.36-844.6-682.64-1160.573-929.867C1093.345 9925.44 753.073 9659.2 675.917 9457c-104.429-273.68 269.239-428.214 1154.71-783.534 673.64-270.293 1326.933-406.173 1818.84-508.453 458.04-95.253 775.893-161.36 838.746-279.093 58.787-110.134-106.84-267.454-591.96-539.774-644.626-361.84-1416.213-485.853-1987.08-577.6-423.613-68.066-736.932-118.44-807.198-235.653-64.554-107.693 74.936-269.947 520.305-550.72 791.853-499.187 1220.187-901.56 1254.2-1198.76 33.893-296.253-325.88-488.4-1110.093-568.16-362.467-36.853-501.624-118.8-491.055-228.133 27.107-280.333 1053.841-739.133 1807.761-1076.027 224.094-100.133 424.054-189.493 566.414-260.133 211-104.693 357.6-225.773 422.693-347.133 41.347-77.094 49.707-154.32 20.627-227.44-29.174-73.374-96.014-142.787-204.987-204.067-262.013-147.373-766.653-247.32-1575.453-241.96-768.707 5.08-1408.858-75.253-1718.28-203.213-117.079-48.427-187.142-103.894-199.386-164.387-12.282-60.787 33.514-126.053 148.266-193.693C805.96 914.093 1433.693 744.587 2558.88 585.44c1003-141.867 1563.56-292.987 1796.16-433.04C4443.08 99.387 4483.72 48.227 4483.293 0h5.574c.493 50.253-41.027 103.067-131.04 157.267-233.174 140.4-794.44 291.786-1798.2 433.76C1435.187 750.08 808.139 919.307 545.73 1073.96c-112.379 66.24-157.388 129.427-145.619 187.64 11.844 58.507 80.747 112.613 196.047 160.293 308.822 127.734 948.188 207.894 1716.214 202.814 809.827-5.36 1315.374 94.866 1578.12 242.653 110.134 61.947 177.787 132.347 207.44 206.893 29.747 74.814 21.28 153.654-20.906 232.307-65.64 122.373-213.08 244.28-425.134 349.493-142.373 70.654-342.426 160.04-566.6 260.214C2332.627 3252.6 1307.61 3710.64 1280.816 3987.68c-10.233 105.84 127.557 185.493 486.117 221.96 787.987 80.147 1149.347 274.413 1115.027 574.413C2847.747 5083.12 2418.52 5486.88 1625.173 5987c-441.972 278.626-581.126 438.466-518.498 542.92 68.958 115.026 381.192 165.226 803.352 233.053 571.266 91.827 1343.413 215.92 1988.866 578.227 488.574 274.24 654.76 433.88 594.147 547.426-64.067 120.027-382.973 186.36-842.493 281.92-491.667 102.24-1144.654 238.027-1817.92 508.187-881.856 353.867-1254.02 507.72-1151.572 776.2 76.598 200.747 416.401 466.627 1005.092 927.227 315.933 247.2 703.533 550.465 1160.706 929.986 326.04 270.654 544.32 495.987 679.174 683.947z"/><path d="M3638.907 11996.093c-122.4-197.373-357.6-443.2-743.68-748.84-487.64-386.053-903.52-692.68-1241.92-942.16-603.07-444.627-960.262-707.987-1039.599-916.853-101.976-268.48 252.205-445.094 1129.505-795.494 737-294.373 1467.614-421.666 2004.707-515.24 456.453-79.533 772.893-134.666 833.373-246.56 55.627-102.906-106.493-255.853-577.56-523.653-667.44-379.427-1528.146-498.8-2163.56-586.92-462.44-64.147-805.814-111.76-870.049-231.8-57.372-107.227 106.873-270.307 605.703-551.027 666.306-374.96 1104.186-696.626 1304.973-960.24 94.093-123.533 136-234.173 124.813-331.413-11.16-97.066-75.346-181.066-193.453-251.466-201.653-120.214-559.947-200.667-1079.28-238.947-420.42-30.973-584.71-111.773-576.945-222.587 21.568-307.853 1391.732-845.973 2262.118-1187.8 140.52-55.2 268.014-105.266 374.4-148.306 245.734-99.387 403.827-212.054 472.067-324.934 43.973-72.72 50.507-145.546 19-214.893-31.68-69.707-101.72-136.067-210.72-195.533-298.707-162.92-888.84-273.4-1782.813-258.507-780.92 13.027-1430.119-67.973-1743.514-199.467-118.792-49.826-189.684-107.133-201.685-169.573-12.061-62.707 35.012-130 152.205-199.467 271.272-160.76 920.967-335.16 2087.727-493.533 1025.96-139.28 1599.187-292.293 1836.2-435.733 59.28-35.88 97.347-71.04 116.067-105.147h6.36c-18.72 35.867-57.92 72.68-119.627 110.027-237.587 143.773-811.507 297.053-1838.293 436.44-1165.947 158.28-1814.955 332.4-2085.659 492.84-114.873 68.066-161.133 133.32-149.565 193.493 11.621 60.427 81.344 116.36 198.336 165.44 312.782 131.213 961.154 212.053 1741.354 199.04 895.014-14.92 1486.08 95.827 1785.494 259.147 110.12 60.053 180.96 127.32 213.133 198.146 32.333 71.174 25.693 145.8-19.32 220.254-68.867 113.893-227.867 227.386-474.747 327.226-106.826 43.214-234.133 93.227-374.44 148.32-869.106 341.347-2237.253 878.68-2258.578 1182.907-7.519 107.333 155.346 185.867 571.832 216.56 520.186 38.347 879.266 119.04 1081.653 239.693 119.707 71.36 184.8 156.774 196.173 255.72 11.36 98.76-30.933 210.774-125.946 335.52-201.28 264.254-639.734 586.413-1306.667 961.733-495.345 278.76-659.14 439.4-603.524 543.347 62.907 117.547 405.097 165.013 865.964 228.92 635.84 88.173 1497.133 207.627 2165.48 587.587 474.533 269.746 637.173 425.026 579.707 531.333-61.76 114.267-379.28 169.587-837.28 249.387-536.867 93.533-1267.16 220.773-2003.627 514.946C871.528 8946.973 518.665 9122.44 618.85 9386.2c78.74 207.293 435.434 470.293 1037.67 914.306 338.44 249.52 754.36 556.172 1242.08 942.28 388.293 307.4 625.08 554.707 748.533 753.307z"/><path d="M3749.107 11996.093c-96.147-204.813-342.147-471.56-802.027-818.107-508.453-383.133-946.493-687.56-1304.547-936.36-628.821-436.986-1011.112-702.653-1093.994-921.84-100.6-266.013 237.345-461.84 1107.261-807.773 796.28-316.653 1604.027-432.08 2185.427-515.173 458.52-65.52 776.013-110.907 834.72-218.214 53-96.853-106.054-246.253-564.747-510.186-688.667-396.267-1640.027-510.734-2340.333-594.987-499.859-60.133-872.067-104.907-931.226-226.68-51.944-106.907 136.482-271.2 689.706-553.84 757.213-386.853 1249.386-718.213 1471.173-987.8 99.827-121.36 144.707-230.026 134.147-325.413-10.547-95.213-76.494-177.493-198.32-246.267-223.68-126.266-635-206.706-1236.987-237.76-479.627-24.746-669.237-104.066-663.744-216.093 17.113-348.613 1954.784-1012.96 2876.61-1329l23.12-7.933c279.387-95.8 451.44-202.64 524.387-309.387 47.614-69.68 52.787-139.32 17.88-205.787-35.173-66.933-110.893-130.84-224.813-188.506-341.267-172.734-1023.853-288.827-1985.253-263.494-793.16 20.894-1451.426-60.746-1768.827-195.68-120.475-51.24-192.177-110.346-203.965-174.733-11.83-64.627 36.49-133.96 156.122-205.253 279.543-166.6 951.23-345.987 2159.656-503.52 1049.054-136.76 1634.947-291.654 1876.44-438.44 32.054-19.48 57.974-38.787 78.067-57.867h8.04c-20.987 20.733-48.64 41.667-83.307 62.747-242.04 147.12-828.666 302.28-1878.546 439.16-1207.614 157.426-1878.595 336.533-2157.582 502.8C336.323 1074.64 288.8 1141.92 300.168 1204.04c11.416 62.333 81.967 120.067 200.668 170.547 316.772 134.666 974.19 216.133 1766.59 195.266 962.32-25.36 1645.854 90.974 1987.8 264.067 114.974 58.2 191.52 122.907 227.24 190.893 35.96 68.454 30.694 140.107-18.213 211.694-73.626 107.72-246.613 215.306-527.16 311.52l-23.12 7.906C2993.307 2871.6 1058.041 3535.12 1041.124 3879.867c-5.333 108.56 182.807 185.64 658.49 210.173 602.853 31.12 1014.973 111.787 1239.386 238.453 123.493 69.707 190.387 153.454 201.147 250.6 10.746 97-34.574 207.094-135.427 329.694C2782.467 5178.973 2289.693 5510.8 1531.8 5898c-549.656 280.826-737.523 442.693-687.21 546.253 57.818 119.027 428.757 163.653 926.903 223.587 700.774 84.306 1652.774 198.84 2342.4 595.653 462.134 265.92 621.72 417.667 566.867 517.907-60.053 109.746-378.653 155.28-838.773 221.04-581.147 83.04-1388.52 198.426-2184.2 514.84-866.28 344.493-1203.059 538.84-1104.116 800.48 82.268 217.533 464.017 482.826 1091.942 919.186 358.214 248.934 796.48 553.479 1304.72 936.48 462.254 348.319 709.96 616.56 807.36 822.667z"/><path d="M3840.733 11996.093c-48.226-207.933-292.626-494.333-841.786-887.387-520.054-372.226-974.707-670.2-1349.84-916.08C983.79 9756.573 568.332 9484.28 480.647 9251.44c-100.02-265.627 224.381-478.28 1087.74-820.16 852.266-337.48 1737.173-438.4 2362.4-509.68 463.346-52.827 783.786-89.374 841.2-193.094 50.813-91.786-105.547-238.293-553.294-498.946-708.746-412.574-1752.32-521.894-2517.8-602.08-536.076-56.16-936.05-98.067-990.89-220.8-47.676-106.72 164.497-272.507 772.85-558.36 847.347-398.134 1393.56-738.747 1636.6-1014.013 106.227-120.32 154.374-227.96 144.254-322.28-10.094-94.12-78.387-175.28-205.054-242.827-245.52-130.907-709.4-210.253-1392.826-233.307-358.378-12.08-573.432-50.08-676.286-107.04-94.62-52.413-95.914-120.48-27.241-199.053 67.44-77.16 203.327-164.547 384.78-257.08 672.227-342.8 1971.533-757.32 2731.133-984.173 312.627-93.36 500.054-196.054 578.6-298.307 51.88-67.547 55.907-134.893 16.854-199.16-39.414-64.88-122.494-126.813-244.347-182.84-388.133-178.467-1168.067-296.4-2184.187-260.187-805.44 28.707-1472.828-53.506-1794.234-191.88-122.182-52.586-194.698-113.533-206.268-179.84-11.61-66.533 37.936-137.906 159.966-211.04 287.82-172.506 981.55-356.933 2231.776-513.573 1072.214-134.333 1670.854-291.053 1916.8-441.147A671 671 0 0 0 4569.933 0h10.107a636 636 0 0 1-24.053 15.413C4309.413 165.893 3710.04 322.92 2637.04 457.347 1387.627 613.88 694.623 798.027 407.38 970.187c-119.762 71.773-168.517 141.106-157.34 205.146 11.216 64.267 82.587 123.787 202.992 175.627 320.778 138.093 987.287 220.12 1791.927 191.453 1016.973-36.24 1797.813 81.907 2186.6 260.667 122.893 56.507 206.787 119.16 246.787 185.013 40.386 66.454 36.306 136-17.2 205.64-79.227 103.134-267.587 206.52-581.414 300.24-759.373 226.774-2058.306 641.187-2730.226 983.814-180.854 92.24-316.179 179.2-383.106 255.773-65.716 75.187-64.574 140.28 25.748 190.307 102.158 56.573 316.402 94.333 673.851 106.386 684.293 23.08 1148.973 102.64 1395.2 233.934 128.4 68.453 197.68 151.106 207.987 247.253 10.293 95.96-38.32 205.067-145.667 326.64-243.547 275.84-790.36 616.92-1638.387 1015.373-604.729 284.16-816.289 447.56-770.133 550.88 53.533 119.787 452.17 161.56 986.453 217.52 765.974 80.24 1810.2 189.64 2519.947 602.8 451.173 262.64 608.053 411.493 555.387 506.64-58.814 106.24-380.4 142.907-845.4 195.92-624.92 71.267-1509.427 172.12-2361.014 509.333-859.716 340.44-1183.057 551.36-1084.584 812.854 87.03 231.12 501.887 503.026 1166.264 938.466 375.16 245.88 829.84 543.88 1350.04 916.212 551.494 394.748 798.134 682.708 848.054 892.015z"/><path d="M3899.427 11996.093c32.173-204.96-188.547-508.907-848.627-956.655-523.653-355.198-989-643.052-1378.133-883.772-711.766-440.28-1168.744-722.973-1262.378-972.613-100.052-266.76 213.055-494.227 1070.698-832.507 905.52-357.133 1867.733-441.306 2536.506-499.813 470.334-41.147 795.24-69.573 851.747-170.507 48.973-87.506-105.013-231.653-543.08-489.506-727.987-428.534-1865.173-532.507-2696.027-608.48-571.332-52.24-998.108-91.267-1049.274-214.507-44.251-106.573 191.446-274.067 855.488-564 936.88-409.053 1536.933-758.666 1801.493-1039.48 113.067-120.026 164.68-227.293 154.907-321-9.76-93.573-80.827-174.026-213.107-240.6-267.293-134.56-783.387-212.066-1547.36-226.546-406.003-7.694-647.337-44.4-760.304-102.147-99.633-50.947-101.26-117.88-28.86-195.587 71.015-76.213 214.395-162.893 406.692-254.96 715.339-342.48 2109.205-760.24 2971.219-988.96 345.746-91.746 549.413-191.413 634.08-290.213 56.6-66.053 59.533-131.707 15.853-194.267-44.187-63.293-135.733-123.6-267.467-178.173-438.013-181.427-1318.52-298.533-2380.773-251.173-817.733 36.453-1494.28-46.294-1819.737-188.054-123.872-53.973-197.219-116.706-208.59-184.92-11.393-68.426 39.387-141.826 163.819-216.826 296.064-178.454 1011.855-368 2303.988-523.667C3670.32 285.72 4268.467 141.747 4552.653 0h12.4c-280.72 143.667-881.666 289.84-1902.226 412.787C1371.507 568.347 656.47 757.6 360.988 935.707c-122.163 73.626-172.148 145.013-161.147 210.986 11.022 66.174 83.219 127.494 205.308 180.667 324.788 141.493 1000.411 224.04 1817.33 187.613 1063.054-47.386 1944.428 69.907 2383.054 251.587 132.747 54.973 225.12 115.933 269.92 180.12 45.334 64.907 42.347 132.947-16.2 201.267-85.373 99.64-289.973 199.933-636.84 291.973-861.84 228.667-2255.306 646.307-2970.274 988.6-191.688 91.773-334.506 178.067-405.028 253.747-69.13 74.186-67.647 138.066 27.324 186.613 112.29 57.413 352.837 93.907 757.925 101.587 764.8 14.48 1281.68 92.2 1549.707 227.106 134.093 67.507 206.2 149.454 216.16 245.08 9.946 95.467-42.147 204.214-156.427 325.52-265.067 281.36-865.72 631.4-1803.307 1040.76-660.384 288.32-895.381 453.453-852.564 556.6 49.879 120.12 475.244 159.027 1044.684 211.093C2462 6652.64 3599.893 6756.693 4328.907 7185.8c441.48 259.88 595.973 406.373 545.12 497.24-57.947 103.506-384.04 132.04-856.08 173.333-668.48 58.467-1630.28 142.613-2535 499.453-853.984 336.827-1166.1 562.374-1067.515 825.214 92.935 247.8 549.295 530.093 1260.075 969.786 389.146 240.72 854.506 528.587 1378.333 883.907 662.4 449.32 885.853 754.853 856.12 961.36z"/><path d="M3895.493 11996.093c164.014-192.748 12.227-509.707-792.826-1025.907-519.72-333.253-989.56-607.746-1388.934-841.053C945.92 9680.546 438.356 9384.013 337.688 9114.6c-100.527-269.08 203.117-509.72 1055.885-844.787 956.374-375.76 1996.12-441.413 2708.374-486.373 479.093-30.254 809.693-51.134 865.6-149.947 47.453-83.88-104.414-226.107-533.92-481.627-746.56-444.186-1978.76-542.64-2875.2-614.253-605.666-48.387-1058.346-84.573-1106.371-208-41.417-106.493 217.59-275.827 937.77-570.453 1025.987-419.734 1679.72-778.187 1966-1064.453 120.267-120.28 175.48-227.587 165.947-321.107-9.493-93.347-83.666-173.36-222.133-239.173-289.107-137.454-857.16-212.6-1700.92-218.107-453.424-2.96-721.056-37.92-844.31-95.947-105.126-49.48-107.234-115.36-31.022-192.346 74.66-75.414 225.804-161.614 429.296-253.427 758.81-342.293 2247.29-763.547 3211.17-994.267 378.76-90.64 599.24-188.08 690.386-284.213 61.587-64.96 63.48-129.307 14.827-190.467-49.32-62.013-150.094-120.933-293-174.173-489.987-182.507-1473.187-296.947-2575.774-238.293-830.053 44.173-1515.797-39.08-1845.298-184.2-125.567-55.307-199.738-119.827-210.903-189.96-11.194-70.334 40.803-145.76 167.593-222.614 304.287-184.44 1042.155-379.186 2376.342-533.8C3606.907 256.12 4192.107 128.88 4513.2 0h14.907c-318.88 130.88-907.96 260.267-1839.48 368.227C1355.293 522.76 618.192 717.187 314.495 901.28c-124.583 75.52-175.77 148.947-164.97 216.84 10.842 68.067 83.872 131.147 207.646 185.653 328.833 144.854 1013.629 227.894 1842.842 183.774 1103.307-58.694 2087.374 55.893 2577.934 238.626 143.826 53.56 245.413 113.08 295.4 175.907 50.64 63.68 48.76 130.573-15.16 197.987-91.854 96.866-313.227 194.88-693.08 285.786-963.667 230.654-2451.734 651.787-3210.204 993.934-202.916 91.546-353.504 177.36-427.654 252.266-72.604 73.334-70.622 136.094 29.451 183.187 122.573 57.707 389.456 92.48 842.047 95.427 844.586 5.52 1413.4 80.84 1703.2 218.626 140.36 66.72 215.6 148.267 225.306 243.734 9.707 95.32-46.04 204.173-167.586 325.72-286.774 286.786-941.134 645.64-1967.814 1065.653-716.5 293.12-974.756 460.106-934.677 563.133 46.741 120.147 497.967 156.2 1101.664 204.427 896.96 71.666 2129.893 170.173 2877.56 615.013 432.88 257.547 585.267 402.133 535.92 489.36-57.387 101.427-389.213 122.373-870.04 152.747-711.893 44.933-1751.12 110.56-2706.747 486.026-849.084 333.6-1151.808 572.174-1052.686 837.48 99.958 267.52 606.837 563.654 1373.606 1011.627 399.507 233.4 869.494 507.987 1389.12 841.173 806.774 517.306 963.187 836.08 803.267 1030.707z"/><path d="M3765.92 11996.093c381.987-164.415 399.173-484.387-611.387-1095.187-507.946-307-975.8-565.266-1380.96-788.906-833.408-460.04-1401.661-773.734-1510.477-1066-101.345-272.267 194.385-524.694 1043.072-856.92 1005.299-393.547 2122.752-439.174 2878.459-470.04 489.28-19.974 826.626-33.76 882.186-130.96C5113 7507.266 4963 7366.586 4541.12 7112.986c-764.68-459.653-2093.24-552.4-3055.373-619.56-639.188-44.6-1116.978-77.973-1162.251-201.333-39.07-106.44 243.107-277.76 1019.797-577.533 1114.747-430.253 1822.094-797.413 2130.227-1089.08 127.733-120.92 186.627-228.6 177.293-322.147-9.306-93.426-86.813-173.186-231.893-238.413-310.947-139.773-930.773-212.12-1853.747-208.4-500.757 2.013-794.72-30.84-928.384-88.693-110.964-48.04-113.657-112.934-33.578-189.307 78.349-74.707 237.468-160.547 452.448-252.24 802.621-342.32 2385.768-767.267 3451.008-1000.027 411.8-89.973 649.44-185.733 747.293-279.72 66.787-64.146 67.627-127.453 13.76-187.44-54.733-60.946-165.253-118.666-320.133-170.626-543.467-182.334-1630.827-292.76-2769.72-222.707-842.387 51.813-1537.344-31.88-1870.924-180.36-127.26-56.64-202.253-122.92-213.216-194.96-11.002-72.2 42.189-149.667 171.333-228.387C577.559 671.56 1337.533 471.573 2713.853 318.04 3542.267 225.627 4104.907 114.893 4450.587 0h17.626C4123.427 116.96 3555.8 229.8 2714.427 323.667 1338.987 477.093 579.777 676.787 267.872 866.92c-126.955 77.387-179.343 152.853-168.713 222.667 10.651 69.973 84.504 134.8 209.968 190.64C642.005 1428.387 1336 1511.88 2177.547 1460.12c1139.56-70.093 2227.733 40.467 2771.746 222.973 155.76 52.254 267.094 110.494 322.48 172.174 56.24 62.626 55.467 128.626-14.04 195.386-98.573 94.667-337.106 190.92-749.92 281.134-1065 232.706-2647.733 657.546-3450.032 999.72-214.414 91.44-372.978 176.933-450.813 251.16-76.121 72.586-73.541 134.28 31.957 179.96 133.016 57.586 426.255 90.28 926.222 88.253 923.773-3.733 1544.346 68.787 1855.96 208.853 147.053 66.12 225.666 147.427 235.186 243.014 9.534 95.426-49.96 204.706-179.04 326.88-308.64 292.173-1016.586 659.72-2132.013 1090.226C572.259 6018.2 290.87 6187.16 328.656 6290.106c44.03 119.96 520.29 153.2 1157.464 197.68 962.68 67.2 2291.96 160.014 3057.787 620.334 425.253 255.626 575.733 398.68 527.64 482.826-57.067 99.854-395.64 113.68-886.707 133.734-755.32 30.853-1872.2 76.453-2876.717 469.693C463.13 8525.16 168.277 8775.4 268.257 9043.973c108.079 290.333 675.598 603.6 1507.943 1063.04 405.053 223.6 872.813 481.8 1381.107 789.025 1010.386 610.682 1002.706 933.028 628.253 1100.055z"/><path d="M3276.667 11996.093c772.533-95.32 1313.773-378.387-70.28-1164.467-488.707-277.56-947.04-516.613-1352.067-727.853-908.875-474.04-1549.527-808.187-1667.616-1126.533-102.417-276.094 186.69-539.134 1032.048-868.88 1052.555-410.614 2247.848-434.987 3047.075-451.28 500.693-10.214 845.626-17.254 901.053-113.267 45.16-78.227-103.16-217.68-518.293-469.693-782.414-474.947-2208.574-561.84-3236.52-624.44-671.979-40.934-1174.096-71.52-1216.983-194.654-37.059-106.413 268.179-279.8 1101.675-585.053 1203.254-440.68 1964.12-816.466 2294.228-1113.506 135.386-121.827 198.066-230.12 188.866-323.934-9.186-93.653-90.2-173.333-242.24-238.04-332.826-141.666-1004.293-210.933-2006-197.76-547.993 7.2-868.346-23.266-1012.522-80.653-117.047-46.6-120.404-110.56-36.414-186.36 82.082-74.093 249.336-159.667 476.035-251.36 846.701-342.453 2524.595-771.307 3690.755-1006.2 321.586-64.773 543.986-132.093 682.12-199.293v6.213c-138.907 67.08-361.067 134.173-681.067 198.627C3484.613 2512.56 1807.133 2941.293 960.712 3283.64c-226.105 91.453-392.807 176.693-474.39 250.32-79.665 71.907-76.413 132.587 34.76 176.853 143.557 57.134 463.222 87.467 1010.451 80.28 1002.494-13.186 1674.707 56.214 2008.187 198.174 154.067 65.573 236.227 146.813 245.613 242.706 9.387 95.72-53.92 205.64-190.72 328.747-330.64 297.507-1092.106 673.68-2296 1114.586-829.748 303.894-1134.16 474.92-1098.332 577.8 41.666 119.627 542.22 150.12 1212.119 190.934 1028.493 62.64 2455.44 149.56 3238.987 625.226 418.506 254.054 567.32 395.894 520.253 477.414-57 98.733-403.187 105.786-905.707 116.04-798.813 16.28-1993.52 40.653-3045.224 450.933-841.661 328.32-1129.94 589.067-1028.844 861.573 117.335 316.307 757.206 650.04 1664.948 1123.494 404.88 211.16 863.027 450.12 1352.24 727.973 1371.88 779.16 870.414 1068.332 115.307 1169.4Zm2054.92-10272.88c-58.44-27.8-130.067-54.466-213.267-79.666-598.013-181.24-1790.547-286.72-2962.893-205.214-854.739 59.414-1558.954-24.706-1896.618-176.48-128.954-57.973-204.778-126.013-215.555-199.946-10.8-74.08 43.58-153.547 175.07-234.16 320.696-196.574 1102.8-401.88 2521.356-554.267C3475.213 194.453 4005.347 99.973 4362.84 0h20.667c-358.067 102.093-894.36 198.64-1643.267 279.093C1322.556 431.4 541.243 636.373 221.153 832.6 91.83 911.867 38.247 989.373 48.713 1061.093c10.473 71.854 85.158 138.427 212.298 195.587 336.954 151.44 1040.174 235.36 1894.069 176 1172.96-81.533 2366.267 24.04 2964.8 205.427 82.307 24.946 153.4 51.346 211.707 78.906z"/></g></svg>