<svg xmlns="http://www.w3.org/2000/svg" width="306.844" height="394.6"><defs><clipPath id="E" clipPathUnits="userSpaceOnUse"/><clipPath id="D" clipPathUnits="userSpaceOnUse"/><clipPath id="C" clipPathUnits="userSpaceOnUse"/><clipPath id="B" clipPathUnits="userSpaceOnUse"/><clipPath id="A" clipPathUnits="userSpaceOnUse"/><clipPath id="z" clipPathUnits="userSpaceOnUse"/><clipPath id="y" clipPathUnits="userSpaceOnUse"/><clipPath id="x" clipPathUnits="userSpaceOnUse"/><clipPath id="w" clipPathUnits="userSpaceOnUse"/><clipPath id="v" clipPathUnits="userSpaceOnUse"/><clipPath id="u" clipPathUnits="userSpaceOnUse"/><clipPath id="t" clipPathUnits="userSpaceOnUse"/><clipPath id="s" clipPathUnits="userSpaceOnUse"/><clipPath id="r" clipPathUnits="userSpaceOnUse"/><clipPath id="q" clipPathUnits="userSpaceOnUse"/><clipPath id="p" clipPathUnits="userSpaceOnUse"/><clipPath id="o" clipPathUnits="userSpaceOnUse"/><clipPath id="n" clipPathUnits="userSpaceOnUse"/><clipPath id="m" clipPathUnits="userSpaceOnUse"/><clipPath id="l" clipPathUnits="userSpaceOnUse"/><clipPath id="k" clipPathUnits="userSpaceOnUse"/><clipPath id="j" clipPathUnits="userSpaceOnUse"/><clipPath id="i" clipPathUnits="userSpaceOnUse"/><clipPath id="h" clipPathUnits="userSpaceOnUse"/><clipPath id="g" clipPathUnits="userSpaceOnUse"/><clipPath id="f" clipPathUnits="userSpaceOnUse"/><clipPath id="e" clipPathUnits="userSpaceOnUse"/><clipPath id="d" clipPathUnits="userSpaceOnUse"/><clipPath id="c" clipPathUnits="userSpaceOnUse"/><clipPath id="b" clipPathUnits="userSpaceOnUse"/><clipPath id="a" clipPathUnits="userSpaceOnUse"/></defs><path d="M842.339 506.72c9.914 13.22 17.696 28.946 23.136 46.74 4.055 13.272 6.633 27.397 7.595 41.401h-.428c-2.202-32.952-13.126-64.496-30.658-87.874-21.394-28.529-37.127-82.281-40.077-136.937-1.421-26.364.251-50.406 4.743-71.139h.216c-15.176 69.258 3.39 165.03 35.473 207.809" clip-path="url(#a)" style="fill:#91d4ef;fill-opacity:1;fill-rule:nonzero;stroke:none;stroke-width:.1" transform="matrix(1.33333 0 0 -1.33333 -857.25 793.148)"/><path d="M802.703 366.693c1.963 54.108 16.717 107.052 37.59 134.881 19.192 25.592 28.962 60.267 29.445 93.287h-.426c-.486-32.92-10.234-67.498-29.374-93.02-20.922-27.898-35.711-80.939-37.676-135.132-.905-24.902.965-47.786 5.349-67.798h.452c-4.391 19.995-6.263 42.876-5.36 67.782" clip-path="url(#b)" style="fill:#a8bee7;fill-opacity:1;fill-rule:nonzero;stroke:none;stroke-width:.1" transform="matrix(1.33333 0 0 -1.33333 -857.25 793.148)"/><path d="M803.114 363.395c.991 53.652 14.814 105.896 35.214 133.1 19.957 26.61 29.043 63.692 27.652 98.366h-.425c1.387-34.573-7.676-71.559-27.58-98.1-20.456-27.274-34.313-79.62-35.305-133.358-.433-23.486 1.606-45.23 5.891-64.492h.451c-4.287 19.25-6.331 40.992-5.898 64.484" clip-path="url(#c)" style="fill:#6c8ace;fill-opacity:1;fill-rule:nonzero;stroke:none;stroke-width:.1" transform="matrix(1.33333 0 0 -1.33333 -857.25 793.148)"/><path d="M836.454 491.474c18.273 24.367 27.777 59.08 26.078 95.235a173 173 0 0 1-.583 8.152h-.445c.256-2.691.456-5.414.585-8.173 1.694-36.054-7.778-70.661-25.988-94.946-19.992-26.656-32.929-78.315-32.959-131.607-.012-22.118 2.18-42.735 6.363-61.224h.454c-4.189 18.479-6.385 39.098-6.373 61.222.029 53.204 12.932 104.757 32.868 131.341" clip-path="url(#d)" style="fill:#92dcf5;fill-opacity:1;fill-rule:nonzero;stroke:none;stroke-width:.1" transform="matrix(1.33333 0 0 -1.33333 -857.25 793.148)"/><path d="M834.661 486.52c17.875 23.834 26.777 58.107 24.426 94.03a169 169 0 0 1-1.554 14.311h-.449c.712-4.672 1.24-9.456 1.561-14.342 2.344-35.818-6.526-69.983-24.336-93.734-19.534-26.044-31.56-77.025-30.637-129.878.361-20.796 2.686-40.303 6.768-57.996h.456c-4.089 17.689-6.417 37.2-6.781 58.004-.923 52.761 11.07 103.634 30.546 129.605" clip-path="url(#e)" style="fill:#abcdde;fill-opacity:1;fill-rule:nonzero;stroke:none;stroke-width:.1" transform="matrix(1.33333 0 0 -1.33333 -857.25 793.148)"/><path d="M832.954 481.628c17.481 23.309 25.786 57.149 22.787 92.844a166 166 0 0 1-2.987 20.389h-.453a165 165 0 0 0 2.997-20.425c2.989-35.588-5.283-69.318-22.699-92.541-19.081-25.443-30.206-75.757-28.346-128.18.693-19.509 3.122-37.923 7.101-54.804h.532c-15.71 66.766-5.143 147.766 21.068 182.717" clip-path="url(#f)" style="fill:#9ec5d8;fill-opacity:1;fill-rule:nonzero;stroke:none;stroke-width:.1" transform="matrix(1.33333 0 0 -1.33333 -857.25 793.148)"/><path d="M831.331 476.789c17.092 22.791 24.808 56.207 21.171 91.681-.939 9.147-2.592 17.987-4.888 26.391h-.46c2.305-8.416 3.965-17.27 4.905-26.436 3.627-35.364-4.058-68.666-21.083-91.369-18.632-24.844-28.869-74.494-26.08-126.489.979-18.261 3.478-35.606 7.346-51.656h.457c-3.876 16.052-6.38 33.407-7.361 51.68-2.782 51.897 7.42 101.433 25.993 126.198" clip-path="url(#g)" style="fill:#b5b8dc;fill-opacity:1;fill-rule:nonzero;stroke:none;stroke-width:.1" transform="matrix(1.33333 0 0 -1.33333 -857.25 793.148)"/><path d="M829.793 472.013c16.706 22.277 23.839 55.274 19.568 90.53-1.369 11.296-3.832 22.153-7.254 32.318h-.467c3.437-10.177 5.909-21.053 7.28-32.372 4.256-35.144-2.845-68.024-19.482-90.21-18.189-24.253-27.55-73.246-23.849-124.816 1.224-17.056 3.788-33.341 7.543-48.552h.456c-3.763 15.216-6.331 31.512-7.557 48.583-3.693 51.47 5.634 100.346 23.762 124.519" clip-path="url(#h)" style="fill:#b2b7db;fill-opacity:1;fill-rule:nonzero;stroke:none;stroke-width:.1" transform="matrix(1.33333 0 0 -1.33333 -857.25 793.148)"/><path d="M828.337 467.287c16.326 21.77 22.884 54.353 17.991 89.394-1.879 13.455-5.318 26.33-10.085 38.18h-.477c4.787-11.862 8.241-24.759 10.124-38.241 4.874-34.927-1.651-67.39-17.909-89.068-17.747-23.666-26.245-72.005-21.646-123.149 1.428-15.883 4.017-31.135 7.649-45.492h.456c-3.64 14.367-6.234 29.633-7.663 45.531-4.589 51.043 3.873 99.262 21.56 122.845" clip-path="url(#i)" style="fill:#b0e5f0;fill-opacity:1;fill-rule:nonzero;stroke:none;stroke-width:.1" transform="matrix(1.33333 0 0 -1.33333 -857.25 793.148)"/><path d="M826.963 462.616c15.95 21.269 21.94 53.443 16.435 88.272-2.468 15.619-7.055 30.516-13.376 43.973h-.491c6.35-13.469 10.955-28.391 13.43-44.043 5.486-34.711-.473-66.763-16.352-87.936-17.311-23.084-24.959-70.77-19.482-121.488 1.591-14.749 4.196-28.979 7.701-42.483h.458c-3.515 13.516-6.125 27.762-7.719 42.532-5.465 50.611 2.148 98.174 19.396 121.173" clip-path="url(#j)" style="fill:#abc0e8;fill-opacity:1;fill-rule:nonzero;stroke:none;stroke-width:.1" transform="matrix(1.33333 0 0 -1.33333 -857.25 793.148)"/><path d="M825.669 457.996c24.947 33.267 21.882 92.119-2.232 136.865h-.494c24.146-44.621 27.265-103.403 2.369-136.598-16.877-22.505-23.688-69.542-17.35-119.826 1.72-13.65 4.31-26.882 7.677-39.525h.458c-3.376 12.659-5.973 25.909-7.695 39.58-6.324 50.178.454 97.086 17.267 119.504" clip-path="url(#k)" style="fill:#86d8f3;fill-opacity:1;fill-rule:nonzero;stroke:none;stroke-width:.1" transform="matrix(1.33333 0 0 -1.33333 -857.25 793.148)"/><path d="M824.452 453.421c15.21 20.28 20.092 51.642 13.396 86.047-3.888 19.973-11.285 38.963-21.317 55.393h-.557c27.779-45.452 33.388-107.486 8.126-141.174-16.447-21.93-22.436-68.308-15.261-118.155a303 303 0 0 1 7.589-36.621h.49c-16.848 61.588-13.114 126.975 7.534 154.51" clip-path="url(#l)" style="fill:#778bce;fill-opacity:1;fill-rule:nonzero;stroke:none;stroke-width:.1" transform="matrix(1.33333 0 0 -1.33333 -857.25 793.148)"/><path d="M823.324 448.895c14.842 19.793 19.183 50.753 11.909 84.944-4.713 22.155-13.776 43.235-25.945 61.022h-.534c12.222-17.792 21.321-38.911 26.046-61.115 7.248-34.065 2.936-64.894-11.83-84.583-16.017-21.359-21.202-67.077-13.212-116.475a306 306 0 0 1 7.437-33.776h.459a306 306 0 0 0-7.461 33.846c-7.971 49.287-2.817 94.873 13.131 116.137" clip-path="url(#m)" style="fill:#768ace;fill-opacity:1;fill-rule:nonzero;stroke:none;stroke-width:.1" transform="matrix(1.33333 0 0 -1.33333 -857.25 793.148)"/><path d="M821.92 444.68c-15.591-20.787-19.991-65.838-11.213-114.774a309 309 0 0 1 7.224-30.994h.462a309 309 0 0 0-7.249 31.072c-8.758 48.821-4.39 93.737 11.129 114.432 14.481 19.308 18.291 49.866 10.456 83.837-5.618 24.342-16.523 47.552-31 66.608h-.561c14.541-19.057 25.499-42.309 31.127-66.709 7.808-33.843 4.025-64.268-10.375-83.472" clip-path="url(#n)" style="fill:#697ec8;fill-opacity:1;fill-rule:nonzero;stroke:none;stroke-width:.1" transform="matrix(1.33333 0 0 -1.33333 -857.25 793.148)"/><path d="M821.297 439.978c14.119 18.827 17.41 48.98 9.03 82.725-6.592 26.537-19.534 51.925-36.481 72.158h-.578c17.021-20.227 30.024-45.666 36.629-72.266 8.349-33.615 5.085-63.63-8.954-82.351-7.533-10.049-12.366-26.034-13.972-46.231-1.589-19.974.042-43.082 4.717-66.822a312 312 0 0 1 6.957-28.279h.458a313 313 0 0 0-6.984 28.364c-9.516 48.34-5.914 92.578 9.178 112.702" clip-path="url(#o)" style="fill:#979bd6;fill-opacity:1;fill-rule:nonzero;stroke:none;stroke-width:.1" transform="matrix(1.33333 0 0 -1.33333 -857.25 793.148)"/><path d="M820.052 435.847c-7.337-9.781-11.882-25.454-13.147-45.318-1.251-19.641.75-42.455 5.786-65.976a317 317 0 0 1 6.631-25.64h.465a317 317 0 0 0-6.662 25.733c-5.027 23.485-7.025 46.256-5.777 65.855 1.259 19.78 5.774 35.37 13.058 45.083 13.761 18.348 16.544 48.093 7.635 81.607-7.637 28.73-22.798 56.361-42.356 77.67h-.604c19.644-21.298 34.875-48.987 42.532-77.787 8.873-33.381 6.117-62.987-7.561-81.227" clip-path="url(#p)" style="fill:#9cc9d9;fill-opacity:1;fill-rule:nonzero;stroke:none;stroke-width:.1" transform="matrix(1.33333 0 0 -1.33333 -857.25 793.148)"/><path d="M807.342 387.072c.928 19.441 5.164 34.71 12.246 44.156 13.404 17.873 15.695 47.204 6.28 80.472-8.75 30.926-26.313 60.88-48.611 83.161h-.632c48.395-48.093 69.571-127.418 42.609-163.367-7.138-9.517-11.404-24.871-12.336-44.4-.923-19.296 1.436-41.807 6.818-65.099a320 320 0 0 1 6.264-23.084h.464a319 319 0 0 0-6.295 23.183c-5.374 23.254-7.728 45.723-6.807 64.978" clip-path="url(#q)" style="fill:#80bbe7;fill-opacity:1;fill-rule:nonzero;stroke:none;stroke-width:.1" transform="matrix(1.33333 0 0 -1.33333 -857.25 793.148)"/><path d="M807.4 383.696c.612 19.092 4.573 34.034 11.455 43.214 13.051 17.398 14.859 46.311 4.96 79.323-9.827 32.778-29.678 64.817-54.463 87.903-.262.244-.53.483-.793.725h-.649q.583-.531 1.139-1.049c24.729-23.034 44.536-55.001 54.341-87.706 9.857-32.876 8.076-61.644-4.888-78.93-14.102-18.803-15.537-60.053-3.746-107.651a324 324 0 0 1 5.85-20.614h.466a325 325 0 0 0-5.884 20.72c-5.701 23.009-8.394 45.163-7.788 64.065" clip-path="url(#r)" style="fill:#6bcee8;fill-opacity:1;fill-rule:nonzero;stroke:none;stroke-width:.1" transform="matrix(1.33333 0 0 -1.33333 -857.25 793.148)"/><path d="M821.459 500.647c10.312-32.6 8.996-60.939-3.611-77.749-13.671-18.228-14.454-58.747-2.045-105.745a326 326 0 0 1 5.398-18.24h.465a328 328 0 0 0-5.436 18.352c-12.374 46.872-11.618 87.246 1.972 105.368 12.694 16.926 14.035 45.411 3.679 78.15-10.271 32.472-30.52 64.584-55.556 88.099a181 181 0 0 1-6.691 5.981h-.718a169 169 0 0 0 7.105-6.304c24.983-23.466 45.189-55.509 55.438-87.912" clip-path="url(#s)" style="fill:#6dcfe8;fill-opacity:1;fill-rule:nonzero;stroke:none;stroke-width:.1" transform="matrix(1.33333 0 0 -1.33333 -857.25 793.148)"/><path d="M817.622 418.384c25.672 34.233-.629 114.516-54.119 165.204a190 190 0 0 1-13.022 11.273h-.793a182 182 0 0 0 13.508-11.596c53.343-50.547 79.62-130.547 54.071-164.615-13.237-17.65-13.398-57.412-.421-103.769a328 328 0 0 1 4.924-15.969h.468a331 331 0 0 0-4.965 16.089c-12.938 46.228-12.806 85.841.349 103.383" clip-path="url(#t)" style="fill:#6ed0f4;fill-opacity:1;fill-rule:nonzero;stroke:none;stroke-width:.1" transform="matrix(1.33333 0 0 -1.33333 -857.25 793.148)"/><path d="M817.121 414.173c11.986 15.983 12.449 43.578 1.267 75.712-11.064 31.798-32.019 64.003-57.486 88.356-6.413 6.131-13.009 11.68-19.744 16.62h-.872a196 196 0 0 0 20.309-16.941c25.419-24.307 46.331-56.447 57.374-88.181 11.134-31.991 10.694-59.437-1.201-75.3-12.802-17.07-12.374-56.045 1.116-101.715a332 332 0 0 1 4.414-13.813h.468a332 332 0 0 0-4.458 13.938c-13.452 45.54-13.907 84.364-1.187 101.324" clip-path="url(#u)" style="fill:#617fc9;fill-opacity:1;fill-rule:nonzero;stroke:none;stroke-width:.1" transform="matrix(1.33333 0 0 -1.33333 -857.25 793.148)"/><path d="M816.699 409.994c11.634 15.511 11.684 42.641.139 74.434-11.411 31.422-32.664 63.639-58.311 88.393-8.681 8.381-17.679 15.743-26.877 22.04h-.904c11.42-7.743 20.758-15.878 27.475-22.359 25.598-24.709 46.811-56.866 58.199-88.226 11.493-31.649 11.465-58.628-.076-74.018-12.365-16.487-11.383-54.64 2.558-99.567a335 335 0 0 1 3.91-11.78h.473a335 335 0 0 0-3.955 11.913c-13.903 44.794-14.91 82.794-2.631 99.17" clip-path="url(#v)" style="fill:#7b97d5;fill-opacity:1;fill-rule:nonzero;stroke:none;stroke-width:.1" transform="matrix(1.33333 0 0 -1.33333 -857.25 793.148)"/><path d="M816 406.105c-11.926-15.898-10.433-53.185 3.896-97.307a337 337 0 0 1 3.387-9.885h.473a335 335 0 0 0-3.439 10.02c-14.284 43.988-15.802 81.121-3.963 96.909 11.279 15.039 10.94 41.689-.931 73.116-11.716 31.013-33.229 63.217-59.022 88.354-11.058 10.777-22.588 20.001-34.373 27.549h-.909c14.786-9.426 26.768-19.871 34.973-27.869C810.688 513.785 839.243 437.1 816 406.105" clip-path="url(#w)" style="fill:#acc1e8;fill-opacity:1;fill-rule:nonzero;stroke:none;stroke-width:.1" transform="matrix(1.33333 0 0 -1.33333 -857.25 793.148)"/><path d="M813.741 473.286c12.094-30.873 12.822-56.862 1.993-71.301-5.736-7.647-8.255-20.566-7.285-37.362.953-16.512 5.242-36.421 12.405-57.575a342 342 0 0 1 2.875-8.135h.474a340 340 0 0 0-2.927 8.277c-7.148 21.116-11.431 40.985-12.381 57.459-.966 16.689 1.522 29.509 7.193 37.071 5.627 7.503 8.223 17.801 7.711 30.614-.485 12.181-3.729 26.015-9.645 41.116-11.975 30.567-33.698 62.723-59.597 88.221-13.558 13.347-27.777 24.48-42.278 33.19h-.81c14.505-8.619 28.849-19.797 42.777-33.508 25.858-25.456 47.542-57.555 59.495-88.067" clip-path="url(#x)" style="fill:#b0b5da;fill-opacity:1;fill-rule:nonzero;stroke:none;stroke-width:.1" transform="matrix(1.33333 0 0 -1.33333 -857.25 793.148)"/><path d="M809.314 361.694c-1.156 16.216 1.121 28.641 6.583 35.926 5.449 7.265 7.873 17.31 7.199 29.852-.64 11.925-4.026 25.53-10.064 40.436-12.185 30.084-34.066 62.152-60.032 87.981-16.166 16.081-33.206 29.192-50.521 38.972h-.784c17.24-9.639 34.37-22.751 50.992-39.285 25.925-25.789 47.77-57.803 59.935-87.834 6.021-14.861 9.396-28.417 10.031-40.294.666-12.435-1.724-22.38-7.111-29.562-12.039-16.051-8.173-54.375 8.588-98.975h.492a342 342 0 0 0-2.442 6.695c-7.276 20.696-11.725 40.091-12.866 56.088" clip-path="url(#y)" style="fill:#bae7dc;fill-opacity:1;fill-rule:nonzero;stroke:none;stroke-width:.1" transform="matrix(1.33333 0 0 -1.33333 -857.25 793.148)"/><path d="M815.786 393.552c10.357 13.811 9.036 38.235-3.721 68.772-12.343 29.555-34.328 61.489-60.311 87.615-14.356 14.434-34.658 31.888-59.111 44.922h-.711c20.033-10.575 40.066-25.688 59.507-45.235 25.946-26.087 47.894-57.97 60.218-87.474 12.691-30.386 14.032-54.653 3.775-68.332-10.747-14.329-8.061-47.892 7.184-89.777a349 349 0 0 1 1.921-5.132h.476a339 339 0 0 0-1.98 5.282c-15.194 41.745-17.903 75.149-7.247 89.359" clip-path="url(#z)" style="fill:#7dd5f4;fill-opacity:1;fill-rule:nonzero;stroke:none;stroke-width:.1" transform="matrix(1.33333 0 0 -1.33333 -857.25 793.148)"/><path d="M815.753 389.504c9.991 13.322 8.395 37.178-4.489 67.173-12.449 28.977-34.469 60.726-60.414 87.106-16.193 16.463-39.706 36.801-68.065 51.078h-1.353c32.036-16.083 57.317-39.41 69.1-51.39 25.908-26.341 47.896-58.041 60.322-86.968 12.821-29.845 14.434-53.544 4.543-66.734-10.285-13.715-7.293-46.222 8.003-86.96a347 347 0 0 1 1.493-3.898h.474a331 331 0 0 0-1.553 4.054c-15.243 40.595-18.256 72.945-8.061 86.539" clip-path="url(#A)" style="fill:#a1b4e2;fill-opacity:1;fill-rule:nonzero;stroke:none;stroke-width:.1" transform="matrix(1.33333 0 0 -1.33333 -857.25 793.148)"/><path d="M815.795 385.475c9.621 12.829 7.786 36.086-5.167 65.487-12.489 28.343-34.474 59.845-60.319 86.427-18.058 18.574-44.931 42.009-77.349 57.472h-1.05c36.109-17.334 65.045-44.372 78.081-57.78 25.811-26.546 47.764-58 60.232-86.298 12.886-29.247 14.739-52.346 5.218-65.041-9.819-13.094-6.581-44.483 8.663-83.966.367-.951.748-1.909 1.126-2.865h.462c-15.945 40.257-19.956 73.151-9.897 86.564" clip-path="url(#B)" style="fill:#64a3dd;fill-opacity:1;fill-rule:nonzero;stroke:none;stroke-width:.1" transform="matrix(1.33333 0 0 -1.33333 -857.25 793.148)"/><path d="M815.914 381.469c9.249 12.334 7.208 34.958-5.747 63.704-12.464 27.654-34.336 58.838-60.011 85.561-27.273 28.386-57.652 50.699-87.029 64.127h-1.081c29.604-13.356 60.276-35.797 87.791-64.434 54.885-57.127 84.368-123.828 65.723-148.691-4.681-6.241-6.27-17.024-4.597-31.184 1.64-13.852 6.393-31.004 13.75-49.6.268-.678.547-1.361.821-2.041h.48c-.297.735-.598 1.471-.888 2.204-15.022 37.975-18.467 68.014-9.212 80.354" clip-path="url(#C)" style="fill:#b6e6d9;fill-opacity:1;fill-rule:nonzero;stroke:none;stroke-width:.1" transform="matrix(1.33333 0 0 -1.33333 -857.25 793.148)"/><path d="M750.102 523.466c25.762-27.148 46.853-57.108 59.386-84.36 12.814-27.871 15.041-49.661 6.27-61.358-9.006-12.01-5.554-40.221 9.471-77.404.192-.476.393-.955.588-1.432h.481c-.219.532-.443 1.066-.656 1.597-14.966 37.034-18.439 65.091-9.53 76.973 8.875 11.831 6.664 33.782-6.221 61.81-12.551 27.296-33.67 57.297-59.468 84.481-30.339 31.97-64.41 56.913-96.892 71.088h-1.118c32.71-14.077 67.095-39.157 97.689-71.395" clip-path="url(#D)" style="fill:#a5e2f0;fill-opacity:1;fill-rule:nonzero;stroke:none;stroke-width:.1" transform="matrix(1.33333 0 0 -1.33333 -857.25 793.148)"/><path d="M816.39 373.512c8.496 11.328 6.154 32.57-6.592 59.813-12.384 26.467-33.224 56.006-58.683 83.173-33.469 35.716-71.386 63.459-107.023 78.363h-1.155c35.866-14.778 74.118-42.666 107.854-78.668 25.428-27.134 46.241-56.631 58.605-83.057 12.673-27.088 15.031-48.167 6.638-59.359-8.519-11.359-5.019-38.266 9.604-73.82.142-.348.292-.698.436-1.046h.482c-.168.405-.342.811-.508 1.216-14.562 35.404-18.081 62.152-9.658 73.385" clip-path="url(#E)" style="fill:#a0cddc;fill-opacity:1;fill-rule:nonzero;stroke:none;stroke-width:.1" transform="matrix(1.33333 0 0 -1.33333 -857.25 793.148)"/></svg>