<svg xmlns="http://www.w3.org/2000/svg" width="276.429" height="394.6"><defs><clipPath id="a" clipPathUnits="userSpaceOnUse"><path d="M4764.79 5948.61H9500v-2959.5H4764.79Z"/></clipPath></defs><g clip-path="url(#a)" transform="matrix(.05732 0 0 -.05732 -270.088 437.348)"><path d="M8896.51 3042.12c-202.46 214.91-373.63 509.88-469.63 809.27-104.44 325.69-106.76 618.61-6.59 824.79 82.75 170.28 102.53 362.89 57.27 557-40.61 174.1-134.08 347.12-263.21 487.18-89.97 97.56-192.44 175.16-300.35 228.25h-10.78c108.79-51.78 214.22-129.71 307.87-231.28 214.54-232.67 397.01-644.46 205.22-1039.22-100.68-207.21-98.43-501.3 6.35-828.07 96.2-300.02 267.73-595.6 470.63-810.97 16.31-17.33 32.76-33.94 49.3-49.96h6.41c-17.61 16.96-35.13 34.58-52.49 53.01M5517.11 4225.75c340.43-285.27 690.79-578.9 943.44-578.87 40.41 0 78.36 7.52 113.33 23.79 172.39 80.21 256.83 362.62 258.1 863.38 1.09 426.53 57.36 770.63 167.26 1022.74 80.44 184.53 187.19 315.9 318.05 391.82h-8.73c-128.73-76.93-233.9-207.66-313.39-390.05-110.15-252.67-166.56-597.36-167.64-1024.51-1.27-498.87-84.85-779.96-255.54-859.36-251.01-116.77-658.22 224.47-1052.03 554.46-186.65 156.4-379.65 318.14-550.28 425.11-75.52 47.34-143.62 81.84-204.89 103.74v-4.69c60.55-21.82 127.87-56 202.52-102.81 170.39-106.8 363.27-268.44 549.8-424.75" style="fill:#cf2f51;fill-opacity:1;fill-rule:nonzero;stroke:none"/><path d="M5478.91 4259.53c345.7-278.13 701.43-564.34 959.03-564.32 43.52.01 84.28 8.19 121.67 25.95 172.93 82.16 258.48 358.71 261.54 845.45 2.64 417.84 61.15 755.21 173.91 1002.77 80.23 176.14 185.61 303.26 314.06 379.23h-8.59c-126.37-76.82-230.21-203.27-309.51-377.37-113.03-248.14-171.66-586.13-174.31-1004.58-3.05-484.89-87.76-760.13-259.01-841.48-256.22-121.73-672.97 213.57-1076.01 537.81-190.79 153.5-388.1 312.21-562.45 416.53-55.29 33.07-106.71 59.64-154.45 79.75v-4.79c47.04-19.95 97.69-46.18 152.16-78.78 174.1-104.14 371.27-262.77 561.96-416.17M8884.55 3150.19c-382.7 416.72-660.78 1132.21-442.68 1561.47 82.25 161.87 104.54 344.7 64.48 528.75-36.46 167.48-121.47 329.22-245.86 467.74-90.44 100.71-198.68 183.71-311.92 240.46h-7.72c112.54-55.08 220.85-137.11 316.32-243.44 211.34-235.35 369.8-619.41 180.73-991.51-218.94-430.96 59.66-1148.66 443.37-1566.48 55.57-60.5 111.77-113.25 167.91-158.07h7.11c-57.4 45.41-114.89 99.18-171.74 161.08" style="fill:#cb1b96;fill-opacity:1;fill-rule:nonzero;stroke:none"/><path d="M5440.03 4292.5c351.08-271.07 712.28-549.98 974.92-549.96 46.85 0 90.57 8.87 130.53 28.25 173.32 84.05 259.92 354.8 264.74 827.71 4.18 409.41 64.98 740.28 180.68 983.39 80.03 168.15 184.1 290.99 310.25 366.72h-8.63c-124.06-76.45-226.55-198.66-305.64-364.81-115.98-243.69-176.92-575.18-181.11-985.25-4.8-471.06-90.58-740.52-262.23-823.77-261.48-126.82-688.17 202.64-1100.8 521.23-195.08 150.64-396.81 306.4-575.03 408.08-35.89 20.48-70.17 38.31-102.92 53.59v-4.9c32.07-15.04 65.6-32.52 100.72-52.56 177.95-101.52 379.56-257.18 574.52-407.72M8871.37 3258.63c-369.44 412.87-622.83 1082.29-407.4 1487.89 81.67 153.74 106.34 327.15 71.37 501.48-31.85 158.7-110.87 313.73-228.51 448.34-94.96 108.63-205.43 193.83-321.58 252.27h-10.17c118.62-58.27 231.61-144.44 328.4-255.2 197.98-226.52 343.1-593.7 156.58-944.81-216.33-407.3 37.57-1078.93 408.01-1492.93 100.36-112.16 206.88-202.75 312.57-266.56h8.63c-107.39 63.75-215.83 155.44-317.9 269.52" style="fill:#ba628a;fill-opacity:1;fill-rule:nonzero;stroke:none"/><path d="M8857.51 3366.95c-342.2 392.73-588.46 1021.71-370.83 1413.84 81.02 145.96 107.94 310.33 77.84 475.34-27.41 150.3-100.52 298.68-211.38 429.07-92.79 109.15-208.18 200.11-332.36 263.41h-10.58c124.61-61.36 242-151.53 339.57-266.29 239.52-281.73 289.25-617.95 133.03-899.39-100.01-180.22-109.8-422.36-28.27-700.23 73.09-249.13 218.76-511.07 399.65-718.67 165.72-190.21 342.44-317.97 510.81-374.92h14.31c-171.44 54.41-352.32 183.36-521.79 377.84M5400.5 4324.72c356.57-264.16 723.32-535.89 991.08-535.86 50.37 0 97.27 9.62 139.9 30.72 173.59 85.89 261.15 350.89 267.68 810.16 5.73 401.28 68.86 725.82 187.63 964.61 79.76 160.38 182.51 279.02 306.35 354.26h-8.52c-121.81-75.84-223-193.8-301.82-352.27-119.05-239.39-182.34-564.57-188.07-966.52-6.53-457.44-93.27-721.18-265.22-806.26-266.81-132.05-703.79 191.66-1126.38 504.73-199.51 147.8-405.83 300.64-588.01 399.71a1625 1625 0 0 1-50.32 26.23v-4.97c15.76-7.89 31.8-16.24 48.21-25.16 181.9-98.92 388.08-251.66 587.49-399.38" style="fill:#9739a1;fill-opacity:1;fill-rule:nonzero;stroke:none"/><path d="M9296.02 3106.95c-155.36 74.65-311.88 201.83-452.63 367.81-327.65 386.39-547.37 970.63-333.39 1339.68 155.05 267.4 113.67 589.1-110.68 860.52-93.24 112.8-211.68 207.28-341.13 273.65h-7.35c127.74-64.26 247-157.85 345.05-276.47 223.11-269.94 264.34-589.73 110.26-855.47-98.87-170.54-112.54-398.42-39.49-659.02 66.29-236.49 198.88-480.03 373.33-685.75 141.15-166.45 298.17-294.04 454.1-368.94 70.05-33.66 139.09-55.99 205.91-66.98v4.49c-66.18 10.95-134.57 33.14-203.98 66.48M6367.83 3834.2c54.12 0 104.36 10.41 149.82 33.34 173.72 87.64 262.15 346.99 270.4 792.81 7.26 393.42 72.77 711.83 194.68 946.42 79.46 152.86 180.81 267.31 302.33 341.84h-8.35c-119.54-75.01-219.39-188.75-297.9-339.81-122.24-235.19-187.91-554.27-195.2-948.37-8.21-444.04-95.85-702.1-267.97-788.94-272.28-137.37-719.91 180.69-1152.79 488.28-202.88 144.17-412.6 293.16-598.06 389.7v-5.03c184.68-96.43 393.48-244.74 595.48-388.27 362.15-257.35 734.57-521.98 1007.56-521.97" style="fill:#982f9c;fill-opacity:1;fill-rule:nonzero;stroke:none"/><path d="M9306.24 3186.96c-166.35 81.68-331.18 218.08-476.65 394.45-295.07 357.71-513.46 906.49-295.73 1266.11 80.74 133.35 110.89 276.89 89.61 426.65-19.15 134.75-80.81 270.15-178.31 391.56-93.15 115.97-214.26 213.63-348.77 282.88h-10.85c141.51-71.69 265.88-173.24 356.16-285.65 207.3-258.14 240.34-562.11 88.37-813.13-97.55-161.13-114.94-375.18-50.27-619 58.6-220.83 181.61-452.47 346.37-652.23 145.87-176.86 311.21-313.65 478.14-395.6 66.38-32.59 131.9-55.63 195.7-69.18v4.5c-63.15 13.49-128.03 36.36-193.77 68.64M6343.65 3878.59c58.12.01 111.92 11.24 160.31 36.12 173.7 89.33 262.95 343.03 272.83 775.61 8.83 385.82 76.77 698.29 201.96 928.77 79.11 145.62 179.09 255.92 298.34 329.52h-8.36c-117.26-73.97-215.72-183.54-293.88-327.41-125.53-231.09-193.66-544.26-202.5-930.78-9.84-430.81-98.29-683.26-270.43-771.76-277.82-142.82-736.49 169.66-1180.04 471.86-187.87 127.99-381.42 259.79-557.09 353.35v-5.03c174.9-93.39 367.56-224.58 554.58-351.98 367.84-250.62 745.99-508.3 1024.28-508.27" style="fill:#885428;fill-opacity:1;fill-rule:nonzero;stroke:none"/><path d="M8816.69 3686.3c-281.95 351.59-471.19 857.09-258.38 1193.81 153.25 242.48 128.57 525.91-67.72 777.64-92.47 118.57-215.72 218.98-354.88 290.86h-13.01c147.59-74.7 275.48-179.58 364.39-293.59 195.08-250.16 219.67-531.74 67.48-772.54-213.98-338.58-24.28-846.14 258.67-1198.97 147.59-184.03 325.63-333.75 501.32-421.56 62.74-31.36 124.78-54.73 185.43-70.16v3.73c-262.79 67.85-514.37 280.13-683.3 490.78M6490.39 3961.12c173.57 90.91 263.53 339.03 275.03 758.58 16.69 608.53 193.9 1036.32 503.82 1228.91h-8.73c-114.86-72.75-211.84-178.15-289.52-314.97-128.96-227.12-199.62-534.57-210.02-913.81-11.45-417.8-100.63-664.69-272.65-754.77-283.44-148.44-753.53 158.58-1208.16 455.48-172.92 112.94-350.62 228.97-515.37 317.55v-5.05c164.01-88.37 340.84-203.81 512.94-316.23 455.71-297.6 926.94-605.35 1212.66-455.69" style="fill:#df4bad;fill-opacity:1;fill-rule:nonzero;stroke:none"/><path d="M8805.29 3788.82c-240.52 308.67-442.97 788.07-221.88 1123.29 151.31 229.45 133.86 498.8-47.89 738.97-91.26 120.61-216.13 223.28-359.55 297.53h-9.51c149.54-76.99 277.61-184.04 365.51-300.2 180.55-238.59 197.95-506.06 47.73-733.85-94.52-143.32-118.75-331.29-70.07-543.6 43.98-191.83 147.73-399.54 292.16-584.87 150.4-193.01 336.28-351.54 523.39-446.37 59.02-29.91 117.46-53.2 174.83-69.89v4.67c-260.62 76.84-514.82 283.46-694.72 514.32M6293.96 3964.58c66.83 0 128.3 13.02 182.99 42.17 173.28 92.39 263.88 334.98 276.96 741.69 18.97 589.87 197.25 1007.1 507.25 1200.17h-8.68c-112.52-71.37-208.04-172.57-285.23-302.61-132.53-223.26-205.8-525.19-217.79-897.41-13-404.98-102.84-646.36-274.6-737.91-289.12-154.12-771.05 147.47-1237.13 439.15-158.08 98.94-320.02 200.2-472.94 282.35v-5.03c152.17-81.89 313.29-182.63 470.6-281.08 379.45-237.48 769.39-481.51 1058.57-481.49" style="fill:#ee2130;fill-opacity:1;fill-rule:nonzero;stroke:none"/><path d="M9338.32 3420.08c-198.08 101.41-390.74 267.71-542.52 468.27-135.7 179.29-227.32 369.51-264.98 550.04-41 196.52-13.94 371.22 78.23 505.2 78.5 114.08 113.58 236.15 104.28 362.85-8.41 114.53-54.53 231.87-133.4 339.34-88.14 120.13-216.3 226.21-363.13 302.83h-10.87c152.59-78.11 282.92-186.2 370.44-305.45 166.81-227.33 177.4-481.39 29.04-697.04-92.88-135.01-120.2-310.9-78.94-508.64 37.79-181.17 129.69-371.99 265.77-551.8 152.17-201.09 345.4-367.84 544.06-469.56 55.15-28.22 109.83-50.99 163.69-68.39v4.61c-53.18 17.27-107.2 39.86-161.67 67.74M6268.45 4006.19c71.54.01 137.18 14.01 195.2 45.47 172.87 93.74 264.01 330.86 278.61 724.93 21.22 571.8 200.52 978.73 510.64 1172.02h-8.67c-110.06-69.81-204.01-166.84-280.61-290.25-136.27-219.5-212.23-516.12-225.8-881.61-14.54-392.37-104.91-628.27-276.28-721.19-294.87-159.89-789.04 136.35-1266.96 422.84-143.22 85.86-289.55 173.52-429.79 248.21v-5.02c139.51-74.4 285.05-161.59 427.51-247 385.43-231.05 781.36-468.43 1076.15-468.4" style="fill:#9b1a82;fill-opacity:1;fill-rule:nonzero;stroke:none"/><path d="M9350.33 3495.02c-209.68 108.02-409.14 281.84-561.64 489.46-211.22 287.54-362.39 698.64-153.27 990.13 77.76 108.39 114.24 224.15 108.4 344.06-5.36 110.13-45.71 218.92-119.97 323.3-86 120.92-214.65 228.26-364.67 306.64h-13.51c157.24-80.11 289.7-189.91 374.57-309.24 156.23-219.66 160.36-454.83 11.58-662.19-91.22-127.14-121.32-291.64-87.05-475.71 31.4-168.64 114.51-348.34 240.33-519.64 152.9-208.15 352.91-382.44 563.18-490.78 51.03-26.28 101.67-48.11 151.71-65.68v4.64c-49.36 17.4-99.33 39.07-149.66 65.01M6242.41 4046.89c76.55.01 146.56 15.01 208.08 48.91 172.32 94.98 263.91 326.69 280.02 708.35 23.42 554.35 203.73 951.22 513.98 1144.46h-8.7c-107.48-68.11-199.73-160.98-275.61-277.87-140.18-215.86-218.94-507.35-234.12-866.39-16.02-379.98-106.87-610.48-277.71-704.65-300.69-165.74-807.54 125.2-1297.7 406.56-128.3 73.64-259.03 148.67-385.86 215.19v-5.03c126.12-66.22 256.09-140.8 383.66-214.03 391.46-224.72 793.49-455.53 1093.96-455.5" style="fill:#7c5b7d;fill-opacity:1;fill-rule:nonzero;stroke:none"/><path d="M9363.32 3568.28c-218.06 112.62-429.13 297.93-579.1 508.39-249.38 349.93-294.92 697-121.85 928.4 148.36 198.38 150.09 423.75 4.86 634.56-83.43 121.1-212.01 229.19-364.61 308.98h-9.93c157.47-81.41 288.42-191.79 370.91-311.52 144.07-209.13 142.37-432.64-4.77-629.38-89.57-119.74-122.2-273.6-94.4-444.92 25.51-157.05 100.26-326.06 216.18-488.72 150.37-211.01 362.02-396.8 580.68-509.74 46.56-24.05 92.85-44.57 138.71-61.77v4.62c-45.18 17.03-90.8 37.4-136.68 61.1M6215.83 4086.73c81.88 0 156.46 16.04 221.59 52.51 171.64 96.1 263.62 322.44 281.17 691.9 25.58 537.53 206.97 924.52 517.46 1117.47h-8.83c-104.82-66.25-195.26-154.99-270.35-265.51-144.27-212.32-225.93-498.89-242.72-851.74-17.49-367.82-108.72-592.96-278.92-688.25-306.6-171.67-826.5 114.02-1329.3 390.29-113.25 62.23-228.35 125.43-341.14 183.39v-5c112.09-57.63 226.46-120.44 339.01-182.27 397.58-218.47 805.81-442.79 1112.03-442.79" style="fill:#e32124;fill-opacity:1;fill-rule:nonzero;stroke:none"/><path d="M6424.49 4181.97c170.83 97.1 263.1 318.09 282.07 675.59 33.89 637.9 285.73 944.12 522.63 1091.05h-10.56c-102.04-64.26-190.63-148.81-264.79-253.09-148.6-208.92-233.27-490.77-251.7-837.73-18.89-355.87-110.42-575.66-279.84-671.96-312.54-177.68-845.99 102.81-1361.86 374.04-98.08 51.56-197.46 103.78-295.65 152.96v-4.96c97.5-48.88 196.21-100.73 293.58-151.93 516.92-271.78 1051.47-552.81 1366.12-373.97M9377.51 3639.89c-229.38 118.33-446.22 309.63-594.93 524.85-226.86 328.3-261.48 653.65-92.61 870.3 146.91 188.48 154.09 402.87 20.2 603.65-80.49 120.73-208.39 229.05-362.89 309.92h-9.72c157.26-80.93 287.5-190.27 368.91-312.37 132.76-199.08 125.65-411.61-20.01-598.47-89.2-114.44-123.18-254.51-100.98-416.31 20.08-146.36 86.98-305.15 193.45-459.24 149.1-215.79 366.54-407.6 596.54-526.28 37.72-19.46 79.53-38.9 124.52-56.71v4.78c-44.22 17.58-85.35 36.71-122.48 55.88" style="fill:#de254f;fill-opacity:1;fill-rule:nonzero;stroke:none"/><path d="M9393.02 3709.72c-240.54 123.56-462.54 319.94-609.13 538.81-209.18 312.37-233.11 609.8-65.65 816.01 145.63 179.32 157.86 383.4 34.48 574.67-77.27 119.8-203.97 227.82-359.72 309.4h-9.58c158.52-81.67 287.46-190.7 365.58-311.81 122.27-189.53 110.12-391.76-34.2-569.47-87.63-107.91-123.59-239.07-106.86-389.85 15.13-136.54 74.71-285.72 172.26-431.42 146.98-219.47 369.6-416.41 610.79-540.29 36.3-18.64 72.68-35.36 109.01-50.3v4.77a1428 1428 0 0 0-106.98 49.48M6161.08 4163.82c93.32 0 177.83 18.23 250.56 60.18 169.91 97.96 262.4 313.66 282.74 659.43 36.27 615.91 286.66 917.53 525.98 1065.18h-10.58c-99.12-62.13-185.66-142.49-258.76-240.63-153.13-205.61-240.98-482.93-261.07-824.28-20.25-344.15-112.02-558.68-280.53-655.84-318.57-183.68-865.97 91.6-1395.36 357.83-82.64 41.56-166.23 83.56-249.27 123.97v-4.94c82.4-40.1 165.3-81.76 247.29-123 410.1-206.24 830.95-417.91 1149-417.9" style="fill:#dc7777;fill-opacity:1;fill-rule:nonzero;stroke:none"/><path d="M8788.13 4328.05c-189.9 292.76-204.83 571.78-40.94 765.52 75.34 89.07 116.4 183.43 122.04 280.46 5.22 89.79-19.78 179.64-74.27 267.04-73.8 118.37-198.75 225.59-355.01 307.54h-9.57c159.08-82.06 286.25-190.28 360.82-309.89 112.55-180.51 95.72-373.1-47.39-542.29-165.24-195.34-150.43-476.29 40.6-770.8 158.34-244.12 423.29-470.21 715.58-595.51v4.76c-290.74 125.08-554.25 350.18-711.86 593.17M6132.78 4201.13c99.51 0 189.35 19.37 266.11 64.25 168.84 98.68 261.47 309.15 283.14 643.42 38.59 594.73 287.56 891.64 529.32 1039.81h-10.64c-96.01-59.84-180.35-136.02-252.23-228.13-157.94-202.38-249.09-475.39-270.88-811.4-21.58-332.68-113.48-541.99-280.97-639.87-324.66-189.76-886.46 80.38-1429.77 341.63-67.02 32.21-134.6 64.69-202.07 96.46v-4.9c66.82-31.47 133.77-63.65 200.14-95.56 416.49-200.26 843.75-405.74 1167.85-405.71" style="fill:#d20d72;fill-opacity:1;fill-rule:nonzero;stroke:none"/><path d="M8795.23 4403.39c-172.3 274.41-179.01 536.4-18.37 718.77 74.87 85.02 116.89 174.92 124.87 267.18 7.4 85.54-14.39 171.31-64.75 254.93-70.12 116.4-192.73 222.39-348.7 304.34h-9.69c158.86-82.11 283.71-189.03 354.56-306.64 73.3-121.68 122.46-310.13-59.63-516.88-84.77-96.23-124.07-211.68-116.79-343.09 6.59-119.36 53.19-251.1 134.75-380.99 152.68-243.12 415.76-466.36 708.52-595.62v4.8c-291.19 129.02-552.81 351.21-704.77 593.2M6103.89 4237.6c106.03 0 201.44 20.57 282.32 68.44 167.69 99.28 260.36 304.54 283.32 627.54 40.85 574.37 288.44 866.49 532.6 1015.03h-10.7c-92.74-57.44-174.66-129.4-245.13-215.53-163.06-199.31-257.66-468.2-281.2-799.19-22.84-321.42-114.81-525.54-281.15-624.03-330.79-195.81-907.44 69.19-1465.11 325.46-51.11 23.49-102.56 47.12-154.05 70.5v-4.88c50.86-23.1 101.69-46.45 152.19-69.65 422.92-194.35 856.68-393.72 1186.91-393.69" style="fill:#7a9463;fill-opacity:1;fill-rule:nonzero;stroke:none"/><path d="M6074.38 4273.27c112.87 0 214.11 21.78 299.25 72.79 166.41 99.72 259.06 299.84 283.25 611.8 43.04 554.73 289.25 842 535.8 990.75h-10.72c-89.26-54.89-168.61-122.63-237.47-202.89-168.47-196.33-266.72-461.28-292.03-787.52-24.08-310.41-116.03-509.41-281.11-608.34-336.95-201.88-928.92 57.98-1501.4 309.3-34.92 15.34-70.01 30.73-105.16 46.08v-4.84c34.55-15.09 69.05-30.22 103.38-45.31 429.43-188.52 869.76-381.85 1206.21-381.82M8805.1 4474.55c-158.7 261.18-157.97 501.16 2.07 675.73 182.78 199.38 139.84 381.06 71.62 498.37-66.33 114.04-186.17 218.34-341.15 299.96h-9.51c157.86-81.79 279.84-187.02 346.82-302.19 96.76-166.37 72.17-336.89-71.05-493.14-83.5-91.07-124.18-199.61-120.96-322.61 2.99-113.49 42.81-234.08 118.37-358.42 136.49-224.63 371.56-431.52 644.94-567.63 17.89-8.92 35.82-17.31 53.75-25.46v5.59c-293.02 133.52-551.84 354.35-694.9 589.8" style="fill:#e31d25;fill-opacity:1;fill-rule:nonzero;stroke:none"/><path d="M6044.13 4308.13c120.1 0 227.4 23.01 316.93 77.27 165.03 100.01 257.59 295.04 282.98 596.2 45.18 535.78 290.01 818.17 538.89 967.01h-10.59c-85.58-52.22-162.16-115.66-229.21-190.11-174.26-193.46-276.38-454.72-303.52-776.54-25.25-299.64-117.12-493.54-280.84-592.76-343.18-207.96-950.91 46.78-1538.62 293.16-18.41 7.71-36.87 15.46-55.36 23.19v-4.81c17.92-7.5 35.8-14.99 53.65-22.47 435.99-182.78 882.95-370.16 1225.69-370.14M8817.56 4541.88c-144.1 245.21-136.79 471.12 20.62 636.1 143.98 150.91 172.47 315.59 82.36 476.23-62.41 111.25-178.99 213.45-332.18 294.4h-11.3c156.23-81.52 277.23-185.35 339.62-296.57 89.05-158.76 60.79-321.63-81.71-471.01-158.9-166.53-166.43-394.32-21.25-641.39 130.09-221.35 374.52-435.25 653.9-572.21 10.78-5.29 21.58-10.36 32.38-15.39v6.72c-291.82 135.83-546.69 352.14-682.44 583.12" style="fill:#ee2653;fill-opacity:1;fill-rule:nonzero;stroke:none"/><path d="M6013.18 4342.21c127.64 0 241.33 24.27 335.37 81.87 163.54 100.16 255.94 290.15 282.48 580.77 47.27 517.5 290.73 794.99 541.89 943.76h-8.77c-249.84-150.23-490.5-428.41-537.54-943.36-26.4-289.14-118.11-478-280.38-577.38-349.41-214.01-973.38 35.63-1576.81 277.07-1.54.62-3.08 1.23-4.62 1.85v-4.77c.99-.39 1.99-.79 2.98-1.19 442.63-177.11 896.26-358.63 1245.4-358.62M8832.48 4605.49c-130.94 230.51-117.63 443.51 37.47 599.77 143.45 144.51 175.38 302.04 92.37 455.54-58.45 108.1-171.29 207.86-321.93 287.81h-9.54c153.57-80.16 268.55-180.79 327.56-289.92 81.98-151.6 50.31-307.31-91.62-450.3-156.63-157.81-170.19-372.7-38.18-605.09 125.35-220.65 372.76-435.51 661.82-574.74 3.18-1.53 6.38-2.95 9.57-4.46v2.99c-289.96 137.46-538.24 350.84-667.52 578.4" style="fill:#81171b;fill-opacity:1;fill-rule:nonzero;stroke:none"/><path d="M8849.69 4665.7c-119.06 216.95-100.32 418.1 52.75 566.4 143.07 138.59 178.25 289.46 101.76 436.31-54.5 104.61-163.25 201.57-310.61 280.2h-9.42c150.27-78.88 261.08-176.67 316.08-282.25 75.5-144.93 40.6-293.99-100.9-431.08-154.66-149.8-173.69-352.84-53.58-571.72 120.41-219.4 364.48-428.99 654.22-568.59v4.84c-288.01 139.16-530.55 347.66-650.3 565.89M6336.08 4462.12c161.97 100.19 254.14 285.16 281.77 565.49 49.3 499.86 291.34 772.41 544.75 921h-8.84c-251.99-149.96-491.26-423.13-540.32-920.55-27.5-278.86-118.98-462.75-279.68-562.16-346.73-214.45-964.19 12.47-1568.97 243.09v-4.77c605.28-230.81 1223.04-457.51 1571.29-242.1" style="fill:#ee4850;fill-opacity:1;fill-rule:nonzero;stroke:none"/><path d="M8869.04 4722.68c-108.41 204.56-84.73 394.89 66.63 535.92 142.85 133.08 181.08 277.74 110.59 418.33-50.55 100.81-154.74 194.66-297.99 271.68h-9.47c146.22-77.29 252.48-171.92 303.49-273.67 69.53-138.66 31.61-281.51-109.63-413.1-79.61-74.18-124.67-160.57-133.9-256.79-8.59-89.43 13.73-185.14 66.37-284.45 110.2-207.98 345.74-413.33 634.87-555.2v4.94c-287.42 141.43-521.43 345.63-630.96 552.34M6323.62 4499.52c160.32 100.07 252.19 280.11 280.88 550.41 51.26 482.78 291.82 750.38 547.38 898.68h-8.63c-73.97-43.61-141.33-94.08-200.87-150.96-194.2-185.51-309.36-436.91-342.3-747.24-28.54-268.87-119.75-447.84-278.82-547.12-343.17-214.19-952.11-10.26-1556.47 208.76v-4.72c604.88-219.19 1214.18-422.95 1558.83-207.81" style="fill:#923da4;fill-opacity:1;fill-rule:nonzero;stroke:none"/><path d="M8890.39 4776.71c-69.88 136.66-112.84 335.72 79.32 507.95 142.76 127.95 183.86 266.81 118.88 401.58-46.68 96.78-146.07 187.24-284.61 262.37h-8.63c137.12-72.94 240.42-163.06 289.23-264.29 64.03-132.81 23.29-269.86-117.84-396.34-78.95-70.78-124.9-152.79-136.53-243.75-10.85-84.7 8.07-175.39 56.22-269.54 102.17-199.82 328.77-398.33 613.57-540.05v4.98c-283.04 141.24-508.09 338.55-609.61 537.09M6311.15 4536.24c158.58 99.79 250.09 274.94 279.81 535.45 53.17 466.37 292.27 729.04 549.92 876.92h-8.25c-69.12-40.3-132.47-86.29-189.09-137.63-201.85-183.06-321.96-431.63-356.99-738.8-29.53-259.08-120.39-433.16-277.74-532.19-339.65-213.76-940.35-31.3-1544.02 176.05v-4.69c412.28-141.58 823.11-271.44 1150.88-271.43 152.55.01 287.16 28.14 395.48 96.32" style="fill:#c68196;fill-opacity:1;fill-rule:nonzero;stroke:none"/><path d="M8913.56 4828.02c-91.43 185.39-59.99 352.16 90.92 482.32 142.84 123.19 186.68 256.66 126.76 385.98-42.86 92.5-137.07 179.33-270.16 252.29h-9.25c136-73.26 232.13-160.83 275.37-254.17 59-127.33 15.55-258.98-125.63-380.74-152.61-131.62-184.42-300.25-92-487.64 94.37-191.36 311.45-382.48 590.43-523.12v5c-277.17 140.1-492.7 330.04-586.44 520.08M6298.66 4572.32c156.76 99.39 247.87 269.71 278.55 520.7 55.06 450.5 292.61 708.23 552.27 855.59h-7.88c-63.84-36.81-122.78-78.23-176.03-124.03-210.17-180.74-335.57-426.69-372.78-731.01-30.5-249.59-120.93-418.86-276.51-517.5-336.15-213.14-928.84-50.76-1531.49 144.87v-4.67c603.18-195.76 1196.33-357.98 1533.87-143.95" style="fill:#a02620;fill-opacity:1;fill-rule:nonzero;stroke:none"/><path d="M6286.12 4607.72c154.9 98.86 245.55 264.43 277.13 506.16 56.9 435.19 292.87 687.98 554.44 834.73h-7.31c-58.19-33.17-112.32-69.97-161.79-110.26-219.16-178.51-350.28-422.06-389.73-723.91-31.42-240.34-121.4-404.87-275.12-502.99-332.7-212.34-917.57-68.76-1518.95 115.2v-4.63c601.91-184.08 1187.28-327.5 1521.33-114.3M8938.48 4876.83c-83.51 175.67-48.39 334.32 101.56 458.8 143.08 118.77 189.48 247.23 134.23 371.44-40.47 90.95-130.99 173.07-254.46 241.54h-9.65c129.86-70.85 220.53-154.52 260.05-243.34 54.36-122.22 8.38-248.85-133-366.22-151.7-125.93-187.22-286.42-102.74-464.13 86.84-182.63 293.84-365.9 565.54-504.6v5.01c-269.85 138.11-475.32 320.17-561.53 501.5" style="fill:#732996;fill-opacity:1;fill-rule:nonzero;stroke:none"/><path d="M8965.03 4923.35c-76.39 166.76-37.86 317.97 111.4 437.27 143.42 114.65 192.3 238.38 141.34 357.83-35.59 83.39-118.7 162.29-239 230.16h-8.5c119.75-66.24 206.35-145.05 243.41-231.91 50.1-117.41 1.68-239.34-140.04-352.61-151.01-120.72-189.98-273.77-112.64-442.6 79.56-173.72 276-348.73 539-484.71v5.02c-261.09 135.35-456.01 309.14-534.97 481.55M6273.52 4642.48c152.96 98.19 243.1 259.07 275.57 491.77 58.67 420.43 292.99 668.32 556.33 814.36h-6.61c-52.07-29.34-100.91-61.43-146.08-96.23-228.93-176.38-366.21-417.78-408.03-717.5-32.28-231.36-121.76-391.2-273.57-488.66-329.25-211.4-906.49-85.39-1506.34 87.02v-4.63c600.4-172.51 1178.19-298.37 1508.73-86.13" style="fill:#a61c22;fill-opacity:1;fill-rule:nonzero;stroke:none"/><path d="M8993.11 4967.74c-69.93 158.58-28.25 302.95 120.53 417.47 143.95 110.82 195.2 230.17 148.18 345.13-32.14 78.61-109.28 153.29-222.32 218.27h-8.97c115.8-65.33 194.75-140.65 227.18-219.96 46.19-112.91-4.58-230.46-146.77-339.92-150.59-115.92-192.75-262.11-121.9-422.78 73.66-167.05 262.82-333.22 510.95-463.47v4.8c-246.18 129.56-433.74 294.56-506.88 460.46M6260.88 4676.64c150.99 97.43 240.56 253.65 273.87 477.61 51.68 347.52 249.11 620.21 563.12 794.36h-10.93c-45.47-25.31-88.47-52.62-128.72-81.9-239.61-174.35-383.56-413.84-427.88-711.82-33.1-222.61-122.02-377.83-271.87-474.52-325.82-210.26-895.6-100.72-1493.68 60.27v-4.58c362.41-97.52 714.44-176.11 1008.43-176.09 191.58 0 358.61 33.39 487.66 116.67" style="fill:#90459a;fill-opacity:1;fill-rule:nonzero;stroke:none"/><path d="M6248.11 4710.11c148.96 96.54 237.93 248.2 272.03 463.67 53.4 337.43 251.15 602.93 565 774.83h-10.39c-38.32-21.08-74.93-43.52-109.58-67.29-251.28-172.41-402.49-410.23-449.44-706.85-33.87-214.14-122.2-364.82-270.05-460.63-322.41-208.95-884.84-114.76-1480.89 34.99v-4.56c348.56-87.54 685.65-156.06 970.25-156.05 202.52.01 378.51 34.7 513.07 121.89M9022.59 5010.17c-64.09 151.07-19.46 289.13 129.07 399.28 144.61 107.25 198.13 222.5 154.76 333.28-28.86 73.71-100 144-205.3 205.88h-8.71c107.96-62.23 180.77-133.13 209.88-207.49 42.55-108.72-10.44-222.17-153.27-328.1-150.36-111.5-195.49-251.4-130.5-404.57 65.93-155.43 239.92-312.98 481.47-441.35v5.01c-239.55 127.66-412.03 283.97-477.4 438.06" style="fill:#d85785;fill-opacity:1;fill-rule:nonzero;stroke:none"/><path d="M9053.49 5050.91c-58.82 144.14-11.42 276.42 137.05 382.52 145.41 103.91 201.13 215.31 161.14 322.16-25.71 68.7-90.67 134.46-187.77 193.02h-8.47c99.65-58.91 166.14-125.29 192.08-194.58 39.21-104.78-15.96-214.37-159.54-316.99-150.35-107.43-198.28-241.54-138.6-387.83 59.58-146.08 221.74-294.52 450.62-418.12v5.05c-226.85 122.85-387.48 270.03-446.51 414.77M6235.23 4742.93c146.92 95.53 235.28 242.71 270.11 449.95 64.05 380.96 301.77 613.6 569.01 755.73h-12.12c-30.59-16.62-60.05-34.06-88.34-52.32-264.09-170.57-423.21-406.98-472.91-702.67-34.63-205.95-122.35-352.14-268.16-446.97-319.03-207.44-874.25-127.65-1468.03 11.1v-4.55c334.17-78.05 656.15-137.42 930.94-137.41 213.94.01 399.34 35.99 539.5 127.14" style="fill:#9652af;fill-opacity:1;fill-rule:nonzero;stroke:none"/><path d="M9085.66 5089.96c-54 137.77-3.97 264.7 144.65 367.08 146.33 100.8 204.18 208.61 167.32 311.78-23.31 65.24-83.03 125.97-169.84 179.79h-7.76c88.83-54.12 149.87-115.38 173.42-181.27 36.12-101.06-21.16-207.1-165.66-306.64-150.52-103.68-201.09-232.43-146.26-372.35 53.57-136.64 203.51-275.74 418.47-393.99v5.05c-212.87 117.45-361.31 255.27-414.34 390.55M6222.24 4775.1c144.83 94.44 232.53 237.2 268.07 436.47 65.67 367.98 301.03 595.86 569.8 737.04h-10.57c-22.24-11.93-43.91-24.27-64.95-37.02-278.2-168.79-445.98-404.04-498.65-699.24-35.32-198-122.38-339.81-266.14-433.53-315.63-205.82-863.73-139.43-1455.01-11.45v-4.52c319.23-69.06 625.92-120.18 890.43-120.17 225.9.01 421.09 37.27 567.02 132.42" style="fill:#ee2822;fill-opacity:1;fill-rule:nonzero;stroke:none"/><path d="M6209.08 4806.61c142.75 93.23 229.73 231.68 265.96 423.21 67.23 355.47 300.1 578.64 570.1 718.79h-8.62c-13.18-6.99-26.23-14.08-39.01-21.35-293.77-167.08-471.03-401.45-526.85-696.61-35.97-190.3-122.33-327.78-264.01-420.32-312.27-203.99-853.32-150.11-1441.86-32.61v-4.54c303.76-60.61 594.92-104.28 848.68-104.27 238.38.01 443.82 38.54 595.61 137.7M9119.1 5127.52c-49.64 131.88 2.87 253.88 151.83 352.81 147.4 97.9 207.34 202.33 173.36 302.05-19.91 58.44-72.22 114.86-151.9 166.23h-8.19c82-51.75 135.78-108.69 155.89-167.66 33.74-98.99-24-198.88-171.6-296.92-150.89-100.21-203.99-224.03-153.54-358.08 47.82-127.09 185.22-256.62 385.06-368.95v5.07c-197.72 111.48-333.59 239.72-380.91 365.45" style="fill:#885d32;fill-opacity:1;fill-rule:nonzero;stroke:none"/><path d="M9153.75 5163.75c-45.64 126.42 9.25 243.86 158.71 339.6 150.72 96.53 211.02 195.08 179.26 292.93-17.68 54.47-64.25 105.78-133.54 152.33h-7.33c71.07-46.86 118.79-98.65 136.67-153.71 31.05-95.67-28.64-192.51-177.44-287.81-151.43-97-206.93-216.24-160.5-344.85 42.39-117.41 166.89-237.19 350.42-343.05v5.96c-178.38 103.37-303.95 221.45-346.25 338.6M6195.77 4837.46c138.67 90.68 227.41 228.7 263.74 410.22 58.92 294.23 245.87 526.98 555.63 691.75 5.82 3.1 11.73 6.13 17.63 9.18h-9.63c-3.35-1.76-6.76-3.48-10.1-5.26-311-165.43-498.69-399.2-557.88-694.8-36.61-182.85-122.25-316.1-261.82-407.38-308.92-201.99-842.98-159.8-1428.55-52.49v-4.53c287.75-52.7 563.09-89.66 805.57-89.65 251.46 0 467.59 39.75 625.41 142.96" style="fill:#7f1a68;fill-opacity:1;fill-rule:nonzero;stroke:none"/><path d="M5584.76 4719.75c240.77 5.84 425.72 47.78 565.41 128.21 157.3 90.56 253.35 227.02 293.6 417.17 61.58 290.83 255.24 520.68 575.52 683.48h-9.78c-316.9-163.19-508.71-392.72-570.08-682.58-128.86-608.58-844.04-604.77-1674.64-465.81v-4.43c294.92-49.35 576.06-81.93 819.97-76.04M9500 5873.62v7.62c-19.23 23.2-44.17 45.72-74.62 67.37h-9.17c34.91-24.1 63.07-49.21 83.79-74.99M9189.6 5198.65c-42 121.39 15.18 234.59 165.35 327.37 64.65 39.95 113 80.21 145.06 120.58v7.19c-31.62-41.42-80.77-82.82-147.39-123.98-152.13-94.01-209.96-209.02-167.19-332.61 37.24-107.58 148.5-217.41 314.58-316.25v6.11c-161.5 96.5-273.39 204.62-310.41 311.59" style="fill:#ec0d61;fill-opacity:1;fill-rule:nonzero;stroke:none"/></g></svg>