<svg xmlns="http://www.w3.org/2000/svg" width="471.644" height="394.6"><defs><linearGradient id="b" x1="0" x2="1" y1="0" y2="0" gradientTransform="translate(420.664 4468.86)scale(3238.51)" gradientUnits="userSpaceOnUse" spreadMethod="pad"><stop offset="0" style="stop-opacity:1;stop-color:#e4239b"/><stop offset=".013" style="stop-opacity:1;stop-color:#d6279c"/><stop offset=".053" style="stop-opacity:1;stop-color:#b32f9e"/><stop offset=".093" style="stop-opacity:1;stop-color:#9f35a0"/><stop offset=".135" style="stop-opacity:1;stop-color:#9439a2"/><stop offset=".179" style="stop-opacity:1;stop-color:#903ba2"/><stop offset=".475" style="stop-opacity:1;stop-color:#4a4ba8"/><stop offset=".646" style="stop-opacity:1;stop-color:#4351ac"/><stop offset="1" style="stop-opacity:1;stop-color:#14161d"/></linearGradient><linearGradient id="d" x1="0" x2="1" y1="0" y2="0" gradientTransform="translate(461.909 4468.86)scale(3226.93)" gradientUnits="userSpaceOnUse" spreadMethod="pad"><stop offset="0" style="stop-opacity:1;stop-color:#e4239b"/><stop offset=".013" style="stop-opacity:1;stop-color:#d6279c"/><stop offset=".053" style="stop-opacity:1;stop-color:#b32f9e"/><stop offset=".093" style="stop-opacity:1;stop-color:#9f35a0"/><stop offset=".135" style="stop-opacity:1;stop-color:#9439a2"/><stop offset=".179" style="stop-opacity:1;stop-color:#903ba2"/><stop offset=".475" style="stop-opacity:1;stop-color:#4a4ba8"/><stop offset=".646" style="stop-opacity:1;stop-color:#4351ac"/><stop offset="1" style="stop-opacity:1;stop-color:#14161d"/></linearGradient><linearGradient id="f" x1="0" x2="1" y1="0" y2="0" gradientTransform="translate(502.07 4468.86)scale(3216.86)" gradientUnits="userSpaceOnUse" spreadMethod="pad"><stop offset="0" style="stop-opacity:1;stop-color:#e4239b"/><stop offset=".013" style="stop-opacity:1;stop-color:#d6279c"/><stop offset=".053" style="stop-opacity:1;stop-color:#b32f9e"/><stop offset=".093" style="stop-opacity:1;stop-color:#9f35a0"/><stop offset=".135" style="stop-opacity:1;stop-color:#9439a2"/><stop offset=".179" style="stop-opacity:1;stop-color:#903ba2"/><stop offset=".475" style="stop-opacity:1;stop-color:#4a4ba8"/><stop offset=".646" style="stop-opacity:1;stop-color:#4351ac"/><stop offset="1" style="stop-opacity:1;stop-color:#14161d"/></linearGradient><linearGradient id="h" x1="0" x2="1" y1="0" y2="0" gradientTransform="translate(541.189 4468.86)scale(3208.29)" gradientUnits="userSpaceOnUse" spreadMethod="pad"><stop offset="0" style="stop-opacity:1;stop-color:#e4239b"/><stop offset=".013" style="stop-opacity:1;stop-color:#d6279c"/><stop offset=".053" style="stop-opacity:1;stop-color:#b32f9e"/><stop offset=".093" style="stop-opacity:1;stop-color:#9f35a0"/><stop offset=".135" style="stop-opacity:1;stop-color:#9439a2"/><stop offset=".179" style="stop-opacity:1;stop-color:#903ba2"/><stop offset=".475" style="stop-opacity:1;stop-color:#4a4ba8"/><stop offset=".646" style="stop-opacity:1;stop-color:#4351ac"/><stop offset="1" style="stop-opacity:1;stop-color:#14161d"/></linearGradient><linearGradient id="j" x1="0" x2="1" y1="0" y2="0" gradientTransform="translate(579.267 4468.86)scale(3201.16)" gradientUnits="userSpaceOnUse" spreadMethod="pad"><stop offset="0" style="stop-opacity:1;stop-color:#e4239b"/><stop offset=".013" style="stop-opacity:1;stop-color:#d6279c"/><stop offset=".053" style="stop-opacity:1;stop-color:#b32f9e"/><stop offset=".093" style="stop-opacity:1;stop-color:#9f35a0"/><stop offset=".135" style="stop-opacity:1;stop-color:#9439a2"/><stop offset=".179" style="stop-opacity:1;stop-color:#903ba2"/><stop offset=".475" style="stop-opacity:1;stop-color:#4a4ba8"/><stop offset=".646" style="stop-opacity:1;stop-color:#4351ac"/><stop offset="1" style="stop-opacity:1;stop-color:#14161d"/></linearGradient><linearGradient id="l" x1="0" x2="1" y1="0" y2="0" gradientTransform="translate(616.316 4468.86)scale(3195.58)" gradientUnits="userSpaceOnUse" spreadMethod="pad"><stop offset="0" style="stop-opacity:1;stop-color:#e4239b"/><stop offset=".013" style="stop-opacity:1;stop-color:#d6279c"/><stop offset=".053" style="stop-opacity:1;stop-color:#b32f9e"/><stop offset=".093" style="stop-opacity:1;stop-color:#9f35a0"/><stop offset=".135" style="stop-opacity:1;stop-color:#9439a2"/><stop offset=".179" style="stop-opacity:1;stop-color:#903ba2"/><stop offset=".475" style="stop-opacity:1;stop-color:#4a4ba8"/><stop offset=".646" style="stop-opacity:1;stop-color:#4351ac"/><stop offset="1" style="stop-opacity:1;stop-color:#14161d"/></linearGradient><linearGradient id="n" x1="0" x2="1" y1="0" y2="0" gradientTransform="translate(652.322 4468.86)scale(3189.98)" gradientUnits="userSpaceOnUse" spreadMethod="pad"><stop offset="0" style="stop-opacity:1;stop-color:#e4239b"/><stop offset=".013" style="stop-opacity:1;stop-color:#d6279c"/><stop offset=".053" style="stop-opacity:1;stop-color:#b32f9e"/><stop offset=".093" style="stop-opacity:1;stop-color:#9f35a0"/><stop offset=".135" style="stop-opacity:1;stop-color:#9439a2"/><stop offset=".179" style="stop-opacity:1;stop-color:#903ba2"/><stop offset=".475" style="stop-opacity:1;stop-color:#4a4ba8"/><stop offset=".646" style="stop-opacity:1;stop-color:#4351ac"/><stop offset="1" style="stop-opacity:1;stop-color:#14161d"/></linearGradient><linearGradient id="p" x1="0" x2="1" y1="0" y2="0" gradientTransform="translate(687.289 4468.86)scale(3182.32)" gradientUnits="userSpaceOnUse" spreadMethod="pad"><stop offset="0" style="stop-opacity:1;stop-color:#e4239b"/><stop offset=".013" style="stop-opacity:1;stop-color:#d6279c"/><stop offset=".053" style="stop-opacity:1;stop-color:#b32f9e"/><stop offset=".093" style="stop-opacity:1;stop-color:#9f35a0"/><stop offset=".135" style="stop-opacity:1;stop-color:#9439a2"/><stop offset=".179" style="stop-opacity:1;stop-color:#903ba2"/><stop offset=".475" style="stop-opacity:1;stop-color:#4a4ba8"/><stop offset=".646" style="stop-opacity:1;stop-color:#4351ac"/><stop offset="1" style="stop-opacity:1;stop-color:#14161d"/></linearGradient><linearGradient id="r" x1="0" x2="1" y1="0" y2="0" gradientTransform="translate(721.434 4468.86)scale(3172.11)" gradientUnits="userSpaceOnUse" spreadMethod="pad"><stop offset="0" style="stop-opacity:1;stop-color:#e4239b"/><stop offset=".013" style="stop-opacity:1;stop-color:#d6279c"/><stop offset=".053" style="stop-opacity:1;stop-color:#b32f9e"/><stop offset=".093" style="stop-opacity:1;stop-color:#9f35a0"/><stop offset=".135" style="stop-opacity:1;stop-color:#9439a2"/><stop offset=".179" style="stop-opacity:1;stop-color:#903ba2"/><stop offset=".475" style="stop-opacity:1;stop-color:#4a4ba8"/><stop offset=".646" style="stop-opacity:1;stop-color:#4351ac"/><stop offset="1" style="stop-opacity:1;stop-color:#14161d"/></linearGradient><linearGradient id="t" x1="0" x2="1" y1="0" y2="0" gradientTransform="translate(754.402 4468.86)scale(3159.4)" gradientUnits="userSpaceOnUse" spreadMethod="pad"><stop offset="0" style="stop-opacity:1;stop-color:#e4239b"/><stop offset=".013" style="stop-opacity:1;stop-color:#d6279c"/><stop offset=".053" style="stop-opacity:1;stop-color:#b32f9e"/><stop offset=".093" style="stop-opacity:1;stop-color:#9f35a0"/><stop offset=".135" style="stop-opacity:1;stop-color:#9439a2"/><stop offset=".179" style="stop-opacity:1;stop-color:#903ba2"/><stop offset=".475" style="stop-opacity:1;stop-color:#4a4ba8"/><stop offset=".646" style="stop-opacity:1;stop-color:#4351ac"/><stop offset="1" style="stop-opacity:1;stop-color:#14161d"/></linearGradient><linearGradient id="v" x1="0" x2="1" y1="0" y2="0" gradientTransform="translate(786.391 4468.86)scale(3143.96)" gradientUnits="userSpaceOnUse" spreadMethod="pad"><stop offset="0" style="stop-opacity:1;stop-color:#e4239b"/><stop offset=".013" style="stop-opacity:1;stop-color:#d6279c"/><stop offset=".053" style="stop-opacity:1;stop-color:#b32f9e"/><stop offset=".093" style="stop-opacity:1;stop-color:#9f35a0"/><stop offset=".135" style="stop-opacity:1;stop-color:#9439a2"/><stop offset=".179" style="stop-opacity:1;stop-color:#903ba2"/><stop offset=".475" style="stop-opacity:1;stop-color:#4a4ba8"/><stop offset=".646" style="stop-opacity:1;stop-color:#4351ac"/><stop offset="1" style="stop-opacity:1;stop-color:#14161d"/></linearGradient><linearGradient id="x" x1="0" x2="1" y1="0" y2="0" gradientTransform="translate(817.338 4468.86)scale(3125.65)" gradientUnits="userSpaceOnUse" spreadMethod="pad"><stop offset="0" style="stop-opacity:1;stop-color:#e4239b"/><stop offset=".013" style="stop-opacity:1;stop-color:#d6279c"/><stop offset=".053" style="stop-opacity:1;stop-color:#b32f9e"/><stop offset=".093" style="stop-opacity:1;stop-color:#9f35a0"/><stop offset=".135" style="stop-opacity:1;stop-color:#9439a2"/><stop offset=".179" style="stop-opacity:1;stop-color:#903ba2"/><stop offset=".475" style="stop-opacity:1;stop-color:#4a4ba8"/><stop offset=".646" style="stop-opacity:1;stop-color:#4351ac"/><stop offset="1" style="stop-opacity:1;stop-color:#14161d"/></linearGradient><linearGradient id="z" x1="0" x2="1" y1="0" y2="0" gradientTransform="translate(847.315 4468.86)scale(3104.55)" gradientUnits="userSpaceOnUse" spreadMethod="pad"><stop offset="0" style="stop-opacity:1;stop-color:#e4239b"/><stop offset=".013" style="stop-opacity:1;stop-color:#d6279c"/><stop offset=".053" style="stop-opacity:1;stop-color:#b32f9e"/><stop offset=".093" style="stop-opacity:1;stop-color:#9f35a0"/><stop offset=".135" style="stop-opacity:1;stop-color:#9439a2"/><stop offset=".179" style="stop-opacity:1;stop-color:#903ba2"/><stop offset=".475" style="stop-opacity:1;stop-color:#4a4ba8"/><stop offset=".646" style="stop-opacity:1;stop-color:#4351ac"/><stop offset="1" style="stop-opacity:1;stop-color:#14161d"/></linearGradient><linearGradient id="B" x1="0" x2="1" y1="0" y2="0" gradientTransform="translate(876.301 4468.86)scale(3080.5)" gradientUnits="userSpaceOnUse" spreadMethod="pad"><stop offset="0" style="stop-opacity:1;stop-color:#e4239b"/><stop offset=".013" style="stop-opacity:1;stop-color:#d6279c"/><stop offset=".053" style="stop-opacity:1;stop-color:#b32f9e"/><stop offset=".093" style="stop-opacity:1;stop-color:#9f35a0"/><stop offset=".135" style="stop-opacity:1;stop-color:#9439a2"/><stop offset=".179" style="stop-opacity:1;stop-color:#903ba2"/><stop offset=".475" style="stop-opacity:1;stop-color:#4a4ba8"/><stop offset=".646" style="stop-opacity:1;stop-color:#4351ac"/><stop offset="1" style="stop-opacity:1;stop-color:#14161d"/></linearGradient><linearGradient id="D" x1="0" x2="1" y1="0" y2="0" gradientTransform="translate(904.305 4468.86)scale(3053.68)" gradientUnits="userSpaceOnUse" spreadMethod="pad"><stop offset="0" style="stop-opacity:1;stop-color:#e4239b"/><stop offset=".013" style="stop-opacity:1;stop-color:#d6279c"/><stop offset=".053" style="stop-opacity:1;stop-color:#b32f9e"/><stop offset=".093" style="stop-opacity:1;stop-color:#9f35a0"/><stop offset=".135" style="stop-opacity:1;stop-color:#9439a2"/><stop offset=".179" style="stop-opacity:1;stop-color:#903ba2"/><stop offset=".475" style="stop-opacity:1;stop-color:#4a4ba8"/><stop offset=".646" style="stop-opacity:1;stop-color:#4351ac"/><stop offset="1" style="stop-opacity:1;stop-color:#14161d"/></linearGradient><linearGradient id="F" x1="0" x2="1" y1="0" y2="0" gradientTransform="translate(931.313 4468.86)scale(3024.5)" gradientUnits="userSpaceOnUse" spreadMethod="pad"><stop offset="0" style="stop-opacity:1;stop-color:#e4239b"/><stop offset=".013" style="stop-opacity:1;stop-color:#d6279c"/><stop offset=".053" style="stop-opacity:1;stop-color:#b32f9e"/><stop offset=".093" style="stop-opacity:1;stop-color:#9f35a0"/><stop offset=".135" style="stop-opacity:1;stop-color:#9439a2"/><stop offset=".179" style="stop-opacity:1;stop-color:#903ba2"/><stop offset=".475" style="stop-opacity:1;stop-color:#4a4ba8"/><stop offset=".646" style="stop-opacity:1;stop-color:#4351ac"/><stop offset="1" style="stop-opacity:1;stop-color:#14161d"/></linearGradient><linearGradient id="H" x1="0" x2="1" y1="0" y2="0" gradientTransform="translate(957.318 4468.86)scale(2993.03)" gradientUnits="userSpaceOnUse" spreadMethod="pad"><stop offset="0" style="stop-opacity:1;stop-color:#e4239b"/><stop offset=".013" style="stop-opacity:1;stop-color:#d6279c"/><stop offset=".053" style="stop-opacity:1;stop-color:#b32f9e"/><stop offset=".093" style="stop-opacity:1;stop-color:#9f35a0"/><stop offset=".135" style="stop-opacity:1;stop-color:#9439a2"/><stop offset=".179" style="stop-opacity:1;stop-color:#903ba2"/><stop offset=".475" style="stop-opacity:1;stop-color:#4a4ba8"/><stop offset=".646" style="stop-opacity:1;stop-color:#4351ac"/><stop offset="1" style="stop-opacity:1;stop-color:#14161d"/></linearGradient><linearGradient id="J" x1="0" x2="1" y1="0" y2="0" gradientTransform="translate(982.347 4468.86)scale(2959.72)" gradientUnits="userSpaceOnUse" spreadMethod="pad"><stop offset="0" style="stop-opacity:1;stop-color:#e4239b"/><stop offset=".013" style="stop-opacity:1;stop-color:#d6279c"/><stop offset=".053" style="stop-opacity:1;stop-color:#b32f9e"/><stop offset=".093" style="stop-opacity:1;stop-color:#9f35a0"/><stop offset=".135" style="stop-opacity:1;stop-color:#9439a2"/><stop offset=".179" style="stop-opacity:1;stop-color:#903ba2"/><stop offset=".475" style="stop-opacity:1;stop-color:#4a4ba8"/><stop offset=".646" style="stop-opacity:1;stop-color:#4351ac"/><stop offset="1" style="stop-opacity:1;stop-color:#14161d"/></linearGradient><linearGradient id="L" x1="0" x2="1" y1="0" y2="0" gradientTransform="translate(1006.35 4468.86)scale(2925.11)" gradientUnits="userSpaceOnUse" spreadMethod="pad"><stop offset="0" style="stop-opacity:1;stop-color:#e4239b"/><stop offset=".013" style="stop-opacity:1;stop-color:#d6279c"/><stop offset=".053" style="stop-opacity:1;stop-color:#b32f9e"/><stop offset=".093" style="stop-opacity:1;stop-color:#9f35a0"/><stop offset=".135" style="stop-opacity:1;stop-color:#9439a2"/><stop offset=".179" style="stop-opacity:1;stop-color:#903ba2"/><stop offset=".475" style="stop-opacity:1;stop-color:#4a4ba8"/><stop offset=".646" style="stop-opacity:1;stop-color:#4351ac"/><stop offset="1" style="stop-opacity:1;stop-color:#14161d"/></linearGradient><linearGradient id="N" x1="0" x2="1" y1="0" y2="0" gradientTransform="translate(1029.36 4468.86)scale(2889.43)" gradientUnits="userSpaceOnUse" spreadMethod="pad"><stop offset="0" style="stop-opacity:1;stop-color:#e4239b"/><stop offset=".013" style="stop-opacity:1;stop-color:#d6279c"/><stop offset=".053" style="stop-opacity:1;stop-color:#b32f9e"/><stop offset=".093" style="stop-opacity:1;stop-color:#9f35a0"/><stop offset=".135" style="stop-opacity:1;stop-color:#9439a2"/><stop offset=".179" style="stop-opacity:1;stop-color:#903ba2"/><stop offset=".475" style="stop-opacity:1;stop-color:#4a4ba8"/><stop offset=".646" style="stop-opacity:1;stop-color:#4351ac"/><stop offset="1" style="stop-opacity:1;stop-color:#14161d"/></linearGradient><linearGradient id="P" x1="0" x2="1" y1="0" y2="0" gradientTransform="translate(1051.38 4468.86)scale(2853.22)" gradientUnits="userSpaceOnUse" spreadMethod="pad"><stop offset="0" style="stop-opacity:1;stop-color:#e4239b"/><stop offset=".013" style="stop-opacity:1;stop-color:#d6279c"/><stop offset=".053" style="stop-opacity:1;stop-color:#b32f9e"/><stop offset=".093" style="stop-opacity:1;stop-color:#9f35a0"/><stop offset=".135" style="stop-opacity:1;stop-color:#9439a2"/><stop offset=".179" style="stop-opacity:1;stop-color:#903ba2"/><stop offset=".475" style="stop-opacity:1;stop-color:#4a4ba8"/><stop offset=".646" style="stop-opacity:1;stop-color:#4351ac"/><stop offset="1" style="stop-opacity:1;stop-color:#14161d"/></linearGradient><linearGradient id="R" x1="0" x2="1" y1="0" y2="0" gradientTransform="translate(1072.38 4468.86)scale(2816.93)" gradientUnits="userSpaceOnUse" spreadMethod="pad"><stop offset="0" style="stop-opacity:1;stop-color:#e4239b"/><stop offset=".013" style="stop-opacity:1;stop-color:#d6279c"/><stop offset=".053" style="stop-opacity:1;stop-color:#b32f9e"/><stop offset=".093" style="stop-opacity:1;stop-color:#9f35a0"/><stop offset=".135" style="stop-opacity:1;stop-color:#9439a2"/><stop offset=".179" style="stop-opacity:1;stop-color:#903ba2"/><stop offset=".475" style="stop-opacity:1;stop-color:#4a4ba8"/><stop offset=".646" style="stop-opacity:1;stop-color:#4351ac"/><stop offset="1" style="stop-opacity:1;stop-color:#14161d"/></linearGradient><linearGradient id="T" x1="0" x2="1" y1="0" y2="0" gradientTransform="translate(1092.37 4468.86)scale(2780.99)" gradientUnits="userSpaceOnUse" spreadMethod="pad"><stop offset="0" style="stop-opacity:1;stop-color:#e4239b"/><stop offset=".013" style="stop-opacity:1;stop-color:#d6279c"/><stop offset=".053" style="stop-opacity:1;stop-color:#b32f9e"/><stop offset=".093" style="stop-opacity:1;stop-color:#9f35a0"/><stop offset=".135" style="stop-opacity:1;stop-color:#9439a2"/><stop offset=".179" style="stop-opacity:1;stop-color:#903ba2"/><stop offset=".475" style="stop-opacity:1;stop-color:#4a4ba8"/><stop offset=".646" style="stop-opacity:1;stop-color:#4351ac"/><stop offset="1" style="stop-opacity:1;stop-color:#14161d"/></linearGradient><linearGradient id="V" x1="0" x2="1" y1="0" y2="0" gradientTransform="translate(1111.32 4468.86)scale(2745.8)" gradientUnits="userSpaceOnUse" spreadMethod="pad"><stop offset="0" style="stop-opacity:1;stop-color:#e4239b"/><stop offset=".013" style="stop-opacity:1;stop-color:#d6279c"/><stop offset=".053" style="stop-opacity:1;stop-color:#b32f9e"/><stop offset=".093" style="stop-opacity:1;stop-color:#9f35a0"/><stop offset=".135" style="stop-opacity:1;stop-color:#9439a2"/><stop offset=".179" style="stop-opacity:1;stop-color:#903ba2"/><stop offset=".475" style="stop-opacity:1;stop-color:#4a4ba8"/><stop offset=".646" style="stop-opacity:1;stop-color:#4351ac"/><stop offset="1" style="stop-opacity:1;stop-color:#14161d"/></linearGradient><linearGradient id="X" x1="0" x2="1" y1="0" y2="0" gradientTransform="translate(1129.22 4468.86)scale(2711.65)" gradientUnits="userSpaceOnUse" spreadMethod="pad"><stop offset="0" style="stop-opacity:1;stop-color:#e4239b"/><stop offset=".013" style="stop-opacity:1;stop-color:#d6279c"/><stop offset=".053" style="stop-opacity:1;stop-color:#b32f9e"/><stop offset=".093" style="stop-opacity:1;stop-color:#9f35a0"/><stop offset=".135" style="stop-opacity:1;stop-color:#9439a2"/><stop offset=".179" style="stop-opacity:1;stop-color:#903ba2"/><stop offset=".475" style="stop-opacity:1;stop-color:#4a4ba8"/><stop offset=".646" style="stop-opacity:1;stop-color:#4351ac"/><stop offset="1" style="stop-opacity:1;stop-color:#14161d"/></linearGradient><linearGradient id="Z" x1="0" x2="1" y1="0" y2="0" gradientTransform="translate(1146.1 4468.86)scale(2678.79)" gradientUnits="userSpaceOnUse" spreadMethod="pad"><stop offset="0" style="stop-opacity:1;stop-color:#e4239b"/><stop offset=".013" style="stop-opacity:1;stop-color:#d6279c"/><stop offset=".053" style="stop-opacity:1;stop-color:#b32f9e"/><stop offset=".093" style="stop-opacity:1;stop-color:#9f35a0"/><stop offset=".135" style="stop-opacity:1;stop-color:#9439a2"/><stop offset=".179" style="stop-opacity:1;stop-color:#903ba2"/><stop offset=".475" style="stop-opacity:1;stop-color:#4a4ba8"/><stop offset=".646" style="stop-opacity:1;stop-color:#4351ac"/><stop offset="1" style="stop-opacity:1;stop-color:#14161d"/></linearGradient><linearGradient id="ab" x1="0" x2="1" y1="0" y2="0" gradientTransform="translate(1161.92 4468.86)scale(2647.53)" gradientUnits="userSpaceOnUse" spreadMethod="pad"><stop offset="0" style="stop-opacity:1;stop-color:#e4239b"/><stop offset=".013" style="stop-opacity:1;stop-color:#d6279c"/><stop offset=".053" style="stop-opacity:1;stop-color:#b32f9e"/><stop offset=".093" style="stop-opacity:1;stop-color:#9f35a0"/><stop offset=".135" style="stop-opacity:1;stop-color:#9439a2"/><stop offset=".179" style="stop-opacity:1;stop-color:#903ba2"/><stop offset=".475" style="stop-opacity:1;stop-color:#4a4ba8"/><stop offset=".646" style="stop-opacity:1;stop-color:#4351ac"/><stop offset="1" style="stop-opacity:1;stop-color:#14161d"/></linearGradient><linearGradient id="ad" x1="0" x2="1" y1="0" y2="0" gradientTransform="translate(1176.65 4468.86)scale(2618.04)" gradientUnits="userSpaceOnUse" spreadMethod="pad"><stop offset="0" style="stop-opacity:1;stop-color:#e4239b"/><stop offset=".013" style="stop-opacity:1;stop-color:#d6279c"/><stop offset=".053" style="stop-opacity:1;stop-color:#b32f9e"/><stop offset=".093" style="stop-opacity:1;stop-color:#9f35a0"/><stop offset=".135" style="stop-opacity:1;stop-color:#9439a2"/><stop offset=".179" style="stop-opacity:1;stop-color:#903ba2"/><stop offset=".475" style="stop-opacity:1;stop-color:#4a4ba8"/><stop offset=".646" style="stop-opacity:1;stop-color:#4351ac"/><stop offset="1" style="stop-opacity:1;stop-color:#14161d"/></linearGradient><linearGradient id="af" x1="0" x2="1" y1="0" y2="0" gradientTransform="translate(1190.27 4468.86)scale(2590.46)" gradientUnits="userSpaceOnUse" spreadMethod="pad"><stop offset="0" style="stop-opacity:1;stop-color:#e4239b"/><stop offset=".013" style="stop-opacity:1;stop-color:#d6279c"/><stop offset=".053" style="stop-opacity:1;stop-color:#b32f9e"/><stop offset=".093" style="stop-opacity:1;stop-color:#9f35a0"/><stop offset=".135" style="stop-opacity:1;stop-color:#9439a2"/><stop offset=".179" style="stop-opacity:1;stop-color:#903ba2"/><stop offset=".475" style="stop-opacity:1;stop-color:#4a4ba8"/><stop offset=".646" style="stop-opacity:1;stop-color:#4351ac"/><stop offset="1" style="stop-opacity:1;stop-color:#14161d"/></linearGradient><linearGradient id="ah" x1="0" x2="1" y1="0" y2="0" gradientTransform="translate(1202.77 4468.86)scale(2564.87)" gradientUnits="userSpaceOnUse" spreadMethod="pad"><stop offset="0" style="stop-opacity:1;stop-color:#e4239b"/><stop offset=".013" style="stop-opacity:1;stop-color:#d6279c"/><stop offset=".053" style="stop-opacity:1;stop-color:#b32f9e"/><stop offset=".093" style="stop-opacity:1;stop-color:#9f35a0"/><stop offset=".135" style="stop-opacity:1;stop-color:#9439a2"/><stop offset=".179" style="stop-opacity:1;stop-color:#903ba2"/><stop offset=".475" style="stop-opacity:1;stop-color:#4a4ba8"/><stop offset=".646" style="stop-opacity:1;stop-color:#4351ac"/><stop offset="1" style="stop-opacity:1;stop-color:#14161d"/></linearGradient><linearGradient id="aj" x1="0" x2="1" y1="0" y2="0" gradientTransform="translate(1214.17 4468.86)scale(2541.47)" gradientUnits="userSpaceOnUse" spreadMethod="pad"><stop offset="0" style="stop-opacity:1;stop-color:#e4239b"/><stop offset=".013" style="stop-opacity:1;stop-color:#d6279c"/><stop offset=".053" style="stop-opacity:1;stop-color:#b32f9e"/><stop offset=".093" style="stop-opacity:1;stop-color:#9f35a0"/><stop offset=".135" style="stop-opacity:1;stop-color:#9439a2"/><stop offset=".179" style="stop-opacity:1;stop-color:#903ba2"/><stop offset=".475" style="stop-opacity:1;stop-color:#4a4ba8"/><stop offset=".646" style="stop-opacity:1;stop-color:#4351ac"/><stop offset="1" style="stop-opacity:1;stop-color:#14161d"/></linearGradient><clipPath id="a" clipPathUnits="userSpaceOnUse"><path d="M449.973 5530.83c149.824 210.44 980.167-146.49 1379.207-318.02 185.04-79.54 228.8-97.13 233.93-87.41 3.71 7-8.11 21.68-192.35 138.83-128.46 81.68-185.61 137.75-174.76 171.42 20.38 63.23 285.46 47.99 592.4 30.35 267.07-15.34 569.78-32.73 826.27-10.33 299.05 26.12 471.05 101.87 525.85 231.53 29.84 70.61 23.83 158.21-17.68 261.41h-6.36c41.7-102.64 48.02-189.45 18.59-259.11-121.68-287.95-829.5-247.29-1346.33-217.59-322.15 18.51-576.58 33.13-598.37-34.45-11.97-37.11 44.34-93.75 177.23-178.25 45.2-28.73 180.4-114.7 189.65-130.71-.16-.02-.34-.02-.5-.02-16.45 0-113.56 41.75-225.25 89.76-204.02 87.71-512.33 220.23-788.21 304.13-330.888 100.63-532.134 104.62-598.157 11.88-50.481-70.9-22.77-199.12 82.351-381.09 118.34-204.86 338-483.76 652.866-828.94 630.43-691.15 844.7-1096.97 874.88-1335.11h5.57c-30.4 240.01-245.27 647.52-876.07 1339.1-592.906 650.01-840.105 1054.64-734.757 1202.62"/></clipPath><clipPath id="c" clipPathUnits="userSpaceOnUse"><path d="M492.652 5492.45c152.852 214.94 971.898-128.49 1365.528-293.53 182.58-76.54 225.78-93.44 230.95-83.54 3.72 7.13-7.82 21.68-188.72 136.01-125.44 79.28-181.26 134.42-170.64 168.56 20.13 64.75 284.16 54.45 589.9 42.53 266.41-10.38 568.37-22.17 824.46 5.69 298.6 32.49 470.59 113 525.73 246.14 26.98 65.07 25.15 143.51-5.16 234.3h-6.23c30.46-90.16 32.52-167.85 5.92-232.03-122.58-295.85-828.83-268.3-1344.51-248.19-320.87 12.5-574.31 22.4-595.77-46.68-11.68-37.59 43.32-93.3 173.13-175.33 44.5-28.13 177.84-112.4 186.09-127.99-14.24-1.56-111.11 39.13-222.87 85.99-201.24 84.38-505.37 211.9-778.15 291.07-327.165 94.94-527.177 95.09-594.478.44-51.43-72.34-26.254-200.84 74.824-381.96 113.797-203.9 326.871-480.35 633.304-821.66 593.61-661.15 805.29-1061.16 841.41-1303.16h5.58c-36.27 243.75-248.45 645.37-842.59 1307.12-577.02 642.68-815.122 1045.15-707.708 1196.22"/></clipPath><clipPath id="e" clipPathUnits="userSpaceOnUse"><path d="M534.352 5454.63c155.902 219.53 964.018-110.55 1352.368-269.17 180.21-73.62 222.89-89.83 228.07-79.73 3.73 7.27-7.53 21.69-185.17 133.25-122.45 76.91-176.94 131.13-166.6 165.73 19.82 66.31 282.99 60.98 587.71 54.79 265.89-5.4 567.26-11.52 823.1 21.88 298.31 38.93 470.3 124.3 525.83 261.02 23.89 58.83 25.54 127.81 5.11 206.21h-6.11c20.5-77.73 19.07-145.97-4.48-203.98-123.46-303.97-828.52-289.66-1343.33-279.2-319.79 6.48-572.38 11.61-593.5-59.02-11.37-38.02 42.37-92.82 169.11-172.43 43.83-27.52 175.32-110.1 182.63-125.3-13.44-2.09-109.42 37.03-220.12 82.25-198.56 81.11-498.62 203.67-768.41 278.13-323.564 89.31-522.408 85.6-591.029-11-52.398-73.77-29.734-202.61 67.332-382.95 109.297-203.02 315.875-477.12 614.007-814.66 370.2-419.14 617.78-769.94 735.85-1042.63 36.41-84.1 60.39-160.38 72.08-228.71h5.99c-41.38 246.7-250.14 641.97-809.49 1275.26-561.362 635.6-790.464 1036.06-680.948 1190.26"/></clipPath><clipPath id="g" clipPathUnits="userSpaceOnUse"><path d="M575.113 5417.37c159.075 224.23 956.557-92.63 1339.807-244.9 177.91-70.68 220.04-86.17 225.24-75.91 3.73 7.39-7.29 21.7-181.7 130.53-119.5 74.57-172.7 127.85-162.64 162.9 19.49 67.87 269.39 67.53 585.75 67.12 515.92-.73 1222.58-1.63 1348.34 314.43 20.64 51.89 24.93 111.07 12.96 177.07h-6c11.99-65.32 7.87-123.78-12.47-174.88-124.26-312.34-828.53-311.46-1342.82-310.69-318.85.41-570.72.76-591.45-71.42-11.04-38.47 41.45-92.33 165.19-169.55 43.14-26.92 172.8-107.82 179.19-122.64-12.89-2.72-107.79 34.99-217.4 78.53-195.94 77.87-492.07 195.51-758.98 265.31-320.118 83.7-517.892 76.13-587.849-22.47-53.383-75.26-33.23-204.5 59.879-384.1 104.844-202.23 305.008-474.09 594.95-808.02 361.41-416.23 601.3-765.52 712.99-1038.13 29.89-72.96 50.57-140.15 62.04-201.44h6.02c-45.7 248.87-250.24 637.25-776.59 1243.46-545.925 628.77-766.117 1027.39-654.457 1184.8"/></clipPath><clipPath id="i" clipPathUnits="userSpaceOnUse"><path d="M614.922 5380.59c162.273 229.03 949.458-74.7 1327.768-220.66 175.68-67.79 217.31-82.58 222.5-72.14 3.61 7.28-7.31 21.91-178.31 127.88-116.58 72.25-168.51 124.6-158.75 160.06 19.11 69.48 268.41 73.93 584.04 79.56 515.7 9.2 1221.95 21.81 1348.46 346.46 17.2 44.14 23.16 93.2 18 146.86h-5.93c5.15-52.95-.65-101.29-17.58-144.71-125.07-320.95-829.04-333.52-1343.06-342.69-318.1-5.67-569.35-10.16-589.65-83.91-10.69-38.87 40.58-91.82 161.36-166.67 42.48-26.32 170.33-105.56 175.83-120.04-12.12-3.38-106.18 32.95-214.78 74.85-193.42 74.63-485.72 187.42-749.85 252.54-316.79 78.13-513.568 66.7-584.876-33.97-54.391-76.76-36.742-206.44 52.445-385.4 100.422-201.5 294.246-471.22 576.101-801.65 352.81-413.59 585.08-761.56 690.39-1034.24 23.94-62.01 41.23-119.88 52.01-173.61h6.3c-49.39 250.35-249.27 631.48-744.2 1211.7-530.695 622.17-742.054 1019.11-628.218 1179.78"/></clipPath><clipPath id="k" clipPathUnits="userSpaceOnUse"><path d="M653.793 5344.35c165.527 233.94 942.737-56.8 1316.257-196.51 170.8-63.89 214.71-78.96 219.88-68.38 3.61 7.4-7.06 21.93-174.97 125.24-113.7 69.98-164.38 121.41-154.96 157.24 18.7 71.11 267.55 80.38 582.6 92.1 515.72 19.21 1222.04 45.51 1349.28 379 13.58 35.62 20.22 74.2 20.01 115.57h-5.9c.19-40.65-6.31-78.52-19.63-113.46-125.85-329.83-829.9-356.05-1343.98-375.19-317.5-11.82-568.28-21.16-588.09-96.51-10.32-39.24 39.75-91.27 157.59-163.79 41.81-25.73 167.91-103.34 172.51-117.48-11.47-3.95-104.63 30.94-212.27 71.2-190.96 71.43-479.56 179.39-741.01 239.89-313.559 72.56-509.43 57.25-582.141-45.51-55.406-78.29-40.246-208.45 45.058-386.83 96.047-200.86 283.614-468.54 557.493-795.6 344.37-411.21 569.11-758.12 667.99-1031.04 18.53-51.15 32.63-99.56 42.3-145.17h6.33c-52.41 251.15-246.96 624.6-712.08 1180.01-515.689 615.81-718.31 1011.22-602.267 1175.22"/></clipPath><clipPath id="m" clipPathUnits="userSpaceOnUse"><path d="M691.738 5308.6c168.867 238.97 936.432-38.9 1305.312-172.41 168.77-61.1 212.14-75.42 217.32-64.65 3.6 7.52-6.81 21.95-171.69 122.66-110.86 67.71-160.35 118.23-151.26 154.43 18.24 72.75 266.77 86.87 581.43 104.76 516.06 29.34 1222.83 69.51 1350.75 412.11 9.8 26.23 16.01 53.96 18.7 83.11h-5.94c-2.67-28.43-8.75-55.48-18.3-81.06-126.56-338.94-831.11-379-1345.53-408.24-317.08-18.02-567.54-32.26-586.85-109.22-9.92-39.59 38.99-90.73 153.91-160.92 41.19-25.16 165.55-101.12 169.27-114.96-10.74-4.47-103.12 28.94-209.79 67.56-188.59 68.27-473.6 171.44-732.52 227.33-310.491 67.03-505.503 47.83-579.636-57.06-56.445-79.88-43.766-210.57 37.688-388.44 91.711-200.29 273.093-466.03 539.108-789.84 336.09-409.11 553.37-755.17 645.78-1028.54 13.66-40.4 24.52-79.08 32.72-116.11h6.58c-54.91 251.34-243.83 616.84-680.52 1148.4C767.41 4747.18 573.438 5141.2 691.738 5308.6"/></clipPath><clipPath id="o" clipPathUnits="userSpaceOnUse"><path d="M1279.81 4105.88c-486.232 603.78-671.622 996.58-551.025 1167.46 172.274 244.12 930.505-20.96 1294.885-148.34 155.35-54.32 209.37-72.51 214.83-60.93 3.61 7.66-6.58 21.99-168.51 120.13-108.04 65.48-156.32 115.07-147.61 151.58 17.76 74.4 266.11 93.43 580.53 117.53 516.72 39.6 1224.38 93.85 1352.97 445.75 5.84 16.01 10.4 32.54 13.73 49.55h-6.04c-3.26-16.31-7.65-32.17-13.27-47.53-127.26-348.32-832.73-402.39-1347.86-441.87-316.83-24.28-567.09-43.46-585.84-122.05-9.38-39.35 39.79-91.04 150.3-158.02 108.31-65.64 164.16-103.47 166.1-112.47-10.15-5.06-101.64 26.94-207.39 63.91-186.29 65.13-467.83 163.55-724.3 214.86-307.525 61.5-501.79 38.4-577.372-68.69-57.5-81.47-47.297-212.75 30.332-390.18 87.41-199.81 262.67-463.72 520.92-784.41 327.99-407.28 537.87-752.71 623.77-1026.69 9.3-29.68 17.14-58.47 23.54-86.36h6.07c-6.48 28.46-14.45 57.83-23.94 88.13-86.15 274.69-296.37 620.77-624.82 1028.64"/></clipPath><clipPath id="q" clipPathUnits="userSpaceOnUse"><path d="M1290.68 4074.29c-471.785 598.13-648.676 989.82-525.762 1164.23 175.746 249.34 924.922-3.02 1284.952-124.29 153.63-51.75 207.02-69.06 212.47-57.24 3.62 7.8-6.33 22.03-165.36 117.63-105.25 63.28-152.36 111.93-144.03 148.75 17.2 76.04 265.48 100.02 579.8 130.39 517.7 50.03 1226.71 118.52 1355.93 480.04 1.75 4.9 3.33 9.84 4.86 14.81h-6.32c-1.35-4.29-2.61-8.59-4.11-12.81-127.96-357.98-834.81-426.27-1350.92-476.14-316.7-30.6-566.86-54.77-585.01-135-8.97-39.61 39.05-90.36 146.76-155.11 108.03-64.94 162.88-102.06 163.21-109.85-8.02-6.34-99.47 24.47-205.38 60.14-184.07 62.01-462.26 155.71-716.35 202.43-304.7 56.02-498.272 29-575.326-80.34-124.606-176.8 52.347-570.87 525.946-1171.29 320.05-405.74 522.56-750.82 601.91-1025.61 5.49-19.01 10.32-37.62 14.63-55.91h6.07c-4.41 18.82-9.38 37.98-15.03 57.54-79.56 275.54-282.42 621.29-602.94 1027.63"/></clipPath><clipPath id="s" clipPathUnits="userSpaceOnUse"><path d="M1300.91 4042.71c-457.527 592.69-625.988 983.46-500.711 1161.46 179.274 254.73 919.751 14.95 1275.581-100.28 151.93-49.19 204.74-65.57 210.19-53.56 3.6 7.94-6.14 22.08-162.32 115.19-102.52 61.1-148.49 108.81-140.56 145.87 16.61 77.71 264.95 106.71 579.36 143.42 508.96 59.44 1202.3 140.43 1351.35 493.8h-6.47c-149.74-348.23-839.17-428.79-1345.57-487.92-316.76-36.98-566.97-66.2-584.47-148.06-8.52-39.85 38.36-89.63 143.34-152.2 106.24-63.34 160.04-99.62 160.06-107.48-7.68-6.69-98.24 22.63-203.09 56.58-181.94 58.92-456.87 147.94-708.73 190.1-302 50.53-494.952 19.57-573.515-92.06-126.949-180.37 41.575-573.49 500.875-1168.47 312.27-404.52 507.47-749.47 580.17-1025.3 2.19-8.31 4.23-16.53 6.2-24.69h6.08c-2.07 8.67-4.23 17.39-6.55 26.2-72.91 276.59-268.46 622.26-581.22 1027.4"/></clipPath><clipPath id="u" clipPathUnits="userSpaceOnUse"><path d="M834.617 5170.26c182.913 260.26 915.003 32.94 1266.823-76.3 150.22-46.64 202.45-62.17 207.9-49.9 3.44 7.78-6.15 22.24-159.32 112.75-99.81 58.97-144.67 105.74-137.16 143.03 15.98 79.39 264.53 113.45 579.21 156.57 492.94 67.57 1158.27 158.83 1338.28 492.2h-6.74c-180.74-328.41-842.07-419.12-1332.34-486.32-317-43.45-567.4-77.77-584.21-161.28-8.08-40.05 37.71-88.87 139.95-149.28 104.53-61.77 157.31-97.23 156.99-105.14-7.3-7.05-96.98 20.79-200.81 53.03-179.85 55.84-451.67 140.23-701.41 177.85-299.45 45.08-491.897 10.16-571.999-103.81-129.336-184.02 30.805-576.36 475.989-1166.12 301.98-400.06 489.19-742.62 556.69-1018.43h6.11c-67.4 276.83-255.1 620.62-558.09 1021.99-443.449 587.48-603.55 977.48-475.863 1159.16"/></clipPath><clipPath id="w" clipPathUnits="userSpaceOnUse"><path d="M868.129 5136.75c186.581 265.86 910.511 51.01 1258.411-52.24 148.71-44.13 200.42-58.75 205.83-46.27 3.44 7.92-5.94 22.32-156.39 110.4-97.11 56.86-140.87 102.7-133.79 140.14 15.31 81.04 264.18 120.23 579.26 169.86 476.64 75.07 1113.87 175.49 1321.54 489.97h-7.05c-208.38-309.73-841.52-409.49-1315.4-484.13-317.39-49.98-568.09-89.47-584.16-174.61-7.59-40.21 37.1-88.08 136.63-146.34 102.92-60.25 154.7-94.92 154-102.85-6.81-7.46-95.79 18.94-198.78 49.5-177.86 52.78-446.64 132.56-694.33 165.61-296.97 39.64-488.943.72-570.607-115.65-131.738-187.72 20.102-579.39 451.317-1164.14 283.08-383.86 460.36-715.56 527.66-986.89h6.09c-67.23 272.37-244.96 605.26-529 990.42C889.824 4562 738.008 4951.34 868.129 5136.75"/></clipPath><clipPath id="y" clipPathUnits="userSpaceOnUse"><path d="M900.855 5103.64c190.355 271.63 906.485 69.12 1250.655-28.2 147.2-41.64 198.37-55.37 203.76-42.64 3.42 8.05-5.76 22.37-153.51 108.05-94.49 54.77-137.19 99.67-130.56 137.24 14.59 82.71 263.92 127.1 579.6 183.31 460.12 81.94 1069.28 190.42 1301.07 487.21h-7.49c-232.39-292.22-837.33-399.95-1294.62-481.38-317.94-56.61-569.08-101.32-584.38-188.1-7.12-40.31 36.52-87.22 133.39-143.4 101.43-58.79 152.24-92.67 151.08-100.58-6.31-7.87-98.81 18.3-196.73 45.98-175.95 49.76-441.84 124.94-687.6 153.47-294.64 34.18-486.25-8.73-569.52-127.56-134.215-191.52 9.387-582.68 426.82-1162.63 264.89-368.05 432.49-688.9 499.21-955.3h6.1c-66.68 267.44-234.7 589.46-500.51 958.76-415.796 577.68-559.374 966.54-426.765 1155.77"/></clipPath><clipPath id="A" clipPathUnits="userSpaceOnUse"><path d="M932.73 5070.91c194.19 277.52 902.81 87.3 1243.33-4.12 148.28-39.79 196.65-51.6 201.84-39.02 3.37 8.21-5.6 22.46-150.72 105.76-91.88 52.74-133.54 96.67-127.37 134.34 13.83 84.35 263.76 134.01 580.18 196.89 443.38 88.11 1024.48 203.62 1276.81 483.85h-8.01c-252.75-275.86-829.49-390.52-1269.97-478.04-318.66-63.32-570.36-113.34-584.86-201.75-6.61-40.37 35.98-86.31 130.25-140.41 124.65-71.55 149.38-92.99 148.21-98.34-5.55-8.36-97.51 16.32-194.83 42.45-174.08 46.73-437.18 117.36-681.1 141.34-292.41 28.75-483.72-18.21-568.619-139.55-136.715-195.37-1.289-586.17 402.519-1161.55 247.44-352.57 405.62-662.61 471.45-923.65h6.08c-65.8 262.08-224.39 573.26-472.68 927.04-402.22 573.12-537.642 961.64-402.51 1154.76"/></clipPath><clipPath id="C" clipPathUnits="userSpaceOnUse"><path d="M963.785 5038.57c198.125 283.56 899.535 105.52 1236.615 19.96 138.23-35.08 194.52-48.79 199.9-35.41 3.34 8.34-5.44 22.52-147.99 103.49-89.28 50.71-129.92 93.7-124.2 131.41 13.01 86.01 263.67 141.03 581.02 210.68 426.49 93.6 979.69 215.08 1248.86 479.91h-8.4c-269.37-260.68-818.2-381.18-1241.72-474.14-319.56-70.14-571.99-125.54-585.61-215.57-6.13-40.41 35.46-85.37 127.13-137.44 123.85-70.34 147.45-91.1 145.41-96.13-3.64-9.11-99.88 15.31-192.94 38.94-172.32 43.73-432.73 109.83-674.91 129.28-290.32 23.31-481.43-27.69-568.02-151.6-139.258-199.29-11.95-589.86 378.37-1160.88 230.7-337.47 379.58-636.66 444.19-891.96h6.11c-64.62 256.33-213.91 556.65-445.41 895.3-388.788 568.78-516.104 957.09-378.405 1154.16"/></clipPath><clipPath id="E" clipPathUnits="userSpaceOnUse"><path d="M994.031 5006.59c202.129 289.71 896.609 123.87 1230.359 44.15 136.98-32.72 192.76-45.45 198.11-31.81 3.31 8.48-5.31 22.6-145.32 101.25-86.74 48.74-126.39 90.75-121.14 128.45 12.17 87.62 263.66 148.06 582.07 224.57 409.56 98.42 935.32 224.78 1217.7 475.41h-8.88c-282.31-246.66-803.66-371.97-1210.2-469.68-320.61-77.04-573.83-137.89-586.56-229.51-5.6-40.38 34.99-84.35 124.12-134.41 121.59-68.3 144.69-88.78 142.68-93.94-3.68-9.36-99 13.39-191.21 35.41-170.6 40.74-428.43 102.32-668.98 117.24-288.36 17.89-479.32-37.22-567.604-163.76-141.84-203.3-22.606-593.8 354.394-1160.67 214.61-322.67 354.46-611.02 417.59-860.18h6.12c-63.14 250.18-203.4 539.65-418.77 863.48-375.522 564.63-494.783 952.89-354.479 1154"/></clipPath><clipPath id="G" clipPathUnits="userSpaceOnUse"><path d="M1023.46 4974.94c206.24 296.04 894.11 142.26 1224.68 68.37 135.75-30.35 191.05-42.11 196.34-28.22 3.94 10.37-18.14 29.89-142.68 99.05-84.25 46.79-122.9 87.84-118.15 125.48 11.27 89.24 263.77 155.19 583.43 238.68 392.58 102.55 891.23 232.83 1183.27 470.31h-9.4c-291.69-233.7-785.85-362.83-1175.36-464.57-321.82-84.06-576.02-150.47-587.82-243.67-5.07-40.32 34.53-83.3 121.17-131.4 119.36-66.29 142.02-86.49 140.01-91.77-3.68-9.65-93.95 10.52-189.52 31.89-331.84 74.18-1022.31 228.54-1230.83-70.77-144.459-207.37-33.229-597.92 330.6-1160.84 199.18-308.2 330.29-585.73 391.71-828.37h6.1c-61.43 243.65-192.91 522.26-392.84 831.58-362.393 560.7-473.662 949.04-330.71 1154.25"/></clipPath><clipPath id="I" clipPathUnits="userSpaceOnUse"><path d="M1052.1 4943.62c210.43 302.53 891.97 160.8 1219.49 92.7 134.62-28 189.45-38.79 194.67-24.62 3.79 10.26-18.33 30.05-140.12 96.86-81.79 44.89-119.49 84.94-115.2 122.48 10.34 90.8 263.92 162.34 584.98 252.92 375.69 106 847.82 239.25 1146.15 464.65h-9.76c-297.66-221.84-765.39-353.83-1137.99-458.95-323.2-91.19-578.46-163.21-589.26-257.95-4.58-40.2 34.1-82.18 118.25-128.35 117.19-64.29 139.41-84.22 137.41-89.63-3.67-9.94-93.15 8.66-187.91 28.37-328.76 68.36-1012.88 210.62-1225.55-95.11-147.131-211.51-43.87-602.29 306.94-1161.48 184.4-293.94 307.04-560.64 366.52-796.4h6.09c-59.52 236.75-182.51 504.5-367.61 799.55-349.43 557-452.751 945.57-307.1 1154.96"/></clipPath><clipPath id="K" clipPathUnits="userSpaceOnUse"><path d="M1079.97 4912.59c214.71 309.14 890.21 179.44 1214.82 117.09 133.53-25.64 187.93-35.47 193.09-21.02 3.73 10.43-17.99 29.91-137.61 94.73-79.38 43-116.12 82.09-112.33 119.47 9.36 92.35 264.2 169.58 586.83 267.36 358.92 108.79 805.23 244.09 1106.69 458.39h-10.18c-300.49-210.91-742.4-344.86-1098.24-452.72-324.74-98.42-581.22-176.16-591-272.43-4.06-40.03 33.69-81.01 115.4-125.28 115.04-62.32 136.84-82 134.85-87.53-3.65-10.22-92.41 6.81-186.39 24.85-325.84 62.57-1003.88 192.78-1220.8-119.53-149.846-215.73-54.48-606.85 283.43-1162.5 170.27-279.98 284.63-535.81 342-764.36h6.11c-57.42 229.51-172.14 486.38-343.06 767.43-336.57 553.47-431.994 942.42-283.61 1156.05"/></clipPath><clipPath id="M" clipPathUnits="userSpaceOnUse"><path d="M1107.05 4881.88c219.09 315.92 888.81 198.19 1210.66 141.61 132.51-23.3 186.49-32.15 191.58-17.44 3.65 10.61-17.67 29.8-135.18 92.61-76.99 41.17-112.81 79.27-109.5 116.45 8.36 93.85 264.55 176.87 588.9 281.97 342.37 110.94 763.58 247.47 1065.28 451.53h-10.62c-300.44-200.84-717.25-335.95-1056.49-445.89-326.43-105.78-584.25-189.33-592.96-287.08-3.55-39.8 33.28-79.77 112.61-122.19 112.94-60.39 134.31-79.8 132.36-85.47-3.63-10.53-91.72 4.95-184.96 21.34-323.06 56.8-995.29 174.97-1216.55-144.06-152.594-220.03-65.1-611.64 260.06-1163.96 156.75-266.25 263.05-511.2 318.15-732.19h6.08c-55.14 221.95-161.78 467.9-319.14 735.18-323.87 550.16-411.451 939.63-260.28 1157.59"/></clipPath><clipPath id="O" clipPathUnits="userSpaceOnUse"><path d="M1133.38 4851.45c223.59 322.86 887.83 217.07 1207.05 166.23 131.56-20.95 185.12-28.84 190.14-13.84 3.57 10.77-17.4 29.66-132.79 90.51-74.65 39.39-109.59 76.48-106.74 113.41 7.3 95.31 264.99 184.21 591.23 296.77 326.04 112.49 722.95 249.47 1022.33 444.08h-10.86c-297.81-191.55-690.45-327.06-1013.39-438.48-328.3-113.26-587.61-202.72-595.2-301.91-3.05-39.54 32.91-78.5 109.88-119.1 110.87-58.46 131.85-77.62 129.91-83.4-3.6-10.85-91.02 3.08-183.57 17.81-320.43 51.04-987.16 157.22-1212.86-168.71-155.401-224.4-75.73-616.65 236.78-1165.82 143.83-252.73 242.36-486.77 295.04-699.89h6.08c-52.73 214.06-151.57 449.07-295.98 702.81-311.29 547.04-391.051 937.16-237.05 1159.53"/></clipPath><clipPath id="Q" clipPathUnits="userSpaceOnUse"><path d="M1158.95 4821.3c228.15 329.94 887.21 236.08 1203.92 190.97 130.67-18.6 183.89-25.54 188.79-10.24 3.53 10.93-17.08 29.53-130.42 88.45-72.38 37.62-106.42 73.72-104.05 110.35 6.23 96.72 265.52 191.61 593.79 311.74 310.03 113.45 683.55 250.19 978.33 436.04h-11.08c-292.99-182.95-662.33-318.15-969.28-430.48-330.31-120.87-591.2-216.34-597.67-316.91-2.53-39.22 32.55-77.16 107.23-115.98 108.83-56.57 129.41-75.49 127.52-81.4-3.58-11.15-90.4 1.21-182.34 14.3-317.89 45.29-979.38 139.5-1209.62-193.47-158.246-228.84-86.35-621.86 213.69-1168.11 139.77-254.48 225.84-475.62 272.7-667.45h6.04c-50.2 205.85-141.51 429.9-273.55 670.28-298.86 544.13-370.87 935.05-214 1161.91"/></clipPath><clipPath id="S" clipPathUnits="userSpaceOnUse"><path d="M1183.76 4791.37c232.85 337.21 886.96 255.27 1201.33 215.87 129.83-16.27 182.71-22.24 187.52-6.65 3.43 11.11-16.82 29.43-128.12 86.42-70.13 35.91-103.31 71.01-101.4 107.3 5.09 98.09 266.15 199.07 596.65 326.92 294.32 113.86 645.36 249.7 933.62 427.38h-11.21c-286.24-174.91-633.23-309.16-924.54-421.86-332.49-128.62-595.12-230.22-600.42-332.12-2.04-38.88 32.19-75.81 104.62-112.9 85.76-43.9 127.87-70.62 125.16-79.39-3.54-11.46-85.84-1.16-181.14 10.78-315.5 39.52-972.03 121.79-1206.93-218.38-161.15-233.37-97-627.29 190.66-1170.82 126.8-239.58 206.56-450.09 251.31-634.81h6.1c-44.82 185.54-124.85 396.97-252.19 637.59-286.55 541.41-350.82 933.27-191.02 1164.67"/></clipPath><clipPath id="U" clipPathUnits="userSpaceOnUse"><path d="M1207.85 4761.71c237.63 344.65 887.09 274.59 1199.22 240.92 129.06-13.91 181.63-18.93 186.33-3.03 3.33 11.26-16.58 29.29-125.9 84.39-67.92 34.22-100.24 68.31-98.82 104.22 3.98 99.38 266.89 206.56 599.74 342.27 279.05 113.75 608.55 248.12 888.7 418.13h-11.36c-277.93-167.38-603.51-300.12-879.58-412.66-334.83-136.51-599.3-244.31-603.43-347.5-1.52-38.47 31.87-74.37 102.07-109.75 84.2-42.43 125.53-68.48 122.89-77.43-3.48-11.79-85.26-2.97-180 7.24-313.27 33.8-965.1 104.1-1204.74-243.44-164.09-237.97-107.65-632.93 167.76-1173.9 114.56-225 188.15-424.81 230.67-602.06h5.65c-44.88 188.53-121.99 390.55-231.04 604.74-274.34 538.89-330.93 931.82-168.16 1167.86"/></clipPath><clipPath id="W" clipPathUnits="userSpaceOnUse"><path d="M1231.18 4732.24c242.55 352.25 887.66 294.12 1197.7 266.15 125.11-11.25 180.64-15.57 185.19.6 3.22 11.41-16.35 29.18-123.72 82.39-65.76 32.58-97.25 65.67-96.28 101.14 2.8 100.61 267.69 214.1 603.06 357.78 264.16 113.16 573.06 245.55 843.75 408.31h-11.45c-268.34-160.24-573.42-290.96-834.64-402.87-337.32-144.51-603.75-258.66-606.64-363.06-1.05-38.02 31.52-72.88 99.56-106.61 82.64-40.96 123.24-66.35 120.66-75.48-3.42-12.11-84.76-4.79-178.96 3.7-311.15 28.05-958.58 86.41-1203.1-268.69-167.09-242.65-118.33-638.79 144.94-1177.41 102.99-210.68 170.56-399.67 210.78-569.08h5.37c-42.1 179.45-112.43 370.36-210.84 571.68-262.25 536.56-311.17 930.68-145.38 1171.45"/></clipPath><clipPath id="Y" clipPathUnits="userSpaceOnUse"><path d="M1253.82 4702.99c247.58 360.03 888.59 313.78 1196.65 291.56 124.49-8.99 179.72-12.26 184.14 4.21 3.03 11.26-16.49 29.24-121.6 80.43-63.65 30.98-94.34 63.06-93.78 98.05 1.58 101.79 268.59 221.71 606.65 373.53 249.65 112.12 538.84 242.02 799.01 397.84h-11.5c-257.7-153.39-543.17-281.62-789.93-392.44-339.97-152.68-608.51-273.28-610.16-378.83-.58-37.52 31.18-71.38 97.1-103.48 81.12-39.51 120.99-64.25 118.48-73.56-3.33-12.45-84.27-6.61-177.98.15-309.16 22.31-952.47 68.72-1201.97-294.11-170.13-247.4-129-644.84 122.24-1181.29 92.08-196.61 153.9-374.74 191.73-535.94h5.08c-39.29 170.11-103.11 349.85-191.43 538.45-250.3 534.41-291.59 929.89-122.73 1175.43"/></clipPath><clipPath id="aa" clipPathUnits="userSpaceOnUse"><path d="M1275.74 4673.95c252.73 367.98 889.92 333.64 1196.14 317.13 123.9-6.67 178.87-8.92 183.15 7.86 2.92 11.4-16.3 29.11-119.5 78.46-61.59 29.44-91.47 60.52-91.36 95 .37 102.88 269.64 229.33 610.53 389.45 235.55 110.63 505.9 237.64 754.75 386.76h-11.5c-246.28-146.79-513.04-272.11-745.75-381.41-342.8-160.99-613.56-288.16-613.92-394.79-.14-36.99 30.84-69.82 94.7-100.35 79.6-38.07 118.75-62.18 116.33-71.65-3.27-12.78-83.82-8.44-177.12-3.42-307.29 16.57-946.72 51.03-1201.33-319.7-173.25-252.23-139.73-651.14 99.61-1185.65 81.82-182.7 137.27-349.86 171.78-502.52h6.44c-36.45 160.47-94.03 328.99-172.81 504.93-238.44 532.51-272.14 929.47-100.14 1179.9"/></clipPath><clipPath id="ac" clipPathUnits="userSpaceOnUse"><path d="M1296.94 4645.1c258.02 376.12 891.65 353.68 1196.15 342.92 123.39-4.39 178.12-5.59 182.25 11.51 2.79 11.54-16.14 28.96-117.51 76.51-59.55 27.94-88.64 58.01-88.93 91.94-.89 103.9 270.74 237.03 614.64 405.57 221.85 108.73 474.22 232.44 711.16 375.06h-11.52c-234.27-140.36-483.18-262.38-702.26-369.75-359.28-176.09-618.87-303.32-617.94-410.94.31-36.44 30.52-68.24 92.35-97.24 78.14-36.66 116.58-60.13 114.26-69.77-3.16-13.12-83.4-10.28-176.29-6.99-305.57 10.82-941.38 33.32-1201.23-345.48-176.41-257.13-150.49-657.65 77.04-1190.41 72.21-169.07 122.26-325.11 154.34-468.92h6.11c-33.58 150.6-85.21 307.84-155 471.25-226.69 530.77-252.8 929.37-77.62 1184.74"/></clipPath><clipPath id="ae" clipPathUnits="userSpaceOnUse"><path d="M1317.42 4616.43c263.44 384.45 893.78 373.98 1196.73 368.9 122.94-2.04 177.44-2.23 181.4 15.17 2.65 11.68-15.98 28.83-115.52 74.59-57.59 26.47-85.92 55.53-86.6 88.87-2.16 104.86 271.97 244.78 619.03 421.92 208.53 106.44 443.71 226.5 668.27 362.73h-11.42c-221.87-134.04-453.72-252.39-659.55-357.45-362.54-185.05-624.49-318.76-622.26-427.32.74-35.82 30.21-66.62 90.05-94.14 76.69-35.24 114.44-58.07 112.22-67.88-3.06-13.45-79.17-12.18-175.51-10.58-303.99 5.08-936.48 15.61-1201.72-371.47-179.62-262.14-161.27-664.38 54.56-1195.55 63.25-155.66 108.1-300.49 137.7-435.11h5.81c-30.72 140.5-76.68 286.38-138.01 437.34-215.05 529.22-233.61 929.58-55.18 1189.98"/></clipPath><clipPath id="ag" clipPathUnits="userSpaceOnUse"><path d="M3138.63 5604.06c-365.94-194.16-630.36-334.44-626.79-443.84 1.13-35.19 29.86-64.97 87.79-91.04 75.27-33.86 112.34-56.08 110.23-66.04-2.95-13.8-78.82-13.97-174.87-14.2-302.49-.71-931.91-2.19-1202.66-397.71-182.92-267.21-172.1-671.33 32.13-1201.14 54.89-142.38 94.7-275.88 121.8-400.98h5.57c-27.88 130.12-68.44 264.56-121.84 403.1-203.49 527.89-214.52 930.17-32.77 1195.68 268.98 392.95 896.3 394.42 1197.78 395.13 122.54.29 176.87 1.17 180.64 18.89 2.52 11.81-15.83 28.68-113.57 72.68-55.67 25.04-83.24 53.12-84.31 85.83-3.43 105.7 273.29 252.53 623.67 438.42 195.57 103.77 414.31 219.86 626.21 349.77h-11.32c-209.2-127.79-424.73-242.17-617.69-344.55"/></clipPath><clipPath id="ai" clipPathUnits="userSpaceOnUse"><path d="M3167.62 5617.61c-369.52-203.43-636.5-350.43-631.61-460.56 1.53-34.52 29.53-63.3 85.59-87.96 27.52-12.12 111.31-48.98 108.28-64.21-2.8-14.14-78.47-15.77-174.27-17.84-301.15-6.5-927.77-20.02-1204.15-424.18-186.26-272.37-182.98-678.49 9.75-1207.1 47.09-129.16 81.76-251.28 105.84-366.65h6.2c-25.04 119.53-60.47 242.46-106.48 368.66-192.03 526.72-195.54 931.05-10.43 1201.74 274.68 401.65 899.25 415.13 1199.4 421.6 122.19 2.64 176.37 4.56 179.95 22.61 2.37 11.93-15.71 28.53-111.71 70.77-53.79 23.67-80.63 50.75-82.05 82.81-4.73 106.47 274.73 260.33 628.54 455.12 183.02 100.76 386.05 212.55 585.16 336.19h-11.25c-196.39-121.56-396.33-231.66-576.76-331"/></clipPath></defs><g clip-path="url(#a)" transform="matrix(.13333 0 0 -.13333 -56.088 793.148)"><path d="M449.973 5530.83c149.824 210.44 980.167-146.49 1379.207-318.02 185.04-79.54 228.8-97.13 233.93-87.41 3.71 7-8.11 21.68-192.35 138.83-128.46 81.68-185.61 137.75-174.76 171.42 20.38 63.23 285.46 47.99 592.4 30.35 267.07-15.34 569.78-32.73 826.27-10.33 299.05 26.12 471.05 101.87 525.85 231.53 29.84 70.61 23.83 158.21-17.68 261.41h-6.36c41.7-102.64 48.02-189.45 18.59-259.11-121.68-287.95-829.5-247.29-1346.33-217.59-322.15 18.51-576.58 33.13-598.37-34.45-11.97-37.11 44.34-93.75 177.23-178.25 45.2-28.73 180.4-114.7 189.65-130.71-.16-.02-.34-.02-.5-.02-16.45 0-113.56 41.75-225.25 89.76-204.02 87.71-512.33 220.23-788.21 304.13-330.888 100.63-532.134 104.62-598.157 11.88-50.481-70.9-22.77-199.12 82.351-381.09 118.34-204.86 338-483.76 652.866-828.94 630.43-691.15 844.7-1096.97 874.88-1335.11h5.57c-30.4 240.01-245.27 647.52-876.07 1339.1-592.906 650.01-840.105 1054.64-734.757 1202.62" style="fill:url(#b);fill-opacity:1;fill-rule:nonzero;stroke:none"/></g><g clip-path="url(#c)" transform="matrix(.13333 0 0 -.13333 -56.088 793.148)"><path d="M492.652 5492.45c152.852 214.94 971.898-128.49 1365.528-293.53 182.58-76.54 225.78-93.44 230.95-83.54 3.72 7.13-7.82 21.68-188.72 136.01-125.44 79.28-181.26 134.42-170.64 168.56 20.13 64.75 284.16 54.45 589.9 42.53 266.41-10.38 568.37-22.17 824.46 5.69 298.6 32.49 470.59 113 525.73 246.14 26.98 65.07 25.15 143.51-5.16 234.3h-6.23c30.46-90.16 32.52-167.85 5.92-232.03-122.58-295.85-828.83-268.3-1344.51-248.19-320.87 12.5-574.31 22.4-595.77-46.68-11.68-37.59 43.32-93.3 173.13-175.33 44.5-28.13 177.84-112.4 186.09-127.99-14.24-1.56-111.11 39.13-222.87 85.99-201.24 84.38-505.37 211.9-778.15 291.07-327.165 94.94-527.177 95.09-594.478.44-51.43-72.34-26.254-200.84 74.824-381.96 113.797-203.9 326.871-480.35 633.304-821.66 593.61-661.15 805.29-1061.16 841.41-1303.16h5.58c-36.27 243.75-248.45 645.37-842.59 1307.12-577.02 642.68-815.122 1045.15-707.708 1196.22" style="fill:url(#d);fill-opacity:1;fill-rule:nonzero;stroke:none"/></g><g clip-path="url(#e)" transform="matrix(.13333 0 0 -.13333 -56.088 793.148)"><path d="M534.352 5454.63c155.902 219.53 964.018-110.55 1352.368-269.17 180.21-73.62 222.89-89.83 228.07-79.73 3.73 7.27-7.53 21.69-185.17 133.25-122.45 76.91-176.94 131.13-166.6 165.73 19.82 66.31 282.99 60.98 587.71 54.79 265.89-5.4 567.26-11.52 823.1 21.88 298.31 38.93 470.3 124.3 525.83 261.02 23.89 58.83 25.54 127.81 5.11 206.21h-6.11c20.5-77.73 19.07-145.97-4.48-203.98-123.46-303.97-828.52-289.66-1343.33-279.2-319.79 6.48-572.38 11.61-593.5-59.02-11.37-38.02 42.37-92.82 169.11-172.43 43.83-27.52 175.32-110.1 182.63-125.3-13.44-2.09-109.42 37.03-220.12 82.25-198.56 81.11-498.62 203.67-768.41 278.13-323.564 89.31-522.408 85.6-591.029-11-52.398-73.77-29.734-202.61 67.332-382.95 109.297-203.02 315.875-477.12 614.007-814.66 370.2-419.14 617.78-769.94 735.85-1042.63 36.41-84.1 60.39-160.38 72.08-228.71h5.99c-41.38 246.7-250.14 641.97-809.49 1275.26-561.362 635.6-790.464 1036.06-680.948 1190.26" style="fill:url(#f);fill-opacity:1;fill-rule:nonzero;stroke:none"/></g><g clip-path="url(#g)" transform="matrix(.13333 0 0 -.13333 -56.088 793.148)"><path d="M575.113 5417.37c159.075 224.23 956.557-92.63 1339.807-244.9 177.91-70.68 220.04-86.17 225.24-75.91 3.73 7.39-7.29 21.7-181.7 130.53-119.5 74.57-172.7 127.85-162.64 162.9 19.49 67.87 269.39 67.53 585.75 67.12 515.92-.73 1222.58-1.63 1348.34 314.43 20.64 51.89 24.93 111.07 12.96 177.07h-6c11.99-65.32 7.87-123.78-12.47-174.88-124.26-312.34-828.53-311.46-1342.82-310.69-318.85.41-570.72.76-591.45-71.42-11.04-38.47 41.45-92.33 165.19-169.55 43.14-26.92 172.8-107.82 179.19-122.64-12.89-2.72-107.79 34.99-217.4 78.53-195.94 77.87-492.07 195.51-758.98 265.31-320.118 83.7-517.892 76.13-587.849-22.47-53.383-75.26-33.23-204.5 59.879-384.1 104.844-202.23 305.008-474.09 594.95-808.02 361.41-416.23 601.3-765.52 712.99-1038.13 29.89-72.96 50.57-140.15 62.04-201.44h6.02c-45.7 248.87-250.24 637.25-776.59 1243.46-545.925 628.77-766.117 1027.39-654.457 1184.8" style="fill:url(#h);fill-opacity:1;fill-rule:nonzero;stroke:none"/></g><g clip-path="url(#i)" transform="matrix(.13333 0 0 -.13333 -56.088 793.148)"><path d="M614.922 5380.59c162.273 229.03 949.458-74.7 1327.768-220.66 175.68-67.79 217.31-82.58 222.5-72.14 3.61 7.28-7.31 21.91-178.31 127.88-116.58 72.25-168.51 124.6-158.75 160.06 19.11 69.48 268.41 73.93 584.04 79.56 515.7 9.2 1221.95 21.81 1348.46 346.46 17.2 44.14 23.16 93.2 18 146.86h-5.93c5.15-52.95-.65-101.29-17.58-144.71-125.07-320.95-829.04-333.52-1343.06-342.69-318.1-5.67-569.35-10.16-589.65-83.91-10.69-38.87 40.58-91.82 161.36-166.67 42.48-26.32 170.33-105.56 175.83-120.04-12.12-3.38-106.18 32.95-214.78 74.85-193.42 74.63-485.72 187.42-749.85 252.54-316.79 78.13-513.568 66.7-584.876-33.97-54.391-76.76-36.742-206.44 52.445-385.4 100.422-201.5 294.246-471.22 576.101-801.65 352.81-413.59 585.08-761.56 690.39-1034.24 23.94-62.01 41.23-119.88 52.01-173.61h6.3c-49.39 250.35-249.27 631.48-744.2 1211.7-530.695 622.17-742.054 1019.11-628.218 1179.78" style="fill:url(#j);fill-opacity:1;fill-rule:nonzero;stroke:none"/></g><g clip-path="url(#k)" transform="matrix(.13333 0 0 -.13333 -56.088 793.148)"><path d="M653.793 5344.35c165.527 233.94 942.737-56.8 1316.257-196.51 170.8-63.89 214.71-78.96 219.88-68.38 3.61 7.4-7.06 21.93-174.97 125.24-113.7 69.98-164.38 121.41-154.96 157.24 18.7 71.11 267.55 80.38 582.6 92.1 515.72 19.21 1222.04 45.51 1349.28 379 13.58 35.62 20.22 74.2 20.01 115.57h-5.9c.19-40.65-6.31-78.52-19.63-113.46-125.85-329.83-829.9-356.05-1343.98-375.19-317.5-11.82-568.28-21.16-588.09-96.51-10.32-39.24 39.75-91.27 157.59-163.79 41.81-25.73 167.91-103.34 172.51-117.48-11.47-3.95-104.63 30.94-212.27 71.2-190.96 71.43-479.56 179.39-741.01 239.89-313.559 72.56-509.43 57.25-582.141-45.51-55.406-78.29-40.246-208.45 45.058-386.83 96.047-200.86 283.614-468.54 557.493-795.6 344.37-411.21 569.11-758.12 667.99-1031.04 18.53-51.15 32.63-99.56 42.3-145.17h6.33c-52.41 251.15-246.96 624.6-712.08 1180.01-515.689 615.81-718.31 1011.22-602.267 1175.22" style="fill:url(#l);fill-opacity:1;fill-rule:nonzero;stroke:none"/></g><g clip-path="url(#m)" transform="matrix(.13333 0 0 -.13333 -56.088 793.148)"><path d="M691.738 5308.6c168.867 238.97 936.432-38.9 1305.312-172.41 168.77-61.1 212.14-75.42 217.32-64.65 3.6 7.52-6.81 21.95-171.69 122.66-110.86 67.71-160.35 118.23-151.26 154.43 18.24 72.75 266.77 86.87 581.43 104.76 516.06 29.34 1222.83 69.51 1350.75 412.11 9.8 26.23 16.01 53.96 18.7 83.11h-5.94c-2.67-28.43-8.75-55.48-18.3-81.06-126.56-338.94-831.11-379-1345.53-408.24-317.08-18.02-567.54-32.26-586.85-109.22-9.92-39.59 38.99-90.73 153.91-160.92 41.19-25.16 165.55-101.12 169.27-114.96-10.74-4.47-103.12 28.94-209.79 67.56-188.59 68.27-473.6 171.44-732.52 227.33-310.491 67.03-505.503 47.83-579.636-57.06-56.445-79.88-43.766-210.57 37.688-388.44 91.711-200.29 273.093-466.03 539.108-789.84 336.09-409.11 553.37-755.17 645.78-1028.54 13.66-40.4 24.52-79.08 32.72-116.11h6.58c-54.91 251.34-243.83 616.84-680.52 1148.4C767.41 4747.18 573.438 5141.2 691.738 5308.6" style="fill:url(#n);fill-opacity:1;fill-rule:nonzero;stroke:none"/></g><g clip-path="url(#o)" transform="matrix(.13333 0 0 -.13333 -56.088 793.148)"><path d="M1279.81 4105.88c-486.232 603.78-671.622 996.58-551.025 1167.46 172.274 244.12 930.505-20.96 1294.885-148.34 155.35-54.32 209.37-72.51 214.83-60.93 3.61 7.66-6.58 21.99-168.51 120.13-108.04 65.48-156.32 115.07-147.61 151.58 17.76 74.4 266.11 93.43 580.53 117.53 516.72 39.6 1224.38 93.85 1352.97 445.75 5.84 16.01 10.4 32.54 13.73 49.55h-6.04c-3.26-16.31-7.65-32.17-13.27-47.53-127.26-348.32-832.73-402.39-1347.86-441.87-316.83-24.28-567.09-43.46-585.84-122.05-9.38-39.35 39.79-91.04 150.3-158.02 108.31-65.64 164.16-103.47 166.1-112.47-10.15-5.06-101.64 26.94-207.39 63.91-186.29 65.13-467.83 163.55-724.3 214.86-307.525 61.5-501.79 38.4-577.372-68.69-57.5-81.47-47.297-212.75 30.332-390.18 87.41-199.81 262.67-463.72 520.92-784.41 327.99-407.28 537.87-752.71 623.77-1026.69 9.3-29.68 17.14-58.47 23.54-86.36h6.07c-6.48 28.46-14.45 57.83-23.94 88.13-86.15 274.69-296.37 620.77-624.82 1028.64" style="fill:url(#p);fill-opacity:1;fill-rule:nonzero;stroke:none"/></g><g clip-path="url(#q)" transform="matrix(.13333 0 0 -.13333 -56.088 793.148)"><path d="M1290.68 4074.29c-471.785 598.13-648.676 989.82-525.762 1164.23 175.746 249.34 924.922-3.02 1284.952-124.29 153.63-51.75 207.02-69.06 212.47-57.24 3.62 7.8-6.33 22.03-165.36 117.63-105.25 63.28-152.36 111.93-144.03 148.75 17.2 76.04 265.48 100.02 579.8 130.39 517.7 50.03 1226.71 118.52 1355.93 480.04 1.75 4.9 3.33 9.84 4.86 14.81h-6.32c-1.35-4.29-2.61-8.59-4.11-12.81-127.96-357.98-834.81-426.27-1350.92-476.14-316.7-30.6-566.86-54.77-585.01-135-8.97-39.61 39.05-90.36 146.76-155.11 108.03-64.94 162.88-102.06 163.21-109.85-8.02-6.34-99.47 24.47-205.38 60.14-184.07 62.01-462.26 155.71-716.35 202.43-304.7 56.02-498.272 29-575.326-80.34-124.606-176.8 52.347-570.87 525.946-1171.29 320.05-405.74 522.56-750.82 601.91-1025.61 5.49-19.01 10.32-37.62 14.63-55.91h6.07c-4.41 18.82-9.38 37.98-15.03 57.54-79.56 275.54-282.42 621.29-602.94 1027.63" style="fill:url(#r);fill-opacity:1;fill-rule:nonzero;stroke:none"/></g><g clip-path="url(#s)" transform="matrix(.13333 0 0 -.13333 -56.088 793.148)"><path d="M1300.91 4042.71c-457.527 592.69-625.988 983.46-500.711 1161.46 179.274 254.73 919.751 14.95 1275.581-100.28 151.93-49.19 204.74-65.57 210.19-53.56 3.6 7.94-6.14 22.08-162.32 115.19-102.52 61.1-148.49 108.81-140.56 145.87 16.61 77.71 264.95 106.71 579.36 143.42 508.96 59.44 1202.3 140.43 1351.35 493.8h-6.47c-149.74-348.23-839.17-428.79-1345.57-487.92-316.76-36.98-566.97-66.2-584.47-148.06-8.52-39.85 38.36-89.63 143.34-152.2 106.24-63.34 160.04-99.62 160.06-107.48-7.68-6.69-98.24 22.63-203.09 56.58-181.94 58.92-456.87 147.94-708.73 190.1-302 50.53-494.952 19.57-573.515-92.06-126.949-180.37 41.575-573.49 500.875-1168.47 312.27-404.52 507.47-749.47 580.17-1025.3 2.19-8.31 4.23-16.53 6.2-24.69h6.08c-2.07 8.67-4.23 17.39-6.55 26.2-72.91 276.59-268.46 622.26-581.22 1027.4" style="fill:url(#t);fill-opacity:1;fill-rule:nonzero;stroke:none"/></g><g clip-path="url(#u)" transform="matrix(.13333 0 0 -.13333 -56.088 793.148)"><path d="M834.617 5170.26c182.913 260.26 915.003 32.94 1266.823-76.3 150.22-46.64 202.45-62.17 207.9-49.9 3.44 7.78-6.15 22.24-159.32 112.75-99.81 58.97-144.67 105.74-137.16 143.03 15.98 79.39 264.53 113.45 579.21 156.57 492.94 67.57 1158.27 158.83 1338.28 492.2h-6.74c-180.74-328.41-842.07-419.12-1332.34-486.32-317-43.45-567.4-77.77-584.21-161.28-8.08-40.05 37.71-88.87 139.95-149.28 104.53-61.77 157.31-97.23 156.99-105.14-7.3-7.05-96.98 20.79-200.81 53.03-179.85 55.84-451.67 140.23-701.41 177.85-299.45 45.08-491.897 10.16-571.999-103.81-129.336-184.02 30.805-576.36 475.989-1166.12 301.98-400.06 489.19-742.62 556.69-1018.43h6.11c-67.4 276.83-255.1 620.62-558.09 1021.99-443.449 587.48-603.55 977.48-475.863 1159.16" style="fill:url(#v);fill-opacity:1;fill-rule:nonzero;stroke:none"/></g><g clip-path="url(#w)" transform="matrix(.13333 0 0 -.13333 -56.088 793.148)"><path d="M868.129 5136.75c186.581 265.86 910.511 51.01 1258.411-52.24 148.71-44.13 200.42-58.75 205.83-46.27 3.44 7.92-5.94 22.32-156.39 110.4-97.11 56.86-140.87 102.7-133.79 140.14 15.31 81.04 264.18 120.23 579.26 169.86 476.64 75.07 1113.87 175.49 1321.54 489.97h-7.05c-208.38-309.73-841.52-409.49-1315.4-484.13-317.39-49.98-568.09-89.47-584.16-174.61-7.59-40.21 37.1-88.08 136.63-146.34 102.92-60.25 154.7-94.92 154-102.85-6.81-7.46-95.79 18.94-198.78 49.5-177.86 52.78-446.64 132.56-694.33 165.61-296.97 39.64-488.943.72-570.607-115.65-131.738-187.72 20.102-579.39 451.317-1164.14 283.08-383.86 460.36-715.56 527.66-986.89h6.09c-67.23 272.37-244.96 605.26-529 990.42C889.824 4562 738.008 4951.34 868.129 5136.75" style="fill:url(#x);fill-opacity:1;fill-rule:nonzero;stroke:none"/></g><g clip-path="url(#y)" transform="matrix(.13333 0 0 -.13333 -56.088 793.148)"><path d="M900.855 5103.64c190.355 271.63 906.485 69.12 1250.655-28.2 147.2-41.64 198.37-55.37 203.76-42.64 3.42 8.05-5.76 22.37-153.51 108.05-94.49 54.77-137.19 99.67-130.56 137.24 14.59 82.71 263.92 127.1 579.6 183.31 460.12 81.94 1069.28 190.42 1301.07 487.21h-7.49c-232.39-292.22-837.33-399.95-1294.62-481.38-317.94-56.61-569.08-101.32-584.38-188.1-7.12-40.31 36.52-87.22 133.39-143.4 101.43-58.79 152.24-92.67 151.08-100.58-6.31-7.87-98.81 18.3-196.73 45.98-175.95 49.76-441.84 124.94-687.6 153.47-294.64 34.18-486.25-8.73-569.52-127.56-134.215-191.52 9.387-582.68 426.82-1162.63 264.89-368.05 432.49-688.9 499.21-955.3h6.1c-66.68 267.44-234.7 589.46-500.51 958.76-415.796 577.68-559.374 966.54-426.765 1155.77" style="fill:url(#z);fill-opacity:1;fill-rule:nonzero;stroke:none"/></g><g clip-path="url(#A)" transform="matrix(.13333 0 0 -.13333 -56.088 793.148)"><path d="M932.73 5070.91c194.19 277.52 902.81 87.3 1243.33-4.12 148.28-39.79 196.65-51.6 201.84-39.02 3.37 8.21-5.6 22.46-150.72 105.76-91.88 52.74-133.54 96.67-127.37 134.34 13.83 84.35 263.76 134.01 580.18 196.89 443.38 88.11 1024.48 203.62 1276.81 483.85h-8.01c-252.75-275.86-829.49-390.52-1269.97-478.04-318.66-63.32-570.36-113.34-584.86-201.75-6.61-40.37 35.98-86.31 130.25-140.41 124.65-71.55 149.38-92.99 148.21-98.34-5.55-8.36-97.51 16.32-194.83 42.45-174.08 46.73-437.18 117.36-681.1 141.34-292.41 28.75-483.72-18.21-568.619-139.55-136.715-195.37-1.289-586.17 402.519-1161.55 247.44-352.57 405.62-662.61 471.45-923.65h6.08c-65.8 262.08-224.39 573.26-472.68 927.04-402.22 573.12-537.642 961.64-402.51 1154.76" style="fill:url(#B);fill-opacity:1;fill-rule:nonzero;stroke:none"/></g><g clip-path="url(#C)" transform="matrix(.13333 0 0 -.13333 -56.088 793.148)"><path d="M963.785 5038.57c198.125 283.56 899.535 105.52 1236.615 19.96 138.23-35.08 194.52-48.79 199.9-35.41 3.34 8.34-5.44 22.52-147.99 103.49-89.28 50.71-129.92 93.7-124.2 131.41 13.01 86.01 263.67 141.03 581.02 210.68 426.49 93.6 979.69 215.08 1248.86 479.91h-8.4c-269.37-260.68-818.2-381.18-1241.72-474.14-319.56-70.14-571.99-125.54-585.61-215.57-6.13-40.41 35.46-85.37 127.13-137.44 123.85-70.34 147.45-91.1 145.41-96.13-3.64-9.11-99.88 15.31-192.94 38.94-172.32 43.73-432.73 109.83-674.91 129.28-290.32 23.31-481.43-27.69-568.02-151.6-139.258-199.29-11.95-589.86 378.37-1160.88 230.7-337.47 379.58-636.66 444.19-891.96h6.11c-64.62 256.33-213.91 556.65-445.41 895.3-388.788 568.78-516.104 957.09-378.405 1154.16" style="fill:url(#D);fill-opacity:1;fill-rule:nonzero;stroke:none"/></g><g clip-path="url(#E)" transform="matrix(.13333 0 0 -.13333 -56.088 793.148)"><path d="M994.031 5006.59c202.129 289.71 896.609 123.87 1230.359 44.15 136.98-32.72 192.76-45.45 198.11-31.81 3.31 8.48-5.31 22.6-145.32 101.25-86.74 48.74-126.39 90.75-121.14 128.45 12.17 87.62 263.66 148.06 582.07 224.57 409.56 98.42 935.32 224.78 1217.7 475.41h-8.88c-282.31-246.66-803.66-371.97-1210.2-469.68-320.61-77.04-573.83-137.89-586.56-229.51-5.6-40.38 34.99-84.35 124.12-134.41 121.59-68.3 144.69-88.78 142.68-93.94-3.68-9.36-99 13.39-191.21 35.41-170.6 40.74-428.43 102.32-668.98 117.24-288.36 17.89-479.32-37.22-567.604-163.76-141.84-203.3-22.606-593.8 354.394-1160.67 214.61-322.67 354.46-611.02 417.59-860.18h6.12c-63.14 250.18-203.4 539.65-418.77 863.48-375.522 564.63-494.783 952.89-354.479 1154" style="fill:url(#F);fill-opacity:1;fill-rule:nonzero;stroke:none"/></g><g clip-path="url(#G)" transform="matrix(.13333 0 0 -.13333 -56.088 793.148)"><path d="M1023.46 4974.94c206.24 296.04 894.11 142.26 1224.68 68.37 135.75-30.35 191.05-42.11 196.34-28.22 3.94 10.37-18.14 29.89-142.68 99.05-84.25 46.79-122.9 87.84-118.15 125.48 11.27 89.24 263.77 155.19 583.43 238.68 392.58 102.55 891.23 232.83 1183.27 470.31h-9.4c-291.69-233.7-785.85-362.83-1175.36-464.57-321.82-84.06-576.02-150.47-587.82-243.67-5.07-40.32 34.53-83.3 121.17-131.4 119.36-66.29 142.02-86.49 140.01-91.77-3.68-9.65-93.95 10.52-189.52 31.89-331.84 74.18-1022.31 228.54-1230.83-70.77-144.459-207.37-33.229-597.92 330.6-1160.84 199.18-308.2 330.29-585.73 391.71-828.37h6.1c-61.43 243.65-192.91 522.26-392.84 831.58-362.393 560.7-473.662 949.04-330.71 1154.25" style="fill:url(#H);fill-opacity:1;fill-rule:nonzero;stroke:none"/></g><g clip-path="url(#I)" transform="matrix(.13333 0 0 -.13333 -56.088 793.148)"><path d="M1052.1 4943.62c210.43 302.53 891.97 160.8 1219.49 92.7 134.62-28 189.45-38.79 194.67-24.62 3.79 10.26-18.33 30.05-140.12 96.86-81.79 44.89-119.49 84.94-115.2 122.48 10.34 90.8 263.92 162.34 584.98 252.92 375.69 106 847.82 239.25 1146.15 464.65h-9.76c-297.66-221.84-765.39-353.83-1137.99-458.95-323.2-91.19-578.46-163.21-589.26-257.95-4.58-40.2 34.1-82.18 118.25-128.35 117.19-64.29 139.41-84.22 137.41-89.63-3.67-9.94-93.15 8.66-187.91 28.37-328.76 68.36-1012.88 210.62-1225.55-95.11-147.131-211.51-43.87-602.29 306.94-1161.48 184.4-293.94 307.04-560.64 366.52-796.4h6.09c-59.52 236.75-182.51 504.5-367.61 799.55-349.43 557-452.751 945.57-307.1 1154.96" style="fill:url(#J);fill-opacity:1;fill-rule:nonzero;stroke:none"/></g><g clip-path="url(#K)" transform="matrix(.13333 0 0 -.13333 -56.088 793.148)"><path d="M1079.97 4912.59c214.71 309.14 890.21 179.44 1214.82 117.09 133.53-25.64 187.93-35.47 193.09-21.02 3.73 10.43-17.99 29.91-137.61 94.73-79.38 43-116.12 82.09-112.33 119.47 9.36 92.35 264.2 169.58 586.83 267.36 358.92 108.79 805.23 244.09 1106.69 458.39h-10.18c-300.49-210.91-742.4-344.86-1098.24-452.72-324.74-98.42-581.22-176.16-591-272.43-4.06-40.03 33.69-81.01 115.4-125.28 115.04-62.32 136.84-82 134.85-87.53-3.65-10.22-92.41 6.81-186.39 24.85-325.84 62.57-1003.88 192.78-1220.8-119.53-149.846-215.73-54.48-606.85 283.43-1162.5 170.27-279.98 284.63-535.81 342-764.36h6.11c-57.42 229.51-172.14 486.38-343.06 767.43-336.57 553.47-431.994 942.42-283.61 1156.05" style="fill:url(#L);fill-opacity:1;fill-rule:nonzero;stroke:none"/></g><g clip-path="url(#M)" transform="matrix(.13333 0 0 -.13333 -56.088 793.148)"><path d="M1107.05 4881.88c219.09 315.92 888.81 198.19 1210.66 141.61 132.51-23.3 186.49-32.15 191.58-17.44 3.65 10.61-17.67 29.8-135.18 92.61-76.99 41.17-112.81 79.27-109.5 116.45 8.36 93.85 264.55 176.87 588.9 281.97 342.37 110.94 763.58 247.47 1065.28 451.53h-10.62c-300.44-200.84-717.25-335.95-1056.49-445.89-326.43-105.78-584.25-189.33-592.96-287.08-3.55-39.8 33.28-79.77 112.61-122.19 112.94-60.39 134.31-79.8 132.36-85.47-3.63-10.53-91.72 4.95-184.96 21.34-323.06 56.8-995.29 174.97-1216.55-144.06-152.594-220.03-65.1-611.64 260.06-1163.96 156.75-266.25 263.05-511.2 318.15-732.19h6.08c-55.14 221.95-161.78 467.9-319.14 735.18-323.87 550.16-411.451 939.63-260.28 1157.59" style="fill:url(#N);fill-opacity:1;fill-rule:nonzero;stroke:none"/></g><g clip-path="url(#O)" transform="matrix(.13333 0 0 -.13333 -56.088 793.148)"><path d="M1133.38 4851.45c223.59 322.86 887.83 217.07 1207.05 166.23 131.56-20.95 185.12-28.84 190.14-13.84 3.57 10.77-17.4 29.66-132.79 90.51-74.65 39.39-109.59 76.48-106.74 113.41 7.3 95.31 264.99 184.21 591.23 296.77 326.04 112.49 722.95 249.47 1022.33 444.08h-10.86c-297.81-191.55-690.45-327.06-1013.39-438.48-328.3-113.26-587.61-202.72-595.2-301.91-3.05-39.54 32.91-78.5 109.88-119.1 110.87-58.46 131.85-77.62 129.91-83.4-3.6-10.85-91.02 3.08-183.57 17.81-320.43 51.04-987.16 157.22-1212.86-168.71-155.401-224.4-75.73-616.65 236.78-1165.82 143.83-252.73 242.36-486.77 295.04-699.89h6.08c-52.73 214.06-151.57 449.07-295.98 702.81-311.29 547.04-391.051 937.16-237.05 1159.53" style="fill:url(#P);fill-opacity:1;fill-rule:nonzero;stroke:none"/></g><g clip-path="url(#Q)" transform="matrix(.13333 0 0 -.13333 -56.088 793.148)"><path d="M1158.95 4821.3c228.15 329.94 887.21 236.08 1203.92 190.97 130.67-18.6 183.89-25.54 188.79-10.24 3.53 10.93-17.08 29.53-130.42 88.45-72.38 37.62-106.42 73.72-104.05 110.35 6.23 96.72 265.52 191.61 593.79 311.74 310.03 113.45 683.55 250.19 978.33 436.04h-11.08c-292.99-182.95-662.33-318.15-969.28-430.48-330.31-120.87-591.2-216.34-597.67-316.91-2.53-39.22 32.55-77.16 107.23-115.98 108.83-56.57 129.41-75.49 127.52-81.4-3.58-11.15-90.4 1.21-182.34 14.3-317.89 45.29-979.38 139.5-1209.62-193.47-158.246-228.84-86.35-621.86 213.69-1168.11 139.77-254.48 225.84-475.62 272.7-667.45h6.04c-50.2 205.85-141.51 429.9-273.55 670.28-298.86 544.13-370.87 935.05-214 1161.91" style="fill:url(#R);fill-opacity:1;fill-rule:nonzero;stroke:none"/></g><g clip-path="url(#S)" transform="matrix(.13333 0 0 -.13333 -56.088 793.148)"><path d="M1183.76 4791.37c232.85 337.21 886.96 255.27 1201.33 215.87 129.83-16.27 182.71-22.24 187.52-6.65 3.43 11.11-16.82 29.43-128.12 86.42-70.13 35.91-103.31 71.01-101.4 107.3 5.09 98.09 266.15 199.07 596.65 326.92 294.32 113.86 645.36 249.7 933.62 427.38h-11.21c-286.24-174.91-633.23-309.16-924.54-421.86-332.49-128.62-595.12-230.22-600.42-332.12-2.04-38.88 32.19-75.81 104.62-112.9 85.76-43.9 127.87-70.62 125.16-79.39-3.54-11.46-85.84-1.16-181.14 10.78-315.5 39.52-972.03 121.79-1206.93-218.38-161.15-233.37-97-627.29 190.66-1170.82 126.8-239.58 206.56-450.09 251.31-634.81h6.1c-44.82 185.54-124.85 396.97-252.19 637.59-286.55 541.41-350.82 933.27-191.02 1164.67" style="fill:url(#T);fill-opacity:1;fill-rule:nonzero;stroke:none"/></g><g clip-path="url(#U)" transform="matrix(.13333 0 0 -.13333 -56.088 793.148)"><path d="M1207.85 4761.71c237.63 344.65 887.09 274.59 1199.22 240.92 129.06-13.91 181.63-18.93 186.33-3.03 3.33 11.26-16.58 29.29-125.9 84.39-67.92 34.22-100.24 68.31-98.82 104.22 3.98 99.38 266.89 206.56 599.74 342.27 279.05 113.75 608.55 248.12 888.7 418.13h-11.36c-277.93-167.38-603.51-300.12-879.58-412.66-334.83-136.51-599.3-244.31-603.43-347.5-1.52-38.47 31.87-74.37 102.07-109.75 84.2-42.43 125.53-68.48 122.89-77.43-3.48-11.79-85.26-2.97-180 7.24-313.27 33.8-965.1 104.1-1204.74-243.44-164.09-237.97-107.65-632.93 167.76-1173.9 114.56-225 188.15-424.81 230.67-602.06h5.65c-44.88 188.53-121.99 390.55-231.04 604.74-274.34 538.89-330.93 931.82-168.16 1167.86" style="fill:url(#V);fill-opacity:1;fill-rule:nonzero;stroke:none"/></g><g clip-path="url(#W)" transform="matrix(.13333 0 0 -.13333 -56.088 793.148)"><path d="M1231.18 4732.24c242.55 352.25 887.66 294.12 1197.7 266.15 125.11-11.25 180.64-15.57 185.19.6 3.22 11.41-16.35 29.18-123.72 82.39-65.76 32.58-97.25 65.67-96.28 101.14 2.8 100.61 267.69 214.1 603.06 357.78 264.16 113.16 573.06 245.55 843.75 408.31h-11.45c-268.34-160.24-573.42-290.96-834.64-402.87-337.32-144.51-603.75-258.66-606.64-363.06-1.05-38.02 31.52-72.88 99.56-106.61 82.64-40.96 123.24-66.35 120.66-75.48-3.42-12.11-84.76-4.79-178.96 3.7-311.15 28.05-958.58 86.41-1203.1-268.69-167.09-242.65-118.33-638.79 144.94-1177.41 102.99-210.68 170.56-399.67 210.78-569.08h5.37c-42.1 179.45-112.43 370.36-210.84 571.68-262.25 536.56-311.17 930.68-145.38 1171.45" style="fill:url(#X);fill-opacity:1;fill-rule:nonzero;stroke:none"/></g><g clip-path="url(#Y)" transform="matrix(.13333 0 0 -.13333 -56.088 793.148)"><path d="M1253.82 4702.99c247.58 360.03 888.59 313.78 1196.65 291.56 124.49-8.99 179.72-12.26 184.14 4.21 3.03 11.26-16.49 29.24-121.6 80.43-63.65 30.98-94.34 63.06-93.78 98.05 1.58 101.79 268.59 221.71 606.65 373.53 249.65 112.12 538.84 242.02 799.01 397.84h-11.5c-257.7-153.39-543.17-281.62-789.93-392.44-339.97-152.68-608.51-273.28-610.16-378.83-.58-37.52 31.18-71.38 97.1-103.48 81.12-39.51 120.99-64.25 118.48-73.56-3.33-12.45-84.27-6.61-177.98.15-309.16 22.31-952.47 68.72-1201.97-294.11-170.13-247.4-129-644.84 122.24-1181.29 92.08-196.61 153.9-374.74 191.73-535.94h5.08c-39.29 170.11-103.11 349.85-191.43 538.45-250.3 534.41-291.59 929.89-122.73 1175.43" style="fill:url(#Z);fill-opacity:1;fill-rule:nonzero;stroke:none"/></g><g clip-path="url(#aa)" transform="matrix(.13333 0 0 -.13333 -56.088 793.148)"><path d="M1275.74 4673.95c252.73 367.98 889.92 333.64 1196.14 317.13 123.9-6.67 178.87-8.92 183.15 7.86 2.92 11.4-16.3 29.11-119.5 78.46-61.59 29.44-91.47 60.52-91.36 95 .37 102.88 269.64 229.33 610.53 389.45 235.55 110.63 505.9 237.64 754.75 386.76h-11.5c-246.28-146.79-513.04-272.11-745.75-381.41-342.8-160.99-613.56-288.16-613.92-394.79-.14-36.99 30.84-69.82 94.7-100.35 79.6-38.07 118.75-62.18 116.33-71.65-3.27-12.78-83.82-8.44-177.12-3.42-307.29 16.57-946.72 51.03-1201.33-319.7-173.25-252.23-139.73-651.14 99.61-1185.65 81.82-182.7 137.27-349.86 171.78-502.52h6.44c-36.45 160.47-94.03 328.99-172.81 504.93-238.44 532.51-272.14 929.47-100.14 1179.9" style="fill:url(#ab);fill-opacity:1;fill-rule:nonzero;stroke:none"/></g><g clip-path="url(#ac)" transform="matrix(.13333 0 0 -.13333 -56.088 793.148)"><path d="M1296.94 4645.1c258.02 376.12 891.65 353.68 1196.15 342.92 123.39-4.39 178.12-5.59 182.25 11.51 2.79 11.54-16.14 28.96-117.51 76.51-59.55 27.94-88.64 58.01-88.93 91.94-.89 103.9 270.74 237.03 614.64 405.57 221.85 108.73 474.22 232.44 711.16 375.06h-11.52c-234.27-140.36-483.18-262.38-702.26-369.75-359.28-176.09-618.87-303.32-617.94-410.94.31-36.44 30.52-68.24 92.35-97.24 78.14-36.66 116.58-60.13 114.26-69.77-3.16-13.12-83.4-10.28-176.29-6.99-305.57 10.82-941.38 33.32-1201.23-345.48-176.41-257.13-150.49-657.65 77.04-1190.41 72.21-169.07 122.26-325.11 154.34-468.92h6.11c-33.58 150.6-85.21 307.84-155 471.25-226.69 530.77-252.8 929.37-77.62 1184.74" style="fill:url(#ad);fill-opacity:1;fill-rule:nonzero;stroke:none"/></g><g clip-path="url(#ae)" transform="matrix(.13333 0 0 -.13333 -56.088 793.148)"><path d="M1317.42 4616.43c263.44 384.45 893.78 373.98 1196.73 368.9 122.94-2.04 177.44-2.23 181.4 15.17 2.65 11.68-15.98 28.83-115.52 74.59-57.59 26.47-85.92 55.53-86.6 88.87-2.16 104.86 271.97 244.78 619.03 421.92 208.53 106.44 443.71 226.5 668.27 362.73h-11.42c-221.87-134.04-453.72-252.39-659.55-357.45-362.54-185.05-624.49-318.76-622.26-427.32.74-35.82 30.21-66.62 90.05-94.14 76.69-35.24 114.44-58.07 112.22-67.88-3.06-13.45-79.17-12.18-175.51-10.58-303.99 5.08-936.48 15.61-1201.72-371.47-179.62-262.14-161.27-664.38 54.56-1195.55 63.25-155.66 108.1-300.49 137.7-435.11h5.81c-30.72 140.5-76.68 286.38-138.01 437.34-215.05 529.22-233.61 929.58-55.18 1189.98" style="fill:url(#af);fill-opacity:1;fill-rule:nonzero;stroke:none"/></g><g clip-path="url(#ag)" transform="matrix(.13333 0 0 -.13333 -56.088 793.148)"><path d="M3138.63 5604.06c-365.94-194.16-630.36-334.44-626.79-443.84 1.13-35.19 29.86-64.97 87.79-91.04 75.27-33.86 112.34-56.08 110.23-66.04-2.95-13.8-78.82-13.97-174.87-14.2-302.49-.71-931.91-2.19-1202.66-397.71-182.92-267.21-172.1-671.33 32.13-1201.14 54.89-142.38 94.7-275.88 121.8-400.98h5.57c-27.88 130.12-68.44 264.56-121.84 403.1-203.49 527.89-214.52 930.17-32.77 1195.68 268.98 392.95 896.3 394.42 1197.78 395.13 122.54.29 176.87 1.17 180.64 18.89 2.52 11.81-15.83 28.68-113.57 72.68-55.67 25.04-83.24 53.12-84.31 85.83-3.43 105.7 273.29 252.53 623.67 438.42 195.57 103.77 414.31 219.86 626.21 349.77h-11.32c-209.2-127.79-424.73-242.17-617.69-344.55" style="fill:url(#ah);fill-opacity:1;fill-rule:nonzero;stroke:none"/></g><g clip-path="url(#ai)" transform="matrix(.13333 0 0 -.13333 -56.088 793.148)"><path d="M3167.62 5617.61c-369.52-203.43-636.5-350.43-631.61-460.56 1.53-34.52 29.53-63.3 85.59-87.96 27.52-12.12 111.31-48.98 108.28-64.21-2.8-14.14-78.47-15.77-174.27-17.84-301.15-6.5-927.77-20.02-1204.15-424.18-186.26-272.37-182.98-678.49 9.75-1207.1 47.09-129.16 81.76-251.28 105.84-366.65h6.2c-25.04 119.53-60.47 242.46-106.48 368.66-192.03 526.72-195.54 931.05-10.43 1201.74 274.68 401.65 899.25 415.13 1199.4 421.6 122.19 2.64 176.37 4.56 179.95 22.61 2.37 11.93-15.71 28.53-111.71 70.77-53.79 23.67-80.63 50.75-82.05 82.81-4.73 106.47 274.73 260.33 628.54 455.12 183.02 100.76 386.05 212.55 585.16 336.19h-11.25c-196.39-121.56-396.33-231.66-576.76-331" style="fill:url(#aj);fill-opacity:1;fill-rule:nonzero;stroke:none"/></g></svg>