<svg xmlns="http://www.w3.org/2000/svg" width="631.361" height="394.6"><defs><clipPath id="F" clipPathUnits="userSpaceOnUse"><path d="M4764.79 5948.61H9500v-2959.5H4764.79Z"/></clipPath><clipPath id="E" clipPathUnits="userSpaceOnUse"/><clipPath id="D" clipPathUnits="userSpaceOnUse"/><clipPath id="C" clipPathUnits="userSpaceOnUse"/><clipPath id="B" clipPathUnits="userSpaceOnUse"/><clipPath id="A" clipPathUnits="userSpaceOnUse"/><clipPath id="z" clipPathUnits="userSpaceOnUse"/><clipPath id="y" clipPathUnits="userSpaceOnUse"/><clipPath id="x" clipPathUnits="userSpaceOnUse"/><clipPath id="w" clipPathUnits="userSpaceOnUse"/><clipPath id="v" clipPathUnits="userSpaceOnUse"/><clipPath id="u" clipPathUnits="userSpaceOnUse"/><clipPath id="t" clipPathUnits="userSpaceOnUse"/><clipPath id="s" clipPathUnits="userSpaceOnUse"/><clipPath id="r" clipPathUnits="userSpaceOnUse"/><clipPath id="q" clipPathUnits="userSpaceOnUse"/><clipPath id="p" clipPathUnits="userSpaceOnUse"/><clipPath id="o" clipPathUnits="userSpaceOnUse"/><clipPath id="n" clipPathUnits="userSpaceOnUse"/><clipPath id="m" clipPathUnits="userSpaceOnUse"/><clipPath id="l" clipPathUnits="userSpaceOnUse"/><clipPath id="k" clipPathUnits="userSpaceOnUse"/><clipPath id="j" clipPathUnits="userSpaceOnUse"/><clipPath id="i" clipPathUnits="userSpaceOnUse"/><clipPath id="h" clipPathUnits="userSpaceOnUse"/><clipPath id="g" clipPathUnits="userSpaceOnUse"/><clipPath id="f" clipPathUnits="userSpaceOnUse"/><clipPath id="e" clipPathUnits="userSpaceOnUse"/><clipPath id="d" clipPathUnits="userSpaceOnUse"/><clipPath id="c" clipPathUnits="userSpaceOnUse"/><clipPath id="b" clipPathUnits="userSpaceOnUse"/><clipPath id="a" clipPathUnits="userSpaceOnUse"/></defs><path d="M816.874 53.544c-3.353 15.676-13.957 29.504-31.515 41.096-19.942 13.169-48.499 23.109-84.877 29.542-57.24 10.124-86.826 21.809-87.934 34.731-1.402 16.348 42.063 32.028 73.802 43.477 19.721 7.115 33.972 12.255 33.557 15.761-.177 1.508-2.891 2.505-8.542 3.139-6.272.704-9.623 1.974-9.962 3.776-.739 3.941 12.234 10.739 27.253 18.609 25.686 13.459 57.653 30.209 55.517 47.731-.187 1.542-.645 3.056-1.355 4.544h-.519c.764-1.511 1.245-3.044 1.433-4.599 2.099-17.217-31.065-34.594-55.281-47.282-15.801-8.28-28.283-14.82-27.484-19.085.389-2.073 3.678-3.387 10.349-4.136 5.262-.591 8.004-1.514 8.151-2.749.372-3.156-15.218-8.78-33.27-15.291-31.872-11.499-75.523-27.245-74.093-43.933 1.145-13.332 30.028-24.824 88.303-35.129 36.316-6.425 64.819-16.341 84.709-29.476 17.458-11.527 27.999-25.262 31.327-40.82 3.725-17.408-2.316-36.63-15.884-53.45h.572c3.14 3.914 5.906 7.981 8.25 12.167 7.735 13.827 10.327 28.134 7.493 41.377" clip-path="url(#a)" style="fill:#80d5ea;fill-opacity:1;fill-rule:nonzero;stroke:none;stroke-width:.1" transform="matrix(1.33333 0 0 -1.33333 -593.59 739.243)"/><path d="M726.324 246.4c-15.58-8.538-27.886-15.281-27.03-19.618.406-2.057 3.718-3.407 10.128-4.126 5.136-.576 7.819-1.503 7.977-2.754.406-3.223-14.937-9.038-32.702-15.771-31.413-11.906-74.434-28.21-72.855-45.27 1.254-13.53 29.531-25.074 86.449-35.293 35.501-6.373 63.363-16.326 82.811-29.582 17.071-11.638 27.381-25.553 30.643-41.357 3.562-17.247-1.73-35.966-13.972-52.628h.395c2.118 2.892 4.051 5.847 5.748 8.845 8.304 14.667 11.163 29.84 8.268 43.872-3.288 15.92-13.661 29.928-30.831 41.635-19.499 13.292-47.417 23.269-82.981 29.654-55.908 10.036-84.871 21.777-86.086 34.896-1.548 16.723 41.29 32.959 72.569 44.814 19.412 7.357 33.437 12.672 32.987 16.242-.192 1.522-2.851 2.519-8.368 3.138-6.106.686-9.384 1.953-9.744 3.771-.792 4.018 11.999 11.027 26.808 19.143 25.373 13.906 56.95 31.21 54.642 49.14-.035.268-.088.533-.137.799h-.452c.055-.284.11-.568.148-.856 2.27-17.629-30.493-35.584-54.415-48.694" clip-path="url(#b)" style="fill:#a8a9dc;fill-opacity:1;fill-rule:nonzero;stroke:none;stroke-width:.1" transform="matrix(1.33333 0 0 -1.33333 -593.59 739.243)"/><path d="M724.256 248.771c-15.367-8.804-27.505-15.758-26.59-20.169.429-2.068 3.67-3.415 9.911-4.115 5.01-.563 7.635-1.49 7.806-2.757.442-3.286-14.659-9.296-32.145-16.253-30.97-12.323-73.385-29.201-71.651-46.641 1.366-13.727 29.049-25.326 84.631-35.458 34.71-6.327 61.947-16.322 80.954-29.707 16.694-11.756 26.776-25.858 29.968-41.914 3.633-18.282-2.1-36.324-12.49-51.755h.534c10.346 15.466 16.032 33.532 12.392 51.841-3.214 16.173-13.357 30.37-30.147 42.193-19.062 13.421-46.359 23.441-81.131 29.78-54.591 9.952-82.944 21.749-84.27 35.064-1.702 17.108 40.535 33.915 71.374 46.185 19.105 7.602 32.91 13.094 32.421 16.724-.209 1.537-2.811 2.534-8.197 3.138-5.942.667-9.147 1.934-9.527 3.765-.849 4.096 11.767 11.324 26.377 19.693 22.443 12.86 52.719 30.209 53.877 47.565h-.445c-1.16-17.102-31.306-34.377-53.652-47.179" clip-path="url(#c)" style="fill:#667cc7;fill-opacity:1;fill-rule:nonzero;stroke:none;stroke-width:.1" transform="matrix(1.33333 0 0 -1.33333 -593.59 739.243)"/><path d="M803.061 50.92c-3.135 16.431-13.049 30.821-29.467 42.768-18.632 13.562-45.323 23.63-79.327 29.928-53.292 9.868-81.043 21.721-82.484 35.229-1.866 17.503 39.788 34.893 70.201 47.591 18.807 7.852 32.397 13.526 31.87 17.217-.221 1.552-2.772 2.549-8.027 3.139-5.78.648-8.914 1.911-9.314 3.756-.907 4.173 11.541 11.625 25.954 20.254 20.587 12.327 47.846 28.649 52.427 45.148h-.457c-4.607-16.273-31.721-32.507-52.2-44.769-15.159-9.075-27.133-16.244-26.159-20.729.452-2.079 3.625-3.421 9.7-4.103 4.884-.549 7.453-1.476 7.636-2.759.478-3.352-14.387-9.559-31.601-16.746-30.544-12.752-72.374-30.215-70.472-48.047.694-6.522 7.28-12.675 19.573-18.291 13.707-6.262 34.994-12.091 63.271-17.329 33.943-6.283 60.57-16.326 79.15-29.848 16.321-11.879 26.178-26.176 29.291-42.493 3.403-17.84-1.688-35.503-11.106-50.836h.563c.377.623.758 1.245 1.119 1.873 9.442 16.41 12.851 33.37 9.859 49.046" clip-path="url(#d)" style="fill:#8ed3ee;fill-opacity:1;fill-rule:nonzero;stroke:none;stroke-width:.1" transform="matrix(1.33333 0 0 -1.33333 -593.59 739.243)"/><path d="M798.632 49.942c-3.051 16.699-12.737 31.291-28.787 43.369-18.212 13.705-44.313 23.828-77.574 30.087-52.009 9.789-79.169 21.695-80.729 35.393-2.038 17.908 39.05 35.896 69.051 49.031 18.52 8.108 31.901 13.966 31.334 17.721-.239 1.564-2.736 2.561-7.861 3.135-5.621.632-8.683 1.892-9.106 3.746-.966 4.252 11.318 11.933 25.539 20.828 18.827 11.775 43.298 27.078 50.331 42.698h-.481c-7.066-15.416-31.374-30.619-50.085-42.32-14.959-9.355-26.774-16.744-25.738-21.303.475-2.087 3.578-3.424 9.49-4.088 4.76-.534 7.273-1.464 7.47-2.762.518-3.418-14.12-9.827-31.07-17.248-30.128-13.19-71.39-31.255-69.314-49.488.752-6.61 7.24-12.824 19.285-18.471 13.42-6.293 34.215-12.115 61.802-17.307 33.194-6.247 59.231-16.343 77.389-30.007 15.957-12.01 25.587-26.508 28.619-43.095 3.121-17.083-1.242-34.425-9.855-49.861h.617c9.245 16.751 12.592 33.979 9.673 49.942" clip-path="url(#e)" style="fill:#a5e2f0;fill-opacity:1;fill-rule:nonzero;stroke:none;stroke-width:.1" transform="matrix(1.33333 0 0 -1.33333 -593.59 739.243)"/><path d="M718.34 256.117c-14.764-9.64-26.426-17.254-25.324-21.888.497-2.094 3.534-3.425 9.282-4.07 4.637-.521 7.096-1.449 7.308-2.762.559-3.485-13.857-10.1-30.55-17.76-29.731-13.641-70.448-32.323-68.189-50.969.813-6.699 7.206-12.973 19.006-18.65 13.141-6.322 33.447-12.137 60.356-17.285 32.47-6.212 57.932-16.366 75.676-30.184 15.6-12.146 25.002-26.856 27.947-43.719 2.933-16.808-.767-33.662-8.45-48.828h.375c8.297 16.466 11.24 33.26 8.509 48.903-2.963 16.977-12.418 31.777-28.109 43.994-17.8 13.861-43.324 24.045-75.866 30.27-50.741 9.708-77.322 21.67-79.004 35.551-2.219 18.327 38.327 36.93 67.932 50.514 18.24 8.369 31.417 14.415 30.804 18.233-.253 1.577-2.698 2.573-7.695 3.133-5.537.622-8.449 1.843-8.9 3.733-1.028 4.33 11.096 12.246 25.138 21.413 17.147 11.197 39.031 25.487 47.719 40.204h-.508c-8.708-14.531-30.426-28.713-47.457-39.833" clip-path="url(#f)" style="fill:#b0b5da;fill-opacity:1;fill-rule:nonzero;stroke:none;stroke-width:.1" transform="matrix(1.33333 0 0 -1.33333 -593.59 739.243)"/><path d="M790.025 47.808c-2.868 17.264-12.097 32.287-27.433 44.65-17.397 14.023-42.363 24.276-74.203 30.471-49.487 9.629-75.498 21.642-77.307 35.704-2.413 18.751 37.609 37.986 66.833 52.032 17.967 8.635 30.95 14.875 30.291 18.757-.268 1.587-2.663 2.582-7.535 3.128-5.38.604-8.224 1.82-8.693 3.717-1.095 4.407 10.878 12.566 24.741 22.011 15.552 10.601 35.043 23.883 44.726 37.672h-.535c-9.685-13.617-29.011-26.787-44.445-37.305-14.575-9.931-26.088-17.776-24.921-22.484.52-2.099 3.49-3.424 9.076-4.05 4.517-.508 6.923-1.438 7.148-2.763.604-3.552-13.6-10.379-30.045-18.283-29.346-14.102-69.534-33.419-67.082-52.487.873-6.783 7.177-13.116 18.738-18.822 12.864-6.351 32.689-12.158 58.925-17.262 75.899-14.77 96.972-48.807 101.284-74.76 2.716-16.347-.536-32.78-7.445-47.734h.423c7.423 16.147 10.001 32.504 7.459 47.808" clip-path="url(#g)" style="fill:#abb0d8;fill-opacity:1;fill-rule:nonzero;stroke:none;stroke-width:.1" transform="matrix(1.33333 0 0 -1.33333 -593.59 739.243)"/><path d="M714.638 261.217c-14.395-10.232-25.764-18.314-24.528-23.096.544-2.102 3.447-3.419 8.875-4.029 4.398-.493 6.749-1.421 6.989-2.759.65-3.62-13.345-10.662-29.548-18.815-28.976-14.579-68.658-34.546-66.003-54.05.934-6.866 7.152-13.255 18.477-18.99 12.594-6.376 31.948-12.178 57.517-17.24 74.28-14.704 94.832-49.26 98.991-75.656 2.477-15.71-.337-31.742-6.571-46.58h.475c6.216 14.863 9.012 30.916 6.534 46.648-2.768 17.564-11.77 32.814-26.757 45.33-17 14.197-41.42 24.526-72.586 30.694-48.252 9.553-73.7 21.617-75.64 35.855-2.614 19.189 36.906 39.075 65.761 53.593 17.703 8.908 30.496 15.343 29.787 19.289-.282 1.576-2.694 2.597-7.376 3.123-5.223.587-8.002 1.796-8.494 3.698-1.161 4.486 10.663 12.892 24.354 22.623 14.036 9.978 31.311 22.258 41.455 35.095h-.563c-10.125-12.677-27.234-24.841-41.149-34.733" clip-path="url(#h)" style="fill:#8cbbd2;fill-opacity:1;fill-rule:nonzero;stroke:none;stroke-width:.1" transform="matrix(1.33333 0 0 -1.33333 -593.59 739.243)"/><path d="M781.749 45.423c-2.661 17.874-11.436 33.365-26.082 46.043-16.61 14.382-40.503 24.791-71.014 30.939-47.031 9.477-71.927 21.589-74.001 35.998-2.825 19.64 36.21 40.191 64.713 55.197 17.448 9.186 30.052 15.823 29.296 19.832-.3 1.585-2.661 2.605-7.22 3.116-5.069.57-7.783 1.772-8.296 3.678-1.231 4.564 10.45 13.223 23.976 23.248 12.589 9.332 27.809 20.615 37.981 32.476h-.579c-10.134-11.71-25.197-22.875-37.667-32.119-14.218-10.539-25.448-18.865-24.141-23.72.566-2.103 3.405-3.412 8.676-4.004 4.279-.48 6.578-1.407 6.832-2.757.697-3.687-13.096-10.949-29.065-19.356-28.619-15.069-67.816-35.704-64.946-55.654 1-6.948 7.132-13.392 18.226-19.155 12.328-6.4 31.21-12.194 56.126-17.215 72.714-14.651 92.745-49.748 96.744-76.612 2.267-15.234-.199-30.805-5.781-45.358h.504c5.828 15.409 7.853 31.076 5.718 45.423" clip-path="url(#i)" style="fill:#a9aadc;fill-opacity:1;fill-rule:nonzero;stroke:none;stroke-width:.1" transform="matrix(1.33333 0 0 -1.33333 -593.59 739.243)"/><path d="M711.119 266.489c-14.048-10.855-25.144-19.428-23.765-24.357.589-2.102 3.365-3.402 8.48-3.976 4.162-.468 6.409-1.394 6.679-2.753.745-3.756-12.85-11.242-28.592-19.91-28.278-15.571-67.006-36.897-63.911-57.305 1.066-7.026 7.115-13.522 17.981-19.311 12.066-6.426 30.488-12.211 54.751-17.19 71.203-14.608 90.714-50.277 94.542-77.625 2.049-14.637-.091-29.749-5.096-44.06h.566c5.166 15.007 6.925 30.159 4.97 44.12-2.55 18.196-11.094 33.939-25.403 46.793-16.23 14.578-39.608 25.077-69.489 31.209-45.821 9.402-70.174 21.558-72.384 36.133-3.048 20.101 35.524 41.34 63.686 56.849 17.199 9.47 29.622 16.312 28.816 20.386-.317 1.593-2.628 2.609-7.067 3.107-4.917.552-7.568 1.747-8.101 3.655-1.301 4.641 9.693 13.133 23.609 23.886 11.209 8.659 24.52 18.947 34.381 29.81h-.595c-9.804-10.719-22.966-20.89-34.058-29.461" clip-path="url(#j)" style="fill:#728fd1;fill-opacity:1;fill-rule:nonzero;stroke:none;stroke-width:.1" transform="matrix(1.33333 0 0 -1.33333 -593.59 739.243)"/><path d="M773.779 42.742c-2.429 18.535-10.746 34.544-24.724 47.58-15.856 14.788-38.736 25.389-68.006 31.506-44.628 9.328-68.447 21.525-70.796 36.256-3.281 20.574 34.842 42.52 62.68 58.546 16.955 9.76 29.207 16.813 28.345 20.952-.334 1.599-2.595 2.613-6.915 3.097-4.767.535-7.351 1.722-7.907 3.627-1.372 4.719 9.493 13.466 23.247 24.54 9.893 7.964 21.44 17.26 30.724 27.104h-.609c-9.213-9.706-20.614-18.887-30.393-26.758-13.884-11.178-24.849-20.006-23.394-25.009.61-2.096 3.319-3.387 8.284-3.944 4.047-.454 6.246-1.379 6.529-2.747.797-3.824-12.611-11.542-28.132-20.478-27.947-16.089-66.225-38.125-62.896-59 1.132-7.1 7.104-13.648 17.746-19.461 11.808-6.448 29.773-12.221 53.397-17.16 69.744-14.578 88.732-50.848 92.381-78.708 1.867-14.264.101-28.83-4.231-42.685h.366c4.557 14.57 6.079 29.19 4.304 42.742" clip-path="url(#k)" style="fill:#5876c3;fill-opacity:1;fill-rule:nonzero;stroke:none;stroke-width:.1" transform="matrix(1.33333 0 0 -1.33333 -593.59 739.243)"/><path d="M707.778 271.939c-13.724-11.509-24.567-20.6-23.035-25.676.63-2.09 3.278-3.371 8.093-3.91 3.933-.441 6.078-1.363 6.377-2.739.851-3.893-12.369-11.845-27.679-21.053-27.635-16.622-65.481-39.388-61.907-60.745 1.201-7.173 7.095-13.769 17.518-19.603 11.554-6.469 29.072-12.234 52.062-17.131 68.335-14.556 86.802-51.459 90.26-79.854 1.673-13.729.138-27.769-3.695-41.226h.457c3.829 13.476 5.353 27.533 3.679 41.278-2.302 18.89-10.387 35.175-24.041 48.407-15.487 15.009-37.884 25.719-66.566 31.827-43.449 9.257-66.743 21.494-69.235 36.373-3.524 21.06 34.173 43.735 61.698 60.292 16.721 10.058 28.802 17.325 27.885 21.528-.35 1.604-2.563 2.614-6.764 3.085-4.619.518-7.142 1.695-7.716 3.598-1.446 4.795 9.296 13.803 22.895 25.208 8.632 7.24 18.536 15.545 27.041 24.352h-.616c-8.424-8.675-18.189-16.864-26.711-24.011" clip-path="url(#l)" style="fill:#7591d2;fill-opacity:1;fill-rule:nonzero;stroke:none;stroke-width:.1" transform="matrix(1.33333 0 0 -1.33333 -593.59 739.243)"/><path d="M766.109 39.729c-2.166 19.261-10.025 35.842-23.356 49.281-15.128 15.25-37.056 26.078-65.172 32.183-42.285 9.185-65.06 21.457-67.692 36.479-3.78 21.556 33.509 44.984 60.735 62.089 16.493 10.363 28.41 17.849 27.435 22.116-.367 1.607-2.53 2.613-6.617 3.071-4.47.501-6.932 1.667-7.526 3.565-1.523 4.87 9.101 14.146 22.551 25.89 7.424 6.483 15.799 13.795 23.381 21.547h-.619c-7.494-7.625-15.737-14.823-23.055-21.213-13.572-11.85-24.29-21.21-22.681-26.356.652-2.083 3.236-3.351 7.901-3.874 3.821-.428 5.918-1.347 6.233-2.729.905-3.96-11.514-11.763-27.238-21.641-27.334-17.172-64.769-40.691-60.938-62.543 1.269-7.24 7.088-13.88 17.295-19.738 11.304-6.486 28.377-12.239 50.74-17.097 66.983-14.546 84.927-52.121 88.183-81.079 1.42-12.636.287-26.124-3.21-39.68h.457c3.489 13.572 4.617 27.075 3.193 39.729" clip-path="url(#m)" style="fill:#5eb5e8;fill-opacity:1;fill-rule:nonzero;stroke:none;stroke-width:.1" transform="matrix(1.33333 0 0 -1.33333 -593.59 739.243)"/><path d="M762.383 38.083c-2.025 19.651-9.654 36.543-22.67 50.205-14.771 15.503-36.242 26.461-63.817 32.568-41.135 9.111-63.4 21.415-66.176 36.567-4.045 22.068 32.853 46.27 59.796 63.942 16.271 10.672 28.029 18.384 26.995 22.714-.385 1.61-2.503 2.609-6.472 3.053-4.327.486-6.728 1.642-7.339 3.533-1.599 4.944 8.91 14.496 22.214 26.589 6.268 5.696 13.217 12.011 19.776 18.695h-.623c-6.462-6.561-13.288-12.765-19.452-18.367-13.424-12.2-24.027-21.837-22.337-27.055.672-2.074 3.195-3.329 7.711-3.836 3.71-.416 5.759-1.329 6.088-2.716.962-4.026-11.292-12.064-26.806-22.24-27.046-17.739-64.087-42.035-59.991-64.393 1.339-7.304 7.086-13.988 17.079-19.865 11.059-6.5 27.691-12.24 49.439-17.056 65.68-14.549 83.096-52.833 86.14-82.386C763.188 25.891 762.222 13 759.19 0h.458c3.026 13.014 3.988 25.922 2.735 38.083" clip-path="url(#n)" style="fill:#7995d4;fill-opacity:1;fill-rule:nonzero;stroke:none;stroke-width:.1" transform="matrix(1.33333 0 0 -1.33333 -593.59 739.243)"/><path d="M758.724 36.332c-1.875 20.063-9.27 37.283-21.976 51.18-14.423 15.778-35.452 26.877-62.507 32.993-39.998 9.041-61.76 21.37-64.68 36.646-4.321 22.59 32.205 47.592 58.875 65.847 16.057 10.991 27.66 18.932 26.564 23.326-.401 1.61-2.471 2.603-6.325 3.035-4.185.47-6.527 1.612-7.155 3.493-1.678 5.019 8.719 14.853 21.885 27.303 5.156 4.875 10.776 10.191 16.252 15.795h-.622c-5.375-5.485-10.88-10.692-15.936-15.473-13.281-12.558-23.771-22.478-22.001-27.765.69-2.063 3.152-3.303 7.526-3.793 3.598-.405 5.598-1.313 5.944-2.703 1.02-4.094-11.074-12.372-26.385-22.852-26.771-18.324-63.437-43.421-59.061-66.296 1.408-7.364 7.083-14.086 16.867-19.979 10.816-6.515 27.017-12.24 48.155-17.018 64.429-14.563 81.317-53.598 84.137-83.78 1.122-12.015.184-24.294-2.331-36.291h.448c2.513 12.012 3.45 24.305 2.326 36.332" clip-path="url(#o)" style="fill:#728fd1;fill-opacity:1;fill-rule:nonzero;stroke:none;stroke-width:.1" transform="matrix(1.33333 0 0 -1.33333 -593.59 739.243)"/><path d="M755.129 34.466c-1.716 20.5-8.873 38.067-21.275 52.22-14.079 16.069-34.684 27.323-61.239 33.451-38.876 8.969-60.142 21.322-63.209 36.71-4.606 23.124 31.563 48.951 57.971 67.809 15.851 11.318 27.304 19.495 26.147 23.952-.419 1.609-2.44 2.596-6.183 3.016-4.045.454-6.326 1.583-6.971 3.452-1.76 5.092 8.533 15.215 21.566 28.031 4.085 4.019 8.464 8.327 12.828 12.843h-.618c-4.262-4.401-8.533-8.603-12.522-12.527-13.144-12.926-23.524-23.136-21.674-28.493.707-2.047 3.109-3.273 7.341-3.748 3.489-.391 5.44-1.295 5.804-2.686 1.081-4.161-10.86-12.687-25.975-23.48-26.509-18.927-62.811-44.85-58.149-68.256 1.478-7.42 7.084-14.176 16.662-20.085 10.575-6.523 26.348-12.232 46.883-16.97 63.236-14.591 79.589-54.427 82.172-85.275.912-10.902.169-22.58-2.081-34.43h.536c2.214 11.772 2.913 23.401 1.986 34.466" clip-path="url(#p)" style="fill:#5d6fbf;fill-opacity:1;fill-rule:nonzero;stroke:none;stroke-width:.1" transform="matrix(1.33333 0 0 -1.33333 -593.59 739.243)"/><path d="M751.597 32.486c-1.549 20.957-8.47 38.897-20.568 53.32-13.742 16.383-33.933 27.807-60.013 33.952-37.767 8.9-58.545 21.267-61.754 36.759-4.905 23.672 30.926 50.349 57.089 69.827 15.648 11.653 26.956 20.072 25.734 24.589-.433 1.608-2.409 2.586-6.041 2.993-3.907.44-6.129 1.554-6.791 3.411-1.841 5.162 8.351 15.583 21.253 28.777 3.052 3.121 6.27 6.412 9.52 9.836h-.612c-3.151-3.313-6.267-6.499-9.226-9.526-13.01-13.305-23.287-23.814-21.354-29.238.725-2.031 3.066-3.241 7.16-3.701 3.381-.379 5.287-1.276 5.663-2.667 1.143-4.228-10.647-13.005-25.571-24.117-26.258-19.551-62.221-46.325-57.259-70.275 1.548-7.469 7.086-14.26 16.459-20.18 10.339-6.53 25.691-12.222 45.63-16.921 62.093-14.632 77.907-55.318 80.239-86.874.762-10.313.13-21.29-1.776-32.452h.45c1.9 11.174 2.53 22.162 1.768 32.487" clip-path="url(#q)" style="fill:#5b7ac5;fill-opacity:1;fill-rule:nonzero;stroke:none;stroke-width:.1" transform="matrix(1.33333 0 0 -1.33333 -593.59 739.243)"/><path d="M677.755 259.479c.739-2.013 3.022-3.207 6.977-3.651 3.277-.367 5.136-1.258 5.527-2.648 1.207-4.292-10.439-13.329-25.182-24.77-26.018-20.194-61.652-47.848-56.382-72.35 1.617-7.516 7.087-14.332 16.258-20.262 10.107-6.533 25.042-12.207 44.392-16.864 61.005-14.687 76.274-56.284 78.342-88.593.619-9.677.082-19.915-1.515-30.34h.45c1.593 10.433 2.128 20.681 1.508 30.369-1.372 21.444-8.052 39.78-19.853 54.494-13.41 16.723-33.204 28.33-58.83 34.499-36.672 8.829-56.967 21.206-60.318 36.789-5.211 24.23 30.295 51.786 56.221 71.905 15.456 11.996 26.623 20.663 25.336 25.242-.453 1.604-2.382 2.575-5.905 2.97-3.772.423-5.933 1.524-6.61 3.363-1.923 5.232 8.17 15.958 20.946 29.54 2.055 2.183 4.183 4.447 6.347 6.778h-.606a1316 1316 0 0 0-6.063-6.474c-12.882-13.692-23.057-24.508-21.04-29.997" clip-path="url(#r)" style="fill:#5eb5e8;fill-opacity:1;fill-rule:nonzero;stroke:none;stroke-width:.1" transform="matrix(1.33333 0 0 -1.33333 -593.59 739.243)"/><path d="M744.719 28.11c-1.185 21.963-7.62 40.72-19.125 55.748-13.083 17.087-32.49 28.895-57.686 35.094-35.592 8.759-55.41 21.141-58.903 36.805-5.529 24.8 29.671 53.264 55.372 74.047 14.693 11.882 26.299 21.268 24.944 25.908-.466 1.596-2.351 2.558-5.765 2.941-3.64.409-5.744 1.492-6.433 3.313-2.005 5.299 7.992 16.339 20.648 30.317 1.085 1.199 2.194 2.423 3.315 3.667h-.598a1478 1478 0 0 0-3.047-3.369c-12.755-14.09-22.831-25.219-20.731-30.771.752-1.993 2.976-3.17 6.798-3.597 3.217-.362 4.978-1.22 5.388-2.625 1.271-4.357-10.233-13.661-24.797-25.438-25.792-20.856-61.115-49.42-55.527-74.489 1.686-7.558 7.088-14.398 16.061-20.334 9.876-6.533 24.4-12.188 43.172-16.806 59.967-14.757 74.685-57.324 76.47-90.433.486-8.994.034-18.45-1.284-28.088h.449c1.313 9.645 1.765 19.109 1.279 28.11" clip-path="url(#s)" style="fill:#8c9ed8;fill-opacity:1;fill-rule:nonzero;stroke:none;stroke-width:.1" transform="matrix(1.33333 0 0 -1.33333 -593.59 739.243)"/><path d="M741.363 25.7c-.986 22.514-7.171 41.72-18.385 57.085-12.757 17.481-31.793 29.507-56.58 35.743-34.529 8.687-53.878 21.069-57.508 36.801-5.857 25.385 29.05 54.787 54.539 76.254 14.517 12.228 25.986 21.886 24.561 26.586-.48 1.588-2.322 2.541-5.629 2.912-3.507.393-5.555 1.461-6.256 3.261-2.085 5.365 7.817 16.726 20.357 31.111l.433.497h-.589l-.179-.205c-12.637-14.497-22.619-25.949-20.434-31.564.766-1.968 2.931-3.128 6.621-3.542 3.111-.348 4.831-1.199 5.253-2.599 1.339-4.42-10.03-13.994-24.422-26.117-25.576-21.542-60.603-51.045-54.685-76.695 3.669-15.906 23.127-28.399 57.831-37.131 58.986-14.842 73.142-58.448 74.629-92.418.362-8.255-.017-16.88-1.086-25.679h.446c1.065 8.802 1.445 17.437 1.083 25.7" clip-path="url(#t)" style="fill:#8bd9ec;fill-opacity:1;fill-rule:nonzero;stroke:none;stroke-width:.1" transform="matrix(1.33333 0 0 -1.33333 -593.59 739.243)"/><path d="M674.707 266.591c.777-1.944 2.887-3.084 6.446-3.483 3.009-.338 4.683-1.18 5.12-2.572 1.407-4.481-9.831-14.334-24.058-26.811-25.372-22.249-60.119-52.719-53.865-78.962 3.805-15.96 22.797-28.444 56.45-37.106 58.061-14.944 71.643-59.67 72.813-94.555.258-7.648-.067-15.385-.88-23.1h.412c.847 7.9 1.163 15.651.912 23.114-.774 23.102-6.706 42.792-17.63 58.52-12.437 17.907-31.114 30.172-55.516 36.452-33.479 8.618-52.365 20.993-56.128 36.779-6.193 25.981 28.44 56.351 53.726 78.525 14.348 12.582 25.681 22.521 24.189 27.278-.496 1.579-2.294 2.52-5.495 2.879-3.383.379-5.372 1.429-6.083 3.208-2.034 5.09 6.471 15.688 17.783 29.194h-.579c-11.29-13.486-19.73-24.073-17.617-29.36" clip-path="url(#u)" style="fill:#9ac4d7;fill-opacity:1;fill-rule:nonzero;stroke:none;stroke-width:.1" transform="matrix(1.33333 0 0 -1.33333 -593.59 739.243)"/><path d="M734.805 20.344c-.549 23.731-6.222 43.94-16.858 60.06-12.121 18.369-30.453 30.894-54.492 37.226-32.446 8.546-50.873 20.907-54.766 36.738-6.537 26.588 27.831 57.956 52.926 80.86 14.737 13.452 25.387 23.172 23.824 27.986-.509 1.567-2.263 2.499-5.363 2.845-3.257.365-5.189 1.397-5.908 3.152-1.948 4.744 5.06 14.379 14.951 26.739h-.569c-9.865-12.345-16.816-21.984-14.795-26.907.788-1.919 2.839-3.038 6.271-3.424 2.908-.326 4.539-1.158 4.992-2.543 1.472-4.541-9.637-14.682-23.703-27.52-25.177-22.979-59.658-54.45-53.055-81.294 3.933-16.001 22.468-28.47 55.084-37.062 57.19-15.065 70.187-60.992 71.015-96.866.155-6.593-.108-13.402-.763-20.334h.447c.653 6.935.914 13.748.762 20.344" clip-path="url(#v)" style="fill:#82b9e7;fill-opacity:1;fill-rule:nonzero;stroke:none;stroke-width:.1" transform="matrix(1.33333 0 0 -1.33333 -593.59 739.243)"/><path d="M731.594 17.374c-.309 24.404-5.717 45.17-16.067 61.716-11.803 18.872-29.806 31.678-53.506 38.072-31.429 8.475-49.401 20.815-53.419 36.678-6.89 27.205 27.228 59.605 52.14 83.263 14.573 13.839 25.104 23.84 23.469 28.708-.522 1.556-2.232 2.476-5.228 2.812-3.134.351-5.012 1.363-5.741 3.092-1.847 4.388 3.805 13.052 12.294 24.236h-.556c-8.461-11.176-14.062-19.859-12.145-24.409.795-1.891 2.792-2.991 6.101-3.362 2.806-.315 4.394-1.136 4.856-2.511 1.544-4.601-9.444-15.036-23.354-28.246-24.992-23.734-59.22-56.238-52.265-83.695 4.061-16.027 22.14-28.475 53.734-36.997 43.988-11.864 68.577-47.152 69.242-99.365.072-5.655-.144-11.463-.629-17.365h.445c.484 5.904.701 11.714.629 17.373" clip-path="url(#w)" style="fill:#5ecbf5;fill-opacity:1;fill-rule:nonzero;stroke:none;stroke-width:.1" transform="matrix(1.33333 0 0 -1.33333 -593.59 739.243)"/><path d="M671.941 274.081c.803-1.862 2.745-2.94 5.932-3.297 2.708-.305 4.254-1.114 4.727-2.477 1.615-4.657-9.254-15.391-23.015-28.982-24.815-24.512-58.804-58.082-51.488-86.165 4.18-16.044 21.809-28.464 52.4-36.914 43.399-11.989 67.367-48.239 67.483-102.07.011-4.637-.165-9.373-.506-14.174h.443c.343 4.801.517 9.538.508 14.175-.057 25.126-5.188 46.491-15.252 63.497-11.49 19.419-29.173 32.54-52.558 38.999-30.427 8.406-47.952 20.72-52.09 36.599-7.251 27.835 26.632 61.301 51.372 85.737 14.414 14.237 24.828 24.523 23.123 29.444-.536 1.541-2.204 2.447-5.099 2.772-3.015.338-4.837 1.33-5.57 3.032-1.736 4.021 2.701 11.713 9.821 21.694h-.542c-7.094-9.98-11.486-17.703-9.689-21.87" clip-path="url(#x)" style="fill:#a9e3ef;fill-opacity:1;fill-rule:nonzero;stroke:none;stroke-width:.1" transform="matrix(1.33333 0 0 -1.33333 -593.59 739.243)"/><path d="M710.881 76.156c-11.176 20.013-28.552 33.476-51.649 40.013-29.441 8.335-46.525 20.615-50.775 36.501-7.617 28.474 26.043 63.041 50.62 88.28 14.259 14.642 24.562 25.222 22.782 30.194-.545 1.525-2.168 2.418-4.966 2.733-2.899.325-4.667 1.296-5.407 2.968-1.605 3.639 1.753 10.361 7.549 19.105h-.525c-5.775-8.754-9.094-15.516-7.428-19.286.806-1.829 2.692-2.886 5.76-3.231 2.612-.293 4.116-1.091 4.599-2.439 1.686-4.712-9.068-15.756-22.681-29.737-24.653-25.315-58.414-59.986-50.732-88.705 4.294-16.045 21.481-28.43 51.084-36.81 42.857-12.132 66.201-49.425 65.73-105.01-.029-3.528-.162-7.11-.384-10.732h.445c.221 3.62.354 7.201.383 10.727.218 25.906-4.628 47.92-14.405 65.429" clip-path="url(#y)" style="fill:#7591d2;fill-opacity:1;fill-rule:nonzero;stroke:none;stroke-width:.1" transform="matrix(1.33333 0 0 -1.33333 -593.59 739.243)"/><path d="M708.649 74.526c-10.862 20.662-27.944 34.499-50.776 41.123-28.474 8.263-45.12 20.502-49.476 36.379-7.991 29.125 25.457 64.826 49.88 90.894 14.112 15.059 24.305 25.94 22.453 30.961-.554 1.507-2.137 2.387-4.837 2.69-2.786.312-4.501 1.263-5.243 2.904-1.464 3.241.943 8.989 5.478 16.473h-.511c-4.516-7.504-6.888-13.299-5.37-16.655.812-1.797 2.642-2.831 5.596-3.163 2.516-.283 3.979-1.069 4.471-2.402 1.756-4.765-8.885-16.125-22.359-30.506-24.496-26.143-58.042-61.95-49.985-91.314 4.399-16.034 21.147-28.378 49.78-36.687 42.364-12.293 65.086-50.718 63.985-108.2-.044-2.32-.132-4.663-.254-7.023h.445c.122 2.357.21 4.697.254 7.013.51 26.744-4.041 49.458-13.531 67.513" clip-path="url(#z)" style="fill:#979bd6;fill-opacity:1;fill-rule:nonzero;stroke:none;stroke-width:.1" transform="matrix(1.33333 0 0 -1.33333 -593.59 739.243)"/><path d="M669.445 281.976c.814-1.762 2.591-2.774 5.43-3.093 2.427-.272 3.846-1.043 4.348-2.361 1.828-4.816-8.707-16.499-22.045-31.291-24.346-27-57.69-63.977-49.256-93.997 4.5-16.013 20.814-28.308 48.493-36.544 41.92-12.475 64.023-52.142 62.235-111.688q-.044-1.495-.111-3h.444q.064 1.5.111 2.986c.828 27.647-3.416 51.125-12.615 69.777-10.544 21.377-27.346 35.626-49.94 42.351-27.522 8.19-43.736 20.383-48.191 36.239-8.368 29.785 24.881 66.657 49.157 93.58 13.966 15.487 24.055 26.677 22.131 31.747-.562 1.487-2.106 2.352-4.711 2.645-2.673.299-4.333 1.227-5.076 2.837-1.304 2.822.283 7.593 3.629 13.787h-.492c-3.332-6.228-4.891-11.052-3.541-13.975" clip-path="url(#A)" style="fill:#b0e5f0;fill-opacity:1;fill-rule:nonzero;stroke:none;stroke-width:.1" transform="matrix(1.33333 0 0 -1.33333 -593.59 739.243)"/><path d="M704.367 70.863c-10.221 22.162-26.756 36.864-49.139 43.698-26.589 8.119-42.376 20.258-46.922 36.079-8.749 30.452 24.31 68.533 48.45 96.337 13.824 15.924 23.813 27.43 21.817 32.546-.572 1.467-2.071 2.317-4.585 2.599-2.565.288-4.174 1.195-4.918 2.771-1.12 2.375-.224 6.169 2.03 11.057h-.473c-2.245-4.932-3.119-8.783-1.958-11.246.815-1.728 2.539-2.716 5.269-3.023 2.333-.26 3.714-1.02 4.221-2.318 1.9-4.866-8.531-16.882-21.739-32.094-24.206-27.882-57.357-66.066-48.543-96.75 4.591-15.975 20.477-28.216 47.221-36.381C710.431 97.244 716.887 35.996 715.632 0h.433c.99 28.027-2.936 51.87-11.698 70.863" clip-path="url(#B)" style="fill:#7593d3;fill-opacity:1;fill-rule:nonzero;stroke:none;stroke-width:.1" transform="matrix(1.33333 0 0 -1.33333 -593.59 739.243)"/><path d="M702.314 68.807c-9.896 23.027-26.17 38.23-48.373 45.187-25.675 8.046-41.041 20.125-45.67 35.902-9.131 31.129 23.751 70.455 47.761 99.169 13.689 16.371 23.577 28.198 21.511 33.357-.58 1.444-2.038 2.278-4.46 2.549-2.46.276-4.016 1.161-4.758 2.702-.911 1.891-.556 4.709.727 8.277h-.452c-1.284-3.624-1.621-6.505-.676-8.469.814-1.691 2.484-2.656 5.108-2.95 2.244-.252 3.585-.996 4.097-2.274 1.971-4.913-8.36-17.266-21.438-32.907-24.075-28.791-57.045-68.222-47.846-99.58 4.673-15.928 20.135-28.106 45.962-36.2C706.464 97.07 713.775 37.834 712.756 0h.445c.772 27.046-2.881 50.173-10.887 68.807" clip-path="url(#C)" style="fill:#ace4f0;fill-opacity:1;fill-rule:nonzero;stroke:none;stroke-width:.1" transform="matrix(1.33333 0 0 -1.33333 -593.59 739.243)"/><path d="M652.674 113.407c-24.778 7.974-39.726 19.987-44.428 35.703-9.518 31.815 23.197 72.425 47.082 102.076 13.559 16.831 23.356 28.991 21.215 34.191-.586 1.421-2.003 2.24-4.337 2.502-2.355.264-3.86 1.125-4.601 2.631-.662 1.349-.685 3.187-.196 5.44h-.434c-.495-2.319-.461-4.223.232-5.635.801-1.631 2.466-2.6 4.95-2.878 2.158-.242 3.458-.971 3.976-2.228 2.04-4.957-8.194-17.661-21.148-33.744-23.948-29.728-56.746-70.443-47.163-102.481 4.747-15.866 19.792-27.978 44.719-36C702.717 96.84 710.713 39.442 709.92 0h.443c.792 39.574-7.248 97.176-57.689 113.407" clip-path="url(#D)" style="fill:#b0e5f0;fill-opacity:1;fill-rule:nonzero;stroke:none;stroke-width:.1" transform="matrix(1.33333 0 0 -1.33333 -593.59 739.243)"/><path d="M651.429 112.804c-23.902 7.9-38.438 19.839-43.204 35.488-9.903 32.507 22.653 74.44 46.423 105.058 13.432 17.299 23.133 29.798 20.924 35.034-.582 1.377-1.999 2.202-4.214 2.45-2.256.253-3.712 1.091-4.45 2.561-.356.715-.533 1.571-.556 2.555h-.436c.02-1.06.211-1.982.598-2.753.799-1.593 2.411-2.537 4.796-2.805 2.073-.232 3.333-.945 3.854-2.18 2.109-4.997-8.027-18.056-20.864-34.59-23.831-30.695-56.468-72.733-46.498-105.459 4.811-15.794 19.443-27.832 43.489-35.781C699.161 96.559 707.706 40.855 707.12 0h.443c.583 40.99-8.006 96.895-56.134 112.804" clip-path="url(#E)" style="fill:#afc9eb;fill-opacity:1;fill-rule:nonzero;stroke:none;stroke-width:.1" transform="matrix(1.33333 0 0 -1.33333 -593.59 739.243)"/><g clip-path="url(#F)" transform="matrix(.13333 0 0 -.13333 -635.305 793.148)"><path d="M8896.51 3042.12c-202.46 214.91-373.63 509.88-469.63 809.27-104.44 325.69-106.76 618.61-6.59 824.79 82.75 170.28 102.53 362.89 57.27 557-40.61 174.1-134.08 347.12-263.21 487.18-89.97 97.56-192.44 175.16-300.35 228.25h-10.78c108.79-51.78 214.22-129.71 307.87-231.28 214.54-232.67 397.01-644.46 205.22-1039.22-100.68-207.21-98.43-501.3 6.35-828.07 96.2-300.02 267.73-595.6 470.63-810.97 16.31-17.33 32.76-33.94 49.3-49.96h6.41c-17.61 16.96-35.13 34.58-52.49 53.01M5517.11 4225.75c340.43-285.27 690.79-578.9 943.44-578.87 40.41 0 78.36 7.52 113.33 23.79 172.39 80.21 256.83 362.62 258.1 863.38 1.09 426.53 57.36 770.63 167.26 1022.74 80.44 184.53 187.19 315.9 318.05 391.82h-8.73c-128.73-76.93-233.9-207.66-313.39-390.05-110.15-252.67-166.56-597.36-167.64-1024.51-1.27-498.87-84.85-779.96-255.54-859.36-251.01-116.77-658.22 224.47-1052.03 554.46-186.65 156.4-379.65 318.14-550.28 425.11-75.52 47.34-143.62 81.84-204.89 103.74v-4.69c60.55-21.82 127.87-56 202.52-102.81 170.39-106.8 363.27-268.44 549.8-424.75" style="fill:#cf2f51;fill-opacity:1;fill-rule:nonzero;stroke:none"/><path d="M5478.91 4259.53c345.7-278.13 701.43-564.34 959.03-564.32 43.52.01 84.28 8.19 121.67 25.95 172.93 82.16 258.48 358.71 261.54 845.45 2.64 417.84 61.15 755.21 173.91 1002.77 80.23 176.14 185.61 303.26 314.06 379.23h-8.59c-126.37-76.82-230.21-203.27-309.51-377.37-113.03-248.14-171.66-586.13-174.31-1004.58-3.05-484.89-87.76-760.13-259.01-841.48-256.22-121.73-672.97 213.57-1076.01 537.81-190.79 153.5-388.1 312.21-562.45 416.53-55.29 33.07-106.71 59.64-154.45 79.75v-4.79c47.04-19.95 97.69-46.18 152.16-78.78 174.1-104.14 371.27-262.77 561.96-416.17M8884.55 3150.19c-382.7 416.72-660.78 1132.21-442.68 1561.47 82.25 161.87 104.54 344.7 64.48 528.75-36.46 167.48-121.47 329.22-245.86 467.74-90.44 100.71-198.68 183.71-311.92 240.46h-7.72c112.54-55.08 220.85-137.11 316.32-243.44 211.34-235.35 369.8-619.41 180.73-991.51-218.94-430.96 59.66-1148.66 443.37-1566.48 55.57-60.5 111.77-113.25 167.91-158.07h7.11c-57.4 45.41-114.89 99.18-171.74 161.08" style="fill:#cb1b96;fill-opacity:1;fill-rule:nonzero;stroke:none"/><path d="M5440.03 4292.5c351.08-271.07 712.28-549.98 974.92-549.96 46.85 0 90.57 8.87 130.53 28.25 173.32 84.05 259.92 354.8 264.74 827.71 4.18 409.41 64.98 740.28 180.68 983.39 80.03 168.15 184.1 290.99 310.25 366.72h-8.63c-124.06-76.45-226.55-198.66-305.64-364.81-115.98-243.69-176.92-575.18-181.11-985.25-4.8-471.06-90.58-740.52-262.23-823.77-261.48-126.82-688.17 202.64-1100.8 521.23-195.08 150.64-396.81 306.4-575.03 408.08-35.89 20.48-70.17 38.31-102.92 53.59v-4.9c32.07-15.04 65.6-32.52 100.72-52.56 177.95-101.52 379.56-257.18 574.52-407.72M8871.37 3258.63c-369.44 412.87-622.83 1082.29-407.4 1487.89 81.67 153.74 106.34 327.15 71.37 501.48-31.85 158.7-110.87 313.73-228.51 448.34-94.96 108.63-205.43 193.83-321.58 252.27h-10.17c118.62-58.27 231.61-144.44 328.4-255.2 197.98-226.52 343.1-593.7 156.58-944.81-216.33-407.3 37.57-1078.93 408.01-1492.93 100.36-112.16 206.88-202.75 312.57-266.56h8.63c-107.39 63.75-215.83 155.44-317.9 269.52" style="fill:#ba628a;fill-opacity:1;fill-rule:nonzero;stroke:none"/><path d="M8857.51 3366.95c-342.2 392.73-588.46 1021.71-370.83 1413.84 81.02 145.96 107.94 310.33 77.84 475.34-27.41 150.3-100.52 298.68-211.38 429.07-92.79 109.15-208.18 200.11-332.36 263.41h-10.58c124.61-61.36 242-151.53 339.57-266.29 239.52-281.73 289.25-617.95 133.03-899.39-100.01-180.22-109.8-422.36-28.27-700.23 73.09-249.13 218.76-511.07 399.65-718.67 165.72-190.21 342.44-317.97 510.81-374.92h14.31c-171.44 54.41-352.32 183.36-521.79 377.84M5400.5 4324.72c356.57-264.16 723.32-535.89 991.08-535.86 50.37 0 97.27 9.62 139.9 30.72 173.59 85.89 261.15 350.89 267.68 810.16 5.73 401.28 68.86 725.82 187.63 964.61 79.76 160.38 182.51 279.02 306.35 354.26h-8.52c-121.81-75.84-223-193.8-301.82-352.27-119.05-239.39-182.34-564.57-188.07-966.52-6.53-457.44-93.27-721.18-265.22-806.26-266.81-132.05-703.79 191.66-1126.38 504.73-199.51 147.8-405.83 300.64-588.01 399.71a1625 1625 0 0 1-50.32 26.23v-4.97c15.76-7.89 31.8-16.24 48.21-25.16 181.9-98.92 388.08-251.66 587.49-399.38" style="fill:#9739a1;fill-opacity:1;fill-rule:nonzero;stroke:none"/><path d="M9296.02 3106.95c-155.36 74.65-311.88 201.83-452.63 367.81-327.65 386.39-547.37 970.63-333.39 1339.68 155.05 267.4 113.67 589.1-110.68 860.52-93.24 112.8-211.68 207.28-341.13 273.65h-7.35c127.74-64.26 247-157.85 345.05-276.47 223.11-269.94 264.34-589.73 110.26-855.47-98.87-170.54-112.54-398.42-39.49-659.02 66.29-236.49 198.88-480.03 373.33-685.75 141.15-166.45 298.17-294.04 454.1-368.94 70.05-33.66 139.09-55.99 205.91-66.98v4.49c-66.18 10.95-134.57 33.14-203.98 66.48M6367.83 3834.2c54.12 0 104.36 10.41 149.82 33.34 173.72 87.64 262.15 346.99 270.4 792.81 7.26 393.42 72.77 711.83 194.68 946.42 79.46 152.86 180.81 267.31 302.33 341.84h-8.35c-119.54-75.01-219.39-188.75-297.9-339.81-122.24-235.19-187.91-554.27-195.2-948.37-8.21-444.04-95.85-702.1-267.97-788.94-272.28-137.37-719.91 180.69-1152.79 488.28-202.88 144.17-412.6 293.16-598.06 389.7v-5.03c184.68-96.43 393.48-244.74 595.48-388.27 362.15-257.35 734.57-521.98 1007.56-521.97" style="fill:#982f9c;fill-opacity:1;fill-rule:nonzero;stroke:none"/><path d="M9306.24 3186.96c-166.35 81.68-331.18 218.08-476.65 394.45-295.07 357.71-513.46 906.49-295.73 1266.11 80.74 133.35 110.89 276.89 89.61 426.65-19.15 134.75-80.81 270.15-178.31 391.56-93.15 115.97-214.26 213.63-348.77 282.88h-10.85c141.51-71.69 265.88-173.24 356.16-285.65 207.3-258.14 240.34-562.11 88.37-813.13-97.55-161.13-114.94-375.18-50.27-619 58.6-220.83 181.61-452.47 346.37-652.23 145.87-176.86 311.21-313.65 478.14-395.6 66.38-32.59 131.9-55.63 195.7-69.18v4.5c-63.15 13.49-128.03 36.36-193.77 68.64M6343.65 3878.59c58.12.01 111.92 11.24 160.31 36.12 173.7 89.33 262.95 343.03 272.83 775.61 8.83 385.82 76.77 698.29 201.96 928.77 79.11 145.62 179.09 255.92 298.34 329.52h-8.36c-117.26-73.97-215.72-183.54-293.88-327.41-125.53-231.09-193.66-544.26-202.5-930.78-9.84-430.81-98.29-683.26-270.43-771.76-277.82-142.82-736.49 169.66-1180.04 471.86-187.87 127.99-381.42 259.79-557.09 353.35v-5.03c174.9-93.39 367.56-224.58 554.58-351.98 367.84-250.62 745.99-508.3 1024.28-508.27" style="fill:#885428;fill-opacity:1;fill-rule:nonzero;stroke:none"/><path d="M8816.69 3686.3c-281.95 351.59-471.19 857.09-258.38 1193.81 153.25 242.48 128.57 525.91-67.72 777.64-92.47 118.57-215.72 218.98-354.88 290.86h-13.01c147.59-74.7 275.48-179.58 364.39-293.59 195.08-250.16 219.67-531.74 67.48-772.54-213.98-338.58-24.28-846.14 258.67-1198.97 147.59-184.03 325.63-333.75 501.32-421.56 62.74-31.36 124.78-54.73 185.43-70.16v3.73c-262.79 67.85-514.37 280.13-683.3 490.78M6490.39 3961.12c173.57 90.91 263.53 339.03 275.03 758.58 16.69 608.53 193.9 1036.32 503.82 1228.91h-8.73c-114.86-72.75-211.84-178.15-289.52-314.97-128.96-227.12-199.62-534.57-210.02-913.81-11.45-417.8-100.63-664.69-272.65-754.77-283.44-148.44-753.53 158.58-1208.16 455.48-172.92 112.94-350.62 228.97-515.37 317.55v-5.05c164.01-88.37 340.84-203.81 512.94-316.23 455.71-297.6 926.94-605.35 1212.66-455.69" style="fill:#df4bad;fill-opacity:1;fill-rule:nonzero;stroke:none"/><path d="M8805.29 3788.82c-240.52 308.67-442.97 788.07-221.88 1123.29 151.31 229.45 133.86 498.8-47.89 738.97-91.26 120.61-216.13 223.28-359.55 297.53h-9.51c149.54-76.99 277.61-184.04 365.51-300.2 180.55-238.59 197.95-506.06 47.73-733.85-94.52-143.32-118.75-331.29-70.07-543.6 43.98-191.83 147.73-399.54 292.16-584.87 150.4-193.01 336.28-351.54 523.39-446.37 59.02-29.91 117.46-53.2 174.83-69.89v4.67c-260.62 76.84-514.82 283.46-694.72 514.32M6293.96 3964.58c66.83 0 128.3 13.02 182.99 42.17 173.28 92.39 263.88 334.98 276.96 741.69 18.97 589.87 197.25 1007.1 507.25 1200.17h-8.68c-112.52-71.37-208.04-172.57-285.23-302.61-132.53-223.26-205.8-525.19-217.79-897.41-13-404.98-102.84-646.36-274.6-737.91-289.12-154.12-771.05 147.47-1237.13 439.15-158.08 98.94-320.02 200.2-472.94 282.35v-5.03c152.17-81.89 313.29-182.63 470.6-281.08 379.45-237.48 769.39-481.51 1058.57-481.49" style="fill:#ee2130;fill-opacity:1;fill-rule:nonzero;stroke:none"/><path d="M9338.32 3420.08c-198.08 101.41-390.74 267.71-542.52 468.27-135.7 179.29-227.32 369.51-264.98 550.04-41 196.52-13.94 371.22 78.23 505.2 78.5 114.08 113.58 236.15 104.28 362.85-8.41 114.53-54.53 231.87-133.4 339.34-88.14 120.13-216.3 226.21-363.13 302.83h-10.87c152.59-78.11 282.92-186.2 370.44-305.45 166.81-227.33 177.4-481.39 29.04-697.04-92.88-135.01-120.2-310.9-78.94-508.64 37.79-181.17 129.69-371.99 265.77-551.8 152.17-201.09 345.4-367.84 544.06-469.56 55.15-28.22 109.83-50.99 163.69-68.39v4.61c-53.18 17.27-107.2 39.86-161.67 67.74M6268.45 4006.19c71.54.01 137.18 14.01 195.2 45.47 172.87 93.74 264.01 330.86 278.61 724.93 21.22 571.8 200.52 978.73 510.64 1172.02h-8.67c-110.06-69.81-204.01-166.84-280.61-290.25-136.27-219.5-212.23-516.12-225.8-881.61-14.54-392.37-104.91-628.27-276.28-721.19-294.87-159.89-789.04 136.35-1266.96 422.84-143.22 85.86-289.55 173.52-429.79 248.21v-5.02c139.51-74.4 285.05-161.59 427.51-247 385.43-231.05 781.36-468.43 1076.15-468.4" style="fill:#9b1a82;fill-opacity:1;fill-rule:nonzero;stroke:none"/><path d="M9350.33 3495.02c-209.68 108.02-409.14 281.84-561.64 489.46-211.22 287.54-362.39 698.64-153.27 990.13 77.76 108.39 114.24 224.15 108.4 344.06-5.36 110.13-45.71 218.92-119.97 323.3-86 120.92-214.65 228.26-364.67 306.64h-13.51c157.24-80.11 289.7-189.91 374.57-309.24 156.23-219.66 160.36-454.83 11.58-662.19-91.22-127.14-121.32-291.64-87.05-475.71 31.4-168.64 114.51-348.34 240.33-519.64 152.9-208.15 352.91-382.44 563.18-490.78 51.03-26.28 101.67-48.11 151.71-65.68v4.64c-49.36 17.4-99.33 39.07-149.66 65.01M6242.41 4046.89c76.55.01 146.56 15.01 208.08 48.91 172.32 94.98 263.91 326.69 280.02 708.35 23.42 554.35 203.73 951.22 513.98 1144.46h-8.7c-107.48-68.11-199.73-160.98-275.61-277.87-140.18-215.86-218.94-507.35-234.12-866.39-16.02-379.98-106.87-610.48-277.71-704.65-300.69-165.74-807.54 125.2-1297.7 406.56-128.3 73.64-259.03 148.67-385.86 215.19v-5.03c126.12-66.22 256.09-140.8 383.66-214.03 391.46-224.72 793.49-455.53 1093.96-455.5" style="fill:#7c5b7d;fill-opacity:1;fill-rule:nonzero;stroke:none"/><path d="M9363.32 3568.28c-218.06 112.62-429.13 297.93-579.1 508.39-249.38 349.93-294.92 697-121.85 928.4 148.36 198.38 150.09 423.75 4.86 634.56-83.43 121.1-212.01 229.19-364.61 308.98h-9.93c157.47-81.41 288.42-191.79 370.91-311.52 144.07-209.13 142.37-432.64-4.77-629.38-89.57-119.74-122.2-273.6-94.4-444.92 25.51-157.05 100.26-326.06 216.18-488.72 150.37-211.01 362.02-396.8 580.68-509.74 46.56-24.05 92.85-44.57 138.71-61.77v4.62c-45.18 17.03-90.8 37.4-136.68 61.1M6215.83 4086.73c81.88 0 156.46 16.04 221.59 52.51 171.64 96.1 263.62 322.44 281.17 691.9 25.58 537.53 206.97 924.52 517.46 1117.47h-8.83c-104.82-66.25-195.26-154.99-270.35-265.51-144.27-212.32-225.93-498.89-242.72-851.74-17.49-367.82-108.72-592.96-278.92-688.25-306.6-171.67-826.5 114.02-1329.3 390.29-113.25 62.23-228.35 125.43-341.14 183.39v-5c112.09-57.63 226.46-120.44 339.01-182.27 397.58-218.47 805.81-442.79 1112.03-442.79" style="fill:#e32124;fill-opacity:1;fill-rule:nonzero;stroke:none"/><path d="M6424.49 4181.97c170.83 97.1 263.1 318.09 282.07 675.59 33.89 637.9 285.73 944.12 522.63 1091.05h-10.56c-102.04-64.26-190.63-148.81-264.79-253.09-148.6-208.92-233.27-490.77-251.7-837.73-18.89-355.87-110.42-575.66-279.84-671.96-312.54-177.68-845.99 102.81-1361.86 374.04-98.08 51.56-197.46 103.78-295.65 152.96v-4.96c97.5-48.88 196.21-100.73 293.58-151.93 516.92-271.78 1051.47-552.81 1366.12-373.97M9377.51 3639.89c-229.38 118.33-446.22 309.63-594.93 524.85-226.86 328.3-261.48 653.65-92.61 870.3 146.91 188.48 154.09 402.87 20.2 603.65-80.49 120.73-208.39 229.05-362.89 309.92h-9.72c157.26-80.93 287.5-190.27 368.91-312.37 132.76-199.08 125.65-411.61-20.01-598.47-89.2-114.44-123.18-254.51-100.98-416.31 20.08-146.36 86.98-305.15 193.45-459.24 149.1-215.79 366.54-407.6 596.54-526.28 37.72-19.46 79.53-38.9 124.52-56.71v4.78c-44.22 17.58-85.35 36.71-122.48 55.88" style="fill:#de254f;fill-opacity:1;fill-rule:nonzero;stroke:none"/><path d="M9393.02 3709.72c-240.54 123.56-462.54 319.94-609.13 538.81-209.18 312.37-233.11 609.8-65.65 816.01 145.63 179.32 157.86 383.4 34.48 574.67-77.27 119.8-203.97 227.82-359.72 309.4h-9.58c158.52-81.67 287.46-190.7 365.58-311.81 122.27-189.53 110.12-391.76-34.2-569.47-87.63-107.91-123.59-239.07-106.86-389.85 15.13-136.54 74.71-285.72 172.26-431.42 146.98-219.47 369.6-416.41 610.79-540.29 36.3-18.64 72.68-35.36 109.01-50.3v4.77a1428 1428 0 0 0-106.98 49.48M6161.08 4163.82c93.32 0 177.83 18.23 250.56 60.18 169.91 97.96 262.4 313.66 282.74 659.43 36.27 615.91 286.66 917.53 525.98 1065.18h-10.58c-99.12-62.13-185.66-142.49-258.76-240.63-153.13-205.61-240.98-482.93-261.07-824.28-20.25-344.15-112.02-558.68-280.53-655.84-318.57-183.68-865.97 91.6-1395.36 357.83-82.64 41.56-166.23 83.56-249.27 123.97v-4.94c82.4-40.1 165.3-81.76 247.29-123 410.1-206.24 830.95-417.91 1149-417.9" style="fill:#dc7777;fill-opacity:1;fill-rule:nonzero;stroke:none"/><path d="M8788.13 4328.05c-189.9 292.76-204.83 571.78-40.94 765.52 75.34 89.07 116.4 183.43 122.04 280.46 5.22 89.79-19.78 179.64-74.27 267.04-73.8 118.37-198.75 225.59-355.01 307.54h-9.57c159.08-82.06 286.25-190.28 360.82-309.89 112.55-180.51 95.72-373.1-47.39-542.29-165.24-195.34-150.43-476.29 40.6-770.8 158.34-244.12 423.29-470.21 715.58-595.51v4.76c-290.74 125.08-554.25 350.18-711.86 593.17M6132.78 4201.13c99.51 0 189.35 19.37 266.11 64.25 168.84 98.68 261.47 309.15 283.14 643.42 38.59 594.73 287.56 891.64 529.32 1039.81h-10.64c-96.01-59.84-180.35-136.02-252.23-228.13-157.94-202.38-249.09-475.39-270.88-811.4-21.58-332.68-113.48-541.99-280.97-639.87-324.66-189.76-886.46 80.38-1429.77 341.63-67.02 32.21-134.6 64.69-202.07 96.46v-4.9c66.82-31.47 133.77-63.65 200.14-95.56 416.49-200.26 843.75-405.74 1167.85-405.71" style="fill:#d20d72;fill-opacity:1;fill-rule:nonzero;stroke:none"/><path d="M8795.23 4403.39c-172.3 274.41-179.01 536.4-18.37 718.77 74.87 85.02 116.89 174.92 124.87 267.18 7.4 85.54-14.39 171.31-64.75 254.93-70.12 116.4-192.73 222.39-348.7 304.34h-9.69c158.86-82.11 283.71-189.03 354.56-306.64 73.3-121.68 122.46-310.13-59.63-516.88-84.77-96.23-124.07-211.68-116.79-343.09 6.59-119.36 53.19-251.1 134.75-380.99 152.68-243.12 415.76-466.36 708.52-595.62v4.8c-291.19 129.02-552.81 351.21-704.77 593.2M6103.89 4237.6c106.03 0 201.44 20.57 282.32 68.44 167.69 99.28 260.36 304.54 283.32 627.54 40.85 574.37 288.44 866.49 532.6 1015.03h-10.7c-92.74-57.44-174.66-129.4-245.13-215.53-163.06-199.31-257.66-468.2-281.2-799.19-22.84-321.42-114.81-525.54-281.15-624.03-330.79-195.81-907.44 69.19-1465.11 325.46-51.11 23.49-102.56 47.12-154.05 70.5v-4.88c50.86-23.1 101.69-46.45 152.19-69.65 422.92-194.35 856.68-393.72 1186.91-393.69" style="fill:#7a9463;fill-opacity:1;fill-rule:nonzero;stroke:none"/><path d="M6074.38 4273.27c112.87 0 214.11 21.78 299.25 72.79 166.41 99.72 259.06 299.84 283.25 611.8 43.04 554.73 289.25 842 535.8 990.75h-10.72c-89.26-54.89-168.61-122.63-237.47-202.89-168.47-196.33-266.72-461.28-292.03-787.52-24.08-310.41-116.03-509.41-281.11-608.34-336.95-201.88-928.92 57.98-1501.4 309.3-34.92 15.34-70.01 30.73-105.16 46.08v-4.84c34.55-15.09 69.05-30.22 103.38-45.31 429.43-188.52 869.76-381.85 1206.21-381.82M8805.1 4474.55c-158.7 261.18-157.97 501.16 2.07 675.73 182.78 199.38 139.84 381.06 71.62 498.37-66.33 114.04-186.17 218.34-341.15 299.96h-9.51c157.86-81.79 279.84-187.02 346.82-302.19 96.76-166.37 72.17-336.89-71.05-493.14-83.5-91.07-124.18-199.61-120.96-322.61 2.99-113.49 42.81-234.08 118.37-358.42 136.49-224.63 371.56-431.52 644.94-567.63 17.89-8.92 35.82-17.31 53.75-25.46v5.59c-293.02 133.52-551.84 354.35-694.9 589.8" style="fill:#e31d25;fill-opacity:1;fill-rule:nonzero;stroke:none"/><path d="M6044.13 4308.13c120.1 0 227.4 23.01 316.93 77.27 165.03 100.01 257.59 295.04 282.98 596.2 45.18 535.78 290.01 818.17 538.89 967.01h-10.59c-85.58-52.22-162.16-115.66-229.21-190.11-174.26-193.46-276.38-454.72-303.52-776.54-25.25-299.64-117.12-493.54-280.84-592.76-343.18-207.96-950.91 46.78-1538.62 293.16-18.41 7.71-36.87 15.46-55.36 23.19v-4.81c17.92-7.5 35.8-14.99 53.65-22.47 435.99-182.78 882.95-370.16 1225.69-370.14M8817.56 4541.88c-144.1 245.21-136.79 471.12 20.62 636.1 143.98 150.91 172.47 315.59 82.36 476.23-62.41 111.25-178.99 213.45-332.18 294.4h-11.3c156.23-81.52 277.23-185.35 339.62-296.57 89.05-158.76 60.79-321.63-81.71-471.01-158.9-166.53-166.43-394.32-21.25-641.39 130.09-221.35 374.52-435.25 653.9-572.21 10.78-5.29 21.58-10.36 32.38-15.39v6.72c-291.82 135.83-546.69 352.14-682.44 583.12" style="fill:#ee2653;fill-opacity:1;fill-rule:nonzero;stroke:none"/><path d="M6013.18 4342.21c127.64 0 241.33 24.27 335.37 81.87 163.54 100.16 255.94 290.15 282.48 580.77 47.27 517.5 290.73 794.99 541.89 943.76h-8.77c-249.84-150.23-490.5-428.41-537.54-943.36-26.4-289.14-118.11-478-280.38-577.38-349.41-214.01-973.38 35.63-1576.81 277.07-1.54.62-3.08 1.23-4.62 1.85v-4.77c.99-.39 1.99-.79 2.98-1.19 442.63-177.11 896.26-358.63 1245.4-358.62M8832.48 4605.49c-130.94 230.51-117.63 443.51 37.47 599.77 143.45 144.51 175.38 302.04 92.37 455.54-58.45 108.1-171.29 207.86-321.93 287.81h-9.54c153.57-80.16 268.55-180.79 327.56-289.92 81.98-151.6 50.31-307.31-91.62-450.3-156.63-157.81-170.19-372.7-38.18-605.09 125.35-220.65 372.76-435.51 661.82-574.74 3.18-1.53 6.38-2.95 9.57-4.46v2.99c-289.96 137.46-538.24 350.84-667.52 578.4" style="fill:#81171b;fill-opacity:1;fill-rule:nonzero;stroke:none"/><path d="M8849.69 4665.7c-119.06 216.95-100.32 418.1 52.75 566.4 143.07 138.59 178.25 289.46 101.76 436.31-54.5 104.61-163.25 201.57-310.61 280.2h-9.42c150.27-78.88 261.08-176.67 316.08-282.25 75.5-144.93 40.6-293.99-100.9-431.08-154.66-149.8-173.69-352.84-53.58-571.72 120.41-219.4 364.48-428.99 654.22-568.59v4.84c-288.01 139.16-530.55 347.66-650.3 565.89M6336.08 4462.12c161.97 100.19 254.14 285.16 281.77 565.49 49.3 499.86 291.34 772.41 544.75 921h-8.84c-251.99-149.96-491.26-423.13-540.32-920.55-27.5-278.86-118.98-462.75-279.68-562.16-346.73-214.45-964.19 12.47-1568.97 243.09v-4.77c605.28-230.81 1223.04-457.51 1571.29-242.1" style="fill:#ee4850;fill-opacity:1;fill-rule:nonzero;stroke:none"/><path d="M8869.04 4722.68c-108.41 204.56-84.73 394.89 66.63 535.92 142.85 133.08 181.08 277.74 110.59 418.33-50.55 100.81-154.74 194.66-297.99 271.68h-9.47c146.22-77.29 252.48-171.92 303.49-273.67 69.53-138.66 31.61-281.51-109.63-413.1-79.61-74.18-124.67-160.57-133.9-256.79-8.59-89.43 13.73-185.14 66.37-284.45 110.2-207.98 345.74-413.33 634.87-555.2v4.94c-287.42 141.43-521.43 345.63-630.96 552.34M6323.62 4499.52c160.32 100.07 252.19 280.11 280.88 550.41 51.26 482.78 291.82 750.38 547.38 898.68h-8.63c-73.97-43.61-141.33-94.08-200.87-150.96-194.2-185.51-309.36-436.91-342.3-747.24-28.54-268.87-119.75-447.84-278.82-547.12-343.17-214.19-952.11-10.26-1556.47 208.76v-4.72c604.88-219.19 1214.18-422.95 1558.83-207.81" style="fill:#923da4;fill-opacity:1;fill-rule:nonzero;stroke:none"/><path d="M8890.39 4776.71c-69.88 136.66-112.84 335.72 79.32 507.95 142.76 127.95 183.86 266.81 118.88 401.58-46.68 96.78-146.07 187.24-284.61 262.37h-8.63c137.12-72.94 240.42-163.06 289.23-264.29 64.03-132.81 23.29-269.86-117.84-396.34-78.95-70.78-124.9-152.79-136.53-243.75-10.85-84.7 8.07-175.39 56.22-269.54 102.17-199.82 328.77-398.33 613.57-540.05v4.98c-283.04 141.24-508.09 338.55-609.61 537.09M6311.15 4536.24c158.58 99.79 250.09 274.94 279.81 535.45 53.17 466.37 292.27 729.04 549.92 876.92h-8.25c-69.12-40.3-132.47-86.29-189.09-137.63-201.85-183.06-321.96-431.63-356.99-738.8-29.53-259.08-120.39-433.16-277.74-532.19-339.65-213.76-940.35-31.3-1544.02 176.05v-4.69c412.28-141.58 823.11-271.44 1150.88-271.43 152.55.01 287.16 28.14 395.48 96.32" style="fill:#c68196;fill-opacity:1;fill-rule:nonzero;stroke:none"/><path d="M8913.56 4828.02c-91.43 185.39-59.99 352.16 90.92 482.32 142.84 123.19 186.68 256.66 126.76 385.98-42.86 92.5-137.07 179.33-270.16 252.29h-9.25c136-73.26 232.13-160.83 275.37-254.17 59-127.33 15.55-258.98-125.63-380.74-152.61-131.62-184.42-300.25-92-487.64 94.37-191.36 311.45-382.48 590.43-523.12v5c-277.17 140.1-492.7 330.04-586.44 520.08M6298.66 4572.32c156.76 99.39 247.87 269.71 278.55 520.7 55.06 450.5 292.61 708.23 552.27 855.59h-7.88c-63.84-36.81-122.78-78.23-176.03-124.03-210.17-180.74-335.57-426.69-372.78-731.01-30.5-249.59-120.93-418.86-276.51-517.5-336.15-213.14-928.84-50.76-1531.49 144.87v-4.67c603.18-195.76 1196.33-357.98 1533.87-143.95" style="fill:#a02620;fill-opacity:1;fill-rule:nonzero;stroke:none"/><path d="M6286.12 4607.72c154.9 98.86 245.55 264.43 277.13 506.16 56.9 435.19 292.87 687.98 554.44 834.73h-7.31c-58.19-33.17-112.32-69.97-161.79-110.26-219.16-178.51-350.28-422.06-389.73-723.91-31.42-240.34-121.4-404.87-275.12-502.99-332.7-212.34-917.57-68.76-1518.95 115.2v-4.63c601.91-184.08 1187.28-327.5 1521.33-114.3M8938.48 4876.83c-83.51 175.67-48.39 334.32 101.56 458.8 143.08 118.77 189.48 247.23 134.23 371.44-40.47 90.95-130.99 173.07-254.46 241.54h-9.65c129.86-70.85 220.53-154.52 260.05-243.34 54.36-122.22 8.38-248.85-133-366.22-151.7-125.93-187.22-286.42-102.74-464.13 86.84-182.63 293.84-365.9 565.54-504.6v5.01c-269.85 138.11-475.32 320.17-561.53 501.5" style="fill:#732996;fill-opacity:1;fill-rule:nonzero;stroke:none"/><path d="M8965.03 4923.35c-76.39 166.76-37.86 317.97 111.4 437.27 143.42 114.65 192.3 238.38 141.34 357.83-35.59 83.39-118.7 162.29-239 230.16h-8.5c119.75-66.24 206.35-145.05 243.41-231.91 50.1-117.41 1.68-239.34-140.04-352.61-151.01-120.72-189.98-273.77-112.64-442.6 79.56-173.72 276-348.73 539-484.71v5.02c-261.09 135.35-456.01 309.14-534.97 481.55M6273.52 4642.48c152.96 98.19 243.1 259.07 275.57 491.77 58.67 420.43 292.99 668.32 556.33 814.36h-6.61c-52.07-29.34-100.91-61.43-146.08-96.23-228.93-176.38-366.21-417.78-408.03-717.5-32.28-231.36-121.76-391.2-273.57-488.66-329.25-211.4-906.49-85.39-1506.34 87.02v-4.63c600.4-172.51 1178.19-298.37 1508.73-86.13" style="fill:#a61c22;fill-opacity:1;fill-rule:nonzero;stroke:none"/><path d="M8993.11 4967.74c-69.93 158.58-28.25 302.95 120.53 417.47 143.95 110.82 195.2 230.17 148.18 345.13-32.14 78.61-109.28 153.29-222.32 218.27h-8.97c115.8-65.33 194.75-140.65 227.18-219.96 46.19-112.91-4.58-230.46-146.77-339.92-150.59-115.92-192.75-262.11-121.9-422.78 73.66-167.05 262.82-333.22 510.95-463.47v4.8c-246.18 129.56-433.74 294.56-506.88 460.46M6260.88 4676.64c150.99 97.43 240.56 253.65 273.87 477.61 51.68 347.52 249.11 620.21 563.12 794.36h-10.93c-45.47-25.31-88.47-52.62-128.72-81.9-239.61-174.35-383.56-413.84-427.88-711.82-33.1-222.61-122.02-377.83-271.87-474.52-325.82-210.26-895.6-100.72-1493.68 60.27v-4.58c362.41-97.52 714.44-176.11 1008.43-176.09 191.58 0 358.61 33.39 487.66 116.67" style="fill:#90459a;fill-opacity:1;fill-rule:nonzero;stroke:none"/><path d="M6248.11 4710.11c148.96 96.54 237.93 248.2 272.03 463.67 53.4 337.43 251.15 602.93 565 774.83h-10.39c-38.32-21.08-74.93-43.52-109.58-67.29-251.28-172.41-402.49-410.23-449.44-706.85-33.87-214.14-122.2-364.82-270.05-460.63-322.41-208.95-884.84-114.76-1480.89 34.99v-4.56c348.56-87.54 685.65-156.06 970.25-156.05 202.52.01 378.51 34.7 513.07 121.89M9022.59 5010.17c-64.09 151.07-19.46 289.13 129.07 399.28 144.61 107.25 198.13 222.5 154.76 333.28-28.86 73.71-100 144-205.3 205.88h-8.71c107.96-62.23 180.77-133.13 209.88-207.49 42.55-108.72-10.44-222.17-153.27-328.1-150.36-111.5-195.49-251.4-130.5-404.57 65.93-155.43 239.92-312.98 481.47-441.35v5.01c-239.55 127.66-412.03 283.97-477.4 438.06" style="fill:#d85785;fill-opacity:1;fill-rule:nonzero;stroke:none"/><path d="M9053.49 5050.91c-58.82 144.14-11.42 276.42 137.05 382.52 145.41 103.91 201.13 215.31 161.14 322.16-25.71 68.7-90.67 134.46-187.77 193.02h-8.47c99.65-58.91 166.14-125.29 192.08-194.58 39.21-104.78-15.96-214.37-159.54-316.99-150.35-107.43-198.28-241.54-138.6-387.83 59.58-146.08 221.74-294.52 450.62-418.12v5.05c-226.85 122.85-387.48 270.03-446.51 414.77M6235.23 4742.93c146.92 95.53 235.28 242.71 270.11 449.95 64.05 380.96 301.77 613.6 569.01 755.73h-12.12c-30.59-16.62-60.05-34.06-88.34-52.32-264.09-170.57-423.21-406.98-472.91-702.67-34.63-205.95-122.35-352.14-268.16-446.97-319.03-207.44-874.25-127.65-1468.03 11.1v-4.55c334.17-78.05 656.15-137.42 930.94-137.41 213.94.01 399.34 35.99 539.5 127.14" style="fill:#9652af;fill-opacity:1;fill-rule:nonzero;stroke:none"/><path d="M9085.66 5089.96c-54 137.77-3.97 264.7 144.65 367.08 146.33 100.8 204.18 208.61 167.32 311.78-23.31 65.24-83.03 125.97-169.84 179.79h-7.76c88.83-54.12 149.87-115.38 173.42-181.27 36.12-101.06-21.16-207.1-165.66-306.64-150.52-103.68-201.09-232.43-146.26-372.35 53.57-136.64 203.51-275.74 418.47-393.99v5.05c-212.87 117.45-361.31 255.27-414.34 390.55M6222.24 4775.1c144.83 94.44 232.53 237.2 268.07 436.47 65.67 367.98 301.03 595.86 569.8 737.04h-10.57c-22.24-11.93-43.91-24.27-64.95-37.02-278.2-168.79-445.98-404.04-498.65-699.24-35.32-198-122.38-339.81-266.14-433.53-315.63-205.82-863.73-139.43-1455.01-11.45v-4.52c319.23-69.06 625.92-120.18 890.43-120.17 225.9.01 421.09 37.27 567.02 132.42" style="fill:#ee2822;fill-opacity:1;fill-rule:nonzero;stroke:none"/><path d="M6209.08 4806.61c142.75 93.23 229.73 231.68 265.96 423.21 67.23 355.47 300.1 578.64 570.1 718.79h-8.62c-13.18-6.99-26.23-14.08-39.01-21.35-293.77-167.08-471.03-401.45-526.85-696.61-35.97-190.3-122.33-327.78-264.01-420.32-312.27-203.99-853.32-150.11-1441.86-32.61v-4.54c303.76-60.61 594.92-104.28 848.68-104.27 238.38.01 443.82 38.54 595.61 137.7M9119.1 5127.52c-49.64 131.88 2.87 253.88 151.83 352.81 147.4 97.9 207.34 202.33 173.36 302.05-19.91 58.44-72.22 114.86-151.9 166.23h-8.19c82-51.75 135.78-108.69 155.89-167.66 33.74-98.99-24-198.88-171.6-296.92-150.89-100.21-203.99-224.03-153.54-358.08 47.82-127.09 185.22-256.62 385.06-368.95v5.07c-197.72 111.48-333.59 239.72-380.91 365.45" style="fill:#885d32;fill-opacity:1;fill-rule:nonzero;stroke:none"/><path d="M9153.75 5163.75c-45.64 126.42 9.25 243.86 158.71 339.6 150.72 96.53 211.02 195.08 179.26 292.93-17.68 54.47-64.25 105.78-133.54 152.33h-7.33c71.07-46.86 118.79-98.65 136.67-153.71 31.05-95.67-28.64-192.51-177.44-287.81-151.43-97-206.93-216.24-160.5-344.85 42.39-117.41 166.89-237.19 350.42-343.05v5.96c-178.38 103.37-303.95 221.45-346.25 338.6M6195.77 4837.46c138.67 90.68 227.41 228.7 263.74 410.22 58.92 294.23 245.87 526.98 555.63 691.75 5.82 3.1 11.73 6.13 17.63 9.18h-9.63c-3.35-1.76-6.76-3.48-10.1-5.26-311-165.43-498.69-399.2-557.88-694.8-36.61-182.85-122.25-316.1-261.82-407.38-308.92-201.99-842.98-159.8-1428.55-52.49v-4.53c287.75-52.7 563.09-89.66 805.57-89.65 251.46 0 467.59 39.75 625.41 142.96" style="fill:#7f1a68;fill-opacity:1;fill-rule:nonzero;stroke:none"/><path d="M5584.76 4719.75c240.77 5.84 425.72 47.78 565.41 128.21 157.3 90.56 253.35 227.02 293.6 417.17 61.58 290.83 255.24 520.68 575.52 683.48h-9.78c-316.9-163.19-508.71-392.72-570.08-682.58-128.86-608.58-844.04-604.77-1674.64-465.81v-4.43c294.92-49.35 576.06-81.93 819.97-76.04M9500 5873.62v7.62c-19.23 23.2-44.17 45.72-74.62 67.37h-9.17c34.91-24.1 63.07-49.21 83.79-74.99M9189.6 5198.65c-42 121.39 15.18 234.59 165.35 327.37 64.65 39.95 113 80.21 145.06 120.58v7.19c-31.62-41.42-80.77-82.82-147.39-123.98-152.13-94.01-209.96-209.02-167.19-332.61 37.24-107.58 148.5-217.41 314.58-316.25v6.11c-161.5 96.5-273.39 204.62-310.41 311.59" style="fill:#ec0d61;fill-opacity:1;fill-rule:nonzero;stroke:none"/></g></svg>