<svg xmlns="http://www.w3.org/2000/svg" width="171.677" height="131.238"><path d="M62.16 134.04c-.572-.164-1.04-.406-1.04-.538 0-.131 2.53-5.707 5.623-12.39 3.092-6.684 8.58-18.56 12.193-26.392l7.86-17.034c1.25-2.705 1.278-2.839.886-4.24-.223-.795-.513-1.446-.644-1.446s-1.084.376-2.118.835c-3.426 1.521-3.205 1.508-4.56.284l-1.227-1.11-11.955 4.956c-6.575 2.725-12.047 4.955-12.16 4.955s-.866-.504-1.673-1.12-1.669-1.12-1.916-1.12-3.57 1.3-7.383 2.89l-6.933 2.89-4.717-1.945c-2.594-1.07-6.55-2.694-8.793-3.61-3.999-1.633-4.077-1.684-4.08-2.668-.003-.924.142-1.06 1.837-1.731 3.247-1.286 3.079-.932 1.826-3.858-.608-1.422-1.106-2.63-1.106-2.684s1.249-.623 2.775-1.262c3.157-1.321 2.852-1.466 4.168 1.98.487 1.276.972 2.285 1.076 2.24s3.668-1.503 7.918-3.24l7.728-3.159.187-1.162c.554-3.452.29-3.151 4.148-4.728 5.446-2.227 36.187-14.947 56.47-23.367 2.722-1.13 5.051-2.219 5.175-2.42.124-.2.322-1.191.44-2.202.201-1.741.274-1.863 1.384-2.32.644-.265 4.843-2.013 9.331-3.884 15.787-6.58 17.648-7.277 18.972-7.1 3.336.446 8.138 6.85 10.457 13.946.893 2.734.971 3.33.971 7.444 0 2.618-.145 4.743-.35 5.124-.417.782-1.534 1.298-13.73 6.343l-12.399 5.133-2.958 1.227-1.592-1.259c-.876-.692-1.704-1.258-1.842-1.259-.137 0-4.533 1.76-9.769 3.912l-9.52 3.914v3.283l-2.741 1.06c-3.018 1.167-2.966 1.07-1.906 3.605.32.765.91 1.399 1.689 1.814 1.55.827 2.007 1.215 3.019 2.573.459.616 3.678 7.24 7.154 14.72s9.467 20.354 13.316 28.61c3.848 8.255 6.959 15.037 6.913 15.072s-.58.23-1.187.436c-.865.292-1.186.285-1.488-.033-.497-.524-3.08-4.988-16.289-28.152-9.47-16.604-10.909-18.968-11.102-18.226-.122.47-.668 8.773-1.214 18.453s-1.064 18.068-1.153 18.64c-.15.971-.244 1.04-1.425 1.04-1.148 0-1.266-.077-1.266-.827 0-2.05-2.522-37.962-2.677-38.117-.057-.056-2.846 4.76-6.198 10.7C65.9 130.6 63.841 134.192 63.496 134.272c-.163.037-.764-.066-1.336-.23m88.43-92.155c.93-1.027.764-4.82-.353-8.123-2.124-6.281-5.428-11.226-7.916-11.85-.667-.168-.937-.044-1.38.631-.726 1.11-.48 5.189.503 8.337 1.418 4.54 4.776 10.165 6.688 11.204 1.158.63 1.753.582 2.458-.199m14.552.58c-.043-2.34-1.587-4.02-3.766-4.096-.76-.027-.693-.088.446-.4 2.36-.649 3.052-1.405 3.228-3.53.167-2.012.696-1.893.705.158.01 2.03 1.378 3.127 4.485 3.595.44.067.148.14-.649.164-2.19.066-3.784 1.346-3.843 3.084-.018.528-.157 1.248-.308 1.6-.22.511-.28.396-.298-.576m17.619-7.244c-.047-1.987-.945-4.113-2.032-4.806-.401-.256-1.953-.634-3.449-.84l-2.72-.375 2.192-.04c3.974-.073 5.521-1.404 5.886-5.064l.217-2.176.236 2.021c.44 3.777 1.982 5.15 5.864 5.22l2.245.04-2.72.374c-1.496.206-3.038.579-3.427.828-1.046.672-1.699 2.14-1.991 4.477l-.26 2.08zM168.525 24.48c-.341-3.92-.65-4.936-1.964-6.472-1.424-1.663-3.104-2.31-6.747-2.6l-2.854-.226 2.72-.244c3.787-.339 5.067-.792 6.62-2.343 1.527-1.525 1.853-2.507 2.216-6.675l.25-2.88.223 2.919c.308 4.043.485 4.66 1.78 6.172 1.587 1.854 2.683 2.327 6.351 2.742l3.2.361-2.964.22c-3.566.264-5.609 1.156-6.874 3-1.038 1.513-1.206 2.182-1.485 5.93l-.221 2.976Z" fill="currentColor" transform="translate(-19.523 -3.04)"/></svg>
