<?xml version="1.0" encoding="utf-8"?><svg xmlns="http://www.w3.org/2000/svg" xmlns:xlink="http://www.w3.org/1999/xlink"><symbol xml:space="preserve" viewBox="0 0 62.594 62.629" id="1" xmlns="http://www.w3.org/2000/svg"><path d="M13.863 62.567c-.55-.115-1.349-.578-1.716-.995-1.438-1.634-.94-4.123 1.01-5.047.474-.224.677-.269 1.336-.294l.776-.029 1.672-2.37c.92-1.303 1.768-2.433 1.886-2.51.186-.123.596-.147 3.055-.184l2.84-.042.023-1.754.023-1.753-4.39-.025-4.389-.024-.34-.225c-.638-.423-.62-.277-.62-5.186v-4.368h-1.72c-1.224 0-1.748.029-1.82.101-.075.075-.102.824-.102 2.84 0 2.223-.023 2.785-.122 2.976-.077.15-1.003.86-2.526 1.939l-2.403 1.702-.002.619c-.003.76-.11 1.16-.468 1.757-.346.575-.999 1.114-1.646 1.358-.717.27-1.747.217-2.447-.126a3.44 3.44 0 0 1-1.524-1.526C.022 48.938 0 48.818 0 48.005c0-.771.028-.944.208-1.312.308-.63.937-1.252 1.538-1.522 1.2-.538 2.3-.41 3.433.4.221.158.395.227.466.185.062-.037.998-.694 2.081-1.462l1.969-1.395V39.86c0-2.593.02-3.077.132-3.295.237-.458.47-.498 2.955-.498h2.247v-3.896l-3.994.022-3.994.022-.238.46c-.64 1.24-1.982 1.96-3.316 1.779-2.612-.354-3.687-3.57-1.82-5.438 1.575-1.575 4.218-1.097 5.17.934l.249.53h7.943V26.5h-2.18c-1.254 0-2.316-.038-2.499-.09-.61-.169-.608-.154-.655-3.664l-.043-3.128-1.481-1.049a269 269 0 0 0-2.048-1.438l-.565-.39-.513.343c-1.764 1.178-3.817.694-4.777-1.125C.017 15.482 0 15.397 0 14.562c0-.788.026-.944.228-1.375.29-.62.905-1.233 1.551-1.551.459-.225.589-.249 1.354-.249.74 0 .907.029 1.327.225a3.22 3.22 0 0 1 1.514 1.464c.274.557.437 1.394.361 1.859l-.045.28 2.427 1.72c1.538 1.089 2.471 1.804 2.549 1.954.099.192.122.754.122 2.976 0 2.017.027 2.765.102 2.84.072.072.596.102 1.818.102h1.716l.024-4.481c.022-4.371.027-4.487.197-4.72.096-.132.342-.325.547-.43.373-.19.38-.19 4.675-.19h4.302l-.023-1.757-.023-1.757-2.84-.043c-2.486-.037-2.868-.06-3.06-.186-.121-.08-.97-1.208-1.887-2.509l-1.667-2.365-.785-.034c-.673-.03-.864-.073-1.341-.308-1.373-.676-2.093-2.198-1.723-3.643.26-1.014.816-1.684 1.776-2.138.457-.216.615-.246 1.3-.246 1.073 0 1.567.19 2.264.877.69.678.92 1.235.929 2.255.008.83-.145 1.322-.595 1.911-.158.207-.285.443-.283.524s.642 1.043 1.421 2.137l1.417 1.99 3.087.02c2.234.015 3.142.05 3.285.124.41.214.438.4.438 2.857v2.29h4.064l-.001-3.788c-.001-2.084-.024-3.872-.051-3.974-.03-.114-.18-.237-.392-.321-1.863-.746-2.595-3.07-1.491-4.735.588-.888 1.59-1.417 2.697-1.424.938-.005 1.503.236 2.209.942.61.61.878 1.156.976 1.99.143 1.218-.632 2.554-1.833 3.161l-.463.234-.022 3.958-.022 3.958h3.98v-4.732l.205-.238.204-.237 3.195-.043 3.195-.042 1.427-2.022c.785-1.112 1.427-2.071 1.427-2.131s-.096-.224-.213-.363-.317-.475-.445-.747c-.201-.43-.231-.6-.231-1.299 0-.725.026-.858.263-1.354A3.23 3.23 0 0 1 46.609.271c.425-.209.553-.23 1.44-.229.893 0 1.009.019 1.405.228a3.36 3.36 0 0 1 1.735 2.408c.238 1.35-.553 2.793-1.863 3.4-.35.162-.645.222-1.25.253l-.793.042-1.662 2.358c-.914 1.296-1.761 2.425-1.882 2.507-.196.133-.53.154-3.056.192l-2.837.042-.022 1.757-.023 1.757h4.301c4.294 0 4.303 0 4.676.19.266.135.43.299.569.564l.194.373v8.694h1.718c1.224 0 1.748-.03 1.82-.102.076-.075.102-.838.102-2.91 0-2.682.008-2.817.17-3.023.153-.194.692-.586 3.81-2.769.489-.342.92-.649.959-.682s.08-.38.094-.77c.045-1.332.667-2.325 1.81-2.887.525-.258.62-.277 1.411-.273.688.003.925.04 1.256.19.606.276 1.346 1.024 1.633 1.65.212.461.242.627.243 1.331 0 .694-.03.87-.224 1.285-.887 1.898-3.317 2.481-4.93 1.182-.18-.146-.357-.265-.392-.265-.06 0-.497.301-3.088 2.128l-1.016.716-.042 3.129c-.034 2.483-.067 3.165-.16 3.306-.268.402-.343.413-2.825.44l-2.35.027v3.971l3.957-.022 3.956-.022.256-.496c.377-.73.82-1.194 1.423-1.489.689-.337 1.253-.438 1.92-.344a3.212 3.212 0 0 1 2.489 4.5c-.3.668-1.103 1.426-1.78 1.68-.952.356-2.103.207-2.96-.383-.504-.347-.754-.646-1.08-1.288l-.224-.444h-7.956v3.895l2.222.005c2.517.005 2.733.042 2.963.503.133.265.149.61.149 3.317v3.02l1.841 1.293c1.013.71 1.943 1.366 2.067 1.456l.225.163.491-.352c1.812-1.297 4.317-.48 4.954 1.617.465 1.534-.244 3.144-1.7 3.86-.421.207-.562.23-1.359.23-.851 0-.912-.011-1.423-.289q-1.689-.915-1.752-2.882c-.018-.59-.05-.736-.18-.824-1.729-1.172-4.667-3.336-4.748-3.497-.08-.158-.107-.919-.108-2.968-.001-2.029-.028-2.782-.103-2.857-.072-.073-.597-.102-1.82-.102h-1.72v4.334c0 4.15-.006 4.348-.167 4.678a1.7 1.7 0 0 1-.48.555l-.313.212-4.39.025-4.39.025.024 1.753.022 1.753 2.84.042c2.425.036 2.872.063 3.05.18.114.075.965 1.205 1.89 2.51l1.68 2.375.776.029c.672.025.85.066 1.34.306 1.294.638 2.03 2.069 1.762 3.43-.267 1.354-1.225 2.32-2.578 2.6-1.376.284-2.807-.445-3.455-1.761-.254-.517-.277-.63-.277-1.37 0-.701.03-.87.231-1.3.128-.272.328-.608.445-.747.117-.14.213-.306.213-.37s-.643-1.023-1.429-2.131l-1.428-2.015-3.184-.042c-3.173-.043-3.184-.043-3.376-.235-.19-.19-.193-.224-.218-2.604l-.025-2.41H32.13l.022 3.958.022 3.958.5.266a3.45 3.45 0 0 1 1.513 1.547c.242.492.273.634.273 1.275 0 .817-.14 1.277-.58 1.894a3.12 3.12 0 0 1-2.594 1.339c-2.659 0-4.148-2.963-2.57-5.113.312-.425 1.106-1.015 1.499-1.113a.38.38 0 0 0 .254-.243c.028-.105.052-1.896.053-3.98v-3.789h-4.063v2.29c0 2.459-.029 2.643-.438 2.858-.143.074-1.05.109-3.282.124l-3.086.02-1.418 1.99c-.78 1.094-1.42 2.058-1.423 2.142s.107.294.245.466c.804 1.005.884 2.466.199 3.636-.291.496-.995 1.091-1.525 1.29-.528.198-1.371.274-1.868.17zm1.54-1.893c.568-.434.766-.952.623-1.625-.283-1.328-2.17-1.586-2.843-.39-.441.786-.144 1.702.702 2.165.396.216 1.133.143 1.518-.15m33.263.148c.385-.195.562-.368.746-.727a1.49 1.49 0 0 0-.247-1.704c-.451-.477-.984-.62-1.612-.433-1.124.333-1.445 1.76-.584 2.585.432.414 1.186.538 1.697.28m-16.539-.908c1.145-.758.762-2.563-.597-2.808-.615-.111-1.36.26-1.652.823-.169.326-.167 1.082.004 1.411.15.29.625.7.915.79.37.115.98.016 1.33-.216zM3.938 49.347c1.13-.632.939-2.374-.305-2.785-.745-.245-1.503.09-1.867.828-.18.362-.209.513-.163.82.17 1.13 1.334 1.698 2.335 1.137m56.313-.032c.454-.294.69-.728.69-1.27a1.527 1.527 0 0 0-2.158-1.415q-.83.368-.898 1.295c-.056.778.354 1.374 1.095 1.592.394.116.904.035 1.27-.202m-14.567-3.514c.16-.086.164-.338.164-14.517s-.003-14.432-.164-14.518c-.111-.06-4.758-.087-14.43-.087-12.856 0-14.279.013-14.399.133s-.133 1.55-.133 14.472.014 14.352.133 14.472 1.543.133 14.4.133c9.671 0 14.318-.028 14.429-.088zm-15.026-1.865c-1.439-.359-3.063-2.458-3.78-4.884-.06-.198-.149-.36-.2-.358-.05 0-.359.04-.685.089-.893.131-2.696.11-3.416-.04-.899-.188-1.72-.592-2.163-1.066-.545-.583-.668-.872-.711-1.671-.032-.584-.002-.811.181-1.397.266-.847.787-1.755 1.52-2.65l.547-.666-.57-.708c-.647-.805-1.188-1.707-1.462-2.44-.275-.737-.273-2.126.003-2.643.378-.708 1.284-1.352 2.278-1.62.826-.222 2.866-.248 4.175-.052l.38.057.241-.704c.309-.903.9-2.082 1.383-2.761.538-.755 1.084-1.253 1.72-1.567.472-.233.638-.271 1.185-.27.505.001.732.046 1.102.22.567.266 1.213.838 1.741 1.54.443.589 1.192 2.093 1.474 2.959.102.314.23.571.284.57.055 0 .328-.038.607-.086.799-.135 2.785-.113 3.514.038 1.819.377 2.879 1.452 2.879 2.92 0 1.161-.71 2.681-1.898 4.058l-.39.452.173.226c.094.124.381.492.637.818.255.326.632.916.837 1.312 1.347 2.607.5 4.545-2.238 5.124-.756.16-2.628.18-3.541.038-.342-.054-.63-.084-.642-.068a20 20 0 0 0-.3.79c-1.176 3.204-3.032 4.898-4.865 4.44zm.978-1.448a2.2 2.2 0 0 0 .651-.375c.36-.307 1.064-1.29 1.39-1.94.236-.468.699-1.728.647-1.76-.018-.01-.721-.25-1.562-.53l-1.53-.51-.478.193c-.264.106-.927.328-1.474.494s-1.01.318-1.03.338c-.063.062.334 1.156.645 1.776.588 1.174 1.296 2.022 1.912 2.29.331.144.42.147.829.024m-5.866-5.147c.295-.043.548-.09.561-.104.013-.015-.046-.37-.13-.789-.085-.419-.18-1-.212-1.293l-.058-.532-.943-.708c-.518-.39-1.17-.9-1.45-1.136l-.508-.427-.287.27c-.436.41-1.254 1.718-1.457 2.328-.428 1.285-.028 1.961 1.384 2.341.515.139 2.288.167 3.1.05m14.109-.05q1.015-.264 1.38-.8c.41-.6.122-1.685-.812-3.06-.233-.343-.535-.729-.672-.858l-.249-.235-.374.324c-.607.528-1.525 1.238-2.036 1.576-.475.315-.476.317-.535.84-.033.288-.131.884-.22 1.324-.088.44-.145.815-.126.834.196.196 2.943.238 3.644.055m-11.282-.588c.314-.084.57-.176.569-.204-.005-.096-1.606-.919-1.604-.823.002.084.076.453.214 1.055.025.11.09.182.147.161s.36-.105.674-.19m6.245-.276c.054-.268.12-.582.147-.698.04-.175.028-.195-.07-.116-.066.053-.456.272-.866.488-.48.251-.7.409-.618.44.263.101 1.113.358 1.21.365.055.004.142-.206.197-.479m-2.202-1.264a29 29 0 0 0 1.874-.975l.732-.433.055-.413c.07-.531.07-3.586 0-4.118-.05-.372-.088-.428-.448-.648-.9-.552-1.73-.994-2.624-1.397l-.948-.427-.612.26c-.717.304-1.984.968-2.788 1.46-.567.348-.567.348-.63.818-.08.593-.078 3.557.002 4.076.06.388.062.392.924.902 1.072.634 3.022 1.539 3.193 1.48.07-.023.641-.286 1.27-.585zm-2.14-1.29c-.493-.16-.992-.476-1.271-.803-.789-.925-.86-2.4-.161-3.344.546-.738 1.31-1.126 2.218-1.126.69 0 1.24.205 1.753.654 1.355 1.186 1.228 3.248-.262 4.251-.702.473-1.542.608-2.277.368m1.527-1.584c.511-.39.66-1.014.371-1.557a1.272 1.272 0 0 0-2.214-.063c-.31.507-.167 1.192.334 1.613.386.325 1.087.328 1.509.006m6.309-.857c.146-.162.14-.176-.17-.455a17.086 17.086 0 0 0-.83-.68l-.51-.39-.002 1.373-.003 1.374.682-.528c.375-.29.75-.602.833-.694zm-12.597-.18c0-1.216-.013-1.336-.135-1.25-.496.352-1.509 1.212-1.509 1.282 0 .085 1.486 1.312 1.589 1.312.03 0 .055-.605.055-1.345m-1.594-1.938c.365-.292.908-.71 1.207-.931l.543-.401.197-1.182c.109-.65.218-1.247.244-1.329.07-.219-.372-.283-1.951-.283-1.663 0-2.302.142-2.857.634l-.36.32v.624c0 .544.04.706.312 1.279.36.752.724 1.305 1.2 1.822l.332.361.235-.192c.13-.105.533-.43.898-.722m16.288-.161c.937-1.355 1.238-2.473.827-3.075-.477-.7-1.503-.974-3.4-.908-1.601.055-1.693.08-1.613.43.032.146.14.749.24 1.34l.182 1.074.728.519c.4.285 1.043.783 1.428 1.108l.699.591.242-.232c.133-.127.433-.509.667-.847M28.45 26.483l.831-.438-.698-.205c-.383-.113-.718-.185-.743-.16-.041.04-.27 1.013-.278 1.177-.004.096-.003.095.888-.374m6.524.247-.139-.64c-.112-.508-.054-.497-1.05-.2l-.505.15.801.435c.44.239.83.437.867.44.035.003.047-.08.026-.185m-2.832-1.87c.436-.157 1.11-.374 1.496-.484.677-.192.702-.208.65-.414-.14-.555-.587-1.556-.987-2.207-.834-1.358-1.65-1.94-2.384-1.697-.652.215-1.402 1.093-2.066 2.417-.344.686-.678 1.617-.606 1.689.022.021.478.172 1.014.334.535.163 1.163.37 1.394.461.567.224.584.223 1.489-.1M4.59 32.669c.556-.27.816-.665.85-1.294.022-.421-.01-.582-.168-.855a1.545 1.545 0 0 0-2.355-.41c-.475.4-.632.926-.466 1.563.127.492.384.798.85 1.013.446.206.838.2 1.289-.018m54.884-.107c.485-.32.709-.801.664-1.422-.044-.61-.365-1.053-.933-1.29-1.187-.494-2.376.573-2.054 1.842.258 1.015 1.437 1.457 2.323.87m-55.64-16.64c.388-.198.566-.39.735-.793.394-.943-.168-1.926-1.215-2.125-.693-.132-1.508.405-1.7 1.12-.343 1.273 1.015 2.393 2.18 1.798m56.442-.126c.379-.288.552-.547.646-.96.164-.728-.34-1.563-1.075-1.783-.655-.196-1.429.118-1.784.724-.18.306-.208.443-.178.86q.063.869.814 1.277c.457.248 1.166.196 1.577-.118M32.127 5.219c1.168-.773.751-2.592-.644-2.812-.616-.098-1.312.262-1.605.827-.165.32-.168 1.08-.005 1.393a1.57 1.57 0 0 0 2.254.592m-17.153-.582c.738-.221 1.204-.998 1.065-1.777-.22-1.235-1.806-1.668-2.677-.731-.673.723-.422 1.934.496 2.392.5.249.628.262 1.116.116m33.624-.057c.836-.386 1.18-1.213.844-2.019-.17-.406-.347-.595-.753-.802-.44-.225-1.102-.177-1.526.11-.312.211-.724.903-.723 1.216.002.641.472 1.322 1.058 1.529.454.16.697.153 1.1-.034" fill="currentColor"/></symbol><symbol xml:space="preserve" viewBox="0 0 55.304 65.281" id="2" xmlns="http://www.w3.org/2000/svg"><path d="M13.199 65.149c.029-.093 2.58-7.332 5.671-16.087l5.619-15.917-6.729-.022c-6.353-.02-6.726-.03-6.685-.17.023-.08 2.03-5.024 4.46-10.984 2.428-5.96 5.432-13.342 6.676-16.402l2.26-5.565L33.391 0c7.103-.001 8.912.02 8.878.104-.024.058-2.52 5.001-5.546 10.985l-5.502 10.88 6.893.042 6.894.042-.624.847c-.93 1.262-19.903 27.043-25.92 35.221a2370 2370 0 0 1-5.276 7.155c-.022.023-.018-.034.011-.127zm12.542-5.887c-1.827-.15-4.806-.669-5.264-.917-.099-.054 1.931-2.893 2.066-2.888.036 0 .218.038.404.081s.739.138 1.228.21a24.3 24.3 0 0 0 20.954-7.162c1.177-1.218 1.89-2.103 2.854-3.545.816-1.222 1.978-3.495 2.472-4.837 2.922-7.939 1.578-16.786-3.56-23.438-1.805-2.337-4.667-4.858-6.93-6.105-1.03-.567-1.01-.348-.177-2.012l.73-1.457.358.183c.197.1.735.409 1.194.686 4.721 2.847 8.586 7.255 10.839 12.362 3.01 6.823 3.189 14.445.5 21.271-1.286 3.262-3.163 6.283-5.374 8.647-2.448 2.616-4.96 4.51-8.002 6.031-3.718 1.86-7.616 2.826-11.81 2.928-.853.021-1.97.003-2.482-.038m-11.95-3.672c-3.16-1.837-6.081-4.437-8.297-7.387-2.238-2.98-3.932-6.624-4.776-10.277-1.576-6.82-.545-13.824 2.947-20.021 2.556-4.536 6.815-8.577 11.492-10.906 1.65-.82 4.117-1.774 5.316-2.055l.235-.055-.164.412c-.09.227-.451 1.116-.8 1.978l-.636 1.565-1.086.468c-5.298 2.282-9.57 6.318-12.17 11.5-1.696 3.377-2.507 6.903-2.504 10.876.002 2.773.34 4.945 1.16 7.468 1.234 3.797 3.172 6.95 5.982 9.737 1.368 1.356 2.774 2.48 4.258 3.402l1.029.64-.194.52c-.106.285-.355.985-.554 1.555-.198.57-.383 1.036-.412 1.034s-.4-.206-.827-.454" fill="currentColor"/></symbol><symbol xml:space="preserve" viewBox="0 0 57.724 57.757" id="3" xmlns="http://www.w3.org/2000/svg"><path d="M27.252 57.726c-5.953-.242-12.127-2.652-16.841-6.576C4.561 46.282.883 39.45.072 31.948c-.14-1.297-.063-6.119.116-7.273.815-5.254 2.846-9.865 6.208-14.097.81-1.02 3.204-3.392 4.304-4.266 2.535-2.014 5.723-3.781 8.65-4.796C20.624 1.075 23.127.46 24.57.234c1.607-.25 5.849-.316 7.58-.117A28.86 28.86 0 0 1 47.7 6.943c.94.81 2.697 2.6 3.448 3.513 3.398 4.133 5.525 8.974 6.342 14.43.22 1.473.306 4.827.165 6.443-.586 6.682-3.415 12.88-8.048 17.633-2.698 2.767-5.567 4.787-8.913 6.275-4.306 1.916-8.489 2.69-13.441 2.489m5.154-3.03c2.9-.437 5.208-1.136 7.674-2.327 2.801-1.352 5.117-2.99 7.188-5.085 7.102-7.185 9.458-17.423 6.197-26.936C51.333 14.122 46.894 8.944 40.97 5.77c-1.708-.915-4.091-1.798-6.244-2.312-3.294-.787-7.3-.877-10.675-.24-10.015 1.89-18.07 9.51-20.535 19.425-.552 2.223-.69 3.493-.683 6.308.004 2.015.034 2.601.183 3.557.74 4.748 2.47 8.794 5.36 12.53.711.92 3.034 3.277 3.977 4.037 4.128 3.324 9.033 5.311 14.273 5.782 1.358.122 4.476.035 5.781-.162m-5.85-3.395c-2.642-.3-4.969-.953-7.233-2.03-1.682-.8-2.145-1.206-2.145-1.884 0-.274.326-.81 2.393-3.937 1.317-1.99 3.077-4.654 3.911-5.92l1.518-2.3.573.29c1.318.663 3.046.941 4.448.715.662-.107 1.845-.485 2.397-.766l.297-.15.818 1.24c3.614 5.474 6.607 10.046 6.714 10.253.071.137.129.417.129.622 0 .742-.487 1.164-2.282 1.974-1.882.85-3.424 1.319-5.58 1.697-1.054.186-1.544.222-3.272.244-1.117.014-2.327-.008-2.687-.048m1.083-17.49a7 7 0 0 1-1.143-.43c-1.184-.568-2.229-1.863-2.59-3.21-.174-.647-.173-1.956.001-2.61.587-2.204 2.634-3.778 4.909-3.774 2.01.004 3.725 1.066 4.584 2.838.54 1.116.67 2.306.374 3.46-.244.956-.62 1.605-1.366 2.36-1.009 1.02-2.193 1.51-3.614 1.494a6.3 6.3 0 0 1-1.155-.128m-20.43-4.179c-.83-.202-.995-.582-.922-2.12.126-2.689.711-5.13 1.847-7.705 1.78-4.038 4.406-7.34 7.467-9.388 1.8-1.204 2.42-1.326 3.196-.625.284.256.815 1.26 3.376 6.375l3.039 6.071-.479.329c-.692.475-1.645 1.445-2.08 2.117-.667 1.032-1.12 2.346-1.215 3.517l-.051.65-.687.05c-.377.028-1.715.108-2.972.179-1.258.07-3.41.2-4.784.29s-2.974.185-3.556.212-1.249.064-1.482.082a2.8 2.8 0 0 1-.696-.034m38.67-.135a840 840 0 0 0-6.045-.37c-1.872-.106-3.17-.214-3.237-.27-.061-.05-.13-.212-.151-.36l-.136-.928c-.29-1.99-1.417-3.758-3.152-4.946-.314-.215-.571-.42-.571-.456 0-.102 6.012-12.024 6.192-12.28.087-.124.332-.31.545-.412.634-.308 1.123-.149 2.421.786 3.314 2.387 5.623 5.073 7.398 8.607 1.489 2.966 2.182 5.633 2.192 8.432.005 1.36-.006 1.458-.193 1.786-.308.536-.535.629-1.508.615-.459-.007-2.148-.098-3.755-.204" fill="currentColor"/></symbol><symbol xml:space="preserve" viewBox="0 0 70.697 55.113" id="4" xmlns="http://www.w3.org/2000/svg"><path d="m21.251 52.452-10.117-3.29c-1.071-.348-3.255-1.056-4.854-1.573-1.598-.517-3.015-.996-3.148-1.065-.341-.177-1.236-1.022-1.523-1.439-.63-.914-1.076-2.07-1.376-3.552-.163-.809-.188-1.2-.186-2.883.002-1.742.021-2.019.188-2.625.248-.899.85-2.098 1.326-2.636l.384-.436-.782-.188C.247 32.544 0 32.412 0 32.144c0-.464 1.065-1.024 3.362-1.77l1.627-.53.064-.38c.132-.783.062-3.042-.122-3.907-.363-1.72-1.035-2.612-2.337-3.106-.971-.37-1.494-.837-1.491-1.334.003-.564.14-.65 1.818-1.137.838-.244 1.538-.455 1.554-.47s-.135-.22-.338-.454c-1.398-1.62-2.117-4.334-1.996-7.53.056-1.469.253-2.365.737-3.356.608-1.245 1.528-2.15 2.627-2.583.354-.14 2.983-.533 11.09-1.659 5.844-.811 14.591-2.027 19.438-2.702S44.953 0 45.085 0c.222 0 5.845 1.669 18.711 5.554 2.841.858 5.251 1.597 5.356 1.642s.255.216.333.38c.132.276.132.32.005.586-.187.393-.62.703-1.443 1.033-1.324.532-1.996 1.412-2.353 3.081-.278 1.303-.236 4.403.061 4.403.275 0 3.005.96 3.724 1.31.693.338 1.218.76 1.218.98 0 .179-.483.356-1.953.717-1.98.486-1.818.416-1.619.697.973 1.371 1.371 2.84 1.369 5.06-.003 3.238-.838 5.76-2.378 7.187-.324.3-.56.563-.523.585.036.021.398.14.804.262q.737.224.867.41c.169.24.168.692-.003.952-.17.26-.781.642-1.432.896-1.283.5-1.881 1.304-2.297 3.084-.127.545-.158 1.002-.154 2.329.003 1.03.04 1.715.098 1.82.064.118.349.246.927.418 1.817.54 3.243 1.137 3.79 1.589.343.282.401.601.136.743-.092.05-3.092.796-6.667 1.658-3.576.863-11.15 2.696-16.83 4.074-15.167 3.678-15.126 3.668-15.274 3.663-.075-.003-3.812-1.2-8.306-2.661zm8.51-5.236c.078-2.32.128-4.23.113-4.245-.016-.014-3.858-1.272-8.538-2.795s-10.3-3.352-12.488-4.066c-2.189-.714-4.098-1.322-4.243-1.351-.378-.078-.98.098-1.331.388-.407.335-.79 1.146-.957 2.021-.167.881-.12 3.187.084 4.107.414 1.874 1.103 2.873 2.183 3.17.732.2 19.772 5.532 22.679 6.35 1.28.36 2.335.652 2.343.647s.078-1.906.155-4.226m15.493.707c7.684-1.91 14.618-3.637 15.41-3.839l1.44-.366-.016-.333c-.118-2.659-.125-3.37-.038-4.012.125-.927.322-1.709.574-2.281.11-.252.185-.474.166-.493-.02-.02-.678.098-1.462.262s-5.331 1.1-10.104 2.08c-8.203 1.685-8.779 1.815-10.5 2.372l-1.82.59-.477-.124c-.476-.123-.49-.12-3.302.463-1.554.323-3.063.633-3.354.689l-.529.101v.603c0 .698-.14 5.07-.213 6.728-.048 1.063-.042 1.126.102 1.08.085-.027 6.44-1.61 14.124-3.52m-7.78-10.183c-.026-.245-.093-2.13-.148-4.19-.088-3.287-.117-3.75-.235-3.786a202 202 0 0 0-3.055-.631c-1.606-.325-7.188-1.47-12.404-2.544-5.215-1.074-10.892-2.24-12.615-2.593a272 272 0 0 1-3.278-.681c-.122-.035-.107.042.094.493.63 1.412.835 3.7.55 6.179l-.055.48.328.087c.181.048 4.882 1.217 10.447 2.598a8663 8663 0 0 1 15.113 3.764c2.747.69 5.065 1.257 5.15 1.26.136.008.148-.044.107-.436m9.905-1.919c4.652-1.3 10.25-2.862 12.438-3.472s4.129-1.155 4.311-1.211c.406-.125 1.026-.728 1.335-1.3.573-1.058.888-2.912.803-4.735-.092-1.98-.568-3.071-1.514-3.466-.566-.237-.93-.168-3.326.625A4249 4249 0 0 1 50.8 25.739c-11 3.588-12.11 3.954-12.166 4.009-.061.061.205 8.436.269 8.436.01 0 3.824-1.063 8.476-2.363M31.924 20.298c.06-2.083.092-3.804.073-3.822-.057-.055-24.988-8.17-25.271-8.227-.649-.129-1.47.384-1.865 1.164-.386.762-.492 1.42-.488 3.033.005 1.814.198 2.886.71 3.948.393.817.993 1.419 1.55 1.553.844.205 5.517 1.507 17.582 4.9l7.493 2.107.054-.433c.03-.239.103-2.139.162-4.223m17.69.58c8.08-2.015 14.684-3.7 14.676-3.742a70 70 0 0 1-.12-1.446c-.161-2.063.068-3.92.638-5.163.114-.248.173-.452.133-.452-.041 0-1.725.341-3.742.758a12542.57 12542.57 0 0 1-24.368 5.01c-1.838.373-3.357.693-3.375.71-.039.04-.26 6.347-.264 7.545l-.003.858.868-.207c.478-.113 7.478-1.855 15.558-3.87" fill="currentColor"/></symbol><symbol xml:space="preserve" viewBox="0 0 70.019 55.53" id="5" xmlns="http://www.w3.org/2000/svg"><path d="M21.964 42.512c-7.176-7.158-13.276-13.3-13.556-13.649-.57-.71-1.677-2.361-1.76-2.623-.053-.167-.122-.17-3.35-.17H0v-3.811h5.058l-.115-.486c-.312-1.32-.391-2.005-.432-3.747-.034-1.433-.013-2.024.097-2.779.65-4.43 2.836-8.319 6.314-11.23C12.949 2.319 15.975.877 18.65.333c2.636-.536 5.847-.42 8.4.303 2.809.796 5.409 2.285 7.43 4.255l.572.557.487-.47c2.12-2.044 4.589-3.485 7.314-4.27 1.951-.561 2.75-.667 5.026-.667 2.157 0 2.791.072 4.53.51 5.548 1.402 10.26 5.702 12.2 11.136.706 1.98 1.019 3.798 1.028 5.98l.006 1.46h4.376v3.723l-2.559.022-2.559.022-.312.866c-.681 1.89-1.915 3.978-3.28 5.55-.582.673-26.192 26.23-26.27 26.22-.016-.003-5.9-5.861-13.076-13.018zm24.953-4.104C59.851 25.51 59.324 26.075 60.368 24.002c.28-.554.508-1.04.508-1.08s-1.911-.062-4.247-.05l-4.248.022-1.972 5.917c-1.085 3.254-1.986 5.93-2.004 5.948-.017.017-1.492-2.16-3.277-4.837-1.784-2.678-3.254-4.86-3.265-4.848s-1.592 3.946-3.512 8.742-3.517 8.751-3.55 8.788c-.032.036-1.538-5.107-3.346-11.43a2502 2502 0 0 0-3.387-11.792l-.1-.294-2.66 3.996c-1.462 2.198-2.686 3.998-2.72 4-.034 0-1.43-1.379-3.102-3.066l-3.04-3.067-1.28 2.559-1.28 2.56h-2.804l.404.529c.347.456 23.452 23.588 23.567 23.595.023.001 5.362-5.302 11.864-11.786m-8.731-14.37c1.499-3.75 2.754-6.87 2.79-6.934.045-.08 1.04 1.345 3.145 4.509 1.693 2.544 3.099 4.626 3.123 4.626s.578-1.6 1.229-3.556l1.183-3.556h6.028c3.858 0 6.047-.03 6.08-.083.134-.217.141-2.12.012-3.092-.627-4.72-3.408-8.62-7.664-10.75-1.923-.962-3.931-1.419-6.232-1.417s-4.085.401-6.113 1.369c-1.616.77-2.488 1.444-4.695 3.627l-2.003 1.98-2.032-1.988c-2.22-2.173-3.157-2.892-4.758-3.649a14.22 14.22 0 0 0-9.736-.888c-4.554 1.22-8.231 4.74-9.675 9.26-.481 1.506-.613 2.403-.609 4.15.003 1.624.097 2.308.527 3.83l.22.783h2.553l1.904-3.81c1.047-2.095 1.923-3.81 1.946-3.81.024 0 1.52 1.477 3.326 3.281 2.038 2.037 3.307 3.245 3.345 3.185.034-.053 1.678-2.521 3.654-5.486 2.236-3.352 3.616-5.348 3.652-5.28.032.06 1.384 4.751 3.004 10.424 1.68 5.888 2.972 10.267 3.008 10.203.034-.062 1.289-3.18 2.788-6.929" fill="currentColor"/></symbol></svg>