<?xml version="1.0" encoding="utf-8"?><svg xmlns="http://www.w3.org/2000/svg" xmlns:xlink="http://www.w3.org/1999/xlink"><symbol xml:space="preserve" viewBox="0 0 56.487 41.867" id="dafis" xmlns="http://www.w3.org/2000/svg"><path fill="currentColor" d="M22.688 41.484C13.66 40.091 6.07 35.551 2.3 29.292c-3.068-5.095-3.067-11.753.002-16.85C5.797 6.64 12.434 2.378 20.774.582 23 .105 24.332 0 28.244 0s5.246.104 7.47.583C44.3 2.43 51.077 6.9 54.435 12.93c2.824 5.073 2.729 11.422-.245 16.361-3.005 4.99-8.945 9.244-15.543 11.133-4.98 1.425-11 1.825-15.958 1.06m11.53-.529c7.042-1.182 13.715-4.674 17.35-9.08 6.74-8.171 5.51-17.815-3.154-24.756C43.35 3.062 36.819.78 29.31.446 11.973-.327-2.034 11.534 1.003 24.417c1.895 8.04 10.328 14.631 21.156 16.537 2.935.517 8.985.517 12.058.001zm-10.271-2.157c-1.692-.119-1.911-.438-1.781-2.59.068-1.136.232-1.69.586-1.976.643-.522.917-1.262.517-1.396-.233-.077-.245-.31-.046-.877.268-.764.293-.772 2.584-.848 2.548-.084 2.81.071 2.315 1.373-.267.702-.323.72-1.699.548l-1.422-.178.131.688c.11.577.274.688 1.011.688 1.065 0 1.264.262.91 1.195-.247.648-.375.702-1.454.616-.815-.065-1.226.016-1.32.26-.27.702-.118.84.923.84.928 0 1.058.075 1.058.608 0 .58-.47 1.3-.78 1.195-.08-.027-.77-.093-1.533-.146m6.348-1c.074-.657.03-1.26-.098-1.338-.38-.235-.265-1.61.164-1.965.576-.478.487-1.238-.165-1.408-.467-.122-.53-.272-.375-.89.102-.41.212-.769.243-.8.03-.031.984-.26 2.117-.51 1.77-.388 2.095-.4 2.297-.076.2.318.106 1.222-.16 1.523-.042.049-.563.154-1.157.234s-1.08.248-1.08.374c0 .127.12.23.265.23s.264.188.264.417c0 .311.217.395.86.33.796-.08.866-.022.942.765.072.746-.01.871-.661 1.015-1.332.292-1.405.356-1.409 1.235-.007 1.683-.236 2.059-1.252 2.059h-.93zm6.822-.375c-.467-.874-.332-1.815.289-2.012.352-.112.644-.046.782.178.174.28.29.288.543.035.39-.39-.181-1.114-1.54-1.953-.483-.299-.95-.829-1.037-1.179-.255-1.014.69-2.515 2.029-3.223 1.093-.578 1.186-.588 1.5-.158.502.685.406 1.624-.2 1.947-.293.158-.651.214-.795.125-.143-.089-.338.04-.432.285-.111.29.005.544.333.724 1.13.624 2.223 1.986 2.223 2.77 0 .924-.799 2.031-1.862 2.581-1.016.525-1.504.493-1.833-.12m-21.85-1.196c-.87-.872-.827-1.7.246-4.676.763-2.114.988-2.49 1.522-2.549 1.358-.148 1.413.225.422 2.873-.938 2.505-.994 3.24-.236 3.094.258-.05.83-1.126 1.488-2.8 1.046-2.66 1.086-2.717 1.863-2.644.684.065.787.175.744.799-.075 1.1-2.189 5.72-2.82 6.163-.89.624-2.472.496-3.228-.26M26.284 27.9c-.287-.181-.225-.257.265-.326.6-.085.638-.194.638-1.81v-1.72l-1.058-.224c-1.727-.366-2.686-.88-3.377-1.81-1.389-1.87-1.577-3.61-.613-5.68.723-1.552 2.212-2.737 3.442-2.737h.784l-.98.897c-1.758 1.61-2.248 3.978-1.268 6.135.547 1.205 1.682 2.228 2.47 2.228.5 0 .512-.138.33-3.902-.176-3.672-.156-3.942.346-4.56.412-.509.766-.652 1.559-.631 3.547.093 5.906 4.095 4.331 7.347-.63 1.3-1.645 2.063-3.353 2.517l-1.092.29-.125 1.5c-.1 1.214-.26 1.614-.84 2.114-.795.683-.918.715-1.459.372m4.178-5.681c.913-.806 1.355-2.046 1.355-3.796 0-2.14-.945-3.507-2.426-3.507-.571 0-.777.153-.908.675-.215.858-.013 6.77.246 7.189.24.388.901.173 1.733-.561m17.297-4.834c-.455-.182-.416-1.01.066-1.41.218-.182.397-.435.397-.562 0-.316-1.242-.295-1.85.031-.633.338-1.325.073-1.325-.507 0-.622 1.362-1.873 2.038-1.873.305 0 1.192-.297 1.97-.66 1.638-.762 2.15-.815 2.603-.27.515.62.135 1.486-1.51 3.44-1.562 1.854-1.81 2.043-2.39 1.811m1.79-3.401c.28-.337.264-.376-.1-.237-.238.092-.434.273-.434.403 0 .34.153.293.535-.166m-40.864.613c-.225-.32-.599-1.155-.831-1.854-.242-.729-.538-1.2-.694-1.103-.15.093-.376.004-.504-.196-.763-1.205.627-2.878 2.392-2.878 2.542 0 3.7 3.177 2.112 5.79-.624 1.026-1.842 1.145-2.475.241m1.54-1.687c.478-1.245-.232-2.757-1.293-2.757-.347 0-.705.12-.795.265s.01.264.223.264c.223 0 .586.558.861 1.323.499 1.387.737 1.601 1.005.905m31.798.796c-1.532-1.531 1.195-5.405 3.804-5.405.841 0 1.865.783 1.865 1.426 0 .202-.216.635-.48.961-.406.502-.57.547-1.049.29-.342-.183-.508-.46-.417-.696.395-1.028-1.33-.04-2.122 1.215-.501.793-.314 1.136.409.749.626-.335 1.543-.072 1.543.443 0 .516-1.55 1.43-2.429 1.432-.39 0-.896-.186-1.124-.415m-28.845-1.363c-.11-.288 0-.584.3-.803.399-.292.524-.279.79.085.173.238.251.599.173.803-.2.52-1.052.463-1.263-.085m24.999-.459c-.29-.349-.09-.794 1.314-2.923 1.299-1.97 1.789-2.512 2.268-2.512.336 0 .688.126.784.28.095.155-.532 1.434-1.394 2.845-1.604 2.626-2.277 3.148-2.972 2.31m-22.047-.308c-.298-.298-.217-2.956.093-3.06.154-.05.481-.924.727-1.94.43-1.774.481-1.85 1.293-1.928.802-.078.864-.018 1.227 1.206.615 2.071 1.026 4.301.868 4.712-.25.653-1.193.453-1.38-.294-.238-.948-.962-.723-1.329.414-.284.88-1.052 1.336-1.499.89m2.458-3.92c0-.21-.119-.455-.264-.545s-.265.081-.265.38c0 .3.12.546.265.546s.264-.172.264-.382m15.346 3.484c-.675-.362-.758-1.044-.207-1.714.379-.461 1.265-.415 1.265.066 0 .218.179.397.397.397.5 0 .5-.434.003-1.843-.63-1.787.136-2.655 2.345-2.655 1.327 0 1.615.252 1.376 1.205-.177.706-1.12.896-1.678.338-.46-.46-.677.313-.337 1.206.4 1.053.339 1.877-.188 2.521-.578.707-2.095.951-2.976.479zm-3.308-.558c-.48-.351-.462-.463.545-3.203.574-1.56 1.199-2.9 1.389-2.976s.572-.034.848.094c.482.222.463.353-.45 3.01-1.233 3.593-1.372 3.777-2.332 3.075m-9.37-.388c-.28-.522.07-1.099.664-1.099.402 0 .667.673.468 1.19-.21.548-.817.498-1.132-.091m4.796 0c-.257-.164-.273-.395-.065-.94.151-.4.2-1.022.11-1.384-.12-.477-.01-.804.396-1.183.595-.553.754-1.296.279-1.296-.156 0-.245-.268-.198-.596.078-.55.237-.6 2.135-.672 1.127-.043 2.05-.02 2.05.049 0 .07-.122.446-.27.838-.248.65-.36.697-1.298.547-1.018-.163-1.024-.158-.722.494.197.423.525.66.92.66.484.003.595.128.529.598-.065.456-.302.626-1.011.728-.818.116-.968.264-1.282 1.256-.354 1.12-.813 1.382-1.573.9m6.56-6.879c0-.318.907-1.1 1.277-1.1.57 0 .318.706-.364 1.017-.804.366-.914.376-.914.083"/></symbol><symbol xml:space="preserve" viewBox="0 0 93.409 19.346" id="proex" xmlns="http://www.w3.org/2000/svg"><path fill="currentColor" d="M57.426 2.152V.03H72l-.077 2.05-.077 2.051-7.21.07-7.21.07zm16.139 17.054c0-.077 1.553-2.398 3.45-5.158l3.451-5.018-3.07-4.5L74.324.032h3.126l3.126.002 1.29 2.252c.709 1.24 1.371 2.304 1.472 2.366s.813-.952 1.583-2.254L86.323.031h6.278l-3.035 4.347c-1.67 2.392-3.036 4.488-3.036 4.66 0 .17 1.548 2.492 3.44 5.158s3.44 4.916 3.44 4.999-1.34.148-2.977.146l-2.977-.005-1.984-3.033c-1.092-1.668-2.044-3.032-2.117-3.03s-1.062 1.369-2.198 3.038l-2.065 3.034h-2.764c-1.52 0-2.763-.062-2.763-.14zm-16.139-1.977v-2.117h14.552v4.234H57.426zM45.917.163c-2.522 0-3.078.083-4.159.62a10.35 10.35 0 0 0-4.46 4.323c-.868 1.602-.906 1.788-.906 4.45 0 3.255.43 4.479 2.29 6.5 1.38 1.498 2.625 2.32 4.357 2.872 1.971.63 4.867.422 6.905-.495 1.94-.873 4.029-2.934 4.894-4.831.468-1.026.581-1.774.591-3.918.012-2.473-.046-2.768-.857-4.418-.962-1.955-2.503-3.491-4.497-4.483-1.081-.537-1.637-.62-4.158-.62M45.8 4.267c1.961-.014 3.932 1.002 4.823 2.725 1.6 3.099.144 6.769-3.065 7.722-1.624.482-2.132.483-3.462.01-4.363-1.556-4.794-7.674-.694-9.865a5.16 5.16 0 0 1 2.398-.592M20.649 0v19.346h5.027v-7.24l2.243 3.421c1.233 1.882 2.277 3.515 2.318 3.629s1.485.174 3.209.132l3.134-.075-2.918-3.833-2.917-3.833 1.303-.62c1.89-.898 2.756-2.452 2.756-4.943 0-2.276-.756-3.811-2.47-5.015L31.189.163l-5.27-.081zm5.027 4h1.071c1.21 0 2.488.562 2.733 1.202.379.987.165 2.41-.448 2.985-.466.438-.94.575-1.984.575h-1.372V6.381zM.072 14.12l.071-5.225 6.308-.133 6.308-.132.532-.657c.73-.903.512-2.554-.446-3.378-.644-.554-.941-.595-4.25-.595H5.038V.03H9.44c2.533 0 4.83.128 5.41.302 2.454.735 3.98 3.003 3.98 5.913 0 3-.965 4.924-3.024 6.024-1.01.54-1.54.6-5.938.68l-4.829.088v6.308H0z"/><path fill="#fea000" d="M.011 2.015V.031h4.763V4H.012zm57.415 7.673V7.704h14.287v3.969H57.426zm-13.824 3.763c-1.21-.733-1.644-1.325-2.035-2.778-1.04-3.86 3.305-6.954 6.782-4.833 2.924 1.783 2.641 6.199-.501 7.84-1.105.578-3.09.47-4.246-.229"/></symbol></svg>