<?xml version="1.0" encoding="UTF-8" standalone="no"?>
<svg
   width="1000.0385"
   zoomAndPan="magnify"
   viewBox="0 0 750.02888 154.58371"
   height="206.11162"
   preserveAspectRatio="xMidYMid"
   version="1.0"
   id="svg120"
   sodipodi:docname="3.svg"
   inkscape:version="1.2.2 (b0a8486541, 2022-12-01)"
   xmlns:inkscape="http://www.inkscape.org/namespaces/inkscape"
   xmlns:sodipodi="http://sodipodi.sourceforge.net/DTD/sodipodi-0.dtd"
   xmlns="http://www.w3.org/2000/svg"
   xmlns:svg="http://www.w3.org/2000/svg">
  <sodipodi:namedview
     id="namedview122"
     pagecolor="#ffffff"
     bordercolor="#000000"
     borderopacity="0.25"
     inkscape:showpageshadow="2"
     inkscape:pageopacity="0.0"
     inkscape:pagecheckerboard="0"
     inkscape:deskcolor="#d1d1d1"
     showgrid="false"
     inkscape:zoom="1.3350176"
     inkscape:cx="456.92281"
     inkscape:cy="371.53068"
     inkscape:window-width="1366"
     inkscape:window-height="736"
     inkscape:window-x="1440"
     inkscape:window-y="0"
     inkscape:window-maximized="1"
     inkscape:current-layer="svg120" />
  <defs
     id="defs110" />
  <path
     fill="currentColor"
     d="m 465.1422,0.36121247 c 12.47079,1.69556003 22.941,8.24708003 31.12944,16.06846953 2.43772,1.93643 4.51248,4.05739 6.16354,6.24079 0.90459,0.99232 5.99155,7.232 9.31594,12.6981 3.4114,5.60917 5.53232,9.57102 12.31196,22.99861 8.24475,16.32934 11.31537,21.70823 15.98228,27.99658 10.48954,14.133958 22.97795,23.189418 36.04131,26.133868 9.90941,2.23356 19.58902,0.87305 29.81553,-4.19069 5.63448,-2.78995 10.02642,-5.76394 15.25977,-10.333118 5.93373,-5.18066 10.11307,-9.8579 20.72942,-23.199 4.41231,-5.54476 9.07376,-11.31484 10.35879,-12.82241 4.0919,-4.80055 15.18778,-15.64493 16.00777,-15.64493 0.0624,0 0.4544,-0.32004 0.87107,-0.7112 2.60717,-2.44759 11.49282,-7.63989 16.46533,-9.62147 14.8136,-4.87861 28.85828,-5.54362 44.34096,-0.28644 7.12231,2.99563 10.67543,5.66684 15.15047,9.82275 1.69694,1.85148 3.99627,5.09977 4.21642,6.32802 0,0.81706 -0.0794,0.98063 -0.47596,0.98063 -0.32662,0 -0.65743,-0.35945 -1.05437,-1.14567 -0.81824,-1.62071 -2.46377,-3.78306 -4.254,-5.59006 -5.91263,-5.96805 -15.06951,-9.95511 -26.73567,-11.64115 -3.60727,-0.52135 -12.51032,-0.385 -16.64534,0.25491 -5.67009,0.87747 -11.82152,2.64627 -15.75466,4.53012 -0.66,0.31612 -0.984,0.50215 -0.72,0.41339 0.264,-0.0888 1.83,-0.62626 3.48,-1.19445 12.01022,-3.39856 24.68059,-3.78645 35.13437,-1.27398 3.67939,0.92479 7.50939,2.34409 10.82563,4.01169 3.32992,1.70518 10.58679,7.51458 12.6,9.87629 1.12103,1.17183 2.12778,2.89942 2.86157,4.17085 0.52246,0.93108 0.97843,1.75646 0.97843,2.78192 0,0.87974 -0.0798,1.07719 -0.43555,1.07719 -0.26757,0 -0.59984,-0.34884 -0.86154,-0.90448 -0.84329,-1.79049 -3.16773,-5.04143 -4.93792,-6.90612 -6.22016,-6.55221 -15.16401,-10.91098 -26.64485,-12.98532 -6.98847,-0.61783 -12.74995,-1.19214 -19.54033,0.017 -4.37509,0.78893 -10.91751,2.551 -10.61193,2.8581 0.0581,0.0584 0.81482,-0.11384 1.68148,-0.38286 2.58018,-0.8009 7.52015,-1.43335 9.56456,-1.83572 3.82586,-0.5557 7.20017,-0.35774 11.12144,-0.11143 2.02117,0.30957 9.70319,1.19777 14.50464,2.79583 1.782,0.5931 4.86,1.87662 6.84,2.85226 3.58322,1.76562 7.97422,4.50209 8.20844,5.11549 0.0676,0.17705 0.26562,0.32191 0.44003,0.32191 4.73742,4.3418 7.26829,7.90358 10.16402,12.62771 0.53071,0.67353 0.63343,2.5341 0.12331,2.73083 -0.42191,0.16271 -0.73705,-0.20197 -0.97485,-1.12809 -0.0852,-0.33164 -0.22439,-0.65725 -0.30941,-0.72358 -0.085,-0.0663 -0.46366,-0.66329 -0.84145,-1.32657 -5.08798,-8.93301 -15.40273,-16.08648 -27.85007,-19.31454 -11.83067,-3.06813 -23.99,-2.43133 -35.11374,1.83896 -1.09656,0.42095 -1.9566,0.8027 -1.91121,0.84833 0.0454,0.0456 0.83459,-0.19148 1.75375,-0.52689 10.42628,-3.25941 20.71513,-3.78593 30.5912,-1.74015 8.12642,1.71067 15.30172,5.13677 21.47618,9.73763 4.69052,3.91878 8.2107,6.54908 11.05866,11.37399 0.25584,0.50503 0.53165,0.9725 0.61292,1.03883 0.61505,1.67306 1.91045,3.46451 2.13224,5.07642 0,1.57154 -0.68795,1.25618 -1.68,-0.77013 -2.14489,-4.38104 -5.78298,-9.10466 -9.5505,-12.40018 -15.52491,-13.57992 -40.13563,-17.04396 -58.66964,-8.25797 -2.39954,1.1375 -2.72417,1.51746 -0.39774,0.46554 6.42077,-2.38532 14.03128,-4.12046 20.31788,-4.13198 11.75151,0.004 23.31925,4.03043 32.73025,10.3663 4.33735,2.81253 7.46326,6.36762 10.16952,9.00848 2.62463,3.3391 4.80458,6.28571 6.58566,9.41445 0.85487,1.91482 0.99157,3.52994 0.29876,3.52994 -0.41854,0 -1.48419,-1.54618 -1.48419,-2.15346 0,-0.15336 -0.11373,-0.40993 -0.25274,-0.57015 -0.139,-0.16022 -0.744,-1.17564 -1.34444,-2.25649 -6.49113,-11.68475 -19.95258,-20.86812 -35.12282,-23.96072 -3.94604,-0.80444 -6.70225,-1.06216 -11.28,-1.05473 -5.51507,0.009 -9.94287,0.62138 -14.72449,2.03665 -1.92743,0.57049 -6.70894,2.39895 -6.58888,2.51961 0.0429,0.0431 1.15695,-0.30083 2.47568,-0.76429 5.38377,-1.89208 10.60527,-2.7397 16.87715,-2.7397 11.63085,0 23.03667,3.41219 32.68564,9.77831 2.61008,1.72206 6.11163,4.50151 6.54056,5.19175 0.15939,0.2565 0.40288,0.46636 0.54109,0.46636 4.29004,5.61404 9.86869,11.57042 11.34273,16.18976 0.73424,1.64423 1.02944,3.58815 0.41052,3.58815 -0.88182,-1.06506 -1.69662,-2.96152 -2.36349,-4.22903 -1.10899,-3.42099 -3.20155,-5.51114 -4.9551,-7.79026 -8.04375,-10.48316 -21.22368,-17.99863 -35.88141,-20.46032 -3.67286,-0.61683 -12.88961,-0.61823 -16.2,-0.002 -28.53938,7.28459 -40.49158,28.70748 -51.23429,48.52147 -9.59929,17.726968 -12.70288,22.759118 -18.87022,30.596078 -2.84209,3.61152 -9.42562,10.37584 -12.45549,12.79755 -4.31714,3.4506 -9.92107,6.83929 -13.8,8.34483 -0.792,0.3074 -1.548,0.63838 -1.68,0.7355 -0.48908,0.35986 -3.69039,1.16997 -6.63366,1.67868 -2.68362,0.46383 -3.66673,0.51196 -8.52,0.41715 -6.10239,-0.11922 -8.10062,-0.44027 -12.66851,-2.03538 -11.82923,-4.4452 -21.47157,-13.43542 -28.51988,-23.27041 -6.01233,-8.71635 -10.06726,-17.74687 -17.58064,-39.152958 -5.67513,-16.16877 -7.92053,-21.83584 -11.27673,-28.46089 -8.29908,-16.38211 -19.72253,-27.94577 -32.39261,-32.7902 -5.5645,-2.1276 -8.51959,-2.65504 -14.88797,-2.65728 -4.30236,-0.001 -5.43912,0.079 -7.76705,0.55027 -12.53042,2.53655 -24.0923,9.32366 -38.65982,22.69424 -1.65723,1.52106 -7.49513,7.28191 -12.97313,12.80188 -9.7897,9.8647 -13.47502,13.31012 -18.96,17.7258 -21.86914,17.60569 -41.81129,22.096408 -59.43274,13.38352 -7.14244,-3.53157 -11.90964,-7.44466 -24.20726,-19.87025 -11.96988,-12.09443 -15.2646,-15.01297 -20.90954,-18.52216 -18.10668,-11.25607 -38.40694,-7.52211 -62.9328,11.57565 -4.10741,3.19834 -7.87337,6.4832 -15.39766,13.43064 -3.63,3.3517 -7.57742,6.95716 -8.77205,8.01213 -14.19737,12.537668 -25.5954,19.562728 -36.70483,22.622628 -8.91425,2.23966 -17.19726,2.4398 -25.80312,0.004 -6.51466,-1.88365 -13.1063,-5.14076 -19.68,-9.72444 -8.298872,-5.723358 -16.646931,-15.061338 -23.497132,-21.026668 -0.181608,0 -2.718912,-2.36069 -5.638488,-5.24597 -5.89908,-5.82982 -9.534288,-9.05959 -14.184384,-12.60239 -12.193128,-9.28966 -23.526888,-13.46153 -35.16,-12.94212 -7.811184,0.34877 -14.098896,2.27116 -19.6800002,6.01688 -2.3344809,1.56677 -6.0681369,5.37271 -7.4400009,7.58399 -0.5940001,0.95747 -1.21838411,1.74363 -1.38753611,1.74702 -0.494472,0.01 -0.62124,-0.68332 -0.345096,-1.88729 0.154416,-0.67317 0.16836,-1.1536 0.03492,-1.20186 -0.5525279,-0.19983 -0.08506,-3.03768 0.572736,-3.47672 0.20618401,-0.13763 0.168864,-0.25898 -0.135024,-0.43898 -0.583632,-0.34569 -0.542808,-1.77713 0.07958,-2.78916 0.27475201,-0.44679 0.59875201,-0.81235 0.72000001,-0.81235 0.121224,0 0.2204161,-0.10946 0.2204161,-0.24324 0,-0.14607 -0.1873921,-0.12563 -0.4690801,0.0512 -0.25800001,0.16192 -0.55255201,0.21053 -0.65455201,0.10802 -0.314904,-0.31647 -0.207816,-2.09719 0.13908,-2.31265 0.178512,-0.11086 0.30105601,-0.5124 0.272352,-0.89229 -0.130056,-1.72052 -0.06607,-2.34314 0.26647201,-2.59367 3.4942565,-3.84211 6.417351,-6.97666 11.3081532,-9.30361 4.155024,-1.93767 9.197418,-2.88516 12.83724,-3.23814 4.136421,-0.50426 7.158031,-0.0257 10.200336,0.14703 1.920285,0.28456 6.430272,0.99819 9.623376,2.02905 1.472136,0.47526 3.891624,1.44179 5.376624,2.14783 3.01104,1.43159 3.658632,1.56738 0.96,0.2013 -6.983976,-3.53538 -14.673312,-5.3963 -22.29744,-5.3963 -10.97892,0 -20.2438802,3.75439 -26.0022731,10.53675 -0.880104,1.03661 -1.7802001,1.88474 -2.0002321,1.88474 -0.52802401,0 -0.71258401,-1.79142 -0.222672,-2.16113 2.4168217,-2.92722 4.1931189,-4.57322 7.054848,-6.78741 0.868441,-0.78491 5.2458252,-2.89716 7.6848972,-3.70825 7.549481,-1.99722 15.415316,-2.44053 22.457904,-1.23349 7.980096,1.43583 15.505968,4.85667 23.584968,10.72038 2.505768,1.81868 6.6,5.21506 6.6,5.47505 0,0.12518 0.139944,0.22761 0.310992,0.22761 0.433512,0 7.129008,6.4751 7.129008,6.89434 0,0.18781 0.136392,0.34148 0.303096,0.34148 0.379488,0 5.423304,5.12501 12.462098,12.66268 10.888972,11.66075 17.490674,17.59154 25.187814,22.628 15.97531,10.453138 31.60618,12.273858 48.63202,5.66477 5.80442,-2.25317 13.35859,-6.51702 19.47249,-10.99102 6.79627,-4.97334 11.39045,-8.98089 25.48171,-22.22798 18.33334,-17.23504 31.83029,-26.2996 44.74078,-30.04794 9.56288,-2.24064 18.55595,-1.82232 28.25935,1.47784 4.62811,1.8247 8.65404,3.95349 18.00111,9.51845 13.29333,7.91444 20.70885,10.86804 30.25864,12.05198 3.42629,0.42477 11.24456,0.17519 14.9209,-0.47633 9.01226,-1.59713 16.9915,-4.41985 26.8494,-9.49819 5.80987,-2.99299 9.96715,-5.47805 16.3079,-9.74823 2.61651,-1.76209 4.84851,-3.2038 4.95999,-3.2038 0.1115,0 0.2387,-0.0988 0.28272,-0.21946 9.52854,-7.14888 17.95867,-13.48533 27.26469,-19.79964 3.5367,-2.39121 6.48906,-4.04153 9.8953,-6.0597095 0.066,-0.0827 0.984,-0.58482 2.04,-1.11573 11.80318,-5.93401 23.19674,-8.26010003 33.96,-6.93323003 z M 443.78666,4.2462125 c -7.65489,2.3903 -15.61425,6.4814595 -25.08446,12.8935495 -4.34777,2.94379 -7.58167,5.32218 -18.63895,13.70806 -17.16718,13.01967 -29.72129,20.30937 -42.78831,24.84558 -9.05584,3.14373 -15.91939,4.28302 -24.44308,4.05735 -6.02324,-0.15948 -9.73148,-0.81175 -15.53331,-2.73226 -4.43059,-1.46659 -11.16513,-4.66777 -16.55635,-7.86985 -11.45234,-6.80204 -13.9021,-8.17454 -17.7324,-9.93473 -3.10183,-1.42543 -7.42848,-2.89118 -10.3793,-3.51624 -3.22834,-0.68384 -8.04128,-1.03102 -10.6483,-0.76812 l -2.16,0.21782 2.82,0.0326 c 5.29535,0.31222 10.69315,1.3247 15.51211,3.26661 5.55295,2.28566 7.93714,3.67413 19.10789,11.12783 9.18845,6.131 12.06528,7.86737 16.79004,10.13392 8.0141,3.84451 14.96825,5.36183 23.39904,5.10542 17.13139,-0.52103 35.98073,-9.41357 58.98977,-27.82958 6.67104,-5.01873 13.36891,-10.26814 20.37619,-15.76085 5.94463,-4.16924 12.12473,-8.02722 20.36496,-11.5862795 20.57128,-9.63125003 47.05145,-9.11456003 71.48854,26.8464195 3.71419,5.6527 8.73796,15.3779 14.91774,28.87833 8.87025,19.37807 14.71231,29.03954 22.67372,37.497268 9.43019,10.01808 18.95782,15.79915 29.65394,17.99307 3.1225,0.64047 9.21106,0.87225 12.58953,0.47926 7.06682,-0.82202 14.94598,-3.90029 21.94836,-8.57489 7.42913,-4.95949 15.47084,-12.824378 22.83337,-22.331318 0.92202,-0.33849 8.69263,-12.74004 7.0548,-10.05865 -5.5835,7.55591 -13.75523,15.61375 -21.02983,22.274188 -1.33517,1.23248 -6.09429,4.51555 -9.00067,6.20908 -6.23926,3.63559 -17.02965,6.23313 -19.8367,6.52024 -5.66869,0.32924 -11.58251,0.49116 -16.5285,-0.68706 -14.04306,-3.58004 -27.89993,-14.64802 -38.64828,-30.869778 -4.26762,-6.44085 -7.14463,-11.72195 -15.63616,-28.70209 -2.91895,-5.83689 -6.28996,-12.34913 -7.49113,-14.47164 C 501.4069,21.619132 487.96339,9.0055525 473.3022,4.1702925 c -10.33744,-3.56213003 -19.08811,-3.13683 -29.51554,0.0759 z m 8.03554,2.85269 c -9.5922,1.71004 -18.7032,5.6783295 -29.28,12.7528795 -4.20403,2.81197 -12.08758,8.81605 -19.08,14.53124 -15.74422,12.86839 -24.52042,18.85467 -35.88,24.47383 -9.70786,4.80212 -18.12583,7.39757 -26.52,8.17669 -10.16143,0.94315 -18.82435,-0.73687 -28.44,-5.51546 -4.75692,-2.36399 -8.44757,-4.62273 -17.64,-10.79596 -7.50307,-5.03874 -10.31112,-6.74605 -14.07715,-8.55901 -7.91163,-3.80864 -15.71945,-5.21133 -23.35169,-4.19517 -1.64388,0.21886 -3.02918,0.43845 -3.07846,0.48797 4.4693,-0.11113 10.0351,-0.17348 14.2273,0.60486 5.68277,1.14901 11.5171,3.70522 17.81558,7.80554 1.35056,0.87922 6.15656,4.40561 10.68,7.83643 12.17417,9.23355 16.50149,11.99435 22.69853,14.48152 5.92018,2.37606 11.1103,3.40152 17.2536,3.40896 9.1854,0.0111 18.12199,-2.33199 28.51229,-7.47574 11.27359,-5.58103 21.32395,-12.79734 36.91658,-26.50665 9.6154,-8.50241 20.03801,-16.52327 30.40342,-21.84311 10.28282,-5.26113 20.59522,-7.6549595 29.69556,-6.8932895 16.51319,0.2749595 34.11268,13.8792895 45.17141,31.1858795 3.92785,6.18262 7.85028,14.13738 14.00473,28.40181 8.03601,18.62539 11.92629,26.22212 17.25247,33.689618 12.78825,17.92961 30.33693,27.79196 46.51583,26.14188 9.42749,-0.96151 18.62039,-5.00065 27.35962,-12.02117 5.01933,-4.0322 11.75672,-11.19016 16.76599,-17.812578 3.82059,-5.05093 5.63794,-7.7847 5.07712,-7.63731 -10.57315,12.174048 -18.9554,21.604058 -30.44297,26.703338 -6.1052,2.76415 -13.13967,4.64578 -19.54333,5.03146 -8.10701,0.0935 -13.96922,-1.14796 -21.17643,-4.64289 -9.05136,-4.41878 -17.85477,-12.08863 -25.26811,-22.014498 -5.21303,-6.97983 -10.12181,-16.00003 -17.688,-32.50286 -3.91886,-8.54754 -8.4109,-17.58446 -10.79026,-21.70746 -8.58012,-14.8678 -19.18584,-25.71389 -30.66533,-31.36035 -4.95652,-2.4379895 -9.76617,-3.8894795 -15.14635,-4.5710095 -2.48117,-0.3143 -9.73687,-0.11303 -12.28195,0.34069 z m -1.44,5.2927095 c -8.64554,1.84687 -16.13784,5.18949 -25.44,11.34984 -6.43654,4.26258 -10.96514,7.84394 -23.04115,18.22156 -12.87235,11.06197 -19.1466,15.79464 -28.07885,21.17984 -3.45312,2.08187 -10.69963,5.75457 -13.68,6.93334 -13.9668,5.52403 -26.61984,6.31682 -38.23466,2.39563 -3.88961,-1.31314 -10.19542,-4.54265 -14.44534,-7.39814 -3.67274,-2.4677 -5.20337,-3.59239 -13.92,-10.2283 -9.45859,-7.20077 -14.43084,-10.14518 -20.67444,-12.24279 -4.80792,-1.61528 -6.92719,-1.94722 -12.32556,-1.93057 -2.64,0.008 -5.26848,0.11267 -5.8411,0.2323 -0.74824,0.15631 0.36569,0.21926 3.96,0.22377 5.57208,0.007 8.41798,0.42058 12.61306,1.83305 7.92221,2.66739 14.12933,6.72983 26.44394,17.30705 12.43973,10.68468 19.1996,15.08129 27.2641,17.73254 9.47801,3.11594 19.34194,2.85275 30.08294,-0.80266 9.89412,-3.3672 19.985,-9.27347 31.092,-18.19838 4.16669,-3.3481 6.6972,-5.55911 13.69827,-11.96862 25.58473,-23.39362 36.49385,-28.66337 53.52679,-32.11416 3.56275,-0.50346 10.76551,-0.37672 14.26046,0.25094 3.72826,0.66955 8.77601,2.37181 12.31001,4.15132 11.73905,7.01792 17.68933,13.09794 26.32961,24.76319 4.93604,7.66125 8.46938,15.17129 15.61139,33.18163 7.71046,19.44384 12.53753,28.905038 18.95975,37.161658 0.99483,1.27898 1.80878,2.38474 1.80878,2.45725 0,0.0725 1.863,2.00093 4.14,4.28541 9.06627,9.09604 17.56886,13.87227 28.02,15.73988 3.29215,0.58831 9.11412,0.53384 12.76265,-0.1194 15.72007,-2.81454 30.60716,-14.78702 44.18651,-35.53561 3.3639,-5.139878 3.15862,-4.777338 2.705,-4.777338 -5.39375,6.925628 -10.57148,13.755178 -17.20139,19.536288 -5.06246,4.10874 -11.07315,8.11399 -15.9629,10.31025 -3.34467,1.63377 -6.46728,2.69262 -9.85152,3.65854 -2.36073,0.6738 -4.46209,1.10523 -9.43835,1.09753 -6.32246,-0.01 -8.16662,-0.28412 -13.31004,-1.98004 -10.0097,-2.78714 -21.44133,-13.17966 -27.60616,-19.77233 -4.89796,-5.89336 -8.33882,-11.370048 -12.9226,-20.568448 -2.89707,-5.81364 -4.19077,-8.67694 -9.51978,-21.06977 -5.04336,-11.72854 -7.42087,-16.60127 -11.31459,-23.18933 -8.88746,-15.03732 -20.17776,-25.51459 -32.48683,-30.14743 -5.72338,-2.15413 -9.63552,-2.7888 -16.44,-2.66704 -4.38571,0.0785 -5.59214,0.18464 -8.04,0.70755 z m 5.76,4.01512 c -12.24878,1.1511 -24.23806,6.73161 -38.27813,17.81693 -4.96949,3.92365 -7.97227,6.54885 -17.4084,15.21935 -12.79553,11.75731 -22.42051,18.99514 -32.78897,24.65671 -17.57875,9.59869 -34.60291,10.91149 -49.27562,3.79986 -6.35693,-3.08109 -11.54681,-6.83176 -22.60363,-16.3354 -8.92003,-7.66702 -14.19471,-11.48791 -19.37674,-14.03622 -7.33913,-3.60909 -15.07226,-4.99471 -22.41962,-4.01714 -3.00826,0.40025 -6.60591,1.11129 -6.44434,1.27367 0.0492,0.0494 1.04928,-0.0808 2.22243,-0.28943 1.17316,-0.20862 3.59102,-0.44309 5.37302,-0.52106 7.14494,-0.3126 13.67398,1.1293 20.25137,4.47239 6.88749,3.5007 11.61705,7.21346 23.6268,18.54734 7.54517,7.12055 11.28571,10.25019 16.00183,13.38841 16.40544,10.91659 34.13743,10.16431 54.84,-2.32657 8.76235,-5.28675 16.26437,-11.44617 29.38913,-24.12951 7.19256,-6.95064 11.57803,-10.98719 15.73087,-14.47928 9.75456,-8.69546 22.30093,-15.08519 33.24,-18.529 5.46967,-1.43387 12.54562,-2.20473 18.02007,-1.38464 7.73039,2.10759 9.83003,2.65207 14.45655,4.97874 12.40911,8.6104 18.05292,13.14878 27.33822,28.30784 3.95066,6.92341 6.77492,13.49896 13.50595,31.4451 4.65514,12.41143 6.32541,16.493678 9.09349,22.225068 3.16389,6.55093 5.95223,11.24055 9.42255,15.84751 0.77174,1.02452 1.40317,1.90381 1.40317,1.95398 0,0.0502 0.64573,0.78572 1.43495,1.63455 0.78922,0.84884 1.44683,1.65187 1.46136,1.78453 0.0403,0.36814 6.09273,5.95875 8.26369,7.63317 9.01286,6.95145 18.99939,10.46602 28.44,10.0089 6.06685,-0.29375 10.85045,-1.54834 16.68,-4.37465 10.63782,-5.15746 20.57762,-14.77196 30.07183,-29.08764 2.31195,-3.48602 7.00817,-11.15764 7.00817,-11.44834 0,-0.507238 -0.68468,0.30481 -2.18721,2.59409 -0.97503,1.48557 -2.60979,3.83144 -3.63279,5.21303 -2.23161,3.31721 -3.69999,5.01385 -5.95263,7.58263 -4.38168,5.03251 -9.48367,9.84433 -14.02737,13.22957 -14.86141,11.07238 -31.25472,13.09182 -46.65085,5.7468 -9.02271,-4.57484 -15.67243,-10.55885 -22.45326,-17.97267 -7.29184,-9.20425 -11.85208,-18.006778 -20.2906,-39.166518 -7.57434,-18.9928 -10.69088,-25.48547 -16.21155,-33.77329 -3.28947,-4.93828 -6.06224,-8.38306 -9.71374,-12.06803 -7.77065,-7.84184 -15.71693,-12.47102 -24.98803,-14.55699 -4.4629,-1.00414 -8.28449,-1.26671 -12.57197,-0.86379 z m -3.96,5.51351 c -5.08349,0.89303 -9.64862,2.45482 -15.24,5.21381 -9.65832,4.76576 -19.51433,12.30198 -32.82768,25.10108 -9.02556,8.67693 -12.30818,11.7259 -16.25232,15.09547 -23.21266,19.83111 -43.65982,26.72955 -61.92,20.8905 -8.44231,-2.69959 -15.96742,-7.80439 -27.37625,-18.57123 -9.26352,-8.74223 -11.28725,-10.54188 -15.10375,-13.4314 -6.5647,-4.97021 -12.40457,-7.83022 -18.7751,-9.19489 -2.48864,-0.53311 -7.38579,-0.91253 -7.38334,-0.57205 6.85902,-0.27085 17.10402,4.06121 23.63844,8.66288 4.42159,3.17834 6.96168,5.51007 16.8,15.42205 14.20738,14.31373 18.08537,17.51602 25.44,21.00735 12.49207,5.93013 25.44466,5.18187 40.2,-2.32232 11.03479,-5.61201 20.64708,-13.3982 35.76,-28.9665 19.35868,-19.97195 44.51233,-45.17686 77.41878,-33.14065 3.68573,1.82099 9.99711,4.67078 18.58122,13.40065 0,0.0725 0.62654,0.79355 1.39234,1.60231 0.76579,0.80877 2.36743,2.76078 3.55922,4.33781 3.77242,4.99185 5.86975,8.34318 8.88886,14.20345 1.09349,2.1225 1.99072,3.78495 1.99387,3.69432 0.003,-0.0906 -0.73776,-1.73427 -1.64645,-3.65255 -8.58415,-18.1215 -20.64677,-30.88109 -34.46784,-36.45943 -2.64499,-1.06755 -6.78631,-2.18297 -9.36,-2.52103 -1.056,-0.1387 -2.244,-0.2986 -2.64,-0.35533 -1.65725,-0.23741 -8.06232,0.0959 -10.68,0.55573 z M 21.502196,43.887062 c -6.917736,1.49952 -12.6012242,4.51253 -16.6800011,8.8426 -1.076376,1.14269 -1.185408,1.3012 -0.351768,0.5113 0.664536,-0.62965 1.271976,-1.14482 1.349856,-1.14482 0.07786,0 0.533712,-0.36096 1.012968,-0.80214 1.3295279,-1.22385 4.7933051,-3.19154 7.4953691,-4.25793 5.048645,-1.72706 10.947089,-2.88999 15.693576,-2.89929 3.233845,0.0362 6.411915,0.32952 9.6,0.95374 8.827848,1.7621 17.65776,6.33202 27.303696,14.13103 3.96984,3.20972 5.56224,4.65552 11.996304,10.89196 2.937,2.84678 5.34,5.03571 5.34,4.86427 0,-0.40876 -1.929816,-2.38011 -2.329968,-2.38011 -0.17052,0 -0.310032,-0.16281 -0.310032,-0.36179 0,-0.19899 -0.12564,-0.36179 -0.279192,-0.36179 -0.153552,0 -1.962552,-1.65756 -4.02,-3.68347 -14.579904,-14.35644 -25.265352,-21.26047 -36.99804,-23.90499 -4.252104,-0.95841 -5.701848,-1.08711 -11.262768,-0.99979 -4.16148,0.0653 -5.624424,0.1817 -7.56,0.60126 z m 498.122824,43.26574 c 6.28198,18.138878 10.03614,27.442668 13.76239,34.106718 2.81449,5.03345 6.82057,10.67853 10.08075,14.20505 2.65719,3.02094 5.22945,5.41244 7.89283,7.58042 2.61422,2.13267 6.38506,4.54076 9.51364,6.07551 1.66516,0.81685 3.08785,1.57053 3.16152,1.67484 0.22795,0.32273 4.30264,1.65026 6.70605,2.13989 10.43594,0.39653 14.74806,0.75191 23.04,-2.8893 3.62712,-1.51589 8.59226,-4.56145 12.48,-7.65507 2.87766,-2.28987 9.31003,-8.8423 12.04368,-12.26846 5.08522,-6.37348 8.8164,-12.12409 14.20186,-21.88836 1.01632,-1.84268 1.03229,-2.23887 0.0194,-0.48238 -0.36335,0.63011 -1.73675,2.77373 -3.05201,4.76358 -9.32807,14.11245 -19.1128,23.75902 -29.93297,29.51034 -12.10564,6.43459 -25.75695,6.79186 -38.07691,0.99651 -8.59395,-3.84194 -15.96942,-10.15566 -22.05442,-17.72357 -7.20665,-9.10406 -12.2543,-19.08339 -19.79575,-39.136608 -0.96095,-2.55523 -1.77974,-4.61315 -1.81954,-4.57315 -0.0398,0.04 0.78345,2.54381 1.82944,5.56404 z"
     id="path2965"
     sodipodi:nodetypes="cccssssssssssccccssssssscccccssssccssccsssccsssssssccccccssscccccsssssssssssscccccsccssssssccsssccsssssssssccccssssscsssssssssscccccssssssccccssssssssssccsssssscccsccsssssssssscccsssccccssssscccsccsssccssssssssssccsssssccccssssccccsssssssssssssssscsssssssscccccsssssscccscccssssssssssssssssssssssscccccsssssssssssccsccssssssssssssscccssscccsscsssssssssssscccssssssssssssccssccssssssccsssss"
     inkscape:export-filename="plain-svg/path2965.svg"
     inkscape:export-xdpi="96"
     inkscape:export-ydpi="96" />
</svg>
