<?xml version="1.0" encoding="UTF-8" standalone="no"?>
<!-- Created with Inkscape (http://www.inkscape.org/) -->

<svg
   version="1.1"
   id="svg1852"
   width="5331.5869"
   height="11996.093"
   viewBox="0 0 5331.5869 11996.093"
   xmlns="http://www.w3.org/2000/svg"
   xmlns:svg="http://www.w3.org/2000/svg">
  <defs
     id="defs1856" />
  <g
     id="g1860"
     transform="matrix(1.3333333,0,0,-1.3333333,0,11996.093)">
    <g
       id="g2060"
       fill="currentColor">
      <path
         d="M 1436.19,0 C 789.669,942.341 709.67,1302.93 895.872,1442.01 c 114.608,85.6 329.688,86.87 575.418,88.3 267.12,1.56 570.54,3.34 819.45,113.95 174.04,77.34 295,165.29 369.97,259.6 81.54,102.56 108.67,212.7 90.57,324.94 -18.14,112.42 -81.62,227.03 -181.25,338.38 -169.39,189.28 -443.17,368.97 -776.28,512.21 -199.9,85.97 -251.32,159.37 -223.94,226.33 30.4,74.34 158.73,139.81 288.05,205.78 134.99,68.87 271.08,138.3 296.36,217.83 27.31,85.86 -74.84,184.57 -448.01,309.35 -673.62,225.26 -937.127,413.42 -904.02,598.26 33.049,184.53 362.4,364.82 874.66,574.94 313.51,128.6 530.8,271.22 639.25,414.02 61.93,81.56 88.28,163.15 76.69,242.15 -11.61,79.05 -61.23,155.68 -151.21,227.27 -175.43,139.56 -503.87,259.81 -1002.81,341.67 -290.341,47.64 -394.695,109.99 -383.621,180.98 18.547,118.87 364.611,260.34 700.191,397.53 313.29,128.07 617.43,252.4 635.29,349.18 8.79,47.67 -53.43,89.1 -221.04,121.61 -198.7,38.56 -385.49,69 -548.86,95.63 -353.86,57.68 -598.117,97.49 -615.871,163.8 -18.768,70.13 216.091,167.83 842.981,344.29 790.74,222.6 1062.54,309.8 1043.32,381.6 -11.06,41.31 -118.93,78.93 -279.91,135.06 -85.78,29.9 -186.59,65.06 -295.86,108.91 -93.56,37.53 -183.71,70.44 -266.44,100.61 -181.93,66.39 -328.08,119.73 -396.15,180.88 h 6.24 c 68.69,-59.15 212.67,-111.7 391.29,-176.88 82.78,-30.2 173,-63.12 266.57,-100.67 109.24,-43.83 209.97,-78.95 295.68,-108.83 162.21,-56.57 270.92,-94.48 282.56,-137.97 20.18,-75.38 -252.51,-163.37 -1046.21,-386.79 -624.01,-175.65 -858.094,-271.83 -840.083,-339.09 17.044,-63.67 260.223,-103.32 612.533,-160.74 163.45,-26.64 350.34,-57.1 548.98,-95.64 170.5,-33.08 233.6,-76.29 224.32,-126.57 -18.27,-99.06 -323.45,-223.82 -637.81,-352.32 -334.52,-136.75 -679.465,-277.77 -697.643,-394.26 -10.673,-68.42 92.801,-128.99 380.193,-176.14 499.66,-81.98 828.74,-202.53 1004.67,-342.49 90.89,-72.31 141.02,-149.85 152.79,-230 11.77,-80.19 -14.87,-162.87 -77.53,-245.38 -108.89,-143.4 -326.77,-286.47 -640.96,-415.35 -510.97,-209.6 -839.415,-389.06 -872.14,-571.78 -32.674,-182.41 230.05,-369.01 901.25,-593.45 376.13,-125.78 478.72,-226.44 450.67,-314.7 -25.84,-81.24 -162.71,-151.06 -298.46,-220.32 -128.63,-65.62 -256.27,-130.74 -286.08,-203.62 -26.41,-64.59 24.66,-136.02 221.73,-220.77 333.63,-143.47 607.92,-323.53 777.71,-513.27 100.17,-111.93 164.01,-227.29 182.28,-340.55 18.3,-113.45 -9.09,-224.72 -91.43,-328.3 -75.38,-94.83 -196.86,-183.18 -371.54,-260.81 -249.69,-110.95 -553.56,-112.73 -821.08,-114.3 -245.01,-1.43 -459.46,-2.69 -573.001,-87.5 C 713.93,1300.87 794.9,941.45 1441.22,0 h -5.03"
         fill="currentColor"
         id="path1866" />
      <path
         d="M 1506.97,0 C 806.985,976.77 704.716,1338.31 885.879,1477.98 c 103.755,80 300.121,86.78 530.241,94.73 255.14,8.81 551.9,19.06 809.07,132.11 203.11,89.28 344.25,188.07 430.78,292.18 83.98,101.05 116.48,207.11 104.27,314.38 -12.21,107.4 -69.22,216.11 -164.25,322.27 -152.28,170.16 -402.1,333.69 -721.63,474.89 -235.41,104.02 -289.71,187.61 -258.42,262.11 27.42,65.23 120.84,122.83 215.39,181.13 97.88,60.33 196.98,121.43 224.02,191.69 33.91,88.11 -45.72,191.67 -384.18,328.68 -583.04,236.01 -804.753,432.37 -772.191,619.96 32.515,187.36 319.041,365.15 752.611,564.59 275.79,126.84 478.01,272.35 582.97,419.57 60.67,85.12 88.77,170.79 79.7,253.68 -9.07,82.9 -55.34,163.16 -143.41,237.53 -148.72,125.57 -416.38,234.17 -825.05,310.08 -258.63,48.04 -349.739,110 -337.37,180.04 20.52,116.17 329.25,253.04 627.77,385.37 278.98,123.68 549.01,243.4 564.49,336.68 8.46,50.95 -60.42,94.49 -247.89,127.21 -162.45,28.36 -317.2,52.67 -457.91,74.78 -413.42,64.95 -705.975,110.91 -725.132,186.85 -18.984,75.27 230.692,178.09 897.462,354.95 805.72,213.72 1086.28,310.45 1067.1,386.5 -12.67,50.27 -157.01,92.93 -367.42,155.12 -88.67,26.21 -189.03,55.88 -296.06,91.03 l -14.5,4.76 c -266.99,87.68 -481.42,158.11 -591.34,236.22 h 7.17 c 110.47,-76.19 322.36,-145.79 585.44,-232.18 l 14.49,-4.77 c 107.19,-35.2 207.4,-64.82 295.93,-90.99 211.76,-62.6 357.03,-105.54 370.29,-158.13 19.99,-79.26 -261.4,-177.15 -1070.06,-391.65 -663.89,-176.11 -912.778,-277.34 -894.503,-349.79 18.466,-73.23 309.903,-119.02 721.753,-183.73 140.56,-22.08 295.15,-46.37 457.97,-74.79 190.4,-33.23 260.18,-78.54 251.29,-132.08 -15.86,-95.57 -286.91,-215.73 -566.94,-339.87 -297.52,-131.89 -605.22,-268.31 -625.34,-382.23 -11.91,-67.49 78.36,-127.63 334.03,-175.13 409.42,-76.06 677.72,-184.98 826.95,-310.98 88.96,-75.11 135.71,-156.34 144.91,-240.33 9.19,-84.01 -19.2,-170.67 -80.5,-256.65 -105.36,-147.81 -308.16,-293.79 -584.61,-420.95 -432.34,-198.86 -718.001,-375.83 -750.213,-561.44 -32.178,-185.37 188.823,-380.18 769.613,-615.27 341.43,-138.21 421.34,-243.76 386.54,-334.18 -27.57,-71.61 -127.27,-133.08 -225.76,-193.79 -93.96,-57.93 -186.81,-115.18 -213.7,-179.18 -30.32,-72.16 23.71,-153.77 256.24,-256.52 320.05,-141.43 570.36,-305.32 723.05,-475.91 95.61,-106.84 152.99,-216.35 165.31,-324.67 12.35,-108.44 -20.46,-215.61 -105.24,-317.61 -86.94,-104.6 -228.58,-203.77 -432.3,-293.33 -257.86,-113.35 -555.05,-123.63 -810.55,-132.45 -229.43,-7.92 -425.186,-14.68 -527.904,-93.87 C 709.083,1336.38 812.293,975.991 1512.09,0 h -5.12"
         fill="currentColor"
         id="path1868" />
      <path
         d="M 1580.41,0 C 823.639,1012.66 697.354,1374.28 874.012,1514.96 c 94.161,74.98 274.048,86.74 490.258,100.87 242.84,15.88 531.63,34.76 795.37,149.54 235.9,102.67 400.24,212.49 499.66,326.08 85.78,97.99 123.19,198.78 116.54,300.18 -6.65,101.48 -57.4,203.71 -147.95,304.5 -137.59,153.14 -366.92,302.86 -672.93,441.57 -281.86,127.76 -337.14,222.29 -301.48,305.03 23.09,53.55 84.37,101.74 146.81,150.83 62.4,49.07 125.96,99.04 152.95,155.7 43.67,91.63 -8.52,201.71 -317.16,356.39 -492.42,246.75 -672.312,451.31 -640.299,641.65 31.979,190.15 275.659,365.45 630.519,554.19 236.71,125.9 425.96,276.16 529.37,429.64 60.71,90.09 91.81,181.27 85.51,269.22 -6.3,87.88 -49.97,172.67 -138.81,250.07 -123.09,107.23 -332.75,200.25 -649.56,267.71 -227.42,48.42 -305.25,109.99 -291.26,179.07 22.85,112.89 294.03,244.49 555.79,371.51 246.04,119.4 483.72,234.74 497.1,324.92 8.15,54.86 -68.03,100.95 -278.44,133.8 -118.22,18.45 -231.79,35.33 -338.97,51.25 -486.58,72.27 -841.843,125.05 -862.662,212.44 -19.177,80.52 245.383,188.69 952.262,365.76 821.95,205.89 1111.35,310.86 1092.17,391.4 -14.56,61.12 -207.77,109.69 -481.02,178.4 -83.92,21.09 -175.37,44.08 -271.51,69.94 -247.95,66.69 -439.36,130.36 -553.68,200.45 h 7.61 c 114.25,-68.25 303.22,-130.75 547.11,-196.35 96.11,-25.85 187.54,-48.83 271.43,-69.93 274.68,-69.05 468.92,-117.89 484.07,-181.52 19.9,-83.51 -270.31,-189.87 -1095.22,-396.51 -703.972,-176.34 -967.72,-282.88 -949.203,-360.64 20.152,-84.61 374.253,-137.2 859.223,-209.25 107.47,-15.96 221.36,-32.87 339,-51.24 213.38,-33.31 290.46,-81.17 281.93,-138.63 -13.72,-92.41 -252.39,-208.23 -499.43,-328.12 -260.85,-126.58 -531.07,-257.71 -553.5,-368.54 -13.48,-66.53 63.56,-126.26 288.04,-174.05 317.54,-67.61 527.8,-160.97 651.4,-268.64 89.75,-78.19 133.88,-163.98 140.26,-253 6.37,-88.95 -24.99,-181.04 -86.24,-271.92 -103.81,-154.07 -293.58,-304.8 -530.88,-431.01 -353.74,-188.15 -596.63,-362.62 -628.331,-551.13 -31.674,-188.33 147.611,-391.37 638.041,-637.13 311.56,-156.13 363.77,-268.24 319.06,-362.06 -27.41,-57.55 -91.38,-107.84 -154.16,-157.21 -62,-48.76 -122.87,-96.61 -145.52,-149.17 -34.7,-80.47 20.43,-173.02 299.35,-299.45 306.53,-138.93 536.32,-288.99 674.29,-442.57 91.21,-101.51 142.34,-204.61 149.05,-307.09 6.72,-102.56 -31.03,-204.39 -117.6,-303.29 -99.81,-114.05 -264.62,-224.23 -501.12,-327.15 C 1896.86,1646.41 1607.7,1627.49 1364.54,1611.61 1149.03,1597.51 969.715,1585.79 876.553,1511.6 701.855,1372.5 829.033,1011.99 1585.62,0 h -5.21"
         fill="currentColor"
         id="path1870" />
      <path
         d="M 1656.64,0 C 839.6,1050.01 687.247,1410.74 860.091,1553.01 945.947,1623.69 1111.73,1640 1316,1660.1 c 230.38,22.66 509.84,50.16 778.07,165.82 272.2,117.36 463,237.79 576.69,359.96 87.05,93.53 128.84,188.05 127.3,282.95 -1.52,94.91 -46.4,190.37 -132.66,285.75 -125.05,138.27 -336.96,276.31 -629.84,412.26 -346.67,160.92 -397.07,266.15 -356.2,358.74 17.13,38.81 50.34,75.2 84.43,112.56 28.04,30.71 56.69,62.1 77.29,95.91 59.98,98.42 51.62,218.14 -240.11,405.12 -401.79,257.51 -539.86,470.24 -508.39,663.31 31.44,192.94 232.27,365.73 508.37,543.76 195.28,125.91 374.8,283.53 479.75,445.76 62.56,96.68 98.6,194.97 95.65,289.07 -2.94,93.97 -44.83,183.91 -138.12,264.05 -98.01,84.21 -252.69,157.62 -478.42,213.59 -196.9,48.82 -261.37,110.03 -245.28,178.22 25.66,108.87 259.28,234.33 484.73,355.39 214.61,115.24 421.78,226.5 433.32,314 7.86,59.61 -76.31,108.8 -313.39,141.68 -61.48,8.53 -120.77,16.65 -178.67,24.59 -578.74,79.31 -1018.943,139.64 -1041.792,241.02 -19.354,85.86 260.139,199.6 1007.282,376.7 839.19,198.91 1137.52,311.11 1118.33,396.25 -16.79,74.47 -277.38,129.89 -631.58,205.23 -67.59,14.36 -138.56,29.46 -211.08,45.36 -220.29,48.34 -389.65,100.88 -502.43,159.92 h 8.67 c 112.21,-57.21 278.87,-108.42 494.62,-155.76 73.57,-16.14 143.99,-31.12 211.04,-45.38 355.7,-75.64 617.41,-131.3 634.79,-208.43 19.83,-87.95 -279.29,-201.72 -1121.44,-401.33 -744.231,-176.4 -1022.911,-288.45 -1004.179,-371.6 22.216,-98.53 461.189,-158.7 1038.299,-237.78 58.6,-8.03 118.64,-16.26 178.69,-24.59 240.06,-33.29 325.14,-84.24 316.93,-146.45 -11.82,-89.66 -219.93,-201.42 -435.5,-317.19 -224.63,-120.62 -457.4,-245.62 -482.63,-352.62 -15.48,-65.66 48.25,-125.02 242.24,-173.11 226.4,-56.14 381.64,-129.84 480.11,-214.45 94.27,-81 136.61,-172 139.6,-267.18 2.97,-95.05 -33.33,-194.16 -96.34,-291.55 -105.3,-162.75 -285.27,-320.79 -480.99,-447 -275.18,-177.43 -475.31,-349.42 -506.5,-540.86 -31.18,-191.31 106.4,-402.59 506.49,-659.02 294.66,-188.85 302.61,-310.59 241.44,-410.96 -20.79,-34.12 -49.59,-65.67 -77.79,-96.57 -33.84,-37.08 -66.81,-73.2 -83.67,-111.4 -39.89,-90.37 10.53,-193.63 354.13,-353.14 293.38,-136.18 505.74,-274.54 631.16,-413.23 86.98,-96.17 132.22,-192.57 133.77,-288.57 1.55,-96.04 -40.61,-191.57 -128.43,-285.94 C 2559.68,2060.37 2368.41,1939.61 2095.68,1822.02 1826.85,1706.1 1547.04,1678.57 1316.39,1655.88 1112.8,1635.85 947.577,1619.59 862.682,1549.71 691.88,1409.12 845.054,1049.46 1661.92,0 h -5.28"
         fill="currentColor"
         id="path1872" />
      <path
         d="M 1735.77,0 C 854.833,1088.72 673.986,1447.56 843.953,1592.29 c 78.874,67.16 233.027,87.74 427.697,113.72 217.89,29.09 486.68,64.97 756.88,180.46 515.24,220.23 782.1,431.52 797.64,645.6 15.52,213.98 -220.17,431.37 -710.02,663.92 -529.6,251.41 -468.96,360.99 -396.36,492.18 61.55,111.2 131.82,238.16 -154,484.6 -311.09,268.24 -407.33,489.12 -376.41,684.89 30.9,195.71 188.84,365.95 386.17,533.27 196.79,166.85 437.02,405.33 519.17,634.01 81.88,227.93 6.2,446.34 -427.92,574.34 -167.39,49.36 -218.28,110.41 -199.35,177.93 29.11,103.81 225.39,221.92 415.1,336.08 184.88,111.25 363.5,218.74 373.4,304.01 7.6,65.46 -85.3,118.51 -353.56,151.27 -602.41,73.55 -1094.809,135.7 -1212.894,230.11 -119.855,95.81 136.883,223.06 1035.894,425.06 857.21,192.61 1164.55,311.27 1145.37,401.06 -19.53,91.37 -377.84,154.68 -839.02,236.15 l -94.65,16.75 c -188.36,33.44 -336.63,73.31 -444.67,119.37 h 10.84 c 106.86,-44.28 251.75,-82.75 434.52,-115.19 l 94.65,-16.75 c 462.74,-81.74 822.25,-145.26 842.38,-239.44 19.76,-92.5 -288.38,-212.83 -1148.54,-406.1 C 833.58,8019.01 576.61,7894.28 692.031,7802.01 c 117.181,-93.69 609.049,-155.74 1210.849,-229.23 271.27,-33.12 365.08,-87.94 357.19,-155.98 -10.15,-87.35 -189.65,-195.36 -375.43,-307.16 -189,-113.73 -384.55,-231.41 -413.2,-333.6 -18.23,-65.01 32,-124.17 196.49,-172.67 437.36,-128.97 513.42,-349.55 430.68,-579.88 -82.48,-229.58 -323.23,-468.64 -520.42,-635.84 -196.65,-166.74 -354.04,-336.27 -384.73,-530.66 -30.69,-194.31 65.2,-413.87 374.99,-680.98 288.45,-248.7 217.27,-377.31 154.93,-489.94 -71.39,-129 -131.02,-236.75 394.51,-486.24 491.59,-233.36 728.08,-452.12 712.41,-668.06 -15.67,-215.86 -283.38,-428.32 -800.19,-649.22 -270.67,-115.69 -539.77,-151.61 -757.92,-180.73 -194.02,-25.9 -347.642,-46.41 -425.606,-112.79 C 678.782,1446.14 860.352,1088.29 1741.13,0 h -5.36"
         fill="currentColor"
         id="path1874" />
      <path
         d="m 1817.3,0 c -11.63,14.0797 -22.69,27.7805 -34.7,42.1102 C 864.126,1137.62 659.277,1486.42 825.426,1632.91 c 73.259,64.59 218.454,89.33 406.334,121.33 205.51,35.01 462.23,78.74 731.21,192.78 534.77,226.73 842.89,425.56 892.36,627.93 49.37,201.99 -159.51,408.21 -658.57,650.19 -585.59,283.91 -564.26,381.62 -532.94,525.19 22.07,101.14 49.16,225.32 -133.23,456.16 -220.39,278.92 -274.78,507.9 -244.41,706.36 30.35,198.39 145.37,366.04 263.86,522.58 35.88,47.4 82.61,102.15 133.57,161.86 140.92,165.11 314.26,368.21 379.37,557.92 66.37,193.38 19.95,373.1 -289.23,484.68 -139.34,50.29 -176.11,111.75 -152.96,179.2 33.36,97.22 192.62,206.15 347.14,311.85 157.1,107.45 309.28,211.55 317.73,295.1 7.36,72.72 -95.07,130.67 -400.07,163.1 -617.78,65.71 -1119.998,132.18 -1234.579,232.3 -116.16,101.51 157.302,235.93 1093.759,435.72 931.2,198.67 1230.01,326.74 1165.69,423.05 -64.95,97.24 -494.34,163.88 -1017.99,238.04 -148.21,21 -270.56,47.48 -368.04,78.82 h 13.97 c 95.08,-29.5 213.01,-54.56 354.65,-74.62 524.64,-74.3 954.91,-141.15 1020.82,-239.85 66.54,-99.62 -232.59,-229.96 -1168.26,-429.59 C 815.196,8054.51 541.542,7922.67 653.687,7824.67 767.42,7725.29 1268.95,7658.98 1886.01,7593.36 c 308.05,-32.76 411.37,-92.47 403.76,-167.76 -8.65,-85.53 -161.62,-190.16 -319.54,-298.18 -153.95,-105.3 -312.64,-213.85 -345.55,-309.72 -22.31,-65.02 13.94,-124.55 150.43,-173.81 312.15,-112.65 358.91,-294.41 291.76,-490.08 -65.37,-190.49 -239,-393.93 -380.15,-559.32 -50.91,-59.64 -97.6,-114.34 -133.41,-161.65 -118.16,-156.1 -232.85,-323.24 -263.06,-520.64 -30.19,-197.34 24.02,-425.21 243.54,-703.04 183.66,-232.44 156.32,-357.71 134.06,-459.74 -30.9,-141.61 -51.92,-237.98 530.67,-520.45 501.16,-242.99 710.75,-450.77 660.82,-655.04 -49.83,-203.88 -358.77,-403.57 -894.8,-630.83 -269.4,-114.22 -526.39,-157.99 -732.12,-193.04 C 1045.2,1718.17 900.505,1693.52 828.11,1629.69 664.375,1485.32 869.365,1137.86 1785.74,44.8703 1798.54,29.6008 1810.35,14.9805 1822.7,0 h -5.4"
         fill="currentColor"
         id="path1876" />
      <path
         d="m 1901.77,0 c -25.74,30.7102 -52.48,62.0508 -80.29,94.0609 C 870.394,1188.7 640.976,1525.73 804.354,1674.99 c 69.063,63.11 208.206,92.11 392.656,130.56 193.27,40.28 436.42,90.95 700.4,202.02 554.3,233.21 903.72,419.58 987.14,610.25 83.13,190 -98.95,385.09 -607.19,636.47 -684.23,338.42 -686.1,406.49 -691.14,589.54 -2.45,89.36 -5.66,206.33 -90.84,396.53 -217.27,485.15 -105.76,822.7 -17.14,1090.91 17.14,51.85 33.41,101.11 46.26,148.28 24.24,88.96 119.91,210.52 225.15,344.24 107.49,136.57 224.98,285.87 286.18,425.56 75.35,172.02 65.18,329.65 -155.18,431.17 -113.78,52.42 -134.86,115.94 -104.57,185.09 38.49,87.86 160.74,184.4 280.1,278.65 131.62,103.94 259.72,205.11 266.89,287.55 7.11,81.81 -105.65,146.05 -454.28,177.91 -633.14,57.85 -1145.177,128.64 -1256.263,234.5 -112.485,107.19 177.702,248.77 1151.623,446.37 968.56,196.51 1270.25,332.32 1190.13,433.97 -80.99,102.75 -545.16,172.2 -1106.42,234.25 -92.78,10.26 -175.19,23.09 -247.68,38.26 h 21.14 c 67.33,-13.34 142.88,-24.75 226.98,-34.05 562.2,-62.15 1027.3,-131.91 1109.2,-235.8 82.75,-104.99 -219.06,-243.28 -1192.56,-440.79 C 796.827,8090.01 506.485,7951.06 615.347,7847.32 725.608,7742.25 1236.82,7671.71 1869.15,7613.94 c 351.71,-32.14 465.36,-98.15 458.03,-182.5 -7.32,-84.29 -136.14,-186.02 -268.47,-290.53 -118.96,-93.94 -240.79,-190.15 -278.85,-277.04 -29.27,-66.8 -8.53,-128.35 102.47,-179.48 223.27,-102.86 233.6,-262.54 157.27,-436.76 -61.43,-140.21 -179.1,-289.73 -286.73,-426.49 -104.96,-133.38 -200.38,-254.61 -224.39,-342.73 -12.89,-47.32 -29.18,-96.61 -46.32,-148.49 -88.39,-267.52 -199.62,-604.18 16.98,-1087.8 85.53,-190.98 88.75,-308.44 91.22,-398.18 4.97,-181.16 6.83,-248.54 688.79,-585.84 510.77,-252.63 693.43,-449.42 609.18,-642 -83.97,-191.91 -434.09,-378.83 -989.34,-612.45 -264.34,-111.21 -507.71,-161.94 -701.17,-202.26 -183.8,-38.3 -322.465,-67.21 -390.718,-129.56 C 646.27,1524.88 875.634,1189.05 1824.57,96.8797 c 28.68,-33 56.15,-65.25 82.63,-96.8797 h -5.43"
         fill="currentColor"
         id="path1878" />
      <path
         d="m 1987.81,0 c -39.98,47.1703 -81.97,95.5398 -127.46,146.02 -985.5,1093.44 -1242.066,1418.82 -1079.741,1572.66 66.36,62.91 202.695,96.55 387.841,142.23 181.05,44.67 408.9,100.9 663.41,207.22 573.81,239.69 964.55,413.58 1081.96,592.54 116.84,178.05 -38.48,362.01 -555.86,622.76 l -117.12,58.96 c -411.24,206.9 -594.25,298.96 -678.8,392.27 -68.1,75.13 -72.32,150.65 -79.92,286.7 -3.75,67.14 -8.33,149.09 -21.84,253.03 -42.36,325.82 -4.25,586.69 26.97,800.32 26.23,179.52 47.57,325.64 12.07,448.51 -31.88,110.37 112.69,283.97 267.4,469.74 90.91,109.18 185.34,222.57 249.33,329.5 95.04,158.82 122.85,303.46 -28.57,398.74 -93.33,58.73 -92.46,130.05 -46.51,206.85 42.99,71.83 125.61,148.33 207.07,223.75 108.93,100.85 215.77,199.77 221.78,281.83 6.84,93.26 -117.11,165.76 -517.84,196.66 -513.26,39.56 -947.132,94.83 -1158.9,171.36 -78.74,28.46 -127.025,60.03 -137.613,95.04 -10.702,35.36 16.658,73.68 89.381,115.19 153.165,87.43 509.492,190.58 1138.682,312.14 1005.94,194.35 1310.5,337.93 1214.56,444.92 -95.56,106.57 -580.93,178.29 -1167.66,228.13 h 49.18 c 565.56,-49.74 1027.82,-120.76 1121.52,-225.25 98.95,-110.35 -205.54,-256.58 -1216.84,-451.97 -628.73,-121.47 -984.641,-224.45 -1137.437,-311.67 -70.706,-40.36 -97.496,-77.01 -87.435,-110.25 10.163,-33.6 57.554,-64.27 135.037,-92.28 211.376,-76.39 644.885,-131.59 1157.825,-171.14 403.86,-31.13 528.69,-105.41 521.67,-201.2 -6.14,-83.76 -113.58,-183.24 -223.14,-284.67 -81.24,-75.21 -163.64,-151.51 -206.3,-222.8 -44.68,-74.65 -45.54,-143.97 45.13,-201.02 154.17,-97.01 126.22,-243.67 29.95,-404.57 -64.15,-107.21 -158.7,-220.74 -249.73,-330.04 -153.96,-184.87 -297.82,-357.62 -266.57,-465.79 35.76,-123.79 14.35,-270.3 -11.95,-450.32 -31.17,-213.39 -69.25,-473.96 -26.96,-799.16 13.53,-104.15 18.12,-186.16 21.87,-253.35 7.54,-135.06 11.73,-210.02 78.81,-284.05 84.05,-92.74 266.84,-184.7 677.6,-391.34 l 117.12,-58.96 c 520.41,-262.3 676.14,-448.1 557.48,-628.94 C 2799.18,2478.35 2407.91,2304.18 1833.41,2064.19 1578.69,1957.79 1350.63,1901.5 1169.4,1856.79 984.88,1811.26 848.997,1777.73 783.407,1715.57 623.795,1564.29 880.074,1239.91 1863.39,148.891 1909.8,97.4 1952.61,48.0703 1993.31,0 h -5.5"
         fill="currentColor"
         id="path1880" />
      <path
         d="M 2076.42,0 C 2022.64,62.95 1964.12,128.641 1899.24,197.96 877.778,1289.38 590.973,1603.55 754.071,1764.07 c 65.234,64.21 202.466,103.2 393.479,157.46 168.54,47.88 379.03,107.68 618.75,207.14 78.04,32.38 154.48,63.78 227.77,93.88 540.73,222.11 909.24,373.49 990.9,540.85 72.57,148.74 -82.5,311.17 -546.4,549.18 -239.87,123.07 -428.32,209.46 -575.1,276.76 -501.07,229.73 -518.01,237.49 -438.11,719.09 25.67,154.79 56.2,295.34 83.92,422.95 83.32,383.62 141.21,650.14 -34.64,835.81 -114.93,121.35 91.57,340.7 304.04,566.4 226.35,240.42 459.51,488.1 315.52,628.45 -108.59,105.83 21.29,248.29 149.69,389.12 89.89,98.59 179.07,196.39 184.07,279.22 6.49,107.65 -129.69,191.08 -592.79,220.48 -522.19,33.15 -962.515,89.31 -1177.107,168.76 -80.054,29.64 -128.94,62.69 -139.309,99.19 -10.461,36.83 17.94,76.66 92.639,119.44 159.506,91.35 532.077,197.7 1191.517,319.19 650.45,119.82 1015.1,224.15 1170.5,313.28 71.81,41.19 98.5,78.8 87.8,112.9 -10.83,34.47 -59.44,65.9 -138.04,94.28 -136.77,49.4 -363.64,89.07 -640.04,119.17 h 38.2 c 259.62,-29.6 472.46,-67.94 603.21,-115.16 79.83,-28.83 129.34,-61.15 140.59,-97 11.38,-36.22 -15.86,-75.53 -89.71,-117.89 -155.77,-89.34 -520.85,-193.83 -1171.79,-313.75 -658.95,-121.38 -1031.091,-227.58 -1190.231,-318.72 -72.717,-41.65 -100.547,-79.81 -90.682,-114.56 9.967,-35.08 57.972,-67.22 136.738,-96.38 214.199,-79.3 654.125,-135.4 1175.955,-168.52 466.29,-29.6 603.32,-114.82 596.67,-224.96 -5.09,-84.35 -94.76,-182.71 -185.18,-281.87 -127,-139.3 -255.47,-280.2 -149.84,-383.15 147,-143.3 -87.63,-392.53 -315.39,-634.46 -211.07,-224.2 -416.22,-442.11 -304.07,-560.5 177.41,-187.31 119.32,-454.75 35.71,-839.69 -27.7,-127.51 -58.2,-267.96 -83.88,-422.72 -79.36,-478.38 -62.52,-486.1 435.72,-714.53 146.8,-67.3 335.27,-153.72 575.26,-276.84 466.53,-239.37 622.1,-403.51 548.25,-554.87 -82.36,-168.81 -451.46,-320.42 -993.06,-542.88 -72.47,-29.77 -148.06,-60.82 -227.75,-93.88 -239.87,-99.53 -450.53,-159.38 -619.2,-207.29 C 958.229,1863.35 821.415,1824.48 756.934,1761.02 596.752,1603.37 882.993,1289.94 1902.21,200.9 1968.1,130.511 2027.44,63.8508 2081.94,0 h -5.52"
         fill="currentColor"
         id="path1882" />
      <path
         d="M 2167.37,0 C 2100.48,78.0508 2024.45,161.17 1938.12,249.92 1864.9,325.17 1795.21,396.68 1728.98,464.641 1020.91,1191.18 706.997,1513.28 684.771,1694.02 c -17.84,145.13 150.072,198.66 451.699,294.84 155.02,49.42 345.51,110.16 564.28,200.36 181.12,74.67 349.99,140.24 502.87,199.61 455.18,176.75 768.55,298.43 838.79,439.99 65.47,131.94 -81.33,282.31 -523.24,512.91 -331.27,172.85 -592.35,272.91 -786.76,347.42 -93.89,35.99 -172.25,66.02 -235.45,95.4 -232.36,108.02 -261.38,207.24 -106.38,557.83 141.93,321.06 254.63,582.19 282.78,791.21 28.07,208.4 -28.05,365.1 -223.44,478.08 -92.26,53.34 -93.65,131.52 -42.98,223.66 68.38,124.37 232.11,274.27 394.17,422.63 231.46,211.91 459.51,420.69 399.73,545.24 -44.99,93.7 47.97,213.7 141.97,335.03 76.05,98.13 152.77,197.17 156.88,282.82 6.03,125.4 -144.06,223.26 -681.32,250.38 -531.18,26.81 -978.03,83.82 -1195.46,166.11 -81.353,30.8 -130.843,65.31 -140.995,103.31 -10.235,38.31 19.194,79.66 95.834,123.71 165.833,95.35 554.681,205 1244.541,326.31 667.15,117.32 1040.94,223.23 1199.38,315.12 73.62,42.68 100.31,82.02 88.07,117.77 -12.37,36.15 -64.12,69.18 -147.12,98.77 -79.07,28.19 -186.34,53.12 -314.86,74.54 h 25.12 c 117.96,-20.52 216.91,-44.09 291.1,-70.54 84.21,-30.02 136.83,-63.89 149.66,-101.38 12.98,-37.9 -14.24,-78.96 -89.93,-122.85 -158.83,-92.11 -533.07,-198.2 -1200.73,-315.61 -689.35,-121.22 -1077.756,-230.7 -1243.215,-325.82 -74.7,-42.96 -103.557,-82.65 -93.869,-118.9 9.755,-36.56 58.372,-70.13 138.438,-100.44 217.05,-82.16 663.446,-139.08 1194.216,-165.86 540.5,-27.29 691.41,-126.96 685.28,-254.82 -4.18,-87.02 -81.33,-186.6 -157.78,-285.27 -93.18,-120.27 -185.33,-239.21 -141.51,-330.51 61.18,-127.42 -168.03,-337.28 -400.68,-550.27 -161.81,-148.13 -325.28,-297.8 -393.33,-421.55 -49.42,-89.88 -48.22,-166.08 41.41,-217.9 197.19,-114.01 253.83,-272.1 225.52,-482.34 -28.24,-209.62 -141.05,-471.01 -283.12,-792.37 -153.57,-347.38 -125.04,-445.59 104.32,-552.22 63.15,-29.36 141.42,-59.35 235.19,-95.3 194.55,-74.56 455.81,-174.69 787.19,-347.61 444.55,-231.98 591.83,-384.05 525.06,-518.62 -70.97,-143.01 -384.94,-264.93 -841.02,-442.03 -152.92,-59.38 -321.81,-124.96 -502.79,-199.58 -218.96,-90.27 -409.51,-151.03 -564.58,-200.47 -299.52,-95.5 -466.256,-148.66 -448.841,-290.26 22.04,-179.3 335.651,-501.08 1043.041,-1226.92 66.23,-67.96 135.91,-139.47 209.13,-214.72 C 2028.46,163.051 2105.31,78.9602 2172.92,0 h -5.55"
         fill="currentColor"
         id="path1884" />
      <path
         d="M 2260.03,0 C 2181.05,92.5203 2087.39,192.851 1977,301.87 1824.11,452.851 1685.2,588.891 1560.15,711.34 965.208,1293.95 684.135,1569.19 654.758,1735.96 c -26.507,150.52 149.661,212.06 483.582,328.7 139.2,48.62 305.92,106.86 496.85,185.1 264.41,108.36 508.31,195.24 718.67,270.17 405.74,144.53 686.6,244.57 748.97,368.27 59.5,118 -80.83,258.78 -503.06,482.67 -382.41,202.77 -706.18,305.11 -945.66,380.81 -174.6,55.18 -304.47,96.23 -379.93,151.81 -118.1,86.99 -103.27,208.63 81.68,472.68 232.3,331.65 386.7,600.83 414.31,812.6 27.53,211.07 -71.28,365.22 -345.13,467.59 -117.79,44.04 -146.21,110.57 -117.67,190.83 52.4,147.43 299,340.91 534.4,525.62 235.87,185.06 460.48,361.3 465.93,471.99 3.69,75.07 66.64,165.82 131.95,259.97 70.65,101.84 144.09,207.71 147.46,300.93 5.29,146.29 -162.37,262.59 -785.56,286.3 -540.18,20.56 -993.589,78.33 -1213.913,163.44 -82.645,31.93 -132.749,67.89 -142.685,107.38 -10.01,39.77 20.431,82.64 98.995,127.99 172.134,99.41 577.303,212.42 1297.723,333.48 683.98,114.95 1066.97,222.4 1228.53,316.99 75.43,44.17 102.13,85.21 88.38,122.6 -13.93,37.84 -68.77,72.47 -156.17,103.29 -29.57,10.43 -62.89,20.4 -99.54,29.9 h 16.55 c 30.69,-8.28 58.9,-16.91 84.34,-25.88 88.57,-31.24 144.29,-66.69 158.68,-105.81 14.57,-39.56 -12.65,-82.37 -90.21,-127.78 C 2910.3,8642.78 2526.84,8535.14 1842.33,8420.11 1122.45,8299.14 717.733,8186.3 545.959,8087.12 c -76.654,-44.27 -106.512,-85.51 -97.009,-123.25 9.568,-38.03 58.79,-73.03 140.15,-104.47 219.913,-84.95 672.84,-142.62 1212.6,-163.16 626.43,-23.84 794.91,-141.98 789.53,-290.7 -3.41,-94.49 -77.21,-200.87 -148.21,-303.23 -64.95,-93.63 -127.56,-183.89 -131.2,-257.72 -5.55,-112.65 -230.9,-289.47 -467.54,-475.16 -234.93,-184.33 -481.03,-377.42 -533.03,-523.68 -27.65,-77.8 0.22,-142.41 115.2,-185.4 276.05,-103.2 375.63,-258.85 347.82,-472.13 -27.73,-212.59 -182.39,-482.34 -415.06,-814.52 -183.14,-261.47 -198.32,-381.56 -82.62,-466.78 74.91,-55.17 204.51,-96.14 378.73,-151.2 239.65,-75.75 563.63,-178.14 946.34,-381.09 424.87,-225.28 565.66,-367.77 504.85,-488.36 -63.13,-125.2 -344.63,-225.48 -751.29,-370.34 -210.28,-74.9 -454.09,-161.74 -718.49,-270.1 -191.05,-78.29 -357.82,-136.55 -497.06,-185.18 C 807.955,1944.78 632.944,1883.64 658.818,1736.71 687.954,1571.31 968.709,1296.38 1563,714.41 1687.78,592.22 1826.39,456.48 1979.86,304.93 2091.41,194.77 2186.02,93.4102 2265.68,0 h -5.65"
         fill="currentColor"
         id="path1886" />
      <path
         d="m 2354.2,0 c -89.38,106.15 -200.89,223.59 -338.32,353.82 -218.59,207.14 -409.41,384.56 -574.2,537.8 -522.435,485.75 -783.868,728.84 -819.932,886.46 -36.395,159.09 154.263,230.36 535.902,373.01 119.1,44.52 256.86,96.02 411.98,159.22 335.54,136.73 645.62,235.81 902.21,317.79 376.14,120.17 637.19,203.58 693.92,314.39 54.52,106.47 -80.62,239.59 -485.39,457.52 -416.79,224.41 -802.58,325.74 -1088.12,400.74 -218.46,57.38 -378.36,99.38 -449.05,169.45 -84.35,83.62 -42.24,206.1 177.9,439.62 322.68,342.32 518.79,619.61 545.87,834.14 26.99,213.79 -114.55,365.42 -466.93,457.18 -151.44,39.44 -199.74,103.14 -180.25,181.8 40.52,163.64 378.17,391.48 686.49,599.55 235.49,158.9 453.84,306.25 508.75,403.82 24.62,43.74 59.88,92.41 97.05,143.71 83.34,115.04 176.3,243.36 179.13,357.22 4.2,168.63 -189.65,306.58 -906.47,325.34 -549.22,14.37 -1009.238,72.84 -1232.474,160.73 -83.948,33.05 -134.661,70.43 -144.401,111.4 -9.797,41.23 21.645,85.61 102.104,132.29 178.436,103.53 599.971,219.98 1351.071,340.72 700.92,112.66 1093.18,221.63 1257.9,318.89 77.28,45.63 104.01,88.36 88.74,127.41 -13.14,33.56 -56.94,64.76 -126.09,93.05 h 10.91 c 64.83,-27.74 106.06,-58.39 119.01,-91.48 16.13,-41.22 -11.1,-85.76 -90.51,-132.65 -165.12,-97.49 -557.87,-206.65 -1259.33,-319.4 -750.56,-120.65 -1171.618,-236.92 -1349.667,-340.22 -78.6,-45.6 -109.446,-88.37 -100.12,-127.62 9.386,-39.49 59.222,-75.9 141.859,-108.44 222.804,-87.73 682.318,-146.09 1231.088,-160.45 720.07,-18.84 914.76,-158.68 910.51,-329.66 -2.86,-115.22 -96.24,-244.11 -179.94,-359.65 -37.12,-51.23 -72.33,-99.84 -96.79,-143.29 -55.4,-98.46 -274.15,-246.06 -510.06,-405.26 -307.68,-207.62 -644.62,-434.99 -684.75,-597.05 -18.84,-76.12 28.7,-137.95 177.26,-176.64 354.84,-92.4 497.3,-245.58 470,-461.84 -27.22,-215.54 -223.7,-493.59 -546.98,-836.53 -218.04,-231.31 -260.32,-352.06 -178.01,-433.64 69.92,-69.31 229.35,-111.19 447.2,-168.4 285.75,-75.06 671.84,-176.46 1089.02,-401.08 407.4,-219.35 542.97,-354.18 487.13,-463.25 -57.53,-112.37 -319.24,-195.99 -696.35,-316.48 C 2216.5,2542.07 1906.44,2443 1571.15,2306.38 1415.75,2243.06 1278.09,2191.6 1159.06,2147.11 779.728,2005.31 590.211,1934.48 625.782,1779.04 661.558,1622.68 922.667,1379.9 1444.45,894.751 1609.61,741.18 1800.87,563.351 2018.68,356.941 2157.36,225.52 2269.83,107.04 2359.89,0 h -5.69"
         fill="currentColor"
         id="path1888" />
      <path
         d="m 2449.53,0 c -97.27,118.75 -226.83,253.261 -394.77,405.77 -270.23,245.421 -502.1,449.36 -696.53,620.37 -477.583,420.07 -729.398,641.56 -772.264,794.07 -48.126,171.26 164.74,254.5 615.014,430.57 91.26,35.68 192.31,75.19 303.09,120.09 397.84,161.24 769.8,265.91 1066.75,349.48 358.44,100.87 607.42,170.94 660,272.16 50.38,96.97 -80.48,223.95 -469.84,436.65 -442.92,241.97 -891.75,341.06 -1224.25,414.46 -254.56,56.2 -441.07,97.38 -505.28,176.39 -66.761,82.15 -1.91,203.95 254.9,423.4 413.05,352.98 650.86,638.42 677.41,855.73 26.47,216.58 -157.82,365.69 -588.77,446.82 -189.25,35.63 -256.28,98.35 -242.07,177.77 31.94,178.43 479.99,440.23 867.49,666.64 226.81,132.53 432.85,252.92 522.08,337.01 154.1,145.2 326.97,341.56 280.81,503.76 -46.22,162.43 -311.92,291.33 -1035.37,302.01 -558.3,8.26 -1024.99,67.36 -1251.14,157.98 -85.237,34.16 -136.559,72.96 -146.107,115.4 -9.597,42.69 22.835,88.59 105.182,136.62 184.718,107.71 622.645,227.66 1404.555,348 717.94,110.5 1119.55,220.94 1287.46,320.82 79.14,47.08 105.91,91.49 89.13,132.17 -7.57,18.34 -23.88,36.02 -48.14,52.93 h 7.12 c 22.32,-16.38 37.48,-33.5 44.83,-51.29 17.68,-42.87 -9.57,-89.11 -90.87,-137.48 C 3001.62,8708.18 2599.51,8597.53 1881.02,8486.95 1099.65,8366.69 662.214,8246.94 477.9,8139.46 397.385,8092.51 365.563,8048.2 374.715,8007.48 c 9.213,-40.96 59.662,-78.78 143.583,-112.4 225.723,-90.45 691.862,-149.45 1249.682,-157.69 725.78,-10.73 992.59,-140.94 1039.28,-305.07 46.78,-164.37 -127,-362.04 -281.97,-508.06 -89.56,-84.41 -295.81,-204.92 -522.84,-337.57 -386.72,-225.96 -833.88,-487.23 -865.46,-663.72 -13.76,-76.83 52.4,-137.77 238.75,-172.85 433.58,-81.62 618.91,-232.3 592.13,-451.49 -26.7,-218.47 -265.01,-504.8 -678.89,-858.48 -254.49,-217.47 -319.326,-337.48 -254.36,-417.43 63.29,-77.87 249.21,-118.93 502.97,-174.94 332.72,-73.46 781.87,-172.62 1225.34,-414.88 391.97,-214.13 523.25,-342.83 471.53,-442.38 -53.42,-102.83 -303.1,-173.1 -662.56,-274.25 -296.78,-83.53 -668.55,-188.15 -1066.31,-349.35 -110.61,-44.83 -211.77,-84.39 -303.14,-120.12 C 754.584,2071.68 542.854,1988.89 589.937,1821.37 632.45,1670.09 883.94,1448.9 1360.92,1029.36 1555.25,858.441 1787.01,654.59 2057.5,408.95 2226.79,255.21 2357.35,119.641 2455.28,0 h -5.75"
         fill="currentColor"
         id="path1890" />
      <path
         d="m 2544.88,0 c -101.5,130.13 -248.47,281.53 -451.23,457.72 -311.52,270.7 -575.83,490.091 -793.33,670.64 -452.362,375.5 -702.525,583.15 -752.664,733.8 -62.428,187.58 182.465,285.58 730.294,504.83 50.9,20.36 104.43,41.79 160.58,64.43 454,183.06 885.47,288.29 1219.35,369.71 348.39,84.96 590.35,143.97 639.82,237.89 46.94,89.11 -80.33,211.12 -456.12,419.28 -464.57,257.35 -977.69,353.58 -1357.77,424.86 -287.17,53.86 -498.558,93.5 -556.613,178.01 -55.842,81.3 29.503,202.79 324.343,415.77 503.46,363.68 782.99,657.29 809.02,877.38 25.94,219.38 -201.11,365.99 -710.66,436.47 -229.66,31.76 -315.32,93.9 -304.7,174.6 25.45,193.5 612.68,492.73 1086.58,734.21 206.04,104.97 390.62,199.04 498.08,268.57 130.25,84.29 234.93,184.26 283.48,284.12 30.28,62.28 38.68,124.5 17.75,182.8 -20.98,58.4 -71.43,113.01 -158.83,159.96 -174.3,93.63 -495.01,156.65 -1021.14,158.68 -567.41,2.19 -1040.786,61.9 -1269.898,155.21 -86.515,35.25 -138.462,75.45 -147.817,119.36 -9.405,44.14 23.99,91.57 108.206,140.93 190.979,111.96 645.319,235.45 1458.179,355.35 735.05,108.4 1146.04,220.31 1317.21,322.79 81.01,48.5 107.82,94.58 89.54,136.88 -1.86,4.31 -4.19,8.59 -6.96,12.82 h 4.92 c 2.26,-3.67 4.22,-7.38 5.83,-11.11 19.23,-44.52 -8.04,-92.45 -91.24,-142.26 C 3047.51,8740.97 2636,8628.87 1900.37,8520.38 1088.09,8400.57 634.239,8277.27 443.669,8165.56 361.263,8117.24 328.458,8071.4 337.454,8029.2 c 9.04,-42.42 60.093,-81.62 145.295,-116.33 228.662,-93.14 701.471,-152.72 1268.371,-154.91 526.87,-2.03 848.22,-65.23 1023.05,-159.15 88.39,-47.49 139.48,-102.89 160.8,-162.26 21.36,-59.48 12.86,-122.84 -17.92,-186.15 -48.89,-100.58 -154.12,-201.12 -284.99,-285.81 -107.64,-69.67 -292.32,-163.77 -498.45,-268.8 -473.02,-241.02 -1059.16,-539.69 -1084.32,-730.97 -10.27,-78.1 74.42,-138.48 301.16,-169.84 512.3,-70.85 740.48,-219.05 714.22,-441.15 -26.18,-221.39 -306.3,-515.96 -810.76,-880.36 -292.379,-211.21 -377.575,-330.88 -323.328,-409.86 57.083,-83.09 267.768,-122.61 553.978,-176.29 380.36,-71.33 893.86,-167.63 1358.99,-425.28 378.39,-209.61 506.09,-333.34 457.79,-425.04 -50.36,-95.6 -293.05,-154.78 -642.51,-240 -333.76,-81.4 -765.1,-186.59 -1218.8,-369.53 -56.14,-22.64 -109.67,-44.07 -160.58,-64.44 -545.274,-218.22 -789.031,-315.77 -727.877,-499.5 49.758,-149.5 299.58,-356.88 751.357,-731.88 C 1520.56,950.991 1785.02,731.47 2096.32,460.96 2300.54,283.5 2448.53,131.04 2550.7,0 h -5.82"
         fill="currentColor"
         id="path1892" />
      <path
         d="m 2638.58,0 c -100.44,140.07 -263.08,307.991 -506.05,509.68 -342.73,284.52 -633.45,511.98 -870.43,697.4 -442.091,345.91 -697.295,545.59 -755.162,697.24 -78.322,205.26 201.929,321.16 866.032,587.65 505.23,202.72 995.2,304.63 1364.13,381.34 343.53,71.44 581.92,121.02 629.06,209.32 44.09,82.6 -80.13,200.59 -443.97,404.83 -483.47,271.38 -1062.16,364.39 -1490.31,433.2 -317.71,51.05 -552.699,88.83 -605.399,176.74 -48.415,80.77 56.202,202.46 390.229,413.04 593.89,374.39 915.14,676.17 940.65,899.07 25.42,222.19 -244.41,366.3 -832.57,426.12 -271.85,27.64 -376.218,89.1 -368.291,171.1 20.33,210.25 790.381,554.35 1355.821,807.02 168.07,75.1 318.04,142.12 424.81,195.1 158.25,78.52 268.2,169.33 317.02,260.35 31.01,57.82 37.28,115.74 15.47,170.58 -21.88,55.03 -72.01,107.09 -153.74,153.05 -196.51,110.53 -574.99,185.49 -1181.59,181.47 -576.53,-3.81 -1056.643,56.44 -1288.71,152.41 -87.809,36.32 -140.356,77.92 -149.539,123.29 -9.212,45.59 25.135,94.54 111.199,145.27 197.231,116.23 668.03,243.36 1511.92,362.72 752.25,106.4 1172.67,219.74 1347.12,324.78 66.03,39.76 96.51,78.13 96.19,114.3 h 4.18 c 0.37,-37.69 -30.77,-77.3 -98.28,-117.95 C 3093.49,8773.82 2672.54,8660.28 1919.72,8553.8 1076.39,8434.51 606.104,8307.59 409.298,8191.6 c -84.284,-49.68 -118.041,-97.07 -109.214,-140.73 8.883,-43.88 60.56,-84.46 147.035,-120.22 231.617,-95.8 711.141,-155.92 1287.161,-152.11 607.37,4.02 986.53,-71.15 1183.59,-181.99 82.6,-46.46 133.34,-99.26 155.58,-155.17 22.31,-56.11 15.96,-115.24 -15.68,-174.23 -49.23,-91.78 -159.81,-183.21 -318.85,-262.12 C 2632.14,6952.04 2482.1,6885 2313.97,6809.87 1749.47,6557.62 980.707,6214.09 960.612,6006.31 c -7.675,-79.38 95.668,-139.12 364.588,-166.47 590.99,-60.11 862.01,-205.81 836.27,-430.81 -25.66,-224.3 -347.58,-527.12 -942.59,-902.21 -331.479,-208.97 -435.845,-328.85 -388.874,-407.19 51.719,-86.27 285.894,-123.92 602.514,-174.79 428.45,-68.87 1007.56,-161.94 1491.65,-433.67 366.43,-205.68 491.07,-325.41 445.61,-410.57 -48.05,-90.02 -287.23,-139.77 -631.87,-211.44 C 2369.16,2792.48 1879.42,2690.64 1374.47,2488.02 713.078,2222.62 433.955,2107.23 510.791,1905.87 568.24,1755.31 823.092,1555.9 1264.61,1210.45 1501.56,1025.05 1792.26,797.601 2135.14,512.96 2379.67,309.97 2543.38,140.97 2644.52,0 h -5.94"
         fill="currentColor"
         id="path1894" />
      <path
         d="m 2729.18,0 c -91.8,148.03 -268.2,332.4 -557.76,561.63 -365.73,289.54 -677.64,519.51 -931.44,706.62 -452.302,333.47 -720.196,530.99 -779.699,687.64 -76.482,201.36 189.154,333.82 847.129,596.62 552.75,220.78 1100.71,316.25 1503.53,386.43 342.34,59.65 579.67,101 625.03,184.92 41.72,77.18 -79.87,191.89 -433.17,392.74 -500.58,284.57 -1146.11,374.1 -1622.67,440.19 -346.83,48.11 -604.361,83.82 -652.537,173.85 -43.029,80.42 80.155,202.73 454.277,413.27 499.73,281.22 828.14,522.47 978.73,720.18 70.57,92.65 102,175.63 93.61,248.56 -8.37,72.8 -56.51,135.8 -145.09,188.6 -151.24,90.16 -419.96,150.5 -809.46,179.21 -315.315,23.23 -438.532,83.83 -432.709,166.94 16.176,230.89 1043.799,634.48 1696.589,890.85 105.39,41.4 201.01,78.95 280.8,111.23 184.3,74.54 302.87,159.04 354.05,243.7 32.98,54.54 37.88,109.16 14.25,161.17 -23.76,52.28 -76.29,102.05 -158.04,146.65 -224.03,122.19 -666.63,205.05 -1337.11,193.88 -585.69,-9.77 -1072.589,50.98 -1307.635,149.6 -89.094,37.37 -142.263,80.35 -151.264,127.18 -9.046,47.03 26.259,97.5 114.154,149.6 203.454,120.57 690.725,251.37 1565.795,370.15 769.47,104.46 1199.39,219.22 1377.15,326.8 44.46,26.91 73.01,53.28 87.05,78.86 h 4.77 c -14.04,-26.9 -43.44,-54.51 -89.72,-82.52 C 3139.6,8806.72 2709.16,8691.76 1939.07,8587.22 1064.61,8468.51 577.854,8337.92 374.826,8217.59 c -86.155,-51.05 -120.85,-99.99 -112.174,-145.12 8.716,-45.32 61.008,-87.27 148.752,-124.08 234.587,-98.41 720.866,-159.04 1306.016,-149.28 671.26,11.19 1114.56,-71.87 1339.12,-194.36 82.59,-45.04 135.72,-95.49 159.85,-148.61 24.25,-53.38 19.27,-109.35 -14.49,-165.19 -51.65,-85.42 -170.9,-170.54 -356.06,-245.42 -80.12,-32.41 -175.6,-69.92 -280.83,-111.24 -651.83,-256.01 -1677.94,-659.01 -1693.934,-887.18 -5.639,-80.5 116.51,-139.4 428.874,-162.42 390.14,-28.76 659.45,-89.28 811.24,-179.77 89.78,-53.52 138.6,-117.58 147.13,-191.79 8.52,-74.07 -23.2,-158.08 -94.46,-251.64 -150.96,-198.19 -479.8,-439.81 -980,-721.3 -371.509,-209.07 -494.355,-329.55 -452.643,-407.51 47.18,-88.16 303.823,-123.76 649.473,-171.69 476.88,-66.13 1122.85,-155.72 1624.11,-440.69 355.9,-202.31 477.88,-318.77 434.78,-398.5 -46.32,-85.7 -284.46,-127.19 -627.96,-187.04 C 2408.97,2864.61 1861.25,2769.18 1308.9,2548.55 653.646,2286.84 388.999,2155.24 464.138,1957.42 523.192,1801.95 790.713,1604.7 1242.39,1271.69 1496.22,1084.55 1808.16,854.561 2173.95,564.98 2465.17,334.43 2642.76,148.95 2735.35,0 h -6.17"
         fill="currentColor"
         id="path1896" />
      <path
         d="m 2811.83,0 c -72.11,153.61 -256.61,353.67 -601.52,613.58 -381.34,287.35 -709.87,515.67 -978.41,702.27 -471.616,327.74 -758.334,526.99 -820.496,691.38 -75.45,199.51 178.009,346.38 830.446,605.83 597.21,237.49 1203.02,324.06 1639.07,386.38 343.89,49.14 582.01,83.18 626.04,163.66 39.75,72.64 -79.54,184.69 -423.56,382.64 -516.5,297.2 -1230.02,383.05 -1755.25,446.24 -374.894,45.1 -654.05,78.68 -698.419,170.01 -38.958,80.18 102.361,203.4 517.279,415.38 567.91,290.14 937.04,538.66 1103.38,740.85 74.87,91.02 108.53,172.52 100.61,244.06 -7.91,71.41 -57.37,133.12 -148.74,184.7 -167.76,94.7 -476.25,155.03 -927.74,178.32 -359.72,18.56 -501.928,78.05 -497.808,162.07 12.835,261.46 1466.088,759.72 2157.458,996.75 l 17.34,5.95 c 209.54,71.85 338.58,151.98 393.29,232.04 35.71,52.26 39.59,104.49 13.41,154.34 -26.38,50.2 -83.17,98.13 -168.61,141.38 -255.95,129.55 -767.89,216.62 -1488.94,197.62 -594.87,-15.67 -1088.569,45.56 -1326.62,146.76 -90.356,38.43 -144.133,82.76 -152.974,131.05 -8.872,48.47 27.368,100.47 117.092,153.94 209.657,124.95 713.422,259.49 1619.742,377.64 786.79,102.57 1226.21,218.74 1407.33,328.83 24.04,14.61 43.48,29.09 58.55,43.4 h 6.03 c -15.74,-15.55 -36.48,-31.25 -62.48,-47.06 C 3185.8,8839.67 2745.83,8723.3 1958.42,8620.64 1052.71,8502.57 549.474,8368.24 340.234,8243.54 252.242,8191.09 216.6,8140.63 225.126,8094.04 c 8.562,-46.75 61.475,-90.05 150.501,-127.91 237.579,-101 730.643,-162.1 1324.943,-146.45 721.74,19.02 1234.39,-68.23 1490.85,-198.05 86.23,-43.65 143.64,-92.18 170.43,-143.17 26.97,-51.34 23.02,-105.08 -13.66,-158.77 -55.22,-80.79 -184.96,-161.48 -395.37,-233.64 l -17.34,-5.93 C 2244.98,6843.37 793.531,6345.73 780.843,6087.17 c -4,-81.42 137.105,-139.23 493.867,-157.63 452.14,-23.34 761.23,-83.84 929.54,-178.84 92.62,-52.28 142.79,-115.09 150.86,-187.95 8.06,-72.75 -25.93,-155.32 -101.57,-247.27 -166.69,-202.64 -536.27,-451.51 -1104.69,-741.91 -412.242,-210.62 -553.142,-332.02 -515.408,-409.69 43.364,-89.27 321.568,-122.74 695.178,-167.69 525.58,-63.23 1239.58,-149.13 1756.8,-446.74 346.6,-199.44 466.29,-313.25 425.15,-388.43 -45.04,-82.31 -283.99,-116.46 -629.08,-165.78 C 2445.63,2932.96 1840.1,2846.42 1243.34,2609.11 593.63,2350.74 341.046,2204.98 415.253,2008.75 476.954,1845.6 763.266,1646.63 1234.21,1319.36 1502.87,1132.66 1831.57,904.251 2212.75,617 2559.44,355.761 2745.22,154.58 2818.27,0 h -6.44"
         fill="currentColor"
         id="path1898" />
      <path
         d="m 2880.55,0 c -36.17,155.95 -219.47,370.75 -631.34,665.54 -390.04,279.17 -731.03,502.65 -1012.38,687.06 -498.987,327.04 -810.581,531.26 -876.345,705.89 -75.015,199.22 168.286,358.71 815.805,615.12 639.2,253.11 1302.88,328.8 1771.8,382.26 347.51,39.62 587.84,67.03 630.9,144.82 38.11,68.84 -79.16,178.72 -414.97,374.21 -531.56,309.43 -1314.24,391.42 -1888.35,451.56 -402.057,42.12 -702.038,73.55 -743.168,165.6 -35.757,80.04 123.373,204.38 579.638,418.77 635.51,298.6 1045.17,554.06 1227.45,760.51 79.67,90.24 115.78,170.97 108.19,241.71 -7.57,70.59 -58.79,131.46 -153.79,182.12 -184.14,98.18 -532.05,157.69 -1044.62,174.98 -268.783,9.06 -430.074,37.56 -507.214,80.28 -70.965,39.31 -71.936,90.36 -20.431,149.29 50.58,57.87 152.495,123.41 288.585,192.81 504.17,257.1 1478.65,567.99 2048.35,738.13 234.47,70.02 375.04,147.04 433.95,223.73 38.91,50.66 41.93,101.17 12.64,149.37 -29.56,48.66 -91.87,95.11 -183.26,137.13 -291.1,133.85 -876.05,222.3 -1638.14,195.14 -604.08,-21.53 -1104.621,40.13 -1345.676,143.91 -91.636,39.44 -146.023,85.15 -154.701,134.88 -8.707,49.9 28.452,103.43 119.975,158.28 215.865,129.38 736.162,267.7 1673.832,385.18 804.16,100.75 1253.14,218.29 1437.6,330.86 4.34,2.65 8.52,5.29 12.57,7.93 h 7.58 c -5.71,-3.85 -11.72,-7.7 -18.04,-11.56 C 3232.06,8872.65 2782.53,8754.88 1977.78,8654.06 1040.72,8536.66 520.967,8398.55 305.536,8269.43 215.714,8215.6 179.148,8163.6 187.531,8115.57 c 8.412,-48.2 61.94,-92.84 152.244,-131.72 240.583,-103.57 740.465,-165.09 1343.945,-143.59 762.73,27.18 1348.36,-61.43 1639.95,-195.5 92.17,-42.38 155.09,-89.37 185.09,-138.76 30.29,-49.84 27.23,-102 -12.9,-154.23 -59.42,-77.35 -200.69,-154.89 -436.06,-225.18 C 2490.27,6956.51 1516.07,6645.7 1012.13,6388.73 876.49,6319.55 774.996,6254.33 724.801,6196.9 c -49.287,-56.39 -48.431,-105.21 19.311,-142.73 76.618,-42.43 237.301,-70.75 505.388,-79.79 513.22,-17.31 861.73,-76.98 1046.4,-175.45 96.3,-51.34 148.26,-113.33 155.99,-185.44 7.72,-71.97 -28.74,-153.8 -109.25,-244.98 -182.66,-206.88 -592.77,-462.69 -1228.79,-761.53 -453.547,-213.12 -612.217,-335.67 -577.6,-413.16 40.15,-89.84 339.127,-121.17 739.84,-163.14 574.48,-60.18 1357.65,-142.23 1889.96,-452.1 338.38,-196.98 456.04,-308.62 416.54,-379.98 -44.11,-79.68 -285.3,-107.18 -634.05,-146.94 -468.69,-53.45 -1132.07,-129.09 -1770.76,-382 C 532.993,2414.33 290.487,2256.14 364.342,2060.02 429.614,1886.68 740.757,1682.75 1239.04,1356.17 1520.41,1171.76 1861.42,948.26 2251.57,669.011 2665.19,372.95 2850.17,156.98 2887.61,0 h -7.06"
         fill="currentColor"
         id="path1900" />
      <path
         d="m 2924.57,0 c 24.13,153.72 -141.41,381.68 -636.47,717.491 -392.74,266.399 -741.75,482.289 -1033.6,662.829 -533.824,330.21 -876.558,542.23 -946.783,729.46 -75.039,200.07 159.791,370.67 803.023,624.38 679.14,267.85 1400.8,330.98 1902.38,374.86 352.75,30.86 596.43,52.18 638.81,127.88 36.73,65.63 -78.76,173.74 -407.31,367.13 -545.99,321.4 -1398.88,399.38 -2022.02,456.36 -428.499,39.18 -748.581,68.45 -786.956,160.88 -33.188,79.93 143.585,205.55 641.616,423 702.66,306.79 1152.7,569 1351.12,779.61 84.8,90.02 123.51,170.47 116.18,240.75 -7.32,70.18 -60.62,130.52 -159.83,180.45 -200.47,100.92 -587.54,159.05 -1160.52,169.91 -304.502,5.77 -485.503,33.3 -570.228,76.61 -74.725,38.21 -75.945,88.41 -21.645,146.69 53.261,57.16 160.796,122.17 305.019,191.22 536.504,256.86 1581.904,570.18 2228.414,741.72 259.31,68.81 412.06,143.56 475.56,217.66 42.45,49.54 44.65,98.78 11.89,145.7 -33.14,47.47 -101.8,92.7 -200.6,133.63 -328.51,136.07 -988.89,223.9 -1785.58,188.38 -613.3,-27.34 -1120.71,34.72 -1364.803,141.04 -92.904,40.48 -147.914,87.53 -156.442,138.69 -8.545,51.32 29.54,106.37 122.864,162.62 222.048,133.84 758.891,276 1727.991,392.75 756.09,91.08 1204.7,199.06 1417.84,305.37 h 9.3 C 3213.25,8889.32 2762.54,8779.69 1997.12,8687.48 1028.63,8570.81 492.353,8428.87 270.741,8295.29 179.119,8240.07 141.63,8186.53 149.881,8137.05 c 8.266,-49.63 62.414,-95.62 153.981,-135.5 243.591,-106.12 750.308,-168.03 1362.998,-140.71 797.29,35.54 1458.32,-52.43 1787.29,-188.69 99.56,-41.23 168.84,-86.95 202.44,-135.09 34,-48.68 31.76,-99.71 -12.15,-150.95 -64.03,-74.73 -217.48,-149.95 -477.63,-218.98 C 2520.43,6995.63 1475.33,6682.4 939.104,6425.68 795.338,6356.85 688.225,6292.13 635.333,6235.37 c -51.847,-55.64 -50.735,-103.55 20.493,-139.96 84.218,-43.06 264.628,-70.43 568.444,-76.19 573.6,-10.86 961.26,-69.15 1162.28,-170.33 100.57,-50.63 154.65,-112.09 162.12,-183.81 7.46,-71.6 -31.61,-153.16 -117.32,-244.14 -198.8,-211.02 -649.29,-473.55 -1352.48,-780.57 -495.288,-216.24 -671.536,-340.09 -639.423,-417.45 37.409,-90.09 356.433,-119.27 783.513,-158.32 623.54,-57.01 1476.96,-135.05 2023.72,-456.88 331.11,-194.91 446.98,-304.78 408.84,-372.93 -43.46,-77.63 -288.03,-99.03 -642.06,-130 C 2512.1,3060.94 1790.75,2997.83 1112.21,2730.2 471.722,2477.58 237.635,2308.42 311.574,2111.29 381.275,1925.44 723.545,1713.72 1256.63,1383.95 1548.49,1203.41 1897.51,987.51 2290.38,721.02 2787.18,384.03 2954.77,154.88 2932.47,0 h -7.9"
         fill="currentColor"
         id="path1902" />
      <path
         d="m 2921.62,0 c 123.01,144.561 9.17,382.28 -594.62,769.43 -389.79,249.94 -742.17,455.81 -1041.7,630.79 -575.86,336.44 -956.533,558.84 -1032.034,760.9 -75.395,201.81 152.338,382.29 791.914,633.59 717.28,281.82 1497.09,331.06 2031.28,364.78 359.32,22.69 607.27,38.35 649.2,112.46 35.59,62.91 -78.31,169.58 -400.44,361.22 -559.92,333.14 -1484.07,406.98 -2156.4,460.69 -454.249,36.29 -793.759,63.43 -829.778,156 -31.063,79.87 163.192,206.87 703.328,427.84 769.49,314.8 1259.79,583.64 1474.5,798.34 90.2,90.21 131.61,170.69 124.46,240.83 -7.12,70.01 -62.75,130.02 -166.6,179.38 -216.83,103.09 -642.87,159.45 -1275.69,163.58 -340.068,2.22 -540.792,28.44 -633.233,71.96 -78.844,37.11 -80.425,86.52 -23.266,144.26 55.995,56.56 169.353,121.21 321.972,190.07 569.107,256.72 1685.467,572.66 2408.377,745.7 284.07,67.98 449.43,141.06 517.79,213.16 46.19,48.72 47.61,96.98 11.12,142.85 -36.99,46.51 -112.57,90.7 -219.75,130.63 -367.49,136.88 -1104.89,222.71 -1931.83,178.72 -622.54,-33.13 -1136.848,29.31 -1383.974,138.15 -94.175,41.48 -149.803,89.87 -158.177,142.47 -8.3952,52.75 30.602,109.32 125.695,166.96 228.215,138.33 781.616,284.39 1782.256,400.35 689.16,79.87 1128.06,175.3 1368.88,271.96 h 11.18 C 3156.92,8898.91 2715.11,8801.87 2016.47,8720.9 1016.47,8605 463.644,8459.18 235.871,8321.11 142.434,8264.47 104.044,8209.4 112.144,8158.48 c 8.131,-51.05 62.904,-98.36 155.734,-139.24 246.625,-108.64 760.222,-170.92 1382.132,-137.83 827.48,44.02 1565.53,-41.92 1933.45,-178.97 107.87,-40.17 184.06,-84.81 221.55,-131.93 37.98,-47.76 36.57,-97.93 -11.37,-148.49 -68.89,-72.65 -234.92,-146.16 -519.81,-214.34 -722.75,-172.99 -1838.8,-488.84 -2407.653,-745.45 -152.187,-68.66 -265.128,-133.02 -320.74,-189.2 -54.453,-55 -52.967,-102.07 22.088,-137.39 91.93,-43.28 292.092,-69.36 631.535,-71.57 633.44,-4.14 1060.05,-60.63 1277.4,-163.97 105.27,-50.04 161.7,-111.2 168.98,-182.8 7.28,-71.49 -34.53,-153.13 -125.69,-244.29 C 2304.67,5257.92 1813.9,4988.78 1043.89,4673.77 506.515,4453.93 312.823,4328.69 342.882,4251.42 c 35.056,-90.11 373.475,-117.15 826.248,-153.32 672.72,-53.75 1597.42,-127.63 2158.17,-461.26 324.66,-193.16 438.95,-301.6 401.94,-367.02 -43.04,-76.07 -291.91,-91.78 -652.53,-114.56 -533.92,-33.7 -1313.34,-82.92 -2030.06,-364.52 C 409.837,2540.54 182.794,2361.61 257.135,2162.63 332.104,1961.99 712.263,1739.89 1287.34,1403.91 1586.97,1228.86 1939.46,1022.92 2329.18,773.03 2934.26,385.051 3051.57,145.97 2931.63,0 h -10.01"
         fill="currentColor"
         id="path1904" />
      <path
         d="m 2824.44,0 c 286.49,123.311 299.38,363.29 -458.54,821.39 -380.96,230.25 -731.85,423.95 -1035.72,591.68 -625.056,345.03 -1051.246,580.3 -1132.858,799.5 -76.009,204.2 145.789,393.52 782.304,642.69 753.974,295.16 1592.064,329.38 2158.844,352.53 366.96,14.98 619.97,25.32 661.64,98.22 34.64,60.61 -77.86,166.12 -394.27,356.32 -573.51,344.74 -1569.93,414.3 -2291.53,464.67 -479.391,33.45 -837.733,58.48 -871.688,151 -29.303,79.83 182.33,208.32 764.848,433.15 836.06,322.69 1366.57,598.06 1597.67,816.81 95.8,90.69 139.97,171.45 132.97,241.61 -6.98,70.07 -65.11,129.89 -173.92,178.81 -233.21,104.83 -698.08,159.09 -1390.31,156.3 -375.568,-1.51 -596.04,23.13 -696.288,66.52 -83.223,36.03 -85.243,84.7 -25.184,141.98 58.762,56.03 178.101,120.41 339.336,189.18 601.966,256.74 1789.326,575.45 2588.256,750.02 308.85,67.48 487.08,139.3 560.47,209.79 50.09,48.11 50.72,95.59 10.32,140.58 -41.05,45.71 -123.94,89 -240.1,127.97 -407.6,136.75 -1223.12,219.57 -2077.29,167.03 -631.79,-38.86 -1153.008,23.91 -1403.193,135.27 -95.445,42.48 -151.6898,92.19 -159.9121,146.22 -8.2515,54.15 31.6421,112.25 128.5001,171.29 234.374,142.87 804.355,292.86 1836.595,408.01 621.31,69.31 1043.29,152.36 1302.55,238.53 h 13.22 C 3092.57,8909.35 2666.85,8824.72 2035.82,8754.32 1004.24,8639.25 434.833,8489.48 200.904,8346.88 105.688,8288.84 66.3969,8232.24 74.3691,8179.88 82.3578,8127.4 137.747,8078.78 231.845,8036.9 481.504,7925.78 1002,7863.16 1633.16,7901.98 c 854.67,52.57 1670.8,-30.35 2078.81,-167.23 116.82,-39.19 200.32,-82.87 241.86,-129.13 42.18,-46.97 41.6,-96.47 -10.53,-146.54 -73.93,-71 -252.83,-143.19 -562.44,-210.85 -798.75,-174.53 -1985.8,-493.16 -2587.524,-749.79 -160.811,-68.58 -279.734,-132.7 -338.11,-188.37 -57.091,-54.44 -55.156,-100.71 23.968,-134.97 99.762,-43.19 319.691,-67.71 694.666,-66.19 692.83,2.8 1158.26,-51.59 1391.97,-156.64 110.29,-49.59 169.25,-110.57 176.39,-182.26 7.15,-71.57 -37.47,-153.53 -134.28,-245.16 C 2376.46,5305.72 1845.5,5030.06 1008.93,4707.18 429.194,4483.42 218.152,4356.7 246.492,4279.49 c 33.023,-89.97 390.218,-114.9 868.098,-148.26 722.01,-50.4 1718.97,-120.01 2293.34,-465.25 318.94,-191.72 431.8,-299.01 395.73,-362.12 -42.8,-74.89 -296.73,-85.26 -665.03,-100.3 C 2572.14,3180.42 1734.48,3146.22 981.092,2851.29 347.348,2603.2 126.208,2415.52 201.193,2214.09 282.252,1996.34 707.891,1761.39 1332.15,1416.81 1635.94,1249.11 1986.76,1055.46 2367.98,825.041 3125.77,367.03 3120.01,125.27 2839.17,0 h -14.73"
         fill="currentColor"
         id="path1906" />
      <path
         d="m 2457.5,0 c 579.4,71.4906 985.33,283.79 -52.71,873.35 -366.53,208.17 -710.28,387.46 -1014.05,545.89 -681.656,355.53 -1162.145,606.14 -1250.712,844.9 -76.8128,207.07 140.018,404.35 774.036,651.66 789.416,307.96 1685.886,326.24 2285.306,338.46 375.52,7.66 634.22,12.94 675.79,84.95 33.87,58.67 -77.37,163.26 -388.72,352.27 -586.81,356.21 -1656.43,421.38 -2427.39,468.33 -503.984,30.7 -880.572,53.64 -912.737,145.99 -27.794,79.81 201.134,209.85 826.256,438.79 902.441,330.51 1473.091,612.35 1720.671,835.13 101.54,91.37 148.55,172.59 141.65,242.95 -6.89,70.24 -67.65,130 -181.68,178.53 -249.62,106.25 -753.22,158.2 -1504.5,148.32 -410.995,-5.4 -651.26,17.45 -759.392,60.49 -87.785,34.95 -90.303,82.92 -27.31,139.77 61.561,55.57 187.002,119.75 357.026,188.52 635.026,256.84 1893.446,578.48 2768.066,754.65 241.19,48.58 407.99,99.07 511.59,149.47 v -4.66 c -104.18,-50.31 -270.8,-100.63 -510.8,-148.97 C 2613.46,7112.65 1355.35,6791.1 720.534,6534.34 550.955,6465.75 425.929,6401.82 364.742,6346.6 c -59.749,-53.93 -57.31,-99.44 26.07,-132.64 107.667,-42.85 347.416,-65.6 757.838,-60.21 751.87,9.89 1256.03,-42.16 1506.14,-148.63 115.55,-49.18 177.17,-110.11 184.21,-182.03 7.04,-71.79 -40.44,-154.23 -143.04,-246.56 -247.98,-223.13 -819.08,-505.26 -1722,-835.94 -622.311,-227.92 -850.62,-356.19 -823.749,-433.35 31.249,-89.72 406.665,-112.59 909.089,-143.2 771.37,-46.98 1841.58,-112.17 2429.24,-468.92 313.88,-190.54 425.49,-296.92 390.19,-358.06 -42.75,-74.05 -302.39,-79.34 -679.28,-87.03 C 2600.34,3237.82 1704.31,3219.54 915.532,2911.83 284.286,2665.59 68.077,2470.03 143.899,2265.65 231.9,2028.42 711.803,1778.12 1392.61,1423.03 1696.27,1264.66 2039.88,1085.44 2406.79,877.05 3435.7,292.68 3059.6,75.8008 2493.27,0 Z m 1541.19,7704.66 c -43.83,20.85 -97.55,40.85 -159.95,59.75 -448.51,135.93 -1342.91,215.04 -2222.17,153.91 -641.054,-44.56 -1169.215,18.53 -1422.463,132.36 -96.716,43.48 -153.584,94.51 -161.6668,149.96 -8.1,55.56 32.686,115.16 131.3028,175.62 240.522,147.43 827.1,301.41 1891.017,415.7 551.65,59.27 949.25,130.13 1217.37,205.11 h 15.5 C 3019.08,8920.5 2616.86,8848.09 2055.18,8787.75 991.917,8673.52 405.932,8519.79 165.865,8372.62 68.8727,8313.17 28.6855,8255.04 36.5348,8201.25 c 7.8547,-53.89 63.8682,-103.82 159.2232,-146.69 252.716,-113.58 780.131,-176.52 1420.552,-132 879.72,61.15 1774.7,-18.03 2223.6,-154.07 61.73,-18.71 115.05,-38.51 158.78,-59.18 v -4.65"
         fill="currentColor"
         id="path1908" />
    </g>
  </g>
</svg>
