<?xml version="1.0" encoding="UTF-8" standalone="no"?>
<!-- Created with Inkscape (http://www.inkscape.org/) -->

<svg
   version="1.1"
   id="svg38119"
   width="171.67703"
   height="131.23849"
   viewBox="0 0 171.67704 131.23849"
   sodipodi:docname="ii.jpg"
   xmlns:inkscape="http://www.inkscape.org/namespaces/inkscape"
   xmlns:sodipodi="http://sodipodi.sourceforge.net/DTD/sodipodi-0.dtd"
   xmlns="http://www.w3.org/2000/svg"
   xmlns:svg="http://www.w3.org/2000/svg">
  <defs
     id="defs38123" />
  <sodipodi:namedview
     id="namedview38121"
     pagecolor="#ffffff"
     bordercolor="#000000"
     borderopacity="0.25"
     inkscape:showpageshadow="2"
     inkscape:pageopacity="0.0"
     inkscape:pagecheckerboard="0"
     inkscape:deskcolor="#d1d1d1"
     showgrid="false" />
  <g
     inkscape:groupmode="layer"
     inkscape:label="Image"
     id="g38125"
     transform="translate(-19.522962,-3.04)">
    <path
       fill="currentColor"
       d="m 62.16,134.04042 c -0.572,-0.1643 -1.04,-0.40637 -1.04,-0.53794 0,-0.13157 2.530275,-5.70745 5.622835,-12.39085 3.092557,-6.6834 8.579626,-18.55963 12.193482,-26.39163 3.613859,-7.832 7.151113,-15.497085 7.860569,-17.033523 1.249351,-2.705667 1.277181,-2.839011 0.884928,-4.24 C 87.459069,72.650915 87.169456,72 87.03823,72 c -0.131228,0 -1.084512,0.375712 -2.118412,0.834915 -3.425549,1.52145 -3.20442,1.507674 -4.558868,0.284013 l -1.228006,-1.10943 -11.954701,4.955251 C 60.603158,79.690138 55.130954,81.92 55.017789,81.92 c -0.113165,0 -0.865824,-0.504 -1.672576,-1.12 -0.806749,-0.616 -1.669053,-1.12 -1.916227,-1.12 -0.247175,0 -3.569389,1.30048 -7.382701,2.889958 l -6.93329,2.889956 -4.716496,-1.944548 c -2.594075,-1.0695 -6.551148,-2.693984 -8.793497,-3.609958 -3.998684,-1.633418 -4.077056,-1.684672 -4.08,-2.668243 -0.0028,-0.923856 0.141903,-1.060221 1.836998,-1.731539 3.246621,-1.28578 3.078821,-0.931303 1.826204,-3.85786 C 22.577792,70.226304 22.08,69.018448 22.08,68.963648 c 0,-0.0548 1.248808,-0.6224 2.775128,-1.261328 3.156941,-1.321523 2.852105,-1.466269 4.167439,1.978832 0.487685,1.277334 0.972098,2.285619 1.076474,2.240637 0.104376,-0.04498 3.667516,-1.503117 7.918089,-3.240291 l 7.728316,-3.158506 0.186468,-1.161494 c 0.554329,-3.452877 0.290038,-3.151578 4.148086,-4.728951 5.445686,-2.226486 36.187104,-14.9468 56.46995,-23.366381 2.72248,-1.130121 5.05143,-2.21895 5.17545,-2.419622 0.12402,-0.200672 0.32147,-1.191773 0.43877,-2.202447 0.20212,-1.741543 0.27449,-1.862797 1.38455,-2.319875 0.6442,-0.265257 4.84328,-2.012956 9.33128,-3.883777 15.78678,-6.580713 17.64762,-7.277125 18.97182,-7.10014 3.33625,0.445906 8.13829,6.849947 10.45705,13.945637 0.89342,2.733972 0.97113,3.329632 0.97113,7.443952 0,2.617623 -0.14475,4.74264 -0.34905,5.124384 -0.41815,0.781316 -1.53507,1.297274 -13.73095,6.342957 -5.192,2.148035 -10.7714,4.457655 -12.39866,5.13249 l -2.95866,1.226969 -1.59192,-1.258348 c -0.87557,-0.69209 -1.70417,-1.258813 -1.84135,-1.259386 -0.13717,-6.4e-4 -4.53341,1.759981 -9.76941,3.912342 l -9.52,3.913386 v 1.641869 1.641872 l -2.741149,1.059747 c -3.017376,1.166538 -2.965776,1.068954 -1.906141,3.605018 0.319751,0.76527 0.909607,1.398713 1.689293,1.814118 1.550915,0.826304 2.006647,1.214688 3.018807,2.572688 0.45912,0.616 3.67835,7.24 7.15385,14.72 3.47549,7.48 9.4677,20.35429 13.316,28.60955 3.84831,8.25524 6.95921,15.03786 6.91313,15.07249 -0.0461,0.0346 -0.58023,0.23075 -1.18698,0.43584 -0.86514,0.29242 -1.18608,0.28541 -1.48733,-0.0325 C 125.39216,133.48055 122.80972,129.01749 109.6,105.85329 100.13091,89.24855 98.691219,86.885008 98.498051,87.62721 98.375978,88.096243 97.829651,96.4 97.28399,106.08 c -0.545657,9.68 -1.064304,18.068 -1.152547,18.64 -0.149795,0.97097 -0.244445,1.04 -1.425942,1.04 -1.147408,0 -1.265501,-0.0771 -1.265501,-0.82663 0,-2.05106 -2.52247,-37.962506 -2.677424,-38.11746 -0.05624,-0.05624 -2.845114,4.759168 -6.197494,10.700916 C 65.900099,130.59858 63.84057,134.19139 63.496378,134.27078 63.33337,134.30837 62.732,134.20471 62.16,134.04042 Z m 88.4304,-92.15499 c 0.92879,-1.027785 0.76386,-4.820128 -0.35328,-8.123027 -2.12454,-6.281412 -5.42769,-11.226112 -7.91652,-11.850767 -0.66649,-0.16728 -0.93669,-0.04351 -1.37913,0.631733 -0.72693,1.109435 -0.4811,5.188192 0.50245,8.336631 1.41805,4.539306 4.776,10.164659 6.68816,11.204259 1.15802,0.629584 1.75321,0.581443 2.45832,-0.198829 z m 14.55209,0.578679 c -0.0433,-2.339658 -1.58786,-4.019123 -3.7666,-4.095527 -0.76024,-0.02666 -0.69268,-0.08723 0.44614,-0.4 2.3603,-0.648252 3.0518,-1.404387 3.22805,-3.529817 0.16684,-2.011847 0.69633,-1.89312 0.70502,0.15808 0.009,2.029833 1.37796,3.127645 4.4849,3.595526 0.44,0.06626 0.14804,0.140083 -0.6488,0.164051 -2.18977,0.06587 -3.78436,1.345175 -3.84351,3.083578 -0.018,0.528 -0.15643,1.248 -0.30769,1.6 -0.21977,0.511437 -0.27954,0.395754 -0.29751,-0.575891 z m 17.61809,-7.243079 c -0.0464,-1.98656 -0.94507,-4.11254 -2.03177,-4.806322 C 180.32796,30.158797 178.776,29.780892 177.28,29.57492 l -2.72,-0.374496 2.19164,-0.04021 c 3.97391,-0.07291 5.52138,-1.404259 5.8866,-5.064453 l 0.2171,-2.175759 0.23526,2.021206 c 0.43956,3.776499 1.98232,5.149471 5.86441,5.219006 l 2.24499,0.04021 -2.72,0.374496 c -1.496,0.205972 -3.03794,0.578731 -3.42653,0.828353 -1.04612,0.671995 -1.69937,2.140148 -1.9919,4.476727 l -0.26041,2.08 z M 168.52528,24.48 c -0.34131,-3.920887 -0.64934,-4.935885 -1.96404,-6.471815 -1.4238,-1.663399 -3.10471,-2.311109 -6.74677,-2.599766 l -2.85447,-0.226235 2.72,-0.243793 c 3.78704,-0.339432 5.06661,-0.792409 6.62002,-2.343535 1.52678,-1.524544 1.85298,-2.50709 2.216,-6.674856 l 0.25084,-2.88 0.22212,2.9189091 c 0.30764,4.0427349 0.48546,4.6592019 1.78032,6.1719589 1.58696,1.854006 2.68267,2.327034 6.3507,2.741656 l 3.2,0.361718 -2.96436,0.219699 c -3.56527,0.264235 -5.60846,1.156038 -6.87411,3.000378 -1.03802,1.512638 -1.20539,2.181325 -1.48419,5.929565 L 168.77597,27.36 Z"
       id="path38131" />
  </g>
</svg>
