<?xml version="1.0" encoding="UTF-8" standalone="no"?>
<!-- Created with Inkscape (http://www.inkscape.org/) -->

<svg
   version="1.1"
   id="svg26807"
   width="306.84393"
   height="394.60001"
   viewBox="0 0 306.84392 394.60001"
   sodipodi:docname="164253416104.eps"
   xmlns:inkscape="http://www.inkscape.org/namespaces/inkscape"
   xmlns:sodipodi="http://sodipodi.sourceforge.net/DTD/sodipodi-0.dtd"
   xmlns="http://www.w3.org/2000/svg"
   xmlns:svg="http://www.w3.org/2000/svg">
  <defs
     id="defs26811">
    <clipPath
       clipPathUnits="userSpaceOnUse"
       id="clipPath28685">
      <g
         id="g28689">
        <path
           d="M 476.479,594.861 H 950 V 298.911 H 476.479 Z"
           id="path28687"
           style="stroke-width:0.1" />
      </g>
    </clipPath>
    <clipPath
       clipPathUnits="userSpaceOnUse"
       id="clipPath28697">
      <g
         id="g28701">
        <path
           d="M 476.479,594.861 H 950 V 298.911 H 476.479 Z"
           id="path28699"
           style="stroke-width:0.1" />
      </g>
    </clipPath>
    <clipPath
       clipPathUnits="userSpaceOnUse"
       id="clipPath28715">
      <g
         id="g28719">
        <path
           d="M 476.479,594.861 H 950 V 298.911 H 476.479 Z"
           id="path28717"
           style="stroke-width:0.1" />
      </g>
    </clipPath>
    <clipPath
       clipPathUnits="userSpaceOnUse"
       id="clipPath28721">
      <g
         id="g28725">
        <path
           d="M 476.479,594.861 H 950 V 298.911 H 476.479 Z"
           id="path28723"
           style="stroke-width:0.1" />
      </g>
    </clipPath>
    <clipPath
       clipPathUnits="userSpaceOnUse"
       id="clipPath28739">
      <g
         id="g28743">
        <path
           d="M 476.479,594.861 H 950 V 298.911 H 476.479 Z"
           id="path28741"
           style="stroke-width:0.1" />
      </g>
    </clipPath>
    <clipPath
       clipPathUnits="userSpaceOnUse"
       id="clipPath28745">
      <g
         id="g28749">
        <path
           d="M 476.479,594.861 H 950 V 298.911 H 476.479 Z"
           id="path28747"
           style="stroke-width:0.1" />
      </g>
    </clipPath>
    <clipPath
       clipPathUnits="userSpaceOnUse"
       id="clipPath28763">
      <g
         id="g28767">
        <path
           d="M 476.479,594.861 H 950 V 298.911 H 476.479 Z"
           id="path28765"
           style="stroke-width:0.1" />
      </g>
    </clipPath>
    <clipPath
       clipPathUnits="userSpaceOnUse"
       id="clipPath28775">
      <g
         id="g28779">
        <path
           d="M 476.479,594.861 H 950 V 298.911 H 476.479 Z"
           id="path28777"
           style="stroke-width:0.1" />
      </g>
    </clipPath>
    <clipPath
       clipPathUnits="userSpaceOnUse"
       id="clipPath28787">
      <g
         id="g28791">
        <path
           d="M 476.479,594.861 H 950 V 298.911 H 476.479 Z"
           id="path28789"
           style="stroke-width:0.1" />
      </g>
    </clipPath>
    <clipPath
       clipPathUnits="userSpaceOnUse"
       id="clipPath28799">
      <g
         id="g28803">
        <path
           d="M 476.479,594.861 H 950 V 298.911 H 476.479 Z"
           id="path28801"
           style="stroke-width:0.1" />
      </g>
    </clipPath>
    <clipPath
       clipPathUnits="userSpaceOnUse"
       id="clipPath28811">
      <g
         id="g28815">
        <path
           d="M 476.479,594.861 H 950 V 298.911 H 476.479 Z"
           id="path28813"
           style="stroke-width:0.1" />
      </g>
    </clipPath>
    <clipPath
       clipPathUnits="userSpaceOnUse"
       id="clipPath28817">
      <g
         id="g28821">
        <path
           d="M 476.479,594.861 H 950 V 298.911 H 476.479 Z"
           id="path28819"
           style="stroke-width:0.1" />
      </g>
    </clipPath>
    <clipPath
       clipPathUnits="userSpaceOnUse"
       id="clipPath28835">
      <g
         id="g28839">
        <path
           d="M 476.479,594.861 H 950 V 298.911 H 476.479 Z"
           id="path28837"
           style="stroke-width:0.1" />
      </g>
    </clipPath>
    <clipPath
       clipPathUnits="userSpaceOnUse"
       id="clipPath28847">
      <g
         id="g28851">
        <path
           d="M 476.479,594.861 H 950 V 298.911 H 476.479 Z"
           id="path28849"
           style="stroke-width:0.1" />
      </g>
    </clipPath>
    <clipPath
       clipPathUnits="userSpaceOnUse"
       id="clipPath28853">
      <g
         id="g28857">
        <path
           d="M 476.479,594.861 H 950 V 298.911 H 476.479 Z"
           id="path28855"
           style="stroke-width:0.1" />
      </g>
    </clipPath>
    <clipPath
       clipPathUnits="userSpaceOnUse"
       id="clipPath28865">
      <g
         id="g28869">
        <path
           d="M 476.479,594.861 H 950 V 298.911 H 476.479 Z"
           id="path28867"
           style="stroke-width:0.1" />
      </g>
    </clipPath>
    <clipPath
       clipPathUnits="userSpaceOnUse"
       id="clipPath28883">
      <g
         id="g28887">
        <path
           d="M 476.479,594.861 H 950 V 298.911 H 476.479 Z"
           id="path28885"
           style="stroke-width:0.1" />
      </g>
    </clipPath>
    <clipPath
       clipPathUnits="userSpaceOnUse"
       id="clipPath28895">
      <g
         id="g28899">
        <path
           d="M 476.479,594.861 H 950 V 298.911 H 476.479 Z"
           id="path28897"
           style="stroke-width:0.1" />
      </g>
    </clipPath>
    <clipPath
       clipPathUnits="userSpaceOnUse"
       id="clipPath28901">
      <g
         id="g28905">
        <path
           d="M 476.479,594.861 H 950 V 298.911 H 476.479 Z"
           id="path28903"
           style="stroke-width:0.1" />
      </g>
    </clipPath>
    <clipPath
       clipPathUnits="userSpaceOnUse"
       id="clipPath28913">
      <g
         id="g28917">
        <path
           d="M 476.479,594.861 H 950 V 298.911 H 476.479 Z"
           id="path28915"
           style="stroke-width:0.1" />
      </g>
    </clipPath>
    <clipPath
       clipPathUnits="userSpaceOnUse"
       id="clipPath28925">
      <g
         id="g28929">
        <path
           d="M 476.479,594.861 H 950 V 298.911 H 476.479 Z"
           id="path28927"
           style="stroke-width:0.1" />
      </g>
    </clipPath>
    <clipPath
       clipPathUnits="userSpaceOnUse"
       id="clipPath28937">
      <g
         id="g28941">
        <path
           d="M 476.479,594.861 H 950 V 298.911 H 476.479 Z"
           id="path28939"
           style="stroke-width:0.1" />
      </g>
    </clipPath>
    <clipPath
       clipPathUnits="userSpaceOnUse"
       id="clipPath28955">
      <g
         id="g28959">
        <path
           d="M 476.479,594.861 H 950 V 298.911 H 476.479 Z"
           id="path28957"
           style="stroke-width:0.1" />
      </g>
    </clipPath>
    <clipPath
       clipPathUnits="userSpaceOnUse"
       id="clipPath28967">
      <g
         id="g28971">
        <path
           d="M 476.479,594.861 H 950 V 298.911 H 476.479 Z"
           id="path28969"
           style="stroke-width:0.1" />
      </g>
    </clipPath>
    <clipPath
       clipPathUnits="userSpaceOnUse"
       id="clipPath28979">
      <g
         id="g28983">
        <path
           d="M 476.479,594.861 H 950 V 298.911 H 476.479 Z"
           id="path28981"
           style="stroke-width:0.1" />
      </g>
    </clipPath>
    <clipPath
       clipPathUnits="userSpaceOnUse"
       id="clipPath28991">
      <g
         id="g28995">
        <path
           d="M 476.479,594.861 H 950 V 298.911 H 476.479 Z"
           id="path28993"
           style="stroke-width:0.1" />
      </g>
    </clipPath>
    <clipPath
       clipPathUnits="userSpaceOnUse"
       id="clipPath29003">
      <g
         id="g29007">
        <path
           d="M 476.479,594.861 H 950 V 298.911 H 476.479 Z"
           id="path29005"
           style="stroke-width:0.1" />
      </g>
    </clipPath>
    <clipPath
       clipPathUnits="userSpaceOnUse"
       id="clipPath29015">
      <g
         id="g29019">
        <path
           d="M 476.479,594.861 H 950 V 298.911 H 476.479 Z"
           id="path29017"
           style="stroke-width:0.1" />
      </g>
    </clipPath>
    <clipPath
       clipPathUnits="userSpaceOnUse"
       id="clipPath29027">
      <g
         id="g29031">
        <path
           d="M 476.479,594.861 H 950 V 298.911 H 476.479 Z"
           id="path29029"
           style="stroke-width:0.1" />
      </g>
    </clipPath>
    <clipPath
       clipPathUnits="userSpaceOnUse"
       id="clipPath29039">
      <g
         id="g29043">
        <path
           d="M 476.479,594.861 H 950 V 298.911 H 476.479 Z"
           id="path29041"
           style="stroke-width:0.1" />
      </g>
    </clipPath>
    <clipPath
       clipPathUnits="userSpaceOnUse"
       id="clipPath29045">
      <g
         id="g29049">
        <path
           d="M 476.479,594.861 H 950 V 298.911 H 476.479 Z"
           id="path29047"
           style="stroke-width:0.1" />
      </g>
    </clipPath>
  </defs>
  <sodipodi:namedview
     id="namedview26809"
     pagecolor="#ffffff"
     bordercolor="#000000"
     borderopacity="0.25"
     inkscape:showpageshadow="2"
     inkscape:pageopacity="0.0"
     inkscape:pagecheckerboard="0"
     inkscape:deskcolor="#d1d1d1"
     showgrid="false" />
  <g
     id="g26815"
     inkscape:groupmode="layer"
     inkscape:label="Page 1"
     transform="matrix(1.3333333,0,0,-1.3333333,-857.24936,793.14798)">
    <g
       id="g29223">
      <path
         d="m 842.339,506.72 c 9.914,13.22 17.696,28.946 23.136,46.74 4.055,13.272 6.633,27.397 7.595,41.401 h -0.428 C 870.44,561.909 859.516,530.365 841.984,506.987 820.59,478.458 804.857,424.706 801.907,370.05 c -1.421,-26.364 0.251,-50.406 4.743,-71.139 h 0.216 c -15.176,69.258 3.39,165.03 35.473,207.809"
         style="fill:#91d4ef;fill-opacity:1;fill-rule:nonzero;stroke:none;stroke-width:0.1"
         id="path27859"
         clip-path="url(#clipPath29045)" />
      <path
         d="m 802.703,366.693 c 1.963,54.108 16.717,107.052 37.59,134.881 19.192,25.592 28.962,60.267 29.445,93.287 h -0.426 c -0.486,-32.92 -10.234,-67.498 -29.374,-93.02 -20.922,-27.898 -35.711,-80.939 -37.676,-135.132 -0.905,-24.902 0.965,-47.786 5.349,-67.798 h 0.452 c -4.391,19.995 -6.263,42.876 -5.36,67.782"
         style="fill:#a8bee7;fill-opacity:1;fill-rule:nonzero;stroke:none;stroke-width:0.1"
         id="path27861"
         clip-path="url(#clipPath29039)" />
      <path
         d="m 803.114,363.395 c 0.991,53.652 14.814,105.896 35.214,133.1 19.957,26.61 29.043,63.692 27.652,98.366 h -0.425 c 1.387,-34.573 -7.676,-71.559 -27.58,-98.1 -20.456,-27.274 -34.313,-79.62 -35.305,-133.358 -0.433,-23.486 1.606,-45.23 5.891,-64.492 h 0.451 c -4.287,19.25 -6.331,40.992 -5.898,64.484"
         style="fill:#6c8ace;fill-opacity:1;fill-rule:nonzero;stroke:none;stroke-width:0.1"
         id="path27865"
         clip-path="url(#clipPath29027)" />
      <path
         d="m 836.454,491.474 c 18.273,24.367 27.777,59.08 26.078,95.235 -0.13,2.752 -0.329,5.468 -0.583,8.152 h -0.445 c 0.256,-2.691 0.456,-5.414 0.585,-8.173 1.694,-36.054 -7.778,-70.661 -25.988,-94.946 -19.992,-26.656 -32.929,-78.315 -32.959,-131.607 -0.012,-22.118 2.18,-42.735 6.363,-61.224 h 0.454 c -4.189,18.479 -6.385,39.098 -6.373,61.222 0.029,53.204 12.932,104.757 32.868,131.341"
         style="fill:#92dcf5;fill-opacity:1;fill-rule:nonzero;stroke:none;stroke-width:0.1"
         id="path27869"
         clip-path="url(#clipPath29015)" />
      <path
         d="m 834.661,486.52 c 17.875,23.834 26.777,58.107 24.426,94.03 -0.319,4.873 -0.846,9.648 -1.554,14.311 h -0.449 c 0.712,-4.672 1.24,-9.456 1.561,-14.342 2.344,-35.818 -6.526,-69.983 -24.336,-93.734 -19.534,-26.044 -31.56,-77.025 -30.637,-129.878 0.361,-20.796 2.686,-40.303 6.768,-57.996 h 0.456 c -4.089,17.689 -6.417,37.2 -6.781,58.004 -0.923,52.761 11.07,103.634 30.546,129.605"
         style="fill:#abcdde;fill-opacity:1;fill-rule:nonzero;stroke:none;stroke-width:0.1"
         id="path27873"
         clip-path="url(#clipPath29003)" />
      <path
         d="m 832.954,481.628 c 17.481,23.309 25.786,57.149 22.787,92.844 -0.589,7.005 -1.597,13.82 -2.987,20.389 h -0.453 c 1.395,-6.58 2.408,-13.405 2.997,-20.425 2.989,-35.588 -5.283,-69.318 -22.699,-92.541 -19.081,-25.443 -30.206,-75.757 -28.346,-128.18 0.693,-19.509 3.122,-37.923 7.101,-54.804 h 0.532 c -15.71,66.766 -5.143,147.766 21.068,182.717"
         style="fill:#9ec5d8;fill-opacity:1;fill-rule:nonzero;stroke:none;stroke-width:0.1"
         id="path27877"
         clip-path="url(#clipPath28991)" />
      <path
         d="m 831.331,476.789 c 17.092,22.791 24.808,56.207 21.171,91.681 -0.939,9.147 -2.592,17.987 -4.888,26.391 h -0.46 c 2.305,-8.416 3.965,-17.27 4.905,-26.436 3.627,-35.364 -4.058,-68.666 -21.083,-91.369 -18.632,-24.844 -28.869,-74.494 -26.08,-126.489 0.979,-18.261 3.478,-35.606 7.346,-51.656 h 0.457 c -3.876,16.052 -6.38,33.407 -7.361,51.68 -2.782,51.897 7.42,101.433 25.993,126.198"
         style="fill:#b5b8dc;fill-opacity:1;fill-rule:nonzero;stroke:none;stroke-width:0.1"
         id="path27881"
         clip-path="url(#clipPath28979)" />
      <path
         d="m 829.793,472.013 c 16.706,22.277 23.839,55.274 19.568,90.53 -1.369,11.296 -3.832,22.153 -7.254,32.318 h -0.467 c 3.437,-10.177 5.909,-21.053 7.28,-32.372 4.256,-35.144 -2.845,-68.024 -19.482,-90.21 -18.189,-24.253 -27.55,-73.246 -23.849,-124.816 1.224,-17.056 3.788,-33.341 7.543,-48.552 h 0.456 c -3.763,15.216 -6.331,31.512 -7.557,48.583 -3.693,51.47 5.634,100.346 23.762,124.519"
         style="fill:#b2b7db;fill-opacity:1;fill-rule:nonzero;stroke:none;stroke-width:0.1"
         id="path27885"
         clip-path="url(#clipPath28967)" />
      <path
         d="m 828.337,467.287 c 16.326,21.77 22.884,54.353 17.991,89.394 -1.879,13.455 -5.318,26.33 -10.085,38.18 h -0.477 c 4.787,-11.862 8.241,-24.759 10.124,-38.241 4.874,-34.927 -1.651,-67.39 -17.909,-89.068 -17.747,-23.666 -26.245,-72.005 -21.646,-123.149 1.428,-15.883 4.017,-31.135 7.649,-45.492 h 0.456 c -3.64,14.367 -6.234,29.633 -7.663,45.531 -4.589,51.043 3.873,99.262 21.56,122.845"
         style="fill:#b0e5f0;fill-opacity:1;fill-rule:nonzero;stroke:none;stroke-width:0.1"
         id="path27889"
         clip-path="url(#clipPath28955)" />
      <path
         d="m 826.963,462.616 c 15.95,21.269 21.94,53.443 16.435,88.272 -2.468,15.619 -7.055,30.516 -13.376,43.973 h -0.491 c 6.35,-13.469 10.955,-28.391 13.43,-44.043 5.486,-34.711 -0.473,-66.763 -16.352,-87.936 -17.311,-23.084 -24.959,-70.77 -19.482,-121.488 1.591,-14.749 4.196,-28.979 7.701,-42.483 h 0.458 c -3.515,13.516 -6.125,27.762 -7.719,42.532 -5.465,50.611 2.148,98.174 19.396,121.173"
         style="fill:#abc0e8;fill-opacity:1;fill-rule:nonzero;stroke:none;stroke-width:0.1"
         id="path27895"
         clip-path="url(#clipPath28937)" />
      <path
         d="m 825.669,457.996 c 24.947,33.267 21.882,92.119 -2.232,136.865 h -0.494 c 24.146,-44.621 27.265,-103.403 2.369,-136.598 -16.877,-22.505 -23.688,-69.542 -17.35,-119.826 1.72,-13.65 4.31,-26.882 7.677,-39.525 h 0.458 c -3.376,12.659 -5.973,25.909 -7.695,39.58 -6.324,50.178 0.454,97.086 17.267,119.504"
         style="fill:#86d8f3;fill-opacity:1;fill-rule:nonzero;stroke:none;stroke-width:0.1"
         id="path27899"
         clip-path="url(#clipPath28925)" />
      <path
         d="m 824.452,453.421 c 15.21,20.28 20.092,51.642 13.396,86.047 -3.888,19.973 -11.285,38.963 -21.317,55.393 h -0.557 c 27.779,-45.452 33.388,-107.486 8.126,-141.174 -16.447,-21.93 -22.436,-68.308 -15.261,-118.155 1.813,-12.585 4.368,-24.837 7.589,-36.621 h 0.49 c -16.848,61.588 -13.114,126.975 7.534,154.51"
         style="fill:#778bce;fill-opacity:1;fill-rule:nonzero;stroke:none;stroke-width:0.1"
         id="path27903"
         clip-path="url(#clipPath28913)" />
      <path
         d="m 823.324,448.895 c 14.842,19.793 19.183,50.753 11.909,84.944 -4.713,22.155 -13.776,43.235 -25.945,61.022 h -0.534 c 12.222,-17.792 21.321,-38.911 26.046,-61.115 7.248,-34.065 2.936,-64.894 -11.83,-84.583 -16.017,-21.359 -21.202,-67.077 -13.212,-116.475 1.868,-11.555 4.372,-22.849 7.437,-33.776 h 0.459 c -3.077,10.949 -5.588,22.267 -7.461,33.846 -7.971,49.287 -2.817,94.873 13.131,116.137"
         style="fill:#768ace;fill-opacity:1;fill-rule:nonzero;stroke:none;stroke-width:0.1"
         id="path27907"
         clip-path="url(#clipPath28901)" />
      <path
         d="m 821.92,444.68 c -15.591,-20.787 -19.991,-65.838 -11.213,-114.774 1.895,-10.558 4.32,-20.917 7.224,-30.994 h 0.462 c -2.915,10.1 -5.35,20.486 -7.249,31.072 -8.758,48.821 -4.39,93.737 11.129,114.432 14.481,19.308 18.291,49.866 10.456,83.837 -5.618,24.342 -16.523,47.552 -31,66.608 h -0.561 c 14.541,-19.057 25.499,-42.309 31.127,-66.709 7.808,-33.843 4.025,-64.268 -10.375,-83.472"
         style="fill:#697ec8;fill-opacity:1;fill-rule:nonzero;stroke:none;stroke-width:0.1"
         id="path27909"
         clip-path="url(#clipPath28895)" />
      <path
         d="m 821.297,439.978 c 14.119,18.827 17.41,48.98 9.03,82.725 -6.592,26.537 -19.534,51.925 -36.481,72.158 h -0.578 c 17.021,-20.227 30.024,-45.666 36.629,-72.266 8.349,-33.615 5.085,-63.63 -8.954,-82.351 -7.533,-10.049 -12.366,-26.034 -13.972,-46.231 -1.589,-19.974 0.042,-43.082 4.717,-66.822 1.888,-9.597 4.225,-19.045 6.957,-28.279 h 0.458 c -2.744,9.262 -5.088,18.738 -6.984,28.364 -9.516,48.34 -5.914,92.578 9.178,112.702"
         style="fill:#979bd6;fill-opacity:1;fill-rule:nonzero;stroke:none;stroke-width:0.1"
         id="path27913"
         clip-path="url(#clipPath28883)" />
      <path
         d="m 820.052,435.847 c -7.337,-9.781 -11.882,-25.454 -13.147,-45.318 -1.251,-19.641 0.75,-42.455 5.786,-65.976 1.857,-8.67 4.08,-17.233 6.631,-25.64 h 0.465 c -2.564,8.436 -4.798,17.03 -6.662,25.733 -5.027,23.485 -7.025,46.256 -5.777,65.855 1.259,19.78 5.774,35.37 13.058,45.083 13.761,18.348 16.544,48.093 7.635,81.607 -7.637,28.73 -22.798,56.361 -42.356,77.67 h -0.604 c 19.644,-21.298 34.875,-48.987 42.532,-77.787 8.873,-33.381 6.117,-62.987 -7.561,-81.227"
         style="fill:#9cc9d9;fill-opacity:1;fill-rule:nonzero;stroke:none;stroke-width:0.1"
         id="path27919"
         clip-path="url(#clipPath28865)" />
      <path
         d="m 807.342,387.072 c 0.928,19.441 5.164,34.71 12.246,44.156 13.404,17.873 15.695,47.204 6.28,80.472 -8.75,30.926 -26.313,60.88 -48.611,83.161 h -0.632 c 48.395,-48.093 69.571,-127.418 42.609,-163.367 -7.138,-9.517 -11.404,-24.871 -12.336,-44.4 -0.923,-19.296 1.436,-41.807 6.818,-65.099 1.799,-7.781 3.898,-15.488 6.264,-23.084 h 0.464 c -2.38,7.629 -4.489,15.368 -6.295,23.183 -5.374,23.254 -7.728,45.723 -6.807,64.978"
         style="fill:#80bbe7;fill-opacity:1;fill-rule:nonzero;stroke:none;stroke-width:0.1"
         id="path27923"
         clip-path="url(#clipPath28853)" />
      <path
         d="m 807.4,383.696 c 0.612,19.092 4.573,34.034 11.455,43.214 13.051,17.398 14.859,46.311 4.96,79.323 -9.827,32.778 -29.678,64.817 -54.463,87.903 -0.262,0.244 -0.53,0.483 -0.793,0.725 h -0.649 c 0.388,-0.354 0.769,-0.704 1.139,-1.049 24.729,-23.034 44.536,-55.001 54.341,-87.706 9.857,-32.876 8.076,-61.644 -4.888,-78.93 -14.102,-18.803 -15.537,-60.053 -3.746,-107.651 1.717,-6.93 3.677,-13.809 5.85,-20.614 h 0.466 c -2.186,6.84 -4.158,13.755 -5.884,20.72 -5.701,23.009 -8.394,45.163 -7.788,64.065"
         style="fill:#6bcee8;fill-opacity:1;fill-rule:nonzero;stroke:none;stroke-width:0.1"
         id="path27925"
         clip-path="url(#clipPath28847)" />
      <path
         d="m 821.459,500.647 c 10.312,-32.6 8.996,-60.939 -3.611,-77.749 -13.671,-18.228 -14.454,-58.747 -2.045,-105.745 1.614,-6.116 3.421,-12.202 5.398,-18.24 h 0.465 c -1.99,6.074 -3.811,12.198 -5.436,18.352 -12.374,46.872 -11.618,87.246 1.972,105.368 12.694,16.926 14.035,45.411 3.679,78.15 -10.271,32.472 -30.52,64.584 -55.556,88.099 -2.206,2.072 -4.435,4.063 -6.691,5.981 h -0.718 c 2.64,-2.214 5.016,-4.341 7.105,-6.304 24.983,-23.466 45.189,-55.509 55.438,-87.912"
         style="fill:#6dcfe8;fill-opacity:1;fill-rule:nonzero;stroke:none;stroke-width:0.1"
         id="path27929"
         clip-path="url(#clipPath28835)" />
      <path
         d="m 817.622,418.384 c 25.672,34.233 -0.629,114.516 -54.119,165.204 -4.257,4.034 -8.605,7.79 -13.022,11.273 h -0.793 c 5.29,-4.108 9.824,-8.104 13.508,-11.596 53.343,-50.547 79.62,-130.547 54.071,-164.615 -13.237,-17.65 -13.398,-57.412 -0.421,-103.769 1.496,-5.343 3.144,-10.669 4.924,-15.969 h 0.468 c -1.793,5.338 -3.457,10.705 -4.965,16.089 -12.938,46.228 -12.806,85.841 0.349,103.383"
         style="fill:#6ed0f4;fill-opacity:1;fill-rule:nonzero;stroke:none;stroke-width:0.1"
         id="path27935"
         clip-path="url(#clipPath28817)" />
      <path
         d="m 817.121,414.173 c 11.986,15.983 12.449,43.578 1.267,75.712 -11.064,31.798 -32.019,64.003 -57.486,88.356 -6.413,6.131 -13.009,11.68 -19.744,16.62 h -0.872 c 8.237,-5.965 15.094,-11.954 20.309,-16.941 25.419,-24.307 46.331,-56.447 57.374,-88.181 11.134,-31.991 10.694,-59.437 -1.201,-75.3 -12.802,-17.07 -12.374,-56.045 1.116,-101.715 1.362,-4.613 2.837,-9.221 4.414,-13.813 h 0.468 c -1.595,4.634 -3.082,9.283 -4.458,13.938 -13.452,45.54 -13.907,84.364 -1.187,101.324"
         style="fill:#617fc9;fill-opacity:1;fill-rule:nonzero;stroke:none;stroke-width:0.1"
         id="path27937"
         clip-path="url(#clipPath28811)" />
      <path
         d="m 816.699,409.994 c 11.634,15.511 11.684,42.641 0.139,74.434 -11.411,31.422 -32.664,63.639 -58.311,88.393 -8.681,8.381 -17.679,15.743 -26.877,22.04 h -0.904 c 11.42,-7.743 20.758,-15.878 27.475,-22.359 25.598,-24.709 46.811,-56.866 58.199,-88.226 11.493,-31.649 11.465,-58.628 -0.076,-74.018 -12.365,-16.487 -11.383,-54.64 2.558,-99.567 1.221,-3.931 2.53,-7.857 3.91,-11.78 h 0.473 c -1.396,3.967 -2.722,7.939 -3.955,11.913 -13.903,44.794 -14.91,82.794 -2.631,99.17"
         style="fill:#7b97d5;fill-opacity:1;fill-rule:nonzero;stroke:none;stroke-width:0.1"
         id="path27941"
         clip-path="url(#clipPath28799)" />
      <path
         d="m 816,406.105 c -11.926,-15.898 -10.433,-53.185 3.896,-97.307 1.069,-3.293 2.203,-6.59 3.387,-9.885 h 0.473 c -1.203,3.341 -2.355,6.682 -3.439,10.02 -14.284,43.988 -15.802,81.121 -3.963,96.909 11.279,15.039 10.94,41.689 -0.931,73.116 -11.716,31.013 -33.229,63.217 -59.022,88.354 -11.058,10.777 -22.588,20.001 -34.373,27.549 h -0.909 c 14.786,-9.426 26.768,-19.871 34.973,-27.869 C 810.688,513.785 839.243,437.1 816,406.105"
         style="fill:#acc1e8;fill-opacity:1;fill-rule:nonzero;stroke:none;stroke-width:0.1"
         id="path27945"
         clip-path="url(#clipPath28787)" />
      <path
         d="m 813.741,473.286 c 12.094,-30.873 12.822,-56.862 1.993,-71.301 -5.736,-7.647 -8.255,-20.566 -7.285,-37.362 0.953,-16.512 5.242,-36.421 12.405,-57.575 0.917,-2.708 1.879,-5.421 2.875,-8.135 h 0.474 c -1.015,2.761 -1.994,5.521 -2.927,8.277 -7.148,21.116 -11.431,40.985 -12.381,57.459 -0.966,16.689 1.522,29.509 7.193,37.071 5.627,7.503 8.223,17.801 7.711,30.614 -0.485,12.181 -3.729,26.015 -9.645,41.116 -11.975,30.567 -33.698,62.723 -59.597,88.221 -13.558,13.347 -27.777,24.48 -42.278,33.19 h -0.81 c 14.505,-8.619 28.849,-19.797 42.777,-33.508 25.858,-25.456 47.542,-57.555 59.495,-88.067"
         style="fill:#b0b5da;fill-opacity:1;fill-rule:nonzero;stroke:none;stroke-width:0.1"
         id="path27949"
         clip-path="url(#clipPath28775)" />
      <path
         d="m 809.314,361.694 c -1.156,16.216 1.121,28.641 6.583,35.926 5.449,7.265 7.873,17.31 7.199,29.852 -0.64,11.925 -4.026,25.53 -10.064,40.436 -12.185,30.084 -34.066,62.152 -60.032,87.981 -16.166,16.081 -33.206,29.192 -50.521,38.972 h -0.784 c 17.24,-9.639 34.37,-22.751 50.992,-39.285 25.925,-25.789 47.77,-57.803 59.935,-87.834 6.021,-14.861 9.396,-28.417 10.031,-40.294 0.666,-12.435 -1.724,-22.38 -7.111,-29.562 -12.039,-16.051 -8.173,-54.375 8.588,-98.975 h 0.492 c -0.839,2.235 -1.659,4.469 -2.442,6.695 -7.276,20.696 -11.725,40.091 -12.866,56.088"
         style="fill:#bae7dc;fill-opacity:1;fill-rule:nonzero;stroke:none;stroke-width:0.1"
         id="path27953"
         clip-path="url(#clipPath28763)" />
      <path
         d="m 815.786,393.552 c 10.357,13.811 9.036,38.235 -3.721,68.772 -12.343,29.555 -34.328,61.489 -60.311,87.615 -14.356,14.434 -34.658,31.888 -59.111,44.922 h -0.711 c 20.033,-10.575 40.066,-25.688 59.507,-45.235 25.946,-26.087 47.894,-57.97 60.218,-87.474 12.691,-30.386 14.032,-54.653 3.775,-68.332 -10.747,-14.329 -8.061,-47.892 7.184,-89.777 0.621,-1.707 1.266,-3.416 1.921,-5.132 h 0.476 c -0.676,1.764 -1.34,3.525 -1.98,5.282 -15.194,41.745 -17.903,75.149 -7.247,89.359"
         style="fill:#7dd5f4;fill-opacity:1;fill-rule:nonzero;stroke:none;stroke-width:0.1"
         id="path27959"
         clip-path="url(#clipPath28745)" />
      <path
         d="m 815.753,389.504 c 9.991,13.322 8.395,37.178 -4.489,67.173 -12.449,28.977 -34.469,60.726 -60.414,87.106 -16.193,16.463 -39.706,36.801 -68.065,51.078 h -1.353 c 32.036,-16.083 57.317,-39.41 69.1,-51.39 25.908,-26.341 47.896,-58.041 60.322,-86.968 12.821,-29.845 14.434,-53.544 4.543,-66.734 -10.285,-13.715 -7.293,-46.222 8.003,-86.96 0.486,-1.295 0.986,-2.595 1.493,-3.898 h 0.474 c -0.529,1.354 -1.047,2.707 -1.553,4.054 -15.243,40.595 -18.256,72.945 -8.061,86.539"
         style="fill:#a1b4e2;fill-opacity:1;fill-rule:nonzero;stroke:none;stroke-width:0.1"
         id="path27961"
         clip-path="url(#clipPath28739)" />
      <path
         d="m 815.795,385.475 c 9.621,12.829 7.786,36.086 -5.167,65.487 -12.489,28.343 -34.474,59.845 -60.319,86.427 -18.058,18.574 -44.931,42.009 -77.349,57.472 h -1.05 c 36.109,-17.334 65.045,-44.372 78.081,-57.78 25.811,-26.546 47.764,-58 60.232,-86.298 12.886,-29.247 14.739,-52.346 5.218,-65.041 -9.819,-13.094 -6.581,-44.483 8.663,-83.966 0.367,-0.951 0.748,-1.909 1.126,-2.865 h 0.462 c -15.945,40.257 -19.956,73.151 -9.897,86.564"
         style="fill:#64a3dd;fill-opacity:1;fill-rule:nonzero;stroke:none;stroke-width:0.1"
         id="path27967"
         clip-path="url(#clipPath28721)" />
      <path
         d="m 815.914,381.469 c 9.249,12.334 7.208,34.958 -5.747,63.704 -12.464,27.654 -34.336,58.838 -60.011,85.561 -27.273,28.386 -57.652,50.699 -87.029,64.127 h -1.081 c 29.604,-13.356 60.276,-35.797 87.791,-64.434 54.885,-57.127 84.368,-123.828 65.723,-148.691 -4.681,-6.241 -6.27,-17.024 -4.597,-31.184 1.64,-13.852 6.393,-31.004 13.75,-49.6 0.268,-0.678 0.547,-1.361 0.821,-2.041 h 0.48 c -0.297,0.735 -0.598,1.471 -0.888,2.204 -15.022,37.975 -18.467,68.014 -9.212,80.354"
         style="fill:#b6e6d9;fill-opacity:1;fill-rule:nonzero;stroke:none;stroke-width:0.1"
         id="path27969"
         clip-path="url(#clipPath28715)" />
      <path
         d="m 750.102,523.466 c 25.762,-27.148 46.853,-57.108 59.386,-84.36 12.814,-27.871 15.041,-49.661 6.27,-61.358 -9.006,-12.01 -5.554,-40.221 9.471,-77.404 0.192,-0.476 0.393,-0.955 0.588,-1.432 h 0.481 c -0.219,0.532 -0.443,1.066 -0.656,1.597 -14.966,37.034 -18.439,65.091 -9.53,76.973 8.875,11.831 6.664,33.782 -6.221,61.81 -12.551,27.296 -33.67,57.297 -59.468,84.481 -30.339,31.97 -64.41,56.913 -96.892,71.088 h -1.118 c 32.71,-14.077 67.095,-39.157 97.689,-71.395"
         style="fill:#a5e2f0;fill-opacity:1;fill-rule:nonzero;stroke:none;stroke-width:0.1"
         id="path27975"
         clip-path="url(#clipPath28697)" />
      <path
         d="m 816.39,373.512 c 8.496,11.328 6.154,32.57 -6.592,59.813 -12.384,26.467 -33.224,56.006 -58.683,83.173 -33.469,35.716 -71.386,63.459 -107.023,78.363 h -1.155 c 35.866,-14.778 74.118,-42.666 107.854,-78.668 25.428,-27.134 46.241,-56.631 58.605,-83.057 12.673,-27.088 15.031,-48.167 6.638,-59.359 -8.519,-11.359 -5.019,-38.266 9.604,-73.82 0.142,-0.348 0.292,-0.698 0.436,-1.046 h 0.482 c -0.168,0.405 -0.342,0.811 -0.508,1.216 -14.562,35.404 -18.081,62.152 -9.658,73.385"
         style="fill:#a0cddc;fill-opacity:1;fill-rule:nonzero;stroke:none;stroke-width:0.1"
         id="path27979"
         clip-path="url(#clipPath28685)" />
    </g>
  </g>
</svg>
