<?xml version="1.0" encoding="UTF-8" standalone="no"?>
<!-- Created with Inkscape (http://www.inkscape.org/) -->

<svg
   version="1.1"
   id="svg26807"
   width="631.36133"
   height="394.59973"
   viewBox="0 0 631.3613 394.59973"
   sodipodi:docname="164253416104.eps"
   xmlns:inkscape="http://www.inkscape.org/namespaces/inkscape"
   xmlns:sodipodi="http://sodipodi.sourceforge.net/DTD/sodipodi-0.dtd"
   xmlns="http://www.w3.org/2000/svg"
   xmlns:svg="http://www.w3.org/2000/svg">
  <defs
     id="defs26811">
    <clipPath
       clipPathUnits="userSpaceOnUse"
       id="clipPath26827">
      <path
         d="M 4764.79,2959.51 H 9500 V 0.0117188 H 4764.79 Z"
         id="path26825" />
    </clipPath>
  </defs>
  <sodipodi:namedview
     id="namedview26809"
     pagecolor="#ffffff"
     bordercolor="#000000"
     borderopacity="0.25"
     inkscape:showpageshadow="2"
     inkscape:pageopacity="0.0"
     inkscape:pagecheckerboard="0"
     inkscape:deskcolor="#d1d1d1"
     showgrid="false" />
  <g
     id="g26815"
     inkscape:groupmode="layer"
     inkscape:label="Page 1"
     transform="matrix(1.3333333,0,0,-1.3333333,-635.30532,394.60132)">
    <g
       id="g26821"
       transform="scale(0.1)">
      <g
         id="g26823"
         clip-path="url(#clipPath26827)">
        <path
           d="m 9107.61,2256.97 c -215.52,198.23 -378.52,272.08 -498.24,225.73 -93.33,-36.11 -161.38,-147.92 -202.28,-332.29 -45.09,-203.26 -59.12,-502.65 -41.71,-889.85 31.07,-689.997 -11.91,-1041.619 -131.37,-1074.958 -149.85,-41.782 -405.61,427.089 -652.96,880.558 -259.61,475.94 -504.82,925.51 -658.07,882.71 -121.76,-33.98 -165.79,-387.06 -134.64,-1079.409 15.68,-348.52 0.88,-619.949 -44,-806.7891 -5.28,-21.961 -11,-42.8399 -17.16,-62.6523687 h 5.13 C 6790.56,189.34 6810.4,477.82 6792.77,869.641 c -31.04,689.989 11.94,1041.599 131.4,1074.939 149.87,41.84 405.62,-427.09 652.98,-880.56 248.09,-454.84 483.05,-885.59 637.13,-885.528 7.15,0 14.14,0.938 20.93,2.828 121.74,33.981 165.79,387.082 134.61,1079.44 -17.39,386.81 -3.4,685.82 41.61,888.68 40.56,182.85 107.69,293.58 199.53,329.12 118.02,45.67 279.47,-27.88 493.65,-224.85 128.72,-118.4 264.77,-270.68 395.39,-424.2 v 6.84 c -129.67,152.29 -264.6,303.1 -392.39,420.62"
           style="fill:#b31c79;fill-opacity:1;fill-rule:nonzero;stroke:none"
           id="path26829" />
        <path
           d="m 5349.02,598.141 c -184.18,195.769 -358.16,380.691 -507.76,508.249 -26.88,22.92 -52.33,43.43 -76.47,61.6 v -5.98 C 4929.86,1037.16 5134.37,819.82 5345.78,595.102 5544.73,383.641 5749.8,165.66 5942.76,0.0117188 h 7.41 C 5754.53,167.141 5545.74,389.039 5349.02,598.141"
           style="fill:#b31c79;fill-opacity:1;fill-rule:nonzero;stroke:none"
           id="path26831" />
        <path
           d="m 9140.27,2290.86 c -217.97,192.87 -383.38,263.35 -505.6,215.46 -94.75,-37.09 -164.65,-147.98 -207.75,-329.58 -47.49,-200.09 -64.42,-493.85 -50.34,-873.08 C 8401.74,626.191 8354.73,280.262 8232.88,246.121 8079.8,203.172 7823.8,661.82 7576.12,1105.28 7316.17,1570.74 7070.63,2010.36 6914.31,1966.57 6790.18,1931.78 6742.11,1584.4 6767.36,904.582 6780.01,563.621 6762.6,297.5 6715.6,113.609 6704.92,71.8516 6692.63,33.9805 6678.71,0.0117188 h 5.36 C 6758.57,184.242 6787.41,484.012 6771.8,904.742 c -25.16,677.478 21.84,1023.408 143.69,1057.558 152.96,42.88 409.09,-415.7 656.77,-859.18 259.95,-465.46 505.52,-905.12 661.82,-861.28 124.12,34.789 172.19,382.16 146.94,1061.98 -14.06,378.84 2.83,672.18 50.23,871.9 42.73,180.09 111.71,289.93 205.04,326.48 120.55,47.21 284.43,-23.01 501.03,-214.66 118.15,-104.55 242.23,-236.63 362.68,-372.23 v 6.67 c -119.51,134.41 -242.51,265.16 -359.73,368.88"
           style="fill:#a35da4;fill-opacity:1;fill-rule:nonzero;stroke:none"
           id="path26833" />
        <path
           d="m 5299.33,624.52 c -186.26,191.25 -362.19,371.89 -513.61,495.88 -7.09,5.79 -14.03,11.37 -20.93,16.86 v -6.05 C 4921.03,1006.56 5105.82,816.859 5296.14,621.422 5514.78,396.91 5740.75,164.91 5950.7,0.0195313 h 7.88 C 5746.02,165.871 5515.46,402.57 5299.33,624.52"
           style="fill:#a35da4;fill-opacity:1;fill-rule:nonzero;stroke:none"
           id="path26835" />
        <path
           d="m 9173.69,2324.52 c -220.54,187.58 -388.41,254.71 -513.23,205.23 -96.18,-38.11 -167.92,-148.13 -213.17,-326.98 -49.87,-197.01 -69.68,-485.21 -58.93,-856.58 19.26,-665.21 -31.79,-1005.581 -156.07,-1040.549 -156.11,-43.922 -412.74,404.449 -660.84,838.109 -124.29,217.23 -252.81,441.86 -367.38,602.08 -130.83,182.92 -225.66,258.56 -298.5,238.08 -126.53,-35.6 -178.64,-377.41 -159.3,-1044.961 9.65,-333.5 -10.35,-594.367 -59.45,-775.398 C 6669.57,100 6648.49,45.4609 6623.67,0.0195313 h 5.72 C 6723.96,175.461 6763.8,486.121 6750.69,939.09 c -19.25,665.21 31.79,1005.57 156.07,1040.56 156.17,43.98 412.73,-404.46 660.84,-838.1 124.28,-217.23 252.81,-441.878 367.38,-602.089 130.84,-182.91 225.66,-258.57 298.52,-238.09 126.51,35.609 178.63,377.418 159.3,1044.949 -10.74,370.96 9.04,658.75 58.8,855.37 44.88,177.39 115.7,286.38 210.5,323.95 123.17,48.8 289.56,-18.09 508.71,-204.5 107.35,-91.31 219.39,-204.54 329.2,-322.57 v 6.51 c -108.89,116.89 -219.88,228.9 -326.32,319.44"
           style="fill:#cf0b7e;fill-opacity:1;fill-rule:nonzero;stroke:none"
           id="path26837" />
        <path
           d="m 5248.97,650 c -174.04,172.539 -339.14,336.129 -484.18,455.04 v -6.03 C 4910.19,979.582 5075.82,815.391 5245.86,646.84 5469.96,424.672 5701.7,194.941 5916.83,34.4805 5932.96,22.4492 5948.81,10.9727 5964.4,0 h 8.53 c -230.74,161.09 -485.98,414.102 -723.96,650"
           style="fill:#cf0b7e;fill-opacity:1;fill-rule:nonzero;stroke:none"
           id="path26839" />
        <path
           d="m 9207.98,2357.93 c -223.21,182.33 -393.67,246.12 -521.13,195.01 -97.62,-39.15 -171.18,-148.33 -218.61,-324.51 -52.21,-194 -74.91,-476.73 -67.46,-840.37 13.37,-653.201 -41.74,-988.13 -168.49,-1023.958 -159.35,-45.012 -416.59,393.359 -665.24,817.358 -124.55,212.41 -253.35,432.05 -368.53,588.43 -131.53,178.55 -227.41,251.97 -301.66,230.94 -128.98,-36.45 -185.15,-372.82 -171.7,-1028.31 6.67,-326.141 -15.9,-581.868 -67.07,-760.071 -25.38,-88.32 -58.3,-159.2576 -98.45,-212.4294687 h 6.21 C 6685.86,161.371 6739.62,482.43 6729.58,972.602 c -13.4,653.198 41.71,988.128 168.47,1023.958 159.44,45.12 416.54,-393.35 665.17,-817.32 124.56,-212.427 253.36,-432.068 368.56,-588.451 117.01,-158.828 205.79,-234.449 276.25,-234.43 8.76,0 17.23,1.172 25.45,3.493 128.97,36.449 185.14,372.82 171.73,1028.318 -7.44,363.21 15.21,645.53 67.32,839.13 47.04,174.75 119.7,282.93 215.96,321.53 125.83,50.47 294.83,-13.1 516.67,-194.33 96.27,-78.63 196.15,-174.28 294.84,-275.2 v 6.34 c -97.75,99.82 -196.64,194.37 -292.02,272.29"
           style="fill:#aa2f9e;fill-opacity:1;fill-rule:nonzero;stroke:none"
           id="path26841" />
        <path
           d="m 5197.94,674.57 c -153.75,147.051 -300.59,287.45 -433.15,397.65 v -6.03 c 132.91,-110.627 279.81,-251.108 430.08,-394.831 226.77,-216.867 461.26,-441.136 679.3,-596.8785 38.91,-27.7813 76.28,-52.5782 112.2,-74.4687812 h 9.39 C 5745.36,151.039 5461.2,422.781 5197.94,674.57"
           style="fill:#aa2f9e;fill-opacity:1;fill-rule:nonzero;stroke:none"
           id="path26843" />
        <path
           d="m 9243.09,2391.11 c -226.03,177.17 -399.18,237.63 -529.38,184.79 -99.06,-40.2 -174.42,-148.59 -224.01,-322.13 -54.58,-191.05 -80.13,-468.42 -75.95,-824.42 7.51,-641.428 -51.68,-971.088 -180.94,-1007.78 -162.8,-46.238 -420.57,382.403 -669.84,796.92 -124.88,207.66 -254.01,422.39 -369.86,575 -132.28,174.26 -229.16,245.39 -304.99,223.89 -131.46,-37.31 -191.7,-368.37 -184.16,-1012.08 3.73,-318.909 -21.37,-569.55 -74.6,-744.968 C 6593.47,142.07 6543.79,54.9492 6481.19,0.0117188 h 7.13 C 6642.51,138.621 6714.67,469.43 6708.39,1005.36 c -7.51,641.41 51.67,971.07 180.94,1007.75 162.77,46.23 420.58,-382.4 669.84,-796.91 124.88,-207.65 254,-422.38 369.86,-575.001 132.3,-174.258 229.25,-245.398 304.98,-223.886 131.47,37.316 191.71,368.367 184.17,1012.107 -4.16,355.56 21.33,632.5 75.79,823.14 49.18,172.17 123.67,279.58 221.4,319.24 128.59,52.19 300.3,-8.07 524.97,-184.18 84.91,-66.56 172.51,-145.88 259.66,-230.29 v 6.17 c -86.21,83.39 -172.86,161.73 -256.91,227.61"
           style="fill:#b23a20;fill-opacity:1;fill-rule:nonzero;stroke:none"
           id="path26845" />
        <path
           d="m 5146.25,698.23 c -133.9,123.461 -262.61,242.129 -381.46,341.15 v -6.01 c 119.08,-99.268 247.5,-217.671 378.44,-338.409 229.56,-211.672 466.94,-430.551 688.03,-581.602 67.92,-46.3981 131.29,-84.1402 190.4,-113.3472812 h 10.94 C 5760.46,131.883 5440.47,426.941 5146.25,698.23"
           style="fill:#b23a20;fill-opacity:1;fill-rule:nonzero;stroke:none"
           id="path26847" />
        <path
           d="m 9279.09,2424.06 c -228.99,172.06 -404.97,229.17 -537.94,174.57 -100.5,-41.27 -177.65,-148.9 -229.38,-319.88 -56.92,-188.16 -85.31,-460.26 -84.4,-808.73 1.65,-629.918 -61.63,-954.387 -193.46,-991.989 -166.28,-47.468 -424.77,371.61 -674.79,776.799 -125.25,203 -254.78,412.9 -371.35,561.83 -133.08,170.02 -231.09,238.95 -308.42,216.89 -134,-38.19 -198.32,-364.07 -196.66,-996.24 0.82,-311.747 -26.79,-557.388 -82.06,-730.111 -50.5,-157.84 -125.99,-260.3592 -224.37,-304.70681 -1.98,-0.8711 -3.97,-1.640627 -5.97,-2.4804712 h 11.08 C 6588.67,96.5391 6688.71,435.91 6687.15,1037.33 c -1.67,629.91 61.6,954.39 193.43,991.96 166.23,47.42 424.76,-371.59 674.78,-776.78 125.27,-203 254.78,-412.901 371.36,-561.83 133.07,-170.028 231.03,-238.95 308.42,-216.899 134.01,38.199 198.33,364.071 196.68,996.259 -0.92,348.03 27.42,619.69 84.21,807.43 51.31,169.65 127.62,276.32 226.81,317.05 131.41,53.96 305.93,-2.96 533.58,-174.02 73.26,-55.03 148.43,-119.23 223.58,-187.92 v 6 c -74.23,67.74 -148.5,131.06 -220.91,185.48"
           style="fill:#a6511e;fill-opacity:1;fill-rule:nonzero;stroke:none"
           id="path26849" />
        <path
           d="M 5093.81,720.992 C 4979.46,822.57 4868.88,920.77 4764.79,1006.88 V 1001 C 4868.93,914.832 4978.99,817.07 5090.86,717.672 5323.37,511.129 5563.78,297.551 5788.07,151.16 5898.76,78.9023 5997.71,28.6211 6085.88,0.0117188 h 15.76 C 5804.03,90.0898 5432.12,420.461 5093.81,720.992"
           style="fill:#a6511e;fill-opacity:1;fill-rule:nonzero;stroke:none"
           id="path26851" />
        <path
           d="m 9315.88,2456.81 c -232.11,167.01 -410.98,220.76 -546.8,164.32 -101.9,-42.33 -180.88,-149.24 -234.7,-317.73 -59.24,-185.31 -90.44,-452.21 -92.76,-793.29 -4.22,-618.618 -71.61,-938.059 -206.03,-976.559 -169.77,-48.641 -429.17,360.941 -680.05,756.989 -125.69,198.42 -255.67,403.6 -373,548.86 -133.97,165.86 -233.13,232.6 -312,209.99 -136.57,-39.12 -205.01,-359.94 -209.22,-980.8 -2.07,-304.699 -32.15,-545.418 -89.43,-715.457 C 6519.51,197.609 6442.46,95.7188 6342.87,50.25 6021.8,-96.3203 5500.55,349.539 5040.63,742.879 c -95,81.273 -187.44,160.293 -275.84,232.402 v -5.812 c 88.24,-71.957 179.99,-150.418 272.96,-229.957 235.6,-201.5 479.18,-409.84 706.82,-551.633 183.2,-114.129 335.01,-170.7384 459.41,-170.7267 51.52,0 98.34,9.7188 140.73,29.0586 212.02,96.7811 317.04,431.1991 321.05,1022.3491 4.19,618.63 71.58,938.07 206.01,976.56 169.74,48.6 429.15,-360.91 680.01,-756.96 125.7,-198.42 255.67,-403.597 373.02,-548.879 133.97,-165.859 233.14,-232.582 312.02,-210 136.58,39.121 205.01,359.949 209.23,980.809 2.32,340.62 33.45,607.08 92.55,791.98 53.42,167.18 131.55,273.16 232.19,314.98 134.33,55.79 311.76,2.2 542.51,-163.83 61.31,-44.13 123.93,-94.44 186.71,-148.31 v 5.84 c -61.91,53.01 -123.65,102.53 -184.13,146.06"
           style="fill:#9c2665;fill-opacity:1;fill-rule:nonzero;stroke:none"
           id="path26853" />
        <path
           d="m 9353.57,2489.36 c -235.33,162 -417.17,212.41 -555.98,154.07 -103.31,-43.42 -184.08,-149.63 -240.04,-315.67 -61.53,-182.54 -95.54,-444.33 -101.06,-778.11 -10.04,-607.56 -81.58,-922.08 -218.65,-961.517 -173.35,-49.871 -433.74,350.367 -685.58,737.437 -126.17,193.93 -256.63,394.45 -374.8,536.14 -134.9,161.73 -235.23,226.29 -315.72,203.14 -139.2,-40.06 -211.75,-355.95 -221.85,-965.72 -4.92,-297.759 -37.46,-533.61 -96.7,-701.028 C 6488.97,244.871 6410.37,143.563 6309.58,96.9922 5981.47,-54.6406 5453.01,380.23 4986.74,763.879 c -75.83,62.402 -150.06,123.473 -221.95,180.91 v -5.769 c 71.52,-57.118 144.93,-117.528 219.13,-178.571 238.8,-196.5 485.76,-399.699 716.85,-536.937 182.38,-108.289 334.33,-162.0315 459.65,-162.0315 55.44,0 105.66,10.5195 151,31.4883 214.43,99.0902 323.33,428.1832 332.9,1006.0912 10.06,607.56 81.56,922.08 218.63,961.51 173.32,49.83 433.74,-350.37 685.57,-737.42 126.19,-193.93 256.66,-394.459 374.82,-536.138 134.9,-161.762 235.24,-226.293 315.71,-203.153 139.2,40.063 211.78,355.954 221.88,965.721 5.5,333.32 39.43,594.65 100.82,776.76 55.54,164.78 135.46,270.09 237.56,313 137.27,57.7 317.75,7.44 551.74,-153.64 49.06,-33.75 98.88,-71.34 148.95,-111.44 v 5.69 c -49.22,39.32 -98.19,76.22 -146.43,109.41"
           style="fill:#885d30;fill-opacity:1;fill-rule:nonzero;stroke:none"
           id="path26855" />
        <path
           d="m 9392.13,2521.72 c -238.73,157.04 -423.71,204.08 -565.5,143.78 -104.73,-44.53 -187.26,-150.06 -245.32,-313.7 -63.81,-179.81 -100.57,-436.57 -109.28,-763.16 -15.92,-596.73 -91.6,-906.46 -231.36,-946.851 -177.08,-51.219 -438.53,339.953 -691.45,718.181 -126.72,189.5 -257.76,385.44 -376.79,523.59 -135.88,157.72 -237.43,220.13 -319.57,196.36 -141.85,-41.01 -218.58,-352.07 -234.54,-950.99 C 6610.56,838.031 6575.61,606.961 6514.41,442.129 6458.37,291.141 6378.26,190.422 6276.28,142.73 5940.96,-14.0586 5404.93,409.93 4932.01,784.031 4875.28,828.902 4819.46,873.02 4764.79,915.59 v -5.641 c 54.11,-42.097 109.07,-85.59 164.47,-129.398 242.2,-191.602 492.65,-389.711 727.38,-522.399 181.43,-102.57 333.39,-153.5 459.56,-153.5 59.62,0 113.49,11.379 161.96,34.059 216.81,101.398 329.53,425.269 344.58,990.109 15.91,596.73 91.59,906.44 231.34,946.84 176.96,51.18 438.53,-339.93 691.44,-718.14 126.71,-189.52 257.75,-385.457 376.78,-523.629 135.9,-157.711 237.49,-220.11 319.58,-196.352 141.88,41 218.61,352.082 234.58,950.991 8.7,326.12 45.37,582.42 109.02,761.79 57.63,162.41 139.33,267.09 242.88,311.1 140.33,59.65 323.93,12.77 561.32,-143.41 36.42,-23.96 73.28,-49.98 110.32,-77.49 v 5.53 c -36.21,26.83 -72.25,52.23 -107.87,75.67"
           style="fill:#ed1c24;fill-opacity:1;fill-rule:nonzero;stroke:none"
           id="path26857" />
        <path
           d="m 9431.58,2553.88 c -242.26,152.15 -430.46,195.8 -575.39,133.5 -106.12,-45.64 -190.43,-150.54 -250.56,-311.82 -66.06,-177.15 -105.57,-428.96 -117.45,-748.45 -21.75,-586.14 -101.6,-891.18 -244.09,-932.551 -180.77,-52.539 -443.51,329.621 -697.63,699.171 -127.31,185.15 -258.96,376.61 -378.94,511.28 -135.05,151.63 -240.89,213.67 -323.58,189.65 -144.57,-42 -225.46,-348.37 -247.29,-936.66 C 6586.1,873.852 6548.77,647.5 6485.66,485.211 6427.83,336.441 6346.21,236.27 6243.1,187.48 5900.35,25.3203 5356.42,438.641 4876.52,803.309 4838.88,831.91 4801.6,860.23 4764.79,888 v -5.559 c 36.09,-27.23 72.47,-54.871 109.04,-82.66 245.76,-186.761 499.87,-379.851 738.37,-508.039 180.34,-96.922 332.21,-145.082 459.11,-145.07 64.12,0 121.87,12.289 173.68,36.808 219.11,103.672 335.6,422.399 356.08,974.37 21.76,586.12 101.61,891.16 244.1,932.55 180.79,52.51 443.51,-329.63 697.62,-699.17 127.33,-185.15 258.98,-376.61 378.94,-511.281 135.07,-151.629 240.91,-213.629 323.59,-189.648 144.58,41.98 225.47,348.349 247.31,936.649 11.83,319.02 51.24,570.36 117.15,747.07 59.69,160.09 143.2,264.15 248.17,309.29 143.47,61.7 330.34,18.13 571.28,-133.18 23.45,-14.72 47.05,-30.29 70.77,-46.49 v 5.37 c -22.91,15.61 -45.74,30.64 -68.42,44.87"
           style="fill:#8748a9;fill-opacity:1;fill-rule:nonzero;stroke:none"
           id="path26859" />
        <path
           d="m 9471.91,2585.9 c -245.94,147.27 -437.52,187.55 -585.61,123.16 -107.5,-46.75 -193.55,-151.05 -255.78,-310.02 -68.29,-174.51 -110.53,-421.47 -125.51,-733.97 -27.61,-575.75 -111.64,-876.25 -256.92,-918.64 -184.5,-53.86 -448.71,319.46 -704.13,680.47 -127.97,180.88 -260.31,367.91 -381.25,499.16 -136.15,147.76 -243.35,207.6 -327.73,182.99 -147.31,-42.99 -232.4,-344.81 -260.1,-922.67 -13.31,-277.489 -53,-499.208 -117.98,-658.989 C 6397.29,380.801 6314.21,281.18 6209.96,231.301 5859.58,63.582 5307.38,466.371 4820.2,821.73 c -18.57,13.551 -37.01,27 -55.4,40.372 v -5.481 c 17.54,-12.781 35.14,-25.609 52.77,-38.469 249.46,-181.953 507.43,-370.113 749.85,-493.82 179.1,-91.391 330.74,-136.832 458.26,-136.82 68.94,0 130.86,13.289 186.2,39.75 105.27,50.39 189.08,150.801 249.13,298.449 65.16,160.238 104.97,382.449 118.3,660.449 27.59,575.74 111.64,876.22 256.91,918.61 184.61,53.89 448.7,-319.44 704.11,-680.45 127.98,-180.88 260.31,-367.91 381.26,-499.168 136.16,-147.75 243.39,-207.601 327.73,-182.98 147.32,42.98 232.4,344.808 260.12,922.668 14.95,312.03 57.09,558.51 125.21,732.58 61.78,157.82 147.02,261.31 253.41,307.55 146.71,63.8 336.95,23.59 581.58,-122.89 10.1,-6.05 20.22,-12.27 30.36,-18.6 v 5.25 c -9.37,5.83 -18.74,11.58 -28.09,17.17"
           style="fill:#972f1e;fill-opacity:1;fill-rule:nonzero;stroke:none"
           id="path26861" />
        <path
           d="m 8916.92,2730.53 c -108.87,-47.85 -196.66,-151.56 -260.92,-308.27 -70.51,-171.94 -115.43,-414.1 -133.53,-719.72 -33.46,-565.57 -121.72,-861.61 -269.81,-905.04 -188.44,-55.23 -454.09,309.36 -710.92,661.98 -128.68,176.67 -261.77,359.36 -383.73,487.23 -137.33,143.94 -245.92,201.62 -332.03,176.38 -150.12,-44.01 -239.43,-341.36 -273.02,-909.02 C 6536.93,943.141 6494.91,726 6428.1,568.68 6366.73,424.23 6282.2,325.129 6176.87,274.172 5819.07,101.051 5259.17,492.223 4764.79,838.051 v -5.41 c 252,-176.282 512.36,-358.11 757.48,-476.692 177.67,-85.937 328.96,-128.726 456.98,-128.726 74.12,0 140.44,14.347 199.54,42.968 106.35,51.45 191.59,151.301 253.39,296.77 67.02,157.769 109.17,375.43 125.22,646.859 33.46,565.57 121.72,861.61 269.83,905.03 188.5,55.26 454.08,-309.35 710.91,-661.97 128.7,-176.68 261.76,-359.36 383.73,-487.228 C 8059.18,825.719 8167.78,768 8253.9,793.27 c 150.11,44.011 239.42,341.36 273,909.01 18.07,305.15 62.87,546.82 133.2,718.3 63.82,155.62 150.82,258.54 258.6,305.9 147.81,64.95 338.08,30.1 581.3,-106.42 v 5.08 c -243.49,136.25 -434.33,170.76 -583.08,105.39"
           style="fill:#ed1c2a;fill-opacity:1;fill-rule:nonzero;stroke:none"
           id="path26863" />
        <path
           d="m 8948.09,2751.81 c -110.22,-48.96 -199.72,-152.11 -266.02,-306.6 -72.69,-169.41 -120.27,-406.84 -141.44,-705.71 -39.31,-555.59 -131.82,-847.301 -282.79,-891.77 -192.52,-56.71 -459.7,299.36 -718.05,643.74 -259.3,345.58 -527.43,702.93 -722.88,645.33 -152.95,-45.07 -246.5,-338.05 -285.97,-895.74 C 6512.23,976.602 6467.92,763.961 6399.29,609.082 6336.21,466.73 6250.25,368.172 6143.86,316.141 5792,144.129 5252.38,489.762 4764.79,815.98 v -5.339 c 237.82,-159.102 481.39,-318.45 711.98,-424.02 176.11,-80.641 326.86,-120.789 455.21,-120.789 79.67,0 150.71,15.469 213.8,46.32 107.38,52.508 194.02,151.797 257.55,295.118 68.85,155.371 113.26,368.5 132.01,633.49 39.33,555.59 131.83,847.31 282.8,891.79 192.5,56.69 459.7,-299.37 718.06,-643.74 240.62,-320.7 488.79,-651.521 679.51,-651.478 14.8,0 29.29,1.988 43.35,6.137 152.97,45.062 246.52,338.061 285.98,895.731 21.11,298.36 68.59,535.31 141.08,704.25 65.85,153.43 154.59,255.81 263.74,304.3 142.5,63.28 322.9,38.91 550.14,-74.54 v 4.96 c -227.56,113.22 -408.55,137.3 -551.91,73.64"
           style="fill:#791f83;fill-opacity:1;fill-rule:nonzero;stroke:none"
           id="path26865" />
        <path
           d="M 8979.79,2772.89 C 8868.21,2722.84 8777.03,2620.23 8708.71,2467.92 8633.85,2300.99 8583.61,2068.2 8559.43,1776 8514.27,1230.18 8417.5,942.699 8263.61,897.141 c -196.67,-58.219 -465.53,289.509 -725.55,625.769 -260.95,337.44 -530.79,686.35 -730.34,627.31 -155.84,-46.14 -253.65,-334.91 -299,-882.78 C 6487.35,1009.31 6440.81,801.121 6370.4,648.621 6305.62,508.352 6218.28,410.32 6110.83,357.23 5765.03,186.422 5244.79,490.199 4764.79,795.949 v -5.277 C 4988,648.48 5214.89,509.781 5430.86,416.34 5605.2,340.902 5755.24,303.32 5883.8,303.32 c 85.6,0 161.67,16.672 229,49.942 108.39,53.539 196.42,152.289 261.63,293.508 70.64,152.96 117.32,361.66 138.71,620.31 45.2,545.84 141.96,833.33 295.85,878.89 196.56,58.25 465.51,-289.49 725.56,-625.77 241.31,-312.06 490.18,-633.919 684.06,-633.891 15.78,0 31.24,2.132 46.26,6.593 155.85,46.137 253.65,334.878 299,882.748 24.14,291.69 74.24,524 148.89,690.45 67.85,151.29 158.29,253.14 268.84,302.74 136.75,61.36 307.03,46.44 518.4,-45.86 v 4.83 c -211.76,92.13 -382.65,106.81 -520.21,45.08"
           style="fill:#a1319e;fill-opacity:1;fill-rule:nonzero;stroke:none"
           id="path26867" />
        <path
           d="m 9012.06,2793.78 c -112.88,-51.16 -205.77,-153.24 -276.08,-303.41 -77,-164.47 -129.83,-392.69 -157.02,-678.32 -51.05,-536.28 -152.11,-819.648 -308.97,-866.32 -200.82,-59.75 -471.57,279.72 -733.38,608.01 -262.72,329.44 -534.4,670.12 -738.12,609.5 C 6639.7,2115.99 6537.61,1831.35 6486.36,1293.07 6462.38,1041.2 6413.63,837.371 6341.47,687.242 6275.03,549.02 6186.35,451.52 6077.88,397.41 5738.14,227.992 5236.46,493.262 4764.79,778 v -5.219 c 208.22,-125.722 418.57,-245.539 619.78,-327.672 172.38,-70.347 321.53,-105.437 450.11,-105.437 91.94,0.008 173.38,17.949 245.2,53.777 109.38,54.563 198.73,152.77 265.61,291.891 72.38,150.59 121.27,354.92 145.3,607.32 51.05,536.28 152.11,819.65 308.97,866.32 200.88,59.75 471.59,-279.73 733.38,-608.02 242.06,-303.51 491.68,-616.558 688.8,-616.53 16.84,0 33.3,2.281 49.32,7.043 158.79,47.238 260.89,331.867 312.12,870.137 27.15,285.12 79.84,512.86 156.63,676.86 69.85,149.2 161.98,250.55 273.88,301.25 130.58,59.16 290.52,52.61 486.11,-20.47 v 4.75 c -196.04,72.96 -356.58,79.29 -487.94,19.78"
           style="fill:#c27ac3;fill-opacity:1;fill-rule:nonzero;stroke:none"
           id="path26869" />
        <path
           d="m 9044.84,2814.49 c -114.18,-52.23 -208.73,-153.79 -281,-301.87 -79.11,-162.06 -134.51,-385.78 -164.67,-664.95 -56.92,-526.92 -162.32,-806.29 -322.19,-854.068 -205.1,-61.321 -477.85,270.018 -741.56,590.468 -264.62,321.56 -538.23,654.04 -746.24,591.9 C 6627.41,2127.61 6521.01,1847.01 6463.87,1318.1 6412.32,840.992 6275.3,552.711 6044.98,436.781 5711.39,268.91 5227.5,498.813 4764.79,762.27 v -5.161 c 192.89,-109.879 386.75,-212.48 573.09,-284.089 170.17,-65.391 318.26,-98.028 446.67,-98.028 98.74,0 185.86,19.297 262.41,57.828 110.34,55.539 201.02,153.18 269.54,290.262 74.11,148.25 125.17,348.288 151.77,594.538 56.93,526.92 162.31,806.3 322.17,854.08 205.18,61.33 477.84,-270.02 741.55,-590.46 242.87,-295.13 493.31,-599.49 693.65,-599.478 17.95,0 35.51,2.449 52.6,7.551 161.77,48.357 268.19,328.967 325.33,857.857 30.1,278.66 85.37,501.89 164.25,663.49 71.82,147.13 165.65,247.98 278.87,299.78 123.96,56.7 273.37,57.39 453.31,1.58 v 4.67 c -180.45,55.73 -330.47,54.82 -455.16,-2.2"
           style="fill:#945c52;fill-opacity:1;fill-rule:nonzero;stroke:none"
           id="path26871" />
        <path
           d="m 9078.18,2835.03 c -115.49,-53.3 -211.69,-154.35 -285.91,-300.36 -81.2,-159.69 -139.14,-379 -172.23,-651.8 -62.82,-517.76 -172.56,-793.22 -335.47,-842.16 -209.58,-62.96 -484.36,260.44 -750.09,573.15 -266.63,313.81 -542.35,638.33 -754.72,574.54 -164.79,-49.51 -275.54,-326.2 -338.59,-845.9 C 6384.68,876.859 6244.31,593.199 6012.04,475.301 5684.7,309.129 5217.97,506.57 4764.79,748.699 v -5.129 c 177.24,-94.75 354.65,-181.718 525.93,-243.55 167.77,-60.571 314.54,-90.809 442.6,-90.809 106,0.008 199.19,20.738 280.77,62.129 111.27,56.492 203.23,153.609 273.36,288.652 75.79,145.938 129.01,341.758 158.15,581.978 62.81,517.74 172.53,793.23 335.45,842.17 209.58,62.95 484.35,-260.43 750.08,-573.16 243.74,-286.86 495.04,-582.66 698.62,-582.62 19.14,0.01 37.87,2.61 56.11,8.09 164.78,49.49 275.54,326.18 338.59,845.88 33.03,272.3 90.82,491.09 171.76,650.32 73.79,145.1 169.27,245.47 283.82,298.33 116.87,53.95 255.52,60.8 419.97,20.31 v 4.59 c -164.99,40.44 -304.25,33.39 -421.82,-20.85"
           style="fill:#b2217e;fill-opacity:1;fill-rule:nonzero;stroke:none"
           id="path26873" />
        <path
           d="m 9112.07,2855.36 c -116.76,-54.34 -214.58,-154.88 -290.74,-298.87 -83.24,-157.36 -143.71,-372.31 -179.71,-638.88 -68.71,-508.77 -182.81,-780.44 -348.82,-830.54 -214.09,-64.62 -491.09,250.9 -758.96,556.02 -268.8,306.2 -546.72,622.84 -763.6,557.38 C 6602.38,2149.8 6487.25,1876.93 6418.29,1366.25 6356.94,911.891 6213.3,632.789 5979.16,512.992 5658.13,348.73 5207.95,516.402 4764.79,737.359 v -4.98 C 5083.52,573.59 5405.84,442.5 5681.64,442.531 c 107.97,0.008 208.88,20.098 299.56,66.5 112.17,57.399 205.4,153.949 277.12,286.981 77.43,143.668 132.73,335.318 164.38,569.618 68.7,508.78 182.82,780.46 348.83,830.57 214.11,64.58 491.13,-250.91 758.98,-556.05 268.79,-306.17 546.69,-622.78 763.58,-557.36 167.85,50.67 282.98,323.53 351.95,834.21 35.92,266.04 96.23,480.5 179.21,637.4 75.72,143.1 172.85,243 288.71,296.92 109.3,50.88 236.94,62.82 386.04,35.7 v 4.51 c -149.69,27.11 -277.95,15.01 -387.93,-36.17"
           style="fill:#851c7d;fill-opacity:1;fill-rule:nonzero;stroke:none"
           id="path26875" />
        <path
           d="m 9146.51,2875.59 c -118.01,-55.37 -217.44,-155.42 -295.5,-297.4 -85.27,-155.07 -148.22,-365.73 -187.06,-626.15 -74.63,-500 -193.14,-767.98 -362.31,-819.28 -218.73,-66.35 -498.1,241.47 -768.22,539.12 -271.06,298.68 -551.35,607.52 -772.79,540.38 -170.99,-51.83 -290.5,-321 -365.39,-822.87 -66.15,-443.288 -213,-717.878 -448.95,-839.499 -314.64,-162.161 -748.81,-21.731 -1181.5,178.39 v -4.91 c 300.41,-138.812 601.55,-248.762 863.3,-248.75 115.56,0 223.49,21.442 320.24,71.309 113.07,58.281 207.54,154.269 280.79,285.332 79.05,141.429 136.44,328.968 170.53,557.468 74.61,499.99 193.11,767.99 362.29,819.28 218.73,66.36 498.08,-241.46 768.22,-539.12 245.64,-270.67 498.81,-549.71 708.96,-549.67 21.75,0 43.06,2.98 63.82,9.27 170.98,51.86 290.51,321.01 365.39,822.87 75.03,502.86 232.07,803.85 480.06,920.19 101.28,47.51 217.7,63.41 351.61,47.7 v 4.5 c -134.53,15.7 -251.58,-0.35 -353.49,-48.16"
           style="fill:#ed1e2f;fill-opacity:1;fill-rule:nonzero;stroke:none"
           id="path26877" />
        <path
           d="m 9181.54,2895.63 c -119.27,-56.37 -220.29,-155.93 -300.25,-295.95 -87.26,-152.8 -152.65,-359.25 -194.34,-613.65 -80.51,-491.39 -203.45,-755.81 -375.83,-808.32 -223.55,-68.02 -505.31,232.1 -777.85,522.4 -273.44,291.29 -556.2,592.49 -782.37,523.61 -174.15,-53.05 -298.09,-318.6 -378.92,-811.82 C 6301.11,979.461 6151.1,709.289 5913.37,585.941 5605.27,426.09 5186.63,541.672 4764.79,721.379 v -4.828 c 281.38,-119.762 561.37,-210.93 808.41,-210.918 123.65,0.008 239.08,22.847 342.22,76.387 113.92,59.109 209.6,154.531 284.38,283.64 80.64,139.21 140.05,322.74 176.56,545.53 80.52,491.39 203.46,755.79 375.83,808.3 223.49,68.09 505.32,-232.1 777.85,-522.4 246.68,-262.76 500.89,-533.59 714.34,-533.56 23.17,0 45.9,3.2 68.05,9.95 174.15,53.05 298.09,318.61 378.92,811.84 80.53,491.42 241.49,787.88 492.09,906.3 92.71,43.83 197.67,62.59 316.56,56.35 v 4.44 c -119.53,6.23 -225.12,-12.67 -318.46,-56.78"
           style="fill:#ed1b27;fill-opacity:1;fill-rule:nonzero;stroke:none"
           id="path26879" />
        <path
           d="M 9217.17,2915.49 C 9096.69,2858.16 8994.1,2759.08 8912.27,2621 8823.03,2470.43 8755.23,2268.09 8710.75,2019.62 8624.29,1536.65 8496.89,1275.74 8321.29,1222 c -228.4,-69.88 -512.81,222.81 -787.87,505.85 -276,284.01 -561.39,577.69 -792.36,507.01 C 6563.7,2180.58 6435.31,1918.54 6348.53,1433.77 6273.02,1012 6119.91,746.199 5880.47,621.219 5579,463.859 5175.43,556.789 4764.79,716.73 v -4.71 c 261.68,-101.821 520.54,-176.43 752.18,-176.43 132.22,0 255.61,24.301 365.55,81.68 114.77,59.91 211.62,154.761 287.91,281.929 82.19,137.021 143.57,316.621 182.45,533.791 86.47,482.99 213.86,743.88 389.47,797.63 228.35,69.9 512.83,-222.8 787.86,-505.85 247.75,-254.94 503.04,-517.66 719.79,-517.65 24.71,0 48.94,3.4 72.58,10.64 177.36,54.29 305.77,316.31 392.54,801.08 85.95,480.22 250.8,772.2 503.96,892.66 45.72,21.75 94.3,37.73 145.94,48.01 h -21.06 c -44.52,-10.31 -86.74,-24.96 -126.79,-44.02"
           style="fill:#d82ea0;fill-opacity:1;fill-rule:nonzero;stroke:none"
           id="path26881" />
        <path
           d="M 9253.39,2935.27 C 9131.68,2877 9027.53,2778.4 8943.86,2642.23 c -91.19,-148.38 -161.37,-346.67 -208.61,-589.34 -92.4,-474.74 -224.27,-732.25 -403.2,-787.24 -233.44,-71.77 -520.55,213.58 -798.27,489.49 -278.63,276.84 -566.78,563.11 -802.71,490.59 -180.62,-55.53 -313.51,-314.15 -406.26,-790.66 -80.06,-411.36 -236.19,-672.84 -477.32,-799.371 -294.7,-154.636 -683.56,-82.277 -1082.7,58.563 v -4.692 c 241.32,-85.058 478.93,-145.078 694.45,-145.07 141.33,0.012 273.2,25.809 390.31,87.281 115.58,60.66 213.61,154.93 291.37,280.18 83.7,134.829 147.04,310.549 188.24,522.269 92.4,474.74 224.3,732.26 403.2,787.25 233.39,71.72 520.58,-213.57 798.28,-489.49 248.87,-247.26 505.25,-502.03 725.32,-502 26.33,0 52.17,3.65 77.38,11.41 180.63,55.51 313.53,314.14 406.28,790.64 91.32,469.23 260.01,756.82 515.69,879.24 22.4,10.72 45.5,20.1 69.26,28.23 h -13.34 c -19.75,-7.18 -39.03,-15.25 -57.84,-24.24"
           style="fill:#e8173d;fill-opacity:1;fill-rule:nonzero;stroke:none"
           id="path26883" />
        <path
           d="m 9290.23,2954.9 c -122.93,-59.18 -228.61,-157.29 -314.1,-291.57 -93.1,-146.23 -165.64,-340.54 -215.59,-577.53 -98.35,-466.69 -234.77,-720.88 -417.03,-777.15 -238.47,-73.6 -528.57,204.41 -809.07,473.31 -281.43,269.77 -572.46,548.75 -813.44,474.34 -183.95,-56.79 -321.34,-312.08 -420.07,-780.49 -84.55,-401.19 -243.67,-658.408 -486.46,-786.38 -287.83,-151.719 -662.34,-97.981 -1049.68,24.543 v -4.602 c 220.32,-69.601 436.52,-116.992 635.14,-116.992 151,0.012 291.89,27.371 416.62,93.121 116.4,61.34 215.57,155.012 294.79,278.391 85.19,132.709 150.45,304.619 193.93,510.999 98.37,466.69 234.78,720.9 417.04,777.16 238.49,73.6 528.56,-204.42 809.06,-473.3 250.01,-239.67 507.58,-486.58 730.92,-486.57 28.07,0 55.62,3.91 82.52,12.22 183.94,56.78 321.35,312.07 420.07,780.47 96.63,458.44 269.1,741.72 527.29,866.02 6.16,2.95 12.35,5.83 18.62,8.61 h -10.61 c -3.32,-1.52 -6.65,-3.01 -9.95,-4.6"
           style="fill:#80331a;fill-opacity:1;fill-rule:nonzero;stroke:none"
           id="path26885" />
        <path
           d="m 9009.04,2684.34 c -95,-144.08 -169.84,-334.49 -222.48,-565.93 -104.33,-458.79 -245.31,-709.78 -430.95,-767.34 -243.81,-75.56 -536.85,195.3 -820.28,457.25 -284.36,262.8 -578.41,534.57 -824.62,458.23 -187.3,-58.06 -329.26,-310.13 -433.98,-770.61 -88.96,-391.21 -251,-644.241 -495.39,-773.549 C 5500.56,573.82 5140.09,610.789 4764.79,715.852 v -4.602 c 375.8,-105.059 736.88,-141.859 1018.63,7.211 117.19,62.019 217.49,155.07 298.12,276.578 86.66,130.591 153.78,298.781 199.52,499.931 104.34,458.8 245.31,709.8 430.99,767.35 243.74,75.57 536.82,-195.31 820.27,-457.25 251.21,-232.17 509.95,-471.32 736.61,-471.3 29.92,0 59.29,4.17 87.98,13.06 187.31,58.05 329.26,310.11 433.98,770.6 99.01,435.42 268.34,711.2 517.18,842.08 h -9.28 c -111.91,-60.76 -209.3,-153.13 -289.75,-275.17"
           style="fill:#c12d9e;fill-opacity:1;fill-rule:nonzero;stroke:none"
           id="path26887" />
        <path
           d="m 9042.69,2705.25 c -96.87,-141.98 -174.01,-328.57 -229.28,-554.56 -110.33,-451.1 -255.91,-698.98 -445.01,-757.83 -249.17,-77.57 -545.42,186.26 -831.92,441.37 -287.43,255.93 -584.6,520.58 -836.17,442.31 -190.71,-59.36 -337.25,-308.28 -448,-761.01 C 6159.01,1134.02 5994.08,885.109 5748.1,754.57 5474.5,609.371 5127.82,631.313 4764.79,719.801 v -4.559 c 176.41,-42.941 349.01,-70.222 511.32,-70.211 172.11,0.008 332.78,30.641 474.07,105.61 117.96,62.621 219.39,155.031 301.42,274.719 88.1,128.5 157.07,293.07 205.03,489.12 110.33,451.08 255.89,698.97 445,757.82 249.15,77.57 545.41,-186.27 831.91,-441.38 252.44,-224.78 512.4,-456.29 742.38,-456.27 31.86,0 63.18,4.45 93.81,13.98 190.71,59.34 337.25,308.27 447.98,761.01 99.23,405.7 261.2,671.42 493.98,809.87 h -8.41 c -99.2,-60.68 -186.66,-145.89 -260.59,-254.26"
           style="fill:#dc2fa0;fill-opacity:1;fill-rule:nonzero;stroke:none"
           id="path26889" />
        <path
           d="m 9077.01,2726.07 c -98.73,-139.92 -178.13,-322.76 -236,-543.45 -116.35,-443.54 -266.54,-688.4 -459.14,-748.57 -254.68,-79.54 -554.25,177.27 -843.95,425.64 -290.61,249.16 -591.11,506.8 -848.13,426.52 -194.19,-60.67 -345.35,-306.55 -462.1,-751.7 -97.6,-372.03 -265.37,-616.889 -512.94,-748.549 -266.26,-141.621 -599.4,-133.102 -949.96,-60.199 v -4.532 c 351.1,-72.91 684.89,-81.281 952.05,60.809 118.76,63.16 221.29,154.941 304.7,272.811 89.51,126.45 160.32,287.44 210.43,478.53 116.35,443.55 266.53,688.41 459.14,748.59 254.68,79.54 554.23,-177.29 843.93,-425.65 253.7,-217.51 514.9,-441.48 748.16,-441.46 33.95,0.01 67.34,4.75 99.99,14.94 194.18,60.67 345.34,306.54 462.09,751.69 99.41,378.97 255.02,634.63 474.07,778.02 h -7.8 c -88.1,-59.12 -166.72,-137.29 -234.54,-233.44"
           style="fill:#7f45a6;fill-opacity:1;fill-rule:nonzero;stroke:none"
           id="path26891" />
        <path
           d="m 9112.04,2746.84 c -100.56,-137.9 -182.2,-317.08 -242.65,-532.57 -122.38,-436.17 -277.22,-678.09 -473.37,-739.59 -260.41,-81.59 -563.37,168.33 -856.41,410.05 -293.96,242.48 -597.89,493.22 -860.55,410.87 -197.71,-61.98 -353.52,-304.9 -476.34,-742.66 C 6100.94,1190.14 5930.35,949.27 5681.21,816.582 5422.46,678.77 5102.68,675.379 4764.79,733.672 v -4.481 c 130.07,-22.41 257.49,-35.73 379.81,-35.73 195.95,0.012 378.88,34.078 538.71,119.199 119.53,63.672 223.14,154.82 307.95,270.89 90.91,124.43 163.49,281.96 215.74,468.2 122.38,436.21 277.24,678.14 473.39,739.63 260.37,81.6 563.38,-168.33 856.41,-410.05 254.98,-210.33 517.46,-426.85 754,-426.84 36.15,0.01 71.74,5.06 106.54,15.98 197.72,61.97 353.52,304.89 476.33,742.62 99.43,354.41 249.35,600.07 456.25,746.42 h -7.02 c -78.2,-56.5 -148.83,-127.6 -210.86,-212.67"
           style="fill:#782c98;fill-opacity:1;fill-rule:nonzero;stroke:none"
           id="path26893" />
        <path
           d="m 9147.81,2767.63 c -102.37,-135.9 -186.22,-311.5 -249.23,-521.93 -128.39,-428.99 -287.95,-668.07 -487.72,-730.91 -266.17,-83.69 -572.77,159.44 -869.29,394.59 -297.42,235.87 -604.96,479.76 -873.38,395.35 -201.29,-63.31 -361.78,-303.36 -490.67,-733.85 -105.92,-353.83 -279.28,-590.79 -530,-724.4 -251.06,-133.8 -557.67,-147.648 -882.73,-102.929 v -4.422 c 105.96,-14.547 209.99,-22.969 310.77,-22.957 208.95,0 404.13,35.84 574.04,126.398 120.32,64.121 225.01,154.59 311.18,268.91 92.29,122.43 166.64,276.56 221,458.11 128.41,428.98 287.96,668.06 487.73,730.89 266.15,83.74 572.78,-159.44 869.3,-394.58 297.42,-235.87 604.98,-479.78 873.38,-395.35 201.28,63.3 361.78,303.36 490.66,733.87 99.28,331.68 243.97,567.34 439.9,715.09 h -6.48 c -69.06,-53.02 -132.14,-117.11 -188.46,-191.88"
           style="fill:#c82097;fill-opacity:1;fill-rule:nonzero;stroke:none"
           id="path26895" />
        <path
           d="m 9184.33,2788.38 c -104.18,-133.94 -190.23,-306.05 -255.74,-511.56 -134.49,-421.96 -298.77,-658.28 -502.2,-722.47 -272.11,-85.83 -582.46,150.6 -882.61,379.25 -301.04,229.35 -612.35,466.53 -886.63,379.96 -204.92,-64.64 -370.16,-301.9 -505.13,-725.35 C 5982.28,1055.65 5645.43,780.031 5122.29,745.609 5006.77,738 4887.17,742.012 4764.79,754.57 v -3.859 c 123.14,-12.809 243.18,-17.07 357.77,-9.52 525.19,34.539 863.31,311.169 1033.69,845.669 134.5,421.96 298.78,658.29 502.23,722.47 272.11,85.86 582.48,-150.59 882.61,-379.26 257.61,-196.25 522.66,-398.21 765.68,-398.19 40.97,0.01 81.37,5.76 120.95,18.24 204.93,64.65 370.14,301.92 505.11,725.36 98.96,310.49 238.81,536.15 424.77,684.03 h -6.23 c -60.5,-48.88 -116.37,-106 -167.04,-171.13"
           style="fill:#832785;fill-opacity:1;fill-rule:nonzero;stroke:none"
           id="path26897" />
        <path
           d="m 9221.66,2809.1 c -105.98,-132 -194.2,-300.7 -262.18,-501.42 -140.59,-415.11 -309.65,-648.76 -516.8,-714.3 -278.22,-88.03 -592.48,141.78 -896.4,364.04 -304.81,222.9 -619.97,453.4 -900.35,364.7 -208.61,-66 -378.6,-300.56 -519.68,-717.09 -177.82,-524.97 -523.35,-798.999 -1056.36,-837.717 -99.07,-7.204 -201.04,-6.301 -305.09,0.839 v -3.902 c 104.71,-7.348 207.02,-8.488 305.41,-1.348 534.99,38.86 881.78,313.848 1060.24,840.708 140.59,415.1 309.65,648.74 516.81,714.28 278.22,88.01 592.48,-141.79 896.39,-364.05 258.93,-189.35 525.31,-384.18 771.52,-384.17 43.63,0 86.64,6.13 128.84,19.49 208.62,65.98 378.61,300.55 519.7,717.11 98.41,290.58 233.62,506.28 410.26,653.24 h -6 c -52.42,-44.19 -101.32,-94.37 -146.31,-150.41"
           style="fill:#e31d25;fill-opacity:1;fill-rule:nonzero;stroke:none"
           id="path26899" />
        <path
           d="m 8991.22,2338.31 c -146.73,-408.42 -320.6,-639.49 -531.56,-706.38 -284.5,-90.24 -602.82,133.04 -910.63,348.95 -308.7,216.52 -627.92,440.42 -914.51,349.54 -212.38,-67.35 -387.18,-299.31 -534.41,-709.11 -185.94,-517.57 -540.31,-790.091 -1083.35,-833.119 -82.23,-6.519 -166.38,-7.711 -251.97,-4.718 v -4.102 c 30.49,-1.129 60.78,-1.769 90.8,-1.769 54.74,0 108.71,1.968 161.53,6.148 544.96,43.191 900.59,316.66 1087.19,836.04 146.73,408.42 320.6,639.48 531.56,706.39 284.47,90.21 602.79,-133.04 910.61,-348.95 260.27,-182.55 527.96,-370.35 777.31,-370.32 46.42,0 92.24,6.51 137.21,20.77 212.36,67.37 387.16,299.31 534.39,709.11 97.07,270.16 228.46,477.08 396.45,622.72 h -6.87 c -166.64,-145.93 -297.16,-352.36 -393.75,-621.2"
           style="fill:#b539a3;fill-opacity:1;fill-rule:nonzero;stroke:none"
           id="path26901" />
      </g>
    </g>
  </g>
</svg>
