<?xml version="1.0" encoding="UTF-8" standalone="no"?>
<!-- Created with Inkscape (http://www.inkscape.org/) -->

<svg
   version="1.1"
   id="svg26807"
   width="281.79816"
   height="394.60001"
   viewBox="0 0 281.79815 394.60001"
   sodipodi:docname="164253416104.eps"
   xmlns:inkscape="http://www.inkscape.org/namespaces/inkscape"
   xmlns:sodipodi="http://sodipodi.sourceforge.net/DTD/sodipodi-0.dtd"
   xmlns="http://www.w3.org/2000/svg"
   xmlns:svg="http://www.w3.org/2000/svg">
  <defs
     id="defs26811">
    <clipPath
       clipPathUnits="userSpaceOnUse"
       id="clipPath28362">
      <g
         id="g28366">
        <path
           d="M 0,594.861 H 473.521 V 298.911 H 0 Z"
           id="path28364"
           style="stroke-width:0.1" />
      </g>
    </clipPath>
    <clipPath
       clipPathUnits="userSpaceOnUse"
       id="clipPath28368">
      <g
         id="g28372">
        <path
           d="M 0,594.861 H 473.521 V 298.911 H 0 Z"
           id="path28370"
           style="stroke-width:0.1" />
      </g>
    </clipPath>
    <clipPath
       clipPathUnits="userSpaceOnUse"
       id="clipPath28374">
      <g
         id="g28378">
        <path
           d="M 0,594.861 H 473.521 V 298.911 H 0 Z"
           id="path28376"
           style="stroke-width:0.1" />
      </g>
    </clipPath>
    <clipPath
       clipPathUnits="userSpaceOnUse"
       id="clipPath28380">
      <g
         id="g28384">
        <path
           d="M 0,594.861 H 473.521 V 298.911 H 0 Z"
           id="path28382"
           style="stroke-width:0.1" />
      </g>
    </clipPath>
    <clipPath
       clipPathUnits="userSpaceOnUse"
       id="clipPath28386">
      <g
         id="g28390">
        <path
           d="M 0,594.861 H 473.521 V 298.911 H 0 Z"
           id="path28388"
           style="stroke-width:0.1" />
      </g>
    </clipPath>
    <clipPath
       clipPathUnits="userSpaceOnUse"
       id="clipPath28392">
      <g
         id="g28396">
        <path
           d="M 0,594.861 H 473.521 V 298.911 H 0 Z"
           id="path28394"
           style="stroke-width:0.1" />
      </g>
    </clipPath>
    <clipPath
       clipPathUnits="userSpaceOnUse"
       id="clipPath28398">
      <g
         id="g28402">
        <path
           d="M 0,594.861 H 473.521 V 298.911 H 0 Z"
           id="path28400"
           style="stroke-width:0.1" />
      </g>
    </clipPath>
    <clipPath
       clipPathUnits="userSpaceOnUse"
       id="clipPath28404">
      <g
         id="g28408">
        <path
           d="M 0,594.861 H 473.521 V 298.911 H 0 Z"
           id="path28406"
           style="stroke-width:0.1" />
      </g>
    </clipPath>
    <clipPath
       clipPathUnits="userSpaceOnUse"
       id="clipPath28410">
      <g
         id="g28414">
        <path
           d="M 0,594.861 H 473.521 V 298.911 H 0 Z"
           id="path28412"
           style="stroke-width:0.1" />
      </g>
    </clipPath>
    <clipPath
       clipPathUnits="userSpaceOnUse"
       id="clipPath28416">
      <g
         id="g28420">
        <path
           d="M 0,594.861 H 473.521 V 298.911 H 0 Z"
           id="path28418"
           style="stroke-width:0.1" />
      </g>
    </clipPath>
    <clipPath
       clipPathUnits="userSpaceOnUse"
       id="clipPath28422">
      <g
         id="g28426">
        <path
           d="M 0,594.861 H 473.521 V 298.911 H 0 Z"
           id="path28424"
           style="stroke-width:0.1" />
      </g>
    </clipPath>
    <clipPath
       clipPathUnits="userSpaceOnUse"
       id="clipPath28428">
      <g
         id="g28432">
        <path
           d="M 0,594.861 H 473.521 V 298.911 H 0 Z"
           id="path28430"
           style="stroke-width:0.1" />
      </g>
    </clipPath>
    <clipPath
       clipPathUnits="userSpaceOnUse"
       id="clipPath28434">
      <g
         id="g28438">
        <path
           d="M 0,594.861 H 473.521 V 298.911 H 0 Z"
           id="path28436"
           style="stroke-width:0.1" />
      </g>
    </clipPath>
    <clipPath
       clipPathUnits="userSpaceOnUse"
       id="clipPath28440">
      <g
         id="g28444">
        <path
           d="M 0,594.861 H 473.521 V 298.911 H 0 Z"
           id="path28442"
           style="stroke-width:0.1" />
      </g>
    </clipPath>
    <clipPath
       clipPathUnits="userSpaceOnUse"
       id="clipPath28446">
      <g
         id="g28450">
        <path
           d="M 0,594.861 H 473.521 V 298.911 H 0 Z"
           id="path28448"
           style="stroke-width:0.1" />
      </g>
    </clipPath>
    <clipPath
       clipPathUnits="userSpaceOnUse"
       id="clipPath28452">
      <g
         id="g28456">
        <path
           d="M 0,594.861 H 473.521 V 298.911 H 0 Z"
           id="path28454"
           style="stroke-width:0.1" />
      </g>
    </clipPath>
    <clipPath
       clipPathUnits="userSpaceOnUse"
       id="clipPath28458">
      <g
         id="g28462">
        <path
           d="M 0,594.861 H 473.521 V 298.911 H 0 Z"
           id="path28460"
           style="stroke-width:0.1" />
      </g>
    </clipPath>
    <clipPath
       clipPathUnits="userSpaceOnUse"
       id="clipPath28464">
      <g
         id="g28468">
        <path
           d="M 0,594.861 H 473.521 V 298.911 H 0 Z"
           id="path28466"
           style="stroke-width:0.1" />
      </g>
    </clipPath>
    <clipPath
       clipPathUnits="userSpaceOnUse"
       id="clipPath28470">
      <g
         id="g28474">
        <path
           d="M 0,594.861 H 473.521 V 298.911 H 0 Z"
           id="path28472"
           style="stroke-width:0.1" />
      </g>
    </clipPath>
    <clipPath
       clipPathUnits="userSpaceOnUse"
       id="clipPath28476">
      <g
         id="g28480">
        <path
           d="M 0,594.861 H 473.521 V 298.911 H 0 Z"
           id="path28478"
           style="stroke-width:0.1" />
      </g>
    </clipPath>
    <clipPath
       clipPathUnits="userSpaceOnUse"
       id="clipPath28482">
      <g
         id="g28486">
        <path
           d="M 0,594.861 H 473.521 V 298.911 H 0 Z"
           id="path28484"
           style="stroke-width:0.1" />
      </g>
    </clipPath>
    <clipPath
       clipPathUnits="userSpaceOnUse"
       id="clipPath28488">
      <g
         id="g28492">
        <path
           d="M 0,594.861 H 473.521 V 298.911 H 0 Z"
           id="path28490"
           style="stroke-width:0.1" />
      </g>
    </clipPath>
    <clipPath
       clipPathUnits="userSpaceOnUse"
       id="clipPath28494">
      <g
         id="g28498">
        <path
           d="M 0,594.861 H 473.521 V 298.911 H 0 Z"
           id="path28496"
           style="stroke-width:0.1" />
      </g>
    </clipPath>
    <clipPath
       clipPathUnits="userSpaceOnUse"
       id="clipPath28500">
      <g
         id="g28504">
        <path
           d="M 0,594.861 H 473.521 V 298.911 H 0 Z"
           id="path28502"
           style="stroke-width:0.1" />
      </g>
    </clipPath>
    <clipPath
       clipPathUnits="userSpaceOnUse"
       id="clipPath28506">
      <g
         id="g28510">
        <path
           d="M 0,594.861 H 473.521 V 298.911 H 0 Z"
           id="path28508"
           style="stroke-width:0.1" />
      </g>
    </clipPath>
    <clipPath
       clipPathUnits="userSpaceOnUse"
       id="clipPath28512">
      <g
         id="g28516">
        <path
           d="M 0,594.861 H 473.521 V 298.911 H 0 Z"
           id="path28514"
           style="stroke-width:0.1" />
      </g>
    </clipPath>
    <clipPath
       clipPathUnits="userSpaceOnUse"
       id="clipPath28518">
      <g
         id="g28522">
        <path
           d="M 0,594.861 H 473.521 V 298.911 H 0 Z"
           id="path28520"
           style="stroke-width:0.1" />
      </g>
    </clipPath>
    <clipPath
       clipPathUnits="userSpaceOnUse"
       id="clipPath28524">
      <g
         id="g28528">
        <path
           d="M 0,594.861 H 473.521 V 298.911 H 0 Z"
           id="path28526"
           style="stroke-width:0.1" />
      </g>
    </clipPath>
    <clipPath
       clipPathUnits="userSpaceOnUse"
       id="clipPath28530">
      <g
         id="g28534">
        <path
           d="M 0,594.861 H 473.521 V 298.911 H 0 Z"
           id="path28532"
           style="stroke-width:0.1" />
      </g>
    </clipPath>
    <clipPath
       clipPathUnits="userSpaceOnUse"
       id="clipPath28536">
      <g
         id="g28540">
        <path
           d="M 0,594.861 H 473.521 V 298.911 H 0 Z"
           id="path28538"
           style="stroke-width:0.1" />
      </g>
    </clipPath>
    <clipPath
       clipPathUnits="userSpaceOnUse"
       id="clipPath28542">
      <g
         id="g28546">
        <path
           d="M 0,594.861 H 473.521 V 298.911 H 0 Z"
           id="path28544"
           style="stroke-width:0.1" />
      </g>
    </clipPath>
  </defs>
  <sodipodi:namedview
     id="namedview26809"
     pagecolor="#ffffff"
     bordercolor="#000000"
     borderopacity="0.25"
     inkscape:showpageshadow="2"
     inkscape:pageopacity="0.0"
     inkscape:pagecheckerboard="0"
     inkscape:deskcolor="#d1d1d1"
     showgrid="false" />
  <g
     id="g26815"
     inkscape:groupmode="layer"
     inkscape:label="Page 1"
     transform="matrix(1.3333333,0,0,-1.3333333,-247.27914,793.14798)">
    <g
       id="g29094">
      <path
         d="m 396.183,565.185 c -2.548,-11.982 -31.798,-15.724 -60.085,-19.344 -29.838,-3.817 -60.692,-7.764 -64.051,-21.232 -2.209,-8.861 7.576,-20.855 29.916,-36.672 25.815,-18.275 37.178,-32.097 34.735,-42.254 -3.427,-14.248 -33.782,-18.65 -60.561,-22.533 -21.617,-3.135 -40.283,-5.843 -41.532,-13.101 -0.856,-4.983 6.888,-11.706 23.677,-20.547 18.84,-9.921 28.892,-21.984 29.877,-35.85 1.293,-18.183 -12.984,-37.51 -30.938,-54.739 h 0.633 c 17.876,17.227 32.043,36.544 30.749,54.768 -0.998,14.031 -11.128,26.214 -30.115,36.213 -16.596,8.742 -24.265,15.309 -23.445,20.078 1.195,6.943 20.606,9.757 41.158,12.738 26.921,3.905 57.433,8.329 60.93,22.871 2.49,10.353 -8.929,24.327 -34.91,42.719 -22.173,15.699 -31.901,27.541 -29.742,36.202 3.287,13.175 33.986,17.102 63.676,20.9 29.749,3.807 57.85,7.402 60.462,19.693 1.557,7.324 -6.398,17.127 -24.225,29.766 h -0.757 c 18.023,-12.682 26.083,-22.453 24.548,-29.676"
         style="fill:#acc1e8;fill-opacity:1;fill-rule:nonzero;stroke:none;stroke-width:0.1"
         id="path27997"
         clip-path="url(#clipPath28542)" />
      <path
         d="m 285.105,354.682 c -1.085,13.868 -10.887,25.804 -29.133,35.477 -16.171,8.572 -23.646,15.094 -22.851,19.935 1.168,7.114 20.433,10.268 40.828,13.604 26.721,4.374 57.006,9.329 60.509,24.231 2.474,10.517 -8.604,24.467 -33.861,42.647 -21.558,15.515 -30.993,27.339 -28.844,36.142 3.295,13.502 33.744,17.952 63.19,22.255 29.518,4.315 57.398,8.39 59.993,20.983 1.329,6.456 -4.324,14.682 -17.168,24.905 h -0.695 c 13.004,-10.251 18.739,-18.445 17.426,-24.815 -2.531,-12.289 -31.556,-16.532 -59.622,-20.633 -29.59,-4.325 -60.189,-8.797 -63.557,-22.589 -2.196,-8.999 7.295,-20.975 29.017,-36.609 25.094,-18.064 36.113,-31.863 33.687,-42.185 -3.436,-14.613 -33.565,-19.543 -60.148,-23.895 -21.45,-3.511 -39.975,-6.544 -41.193,-13.971 -0.829,-5.054 6.719,-11.727 23.08,-20.399 18.103,-9.596 27.827,-21.413 28.899,-35.118 1.433,-18.298 -12.529,-38.01 -30.282,-55.736 h 0.623 c 17.68,17.726 31.539,37.429 30.102,55.771"
         style="fill:#62cdf5;fill-opacity:1;fill-rule:nonzero;stroke:none;stroke-width:0.1"
         id="path27999"
         clip-path="url(#clipPath28536)" />
      <path
         d="m 281.663,355.656 c -1.171,13.691 -10.649,25.376 -28.175,34.729 -15.748,8.408 -23.033,14.882 -22.266,19.794 1.138,7.289 20.264,10.786 40.515,14.485 26.534,4.846 56.607,10.342 60.114,25.613 2.452,10.676 -8.287,24.603 -32.827,42.572 -20.95,15.341 -30.096,27.148 -27.96,36.093 3.305,13.839 33.517,18.819 62.733,23.634 29.301,4.829 56.975,9.39 59.548,22.294 1.088,5.458 -2.532,12.077 -10.991,19.991 h -0.629 c 8.573,-7.923 12.259,-14.513 11.185,-19.904 -2.512,-12.604 -31.322,-17.352 -59.182,-21.944 -29.361,-4.838 -59.721,-9.842 -63.093,-23.967 -2.184,-9.139 7.017,-21.096 28.128,-36.554 24.382,-17.855 35.063,-31.63 32.656,-42.115 -3.44,-14.987 -33.36,-20.454 -59.759,-25.277 -21.296,-3.889 -39.689,-7.251 -40.876,-14.851 -0.8,-5.123 6.56,-11.749 22.497,-20.256 17.384,-9.278 26.783,-20.844 27.94,-34.376 1.571,-18.402 -12.078,-38.485 -29.633,-56.706 h 0.611 c 17.485,18.22 31.039,38.298 29.464,56.745"
         style="fill:#74d2e9;fill-opacity:1;fill-rule:nonzero;stroke:none;stroke-width:0.1"
         id="path28001"
         clip-path="url(#clipPath28530)" />
      <path
         d="m 278.274,356.606 c -1.245,13.504 -10.406,24.937 -27.228,33.979 -15.333,8.243 -22.43,14.671 -21.692,19.651 1.105,7.471 20.105,11.311 40.219,15.378 26.36,5.328 56.237,11.366 59.746,27.018 2.429,10.836 -7.974,24.74 -31.808,42.504 -20.35,15.168 -29.21,26.959 -27.089,36.044 3.311,14.186 33.301,19.7 62.304,25.033 29.096,5.349 56.579,10.403 59.128,23.626 0.831,4.32 -1.123,9.305 -5.924,15.021 h -0.557 c 4.869,-5.709 6.867,-10.668 6.045,-14.937 -2.49,-12.926 -29.828,-17.953 -58.772,-23.275 -29.142,-5.358 -59.278,-10.899 -62.655,-25.367 -2.164,-9.276 6.75,-21.216 27.259,-36.5 23.677,-17.649 34.024,-31.403 31.64,-42.052 -3.447,-15.373 -33.174,-21.381 -59.4,-26.682 -21.153,-4.277 -39.421,-7.968 -40.571,-15.748 -0.768,-5.189 6.403,-11.765 21.921,-20.107 16.683,-8.968 25.767,-20.282 26.996,-33.628 1.706,-18.497 -11.644,-38.944 -29,-57.654 h 0.597 c 17.29,18.711 30.551,39.153 28.841,57.696"
         style="fill:#bbc8ea;fill-opacity:1;fill-rule:nonzero;stroke:none;stroke-width:0.1"
         id="path28003"
         clip-path="url(#clipPath28524)" />
      <path
         d="m 274.938,357.528 c -1.314,13.302 -10.164,24.477 -26.301,33.216 -14.924,8.079 -21.836,14.463 -21.129,19.51 1.07,7.657 19.085,11.655 39.944,16.287 26.198,5.816 55.892,12.408 59.402,28.455 2.406,10.993 -7.671,24.875 -30.806,42.436 -19.757,14.997 -28.339,26.773 -26.234,35.997 3.319,14.542 33.102,20.598 61.904,26.455 28.91,5.879 56.216,11.433 58.734,24.986 0.563,3.023 -0.176,6.35 -2.214,9.991 h -0.488 c 2.067,-3.625 2.822,-6.923 2.266,-9.91 -2.465,-13.259 -29.628,-18.783 -58.387,-24.631 -28.941,-5.886 -58.865,-11.971 -62.247,-26.791 -2.149,-9.413 6.487,-21.337 26.397,-36.45 22.984,-17.447 33.006,-31.182 30.643,-41.989 -3.45,-15.769 -32.997,-22.329 -59.067,-28.116 -21.021,-4.667 -39.175,-8.696 -40.287,-16.659 -0.734,-5.253 6.253,-11.783 21.358,-19.962 16,-8.664 24.772,-19.722 26.07,-32.869 1.837,-18.578 -11.219,-39.379 -28.386,-58.573 h 0.591 c 17.105,19.194 30.076,39.99 28.237,58.617"
         style="fill:#5565b9;fill-opacity:1;fill-rule:nonzero;stroke:none;stroke-width:0.1"
         id="path28005"
         clip-path="url(#clipPath28518)" />
      <path
         d="m 271.652,358.424 c -1.376,13.09 -9.919,24.007 -25.392,32.451 -14.516,7.92 -21.246,14.256 -20.573,19.367 1.033,7.848 18.945,12.186 39.685,17.212 26.051,6.311 55.578,13.465 59.089,29.913 2.381,11.148 -7.375,25.008 -29.822,42.371 -19.174,14.83 -27.478,26.591 -25.39,35.953 3.323,14.907 32.915,21.514 61.532,27.902 28.736,6.414 55.878,12.474 58.367,26.367 0.28,1.56 0.232,3.194 -0.141,4.901 h -0.447 c 0.375,-1.684 0.426,-3.291 0.151,-4.823 -2.437,-13.603 -29.438,-19.63 -58.027,-26.012 -28.752,-6.419 -58.483,-13.056 -61.868,-28.239 -2.13,-9.548 6.228,-21.454 25.552,-36.401 22.298,-17.248 31.999,-30.963 29.658,-41.927 -3.453,-16.175 -32.836,-23.294 -58.758,-29.575 -20.9,-5.064 -38.948,-9.435 -40.022,-17.585 -0.699,-5.314 6.105,-11.797 20.803,-19.816 15.336,-8.369 23.804,-19.172 25.163,-32.106 1.96,-18.65 -10.807,-39.791 -27.784,-59.465 h 0.58 c 16.918,19.674 29.609,40.813 27.644,59.512"
         style="fill:#68cef4;fill-opacity:1;fill-rule:nonzero;stroke:none;stroke-width:0.1"
         id="path28007"
         clip-path="url(#clipPath28512)" />
      <path
         d="m 268.416,359.291 c -1.431,12.867 -9.675,23.525 -24.501,31.678 -14.115,7.763 -20.667,14.051 -20.028,19.225 0.992,8.041 18.811,12.726 39.442,18.15 25.917,6.817 55.292,14.538 58.807,31.405 2.353,11.299 -7.085,25.138 -28.851,42.305 -18.596,14.666 -26.63,26.412 -24.561,35.91 3.329,15.282 32.742,22.445 61.186,29.373 28.411,6.917 55.251,13.456 57.979,27.524 h -0.453 c -2.767,-13.731 -29.419,-20.223 -57.63,-27.094 -28.578,-6.96 -58.128,-14.156 -61.518,-29.711 -2.107,-9.679 5.98,-21.569 24.723,-36.35 21.621,-17.053 31.006,-30.748 28.69,-41.867 -3.457,-16.597 -32.69,-24.284 -58.483,-31.066 -20.787,-5.465 -38.741,-10.185 -39.771,-18.525 -0.663,-5.375 5.963,-11.809 20.257,-19.668 14.69,-8.079 22.857,-18.623 24.272,-31.339 2.08,-18.708 -10.41,-40.182 -27.204,-60.33 h 0.572 c 16.738,20.148 29.157,41.622 27.072,60.38"
         style="fill:#99c3d6;fill-opacity:1;fill-rule:nonzero;stroke:none;stroke-width:0.1"
         id="path28009"
         clip-path="url(#clipPath28506)" />
      <path
         d="m 265.229,360.129 c -1.478,12.634 -9.427,23.032 -23.624,30.903 -13.719,7.606 -20.094,13.847 -19.492,19.08 0.95,8.24 18.684,13.275 39.218,19.107 25.795,7.328 55.033,15.63 58.546,32.922 2.326,11.45 -6.799,25.267 -27.895,42.241 -18.027,14.506 -25.794,26.236 -23.746,35.865 3.333,15.669 32.581,23.397 60.868,30.873 24.636,6.51 48.084,12.707 55.488,23.741 h -0.531 c -7.474,-10.735 -30.689,-16.87 -55.069,-23.313 -28.416,-7.507 -57.799,-15.271 -61.189,-31.207 -2.086,-9.809 5.732,-21.683 23.902,-36.302 20.953,-16.861 30.026,-30.536 27.737,-41.807 -3.46,-17.028 -32.559,-25.293 -58.232,-32.584 -20.687,-5.875 -38.555,-10.949 -39.538,-19.484 -0.626,-5.431 5.823,-11.816 19.719,-19.52 14.064,-7.798 21.936,-18.082 23.396,-30.567 2.194,-18.756 -10.023,-40.55 -26.637,-61.166 h 0.566 c 16.561,20.618 28.713,42.412 26.513,61.218"
         style="fill:#a0a6d4;fill-opacity:1;fill-rule:nonzero;stroke:none;stroke-width:0.1"
         id="path28011"
         clip-path="url(#clipPath28500)" />
      <path
         d="m 262.093,360.932 c -1.518,12.395 -9.179,22.531 -22.767,30.128 -13.328,7.452 -19.532,13.646 -18.966,18.933 0.905,8.443 18.563,13.835 39.009,20.082 25.686,7.847 54.801,16.737 58.315,34.47 2.296,11.594 -6.52,25.39 -26.955,42.175 -17.465,14.347 -24.97,26.064 -22.943,35.822 3.338,16.066 32.439,24.369 60.581,32.398 20.598,5.878 40.36,11.518 50.518,19.921 h -0.69 c -10.182,-8.147 -29.66,-13.704 -49.949,-19.493 -28.27,-8.066 -57.501,-16.406 -60.894,-32.734 -2.063,-9.935 5.49,-21.795 23.095,-36.254 20.298,-16.673 29.064,-30.329 26.802,-41.748 -3.463,-17.471 -32.442,-26.323 -58.01,-34.132 -20.598,-6.292 -38.385,-11.726 -39.321,-20.458 -0.588,-5.486 5.69,-11.821 19.191,-19.37 13.457,-7.524 21.041,-17.548 22.542,-29.795 2.304,-18.789 -9.652,-40.89 -26.086,-61.966 h 0.556 c 16.386,21.079 28.28,43.18 25.972,62.021"
         style="fill:#b6badd;fill-opacity:1;fill-rule:nonzero;stroke:none;stroke-width:0.1"
         id="path28013"
         clip-path="url(#clipPath28494)" />
      <path
         d="m 259.002,361.701 c -1.553,12.148 -8.931,22.024 -21.928,29.354 -12.942,7.301 -18.978,13.446 -18.448,18.786 0.854,8.649 18.448,14.408 38.819,21.075 25.591,8.375 54.599,17.869 58.114,36.053 2.268,11.737 -6.246,25.51 -26.03,42.111 -16.912,14.189 -24.158,25.891 -22.154,35.775 3.344,16.472 32.309,25.359 60.32,33.952 16.348,5.016 32.167,9.87 43.034,16.054 h -0.898 c -10.789,-5.97 -26.273,-10.722 -42.265,-15.629 -28.135,-8.632 -57.23,-17.557 -60.625,-34.288 -2.041,-10.058 5.254,-21.9 22.301,-36.203 19.651,-16.487 28.114,-30.123 25.88,-41.687 -3.465,-17.926 -32.339,-27.377 -57.815,-35.715 -20.519,-6.717 -38.239,-12.516 -39.123,-21.454 -0.548,-5.534 5.559,-11.819 18.67,-19.215 12.87,-7.258 20.173,-17.023 21.707,-29.024 2.404,-18.812 -9.295,-41.206 -25.554,-62.735 h 0.552 c 16.212,21.531 27.854,43.928 25.443,62.79"
         style="fill:#7d90d1;fill-opacity:1;fill-rule:nonzero;stroke:none;stroke-width:0.1"
         id="path28015"
         clip-path="url(#clipPath28488)" />
      <path
         d="m 255.959,362.437 c -1.58,11.893 -8.681,21.508 -21.104,28.579 -12.563,7.15 -18.431,13.245 -17.941,18.633 0.806,8.863 18.341,14.99 38.646,22.087 25.51,8.916 54.421,19.021 57.937,37.667 2.238,11.874 -5.978,25.626 -25.119,42.042 -16.366,14.037 -23.357,25.725 -21.374,35.732 3.349,16.89 32.194,26.369 60.09,35.537 12.006,3.947 23.726,7.8 33.393,12.147 h -1.085 c -9.465,-4.169 -20.822,-7.902 -32.449,-11.723 -28.016,-9.208 -56.987,-18.729 -60.385,-35.873 -2.018,-10.178 5.02,-22.004 21.519,-36.155 19.01,-16.304 27.179,-29.919 24.972,-41.623 -3.468,-18.394 -32.252,-28.454 -57.648,-37.329 -20.45,-7.148 -38.111,-13.319 -38.942,-22.466 -0.506,-5.582 5.435,-11.816 18.164,-19.061 12.297,-6.999 19.323,-16.504 20.885,-28.251 2.5,-18.82 -8.948,-41.495 -25.034,-63.469 h 0.542 c 16.044,21.975 27.44,44.655 24.933,63.526"
         style="fill:#6fd0e8;fill-opacity:1;fill-rule:nonzero;stroke:none;stroke-width:0.1"
         id="path28017"
         clip-path="url(#clipPath28482)" />
      <path
         d="m 252.961,363.135 c -1.601,11.632 -8.431,20.989 -20.303,27.809 -12.184,6.999 -17.89,13.045 -17.438,18.48 0.751,9.078 18.238,15.585 38.488,23.121 25.439,9.465 54.272,20.194 57.789,39.316 2.21,12.007 -5.712,25.735 -24.223,41.973 -15.829,13.886 -22.569,25.558 -20.606,35.684 3.354,17.318 32.092,27.401 59.883,37.153 7.75,2.719 15.38,5.398 22.412,8.19 h -1.206 c -6.734,-2.64 -13.99,-5.186 -21.354,-7.77 -27.909,-9.793 -56.768,-19.92 -60.172,-37.488 -1.993,-10.294 4.794,-22.103 20.752,-36.102 18.382,-16.124 26.257,-29.719 24.08,-41.558 -3.472,-18.875 -32.179,-29.558 -57.507,-38.981 -20.392,-7.586 -38.002,-14.14 -38.778,-23.499 -0.465,-5.624 5.311,-11.806 17.66,-18.903 11.747,-6.748 18.504,-15.994 20.085,-27.483 2.588,-18.816 -8.621,-41.758 -24.538,-64.166 h 0.538 c 15.874,22.41 27.034,45.357 24.438,64.224"
         style="fill:#acc1e8;fill-opacity:1;fill-rule:nonzero;stroke:none;stroke-width:0.1"
         id="path28019"
         clip-path="url(#clipPath28476)" />
      <path
         d="m 265.937,551.955 c -1.971,-10.407 4.57,-22.198 19.995,-36.048 17.761,-15.948 25.349,-29.52 23.198,-41.49 -3.479,-19.368 -32.123,-30.684 -57.397,-40.667 -20.344,-8.036 -37.913,-14.977 -38.629,-24.551 -0.424,-5.662 5.191,-11.794 17.167,-18.741 11.212,-6.504 17.707,-15.493 19.299,-26.719 2.671,-18.799 -8.304,-41.993 -24.055,-64.826 h 0.533 c 15.713,22.835 26.64,46.037 23.962,64.887 -1.614,11.367 -8.179,20.464 -19.516,27.04 -11.814,6.854 -17.358,12.848 -16.948,18.324 0.696,9.298 18.146,16.191 38.35,24.174 25.381,10.025 54.148,21.39 57.671,41.001 2.181,12.134 -5.455,25.84 -23.339,41.899 -15.3,13.737 -21.795,25.394 -19.857,35.636 3.361,17.754 32.003,28.453 59.705,38.799 3.752,1.401 7.475,2.793 11.114,4.19 h -1.241 c -3.293,-1.258 -6.649,-2.513 -10.029,-3.774 -27.814,-10.39 -56.576,-21.133 -59.983,-39.134"
         style="fill:#728fd1;fill-opacity:1;fill-rule:nonzero;stroke:none;stroke-width:0.1"
         id="path28021"
         clip-path="url(#clipPath28470)" />
      <path
         d="m 265.675,554.321 c -1.947,-10.517 4.351,-22.289 19.25,-35.993 17.151,-15.774 24.458,-29.323 22.336,-41.421 -3.489,-19.87 -32.083,-31.833 -57.312,-42.387 -20.307,-8.495 -37.845,-15.831 -38.499,-25.625 -0.383,-5.698 5.075,-11.775 16.683,-18.576 10.696,-6.268 16.932,-15.001 18.535,-25.957 2.743,-18.77 -8.004,-42.202 -23.589,-65.449 h 0.529 c 15.549,23.249 26.252,46.689 23.5,65.51 -1.622,11.098 -7.93,19.938 -18.752,26.279 -11.447,6.707 -16.832,12.648 -16.461,18.163 0.637,9.519 18.056,16.808 38.226,25.245 25.334,10.597 54.048,22.609 57.576,42.72 2.153,12.259 -5.198,25.939 -22.472,41.825 -14.779,13.592 -21.031,25.231 -19.114,35.586 3.37,18.203 31.935,29.528 59.558,40.48 0.119,0.047 0.238,0.095 0.357,0.142 h -1.205 c -27.52,-10.914 -55.758,-22.249 -59.146,-40.542"
         style="fill:#a8e3f0;fill-opacity:1;fill-rule:nonzero;stroke:none;stroke-width:0.1"
         id="path28023"
         clip-path="url(#clipPath28464)" />
      <path
         d="m 244.247,365.007 c -1.625,10.824 -7.683,19.412 -18.003,25.521 -11.087,6.564 -16.317,12.451 -15.989,17.998 0.579,9.748 17.975,17.438 38.121,26.341 25.301,11.182 53.978,23.856 57.515,44.478 2.123,12.377 -4.948,26.033 -21.617,41.748 -14.267,13.449 -20.281,25.072 -18.386,35.532 3,16.548 25.745,27.828 50.072,38.236 h -1.124 c -24.078,-10.343 -46.383,-21.609 -49.383,-38.156 -1.924,-10.62 4.133,-22.375 18.518,-35.935 16.552,-15.604 23.58,-29.13 21.484,-41.348 -3.496,-20.388 -32.056,-33.011 -57.255,-44.148 -20.278,-8.963 -37.792,-16.702 -38.387,-26.722 -0.337,-5.727 4.963,-11.749 16.208,-18.405 10.199,-6.039 16.185,-14.52 17.79,-25.205 2.81,-18.727 -7.718,-42.382 -23.14,-66.031 h 0.521 c 15.388,23.654 25.873,47.318 23.055,66.096"
         style="fill:#87a2da;fill-opacity:1;fill-rule:nonzero;stroke:none;stroke-width:0.1"
         id="path28025"
         clip-path="url(#clipPath28458)" />
      <path
         d="m 241.432,365.548 c -1.621,10.549 -7.434,18.886 -17.275,24.775 -10.732,6.422 -15.808,12.254 -15.52,17.828 0.514,9.979 17.899,18.08 38.032,27.46 25.279,11.778 53.929,25.127 57.479,46.274 2.097,12.491 -4.698,26.12 -20.776,41.667 -13.763,13.308 -19.542,24.912 -17.668,35.477 2.655,14.955 20.618,25.928 41.475,35.832 h -1.029 c -20.604,-9.852 -38.228,-20.806 -40.88,-35.755 -1.903,-10.72 3.918,-22.455 17.793,-35.874 15.966,-15.437 22.72,-28.938 20.65,-41.273 -3.513,-20.916 -32.051,-34.214 -57.231,-45.946 -20.259,-9.44 -37.758,-17.591 -38.288,-27.839 -0.298,-5.753 4.848,-11.717 15.736,-18.232 9.721,-5.818 15.463,-14.048 17.063,-24.463 2.869,-18.67 -7.441,-42.53 -22.702,-66.568 h 0.52 c 15.226,24.043 25.498,47.915 22.621,66.637"
         style="fill:#a0cddc;fill-opacity:1;fill-rule:nonzero;stroke:none;stroke-width:0.1"
         id="path28027"
         clip-path="url(#clipPath28452)" />
      <path
         d="m 238.657,366.045 c -1.612,10.276 -7.185,18.362 -16.563,24.038 -10.383,6.281 -15.308,12.057 -15.06,17.655 0.451,10.214 17.833,18.732 37.959,28.599 25.268,12.385 53.909,26.425 57.474,48.108 2.071,12.599 -4.451,26.199 -19.947,41.581 -13.271,13.173 -18.819,24.76 -16.963,35.423 2.348,13.497 16.535,23.993 34.108,33.412 h -0.934 c -17.338,-9.374 -31.265,-19.85 -33.612,-33.336 -1.882,-10.816 3.706,-22.53 17.086,-35.812 15.386,-15.273 21.868,-28.747 19.822,-41.194 -3.528,-21.458 -32.057,-35.443 -57.229,-47.783 -20.253,-9.927 -37.746,-18.503 -38.208,-28.978 -0.257,-5.775 4.741,-11.68 15.275,-18.055 9.261,-5.605 14.763,-13.587 16.356,-23.727 2.92,-18.6 -7.183,-42.651 -22.283,-67.065 h 0.51 c 15.072,24.419 25.138,48.481 22.209,67.134"
         style="fill:#5f7ec8;fill-opacity:1;fill-rule:nonzero;stroke:none;stroke-width:0.1"
         id="path28029"
         clip-path="url(#clipPath28446)" />
      <path
         d="m 235.926,366.501 c -1.601,10 -6.941,17.841 -15.872,23.308 -10.038,6.146 -14.818,11.862 -14.611,17.479 0.387,10.449 17.774,19.399 37.906,29.762 25.269,13.007 53.909,27.75 57.495,49.982 2.051,12.7 -4.209,26.273 -19.133,41.494 -12.783,13.036 -18.103,24.603 -16.266,35.36 2.076,12.154 13.272,22.059 27.865,30.974 h -0.847 c -14.389,-8.877 -25.385,-18.761 -27.457,-30.899 -1.862,-10.907 3.498,-22.6 16.388,-35.745 14.818,-15.113 21.038,-28.561 19.012,-41.114 -3.55,-22.01 -32.084,-36.698 -57.26,-49.657 -20.255,-10.426 -37.75,-19.432 -38.145,-30.142 -0.212,-5.791 4.635,-11.637 14.821,-17.872 8.818,-5.396 14.088,-13.134 15.666,-23.001 2.966,-18.517 -6.937,-42.742 -21.881,-67.518 h 0.51 c 14.914,24.781 24.78,49.017 21.809,67.589"
         style="fill:#60a4de;fill-opacity:1;fill-rule:nonzero;stroke:none;stroke-width:0.1"
         id="path28031"
         clip-path="url(#clipPath28440)" />
      <path
         d="m 264.932,566.421 c -1.846,-10.994 3.291,-22.664 15.699,-35.678 14.262,-14.955 20.22,-28.376 18.214,-41.028 -3.577,-22.575 -32.127,-37.981 -57.319,-51.573 -20.268,-10.937 -37.771,-20.384 -38.099,-31.331 -0.174,-5.804 4.528,-11.589 14.374,-17.686 8.389,-5.198 13.435,-12.695 14.996,-22.286 3,-18.425 -6.699,-42.804 -21.486,-67.927 h 0.506 c 14.76,25.128 24.427,49.521 21.419,67.999 -1.582,9.723 -6.695,17.324 -15.201,22.591 -9.7,6.008 -14.332,11.666 -14.165,17.296 0.318,10.692 17.72,20.083 37.868,30.953 25.281,13.641 53.935,29.102 57.545,51.895 2.029,12.798 -3.968,26.342 -18.332,41.404 -12.305,12.906 -17.402,24.452 -15.582,35.299 1.83,10.903 10.636,20.136 22.588,28.513 h -0.767 c -11.776,-8.344 -20.431,-17.556 -22.258,-28.441"
         style="fill:#5a71c0;fill-opacity:1;fill-rule:nonzero;stroke:none;stroke-width:0.1"
         id="path28033"
         clip-path="url(#clipPath28434)" />
      <path
         d="m 230.589,367.271 c -1.563,9.447 -6.456,16.811 -14.548,21.884 -9.367,5.874 -13.857,11.471 -13.728,17.11 0.25,10.936 17.672,20.776 37.846,32.167 25.303,14.291 53.983,30.488 57.623,53.849 2.011,12.892 -3.727,26.405 -17.543,41.314 -11.839,12.776 -16.717,24.301 -14.911,35.234 1.61,9.73 8.504,18.236 18.154,26.032 h -0.703 c -9.505,-7.766 -16.282,-16.248 -17.886,-25.96 -1.831,-11.077 3.084,-22.724 15.022,-35.607 13.717,-14.802 19.418,-28.196 17.431,-40.944 -3.612,-23.149 -32.191,-39.289 -57.405,-53.53 -20.291,-11.46 -37.814,-21.355 -38.072,-32.544 -0.135,-5.809 4.426,-11.532 13.936,-17.496 7.979,-5.004 12.806,-12.265 14.345,-21.58 2.673,-16.171 -4.459,-39.102 -21.201,-68.289 h 0.513 c 16.702,29.178 23.809,52.131 21.127,68.36"
         style="fill:#9ea0d8;fill-opacity:1;fill-rule:nonzero;stroke:none;stroke-width:0.1"
         id="path28035"
         clip-path="url(#clipPath28428)" />
      <path
         d="m 264.891,571.404 c -1.818,-11.156 2.877,-22.78 14.356,-35.537 13.182,-14.653 18.632,-28.016 16.658,-40.854 -3.648,-23.736 -32.269,-40.626 -57.521,-55.528 -20.322,-11.993 -37.874,-22.351 -38.061,-33.779 -0.094,-5.811 4.323,-11.471 13.503,-17.301 7.587,-4.817 12.2,-11.846 13.715,-20.892 2.695,-16.089 -4.311,-39.116 -20.84,-68.601 h 0.507 c 16.49,29.475 23.474,52.528 20.771,68.676 -1.537,9.174 -6.218,16.303 -13.916,21.192 -9.039,5.739 -13.388,11.274 -13.296,16.918 0.182,11.181 17.634,21.479 37.841,33.404 25.338,14.953 54.055,31.902 57.735,55.845 1.995,12.978 -3.489,26.461 -16.767,41.218 -11.381,12.651 -16.042,24.155 -14.248,35.169 1.404,8.621 6.758,16.356 14.424,23.528 h -0.646 c -7.548,-7.144 -12.815,-14.858 -14.215,-23.458"
         style="fill:#a4cadb;fill-opacity:1;fill-rule:nonzero;stroke:none;stroke-width:0.1"
         id="path28037"
         clip-path="url(#clipPath28422)" />
      <path
         d="m 278.623,538.468 c 12.661,-14.506 17.861,-27.84 15.898,-40.764 -3.693,-24.333 -32.367,-41.989 -57.666,-57.566 -20.364,-12.538 -37.95,-23.367 -38.067,-35.041 -0.057,-5.808 4.223,-11.402 13.082,-17.101 7.208,-4.638 11.616,-11.439 13.102,-20.214 2.709,-15.994 -4.189,-39.112 -20.503,-68.869 h 0.506 c 16.279,29.748 23.154,52.89 20.435,68.944 -1.507,8.903 -5.982,15.805 -13.3,20.513 -8.719,5.611 -12.932,11.08 -12.877,16.722 0.114,11.43 17.604,22.199 37.856,34.667 25.379,15.629 54.146,33.341 57.872,57.879 1.982,13.059 -3.252,26.511 -16.004,41.123 -10.933,12.527 -15.381,24.009 -13.596,35.1 1.216,7.56 5.325,14.497 11.299,21 h -0.598 c -5.882,-6.477 -9.927,-13.39 -11.14,-20.93 -1.806,-11.229 2.676,-22.829 13.701,-35.463"
         style="fill:#8abfd5;fill-opacity:1;fill-rule:nonzero;stroke:none;stroke-width:0.1"
         id="path28039"
         clip-path="url(#clipPath28416)" />
      <path
         d="m 222.878,368.073 c -1.476,8.635 -5.75,15.312 -12.704,19.848 -8.404,5.482 -12.481,10.886 -12.459,16.522 0.043,11.679 17.58,22.931 37.885,35.958 25.434,16.317 54.263,34.814 58.041,59.954 1.974,13.139 -3.014,26.558 -15.252,41.027 -10.496,12.408 -14.736,23.868 -12.957,35.032 1.04,6.54 4.145,12.653 8.692,18.447 h -0.563 c -4.475,-5.768 -7.531,-11.857 -8.568,-18.377 -1.799,-11.3 2.473,-22.876 13.058,-35.389 12.149,-14.365 17.105,-27.67 15.152,-40.674 -3.748,-24.941 -32.488,-43.378 -57.843,-59.646 -20.415,-13.098 -38.044,-24.408 -38.089,-36.33 -0.022,-5.799 4.12,-11.326 12.661,-16.897 6.845,-4.463 11.053,-11.041 12.508,-19.548 2.717,-15.892 -4.069,-39.079 -20.172,-69.089 h 0.504 c 16.069,30.001 22.832,53.214 20.106,69.162"
         style="fill:#65cef5;fill-opacity:1;fill-rule:nonzero;stroke:none;stroke-width:0.1"
         id="path28041"
         clip-path="url(#clipPath28410)" />
      <path
         d="m 277.523,543.751 c 11.651,-14.228 16.366,-27.501 14.415,-40.581 -3.809,-25.56 -32.621,-44.796 -58.042,-61.768 -20.475,-13.669 -38.158,-25.475 -38.131,-37.645 0.011,-5.785 4.02,-11.244 12.25,-16.686 6.499,-4.299 10.515,-10.658 11.934,-18.903 2.718,-15.779 -3.953,-39.017 -19.846,-69.256 h 0.499 c 15.862,30.232 22.512,53.496 19.785,69.333 -1.441,8.368 -5.522,14.827 -12.127,19.196 -8.098,5.357 -12.04,10.692 -12.051,16.318 -0.025,11.931 17.564,23.675 37.934,37.274 25.498,17.024 54.397,36.317 58.237,62.073 1.969,13.21 -2.777,26.599 -14.513,40.928 -10.068,12.294 -14.099,23.73 -12.327,34.965 0.875,5.549 3.169,10.816 6.523,15.863 h -0.532 c -3.299,-5.021 -5.555,-10.267 -6.427,-15.795 -1.797,-11.367 2.267,-22.918 12.419,-35.316"
         style="fill:#7286cc;fill-opacity:1;fill-rule:nonzero;stroke:none;stroke-width:0.1"
         id="path28043"
         clip-path="url(#clipPath28404)" />
      <path
         d="m 277.038,546.434 c 11.164,-14.095 15.644,-27.339 13.693,-40.492 -3.88,-26.186 -32.78,-46.238 -58.278,-63.93 -20.544,-14.253 -38.285,-26.563 -38.187,-38.979 0.045,-5.768 3.92,-11.158 11.847,-16.476 6.167,-4.137 9.997,-10.284 11.381,-18.268 2.712,-15.655 -3.862,-38.934 -19.547,-69.376 h 0.497 c 15.653,30.434 22.208,53.739 19.486,69.45 -1.405,8.108 -5.295,14.353 -11.57,18.561 -7.796,5.231 -11.606,10.499 -11.651,16.11 -0.095,12.183 17.558,24.431 37.997,38.613 25.57,17.742 54.556,37.853 58.464,64.231 1.968,13.279 -2.541,26.635 -13.785,40.832 -9.65,12.182 -13.479,23.596 -11.706,34.896 0.719,4.584 2.36,8.992 4.736,13.256 h -0.509 c -2.334,-4.24 -3.95,-8.625 -4.666,-13.187 -1.793,-11.429 2.067,-22.957 11.798,-35.241"
         style="fill:#abc0e8;fill-opacity:1;fill-rule:nonzero;stroke:none;stroke-width:0.1"
         id="path28045"
         clip-path="url(#clipPath28398)" />
      <path
         d="m 276.601,549.146 c 10.69,-13.966 14.936,-27.18 12.984,-40.4 -3.963,-26.825 -32.958,-47.709 -58.541,-66.135 -20.621,-14.853 -38.43,-27.68 -38.264,-40.349 0.076,-5.744 3.822,-11.06 11.45,-16.257 5.85,-3.983 9.499,-9.922 10.843,-17.652 2.699,-15.521 -3.774,-38.819 -19.249,-69.44 h 0.495 c 15.447,30.616 21.899,53.94 19.19,69.518 -1.366,7.852 -5.077,13.888 -11.03,17.943 -7.501,5.108 -11.182,10.308 -11.256,15.896 -0.164,12.439 17.558,25.202 38.079,39.983 25.653,18.476 54.729,39.419 58.72,66.428 1.972,13.346 -2.305,26.67 -13.069,40.737 -9.242,12.075 -12.871,23.468 -11.097,34.83 0.568,3.634 1.689,7.167 3.276,10.614 h -0.488 c -1.557,-3.424 -2.663,-6.935 -3.226,-10.547 -1.795,-11.488 1.863,-22.992 11.183,-35.169"
         style="fill:#96c6d7;fill-opacity:1;fill-rule:nonzero;stroke:none;stroke-width:0.1"
         id="path28047"
         clip-path="url(#clipPath28392)" />
      <path
         d="m 213.123,368.446 c -1.325,7.6 -4.862,13.433 -10.511,17.338 -7.212,4.99 -10.765,10.118 -10.867,15.681 -0.233,12.693 17.568,25.986 38.18,41.378 36.579,27.317 82.103,61.313 46.643,109.314 -8.842,11.972 -12.278,23.343 -10.498,34.764 0.421,2.695 1.131,5.34 2.099,7.94 h -0.474 c -0.947,-2.577 -1.646,-5.199 -2.062,-7.871 -1.8,-11.545 1.661,-23.024 10.579,-35.097 15.655,-21.193 16.877,-41.436 3.729,-61.886 -11.447,-17.808 -32.079,-33.215 -50.281,-46.808 -20.709,-15.464 -38.594,-28.821 -38.358,-41.742 0.104,-5.717 3.722,-10.963 11.06,-16.039 5.547,-3.835 9.021,-9.573 10.326,-17.05 2.681,-15.379 -3.687,-38.677 -18.955,-69.457 h 0.494 c 15.238,30.776 21.588,54.098 18.896,69.535"
         style="fill:#69cff5;fill-opacity:1;fill-rule:nonzero;stroke:none;stroke-width:0.1"
         id="path28049"
         clip-path="url(#clipPath28386)" />
      <path
         d="m 200.766,385.161 c -6.933,4.869 -10.365,9.928 -10.491,15.461 -0.296,12.948 17.589,26.781 38.298,42.799 36.505,28.234 81.937,63.372 47.655,111.506 -10.353,14.533 -12.266,27.702 -8.707,39.934 h -0.499 c -3.541,-12.3 -1.584,-25.551 8.843,-40.192 34.035,-47.785 -11.209,-82.779 -47.564,-110.897 -20.805,-16.09 -38.772,-29.987 -38.47,-43.16 0.13,-5.686 3.623,-10.856 10.678,-15.814 16.344,-11.483 13.346,-40.361 -8.844,-85.887 h 0.497 c 9.175,18.848 15.123,34.947 17.697,47.961 3.676,18.584 0.616,31.466 -9.093,38.289"
         style="fill:#7fd5eb;fill-opacity:1;fill-rule:nonzero;stroke:none;stroke-width:0.1"
         id="path28051"
         clip-path="url(#clipPath28380)" />
      <path
         d="m 275.564,557.48 c 32.888,-47.945 -12.293,-84.097 -48.594,-113.146 -20.909,-16.732 -38.967,-31.181 -38.6,-44.605 0.154,-5.648 3.525,-10.747 10.302,-15.587 15.732,-11.237 12.676,-39.883 -9.048,-85.229 h 0.535 c 18.653,38.939 26.945,72.608 8.771,85.589 -6.658,4.755 -9.966,9.74 -10.117,15.239 -0.361,13.205 17.618,27.59 38.434,44.248 36.445,29.163 81.804,65.458 48.684,113.744 -9.143,13.327 -11.339,25.605 -8.827,37.128 h -0.487 c -2.499,-11.592 -0.264,-23.949 8.947,-37.381"
         style="fill:#5e9cda;fill-opacity:1;fill-rule:nonzero;stroke:none;stroke-width:0.1"
         id="path28053"
         clip-path="url(#clipPath28374)" />
      <path
         d="m 197.106,383.807 c -6.388,4.642 -9.577,9.552 -9.749,15.012 -0.421,13.461 17.658,28.412 38.59,45.724 36.403,30.103 81.704,67.57 49.734,116.027 -8.021,12.159 -10.389,23.521 -8.767,34.291 h -0.477 c -1.613,-10.838 0.787,-22.28 8.874,-34.537 31.752,-48.124 -13.38,-85.449 -49.647,-115.441 -21.023,-17.385 -39.179,-32.402 -38.751,-46.08 0.177,-5.607 3.425,-10.63 9.933,-15.356 15.135,-10.995 12.004,-39.409 -9.249,-84.536 h 0.537 c 18.321,38.897 26.42,72.223 8.972,84.896"
         style="fill:#a8aed7;fill-opacity:1;fill-rule:nonzero;stroke:none;stroke-width:0.1"
         id="path28055"
         clip-path="url(#clipPath28368)" />
      <path
         d="m 195.303,383.074 c -6.129,4.531 -9.201,9.367 -9.391,14.785 -0.481,13.716 17.704,29.245 38.762,47.227 36.371,31.057 81.636,69.71 50.805,118.358 -6.983,11.018 -9.428,21.445 -8.547,31.417 h -0.469 c -0.874,-10.039 1.6,-20.545 8.642,-31.654 30.625,-48.323 -14.478,-86.837 -50.718,-117.784 -21.146,-18.055 -39.408,-33.651 -38.918,-47.579 0.195,-5.563 3.325,-10.509 9.57,-15.128 14.558,-10.76 11.362,-38.923 -9.434,-83.805 h 0.534 c 17.989,38.825 25.901,71.79 9.164,84.163"
         style="fill:#b0c4e9;fill-opacity:1;fill-rule:nonzero;stroke:none;stroke-width:0.1"
         id="path28057"
         clip-path="url(#clipPath28362)" />
    </g>
  </g>
</svg>
